<?xml version="1.0" encoding="utf-8"?>
<!-- Generator: Adobe Illustrator 24.1.2, SVG Export Plug-In . SVG Version: 6.00 Build 0)  -->
<svg version="1.1" id="Layer_1" xmlns="http://www.w3.org/2000/svg" xmlns:xlink="http://www.w3.org/1999/xlink" x="0px" y="0px"
	 viewBox="0 0 144 144" style="enable-background:new 0 0 144 144;" xml:space="preserve">
<style type="text/css">
	.st0{clip-path:url(#SVGID_2_);fill:#BFD37B;}
</style>
<g>
	<defs>
		<rect id="SVGID_1_" x="55.1" y="32" width="35.25" height="88.13"/>
	</defs>
	<clipPath id="SVGID_2_">
		<use xlink:href="#SVGID_1_"  style="overflow:visible;"/>
	</clipPath>
	<path class="st0" d="M87.41,68.01c0,0.78-0.31,1.53-0.86,2.08c-2.29,2.29-2.3,6.01,0,8.31c0.55,0.55,0.86,1.3,0.86,2.08v0.76
		c0,0.78-0.31,1.53-0.86,2.08c-2.29,2.29-2.3,6.01,0,8.31c0.55,0.55,0.86,1.3,0.86,2.08v0.76c0,0.78-0.31,1.53-0.86,2.08
		c-2.29,2.3-2.29,6.01,0,8.31c0.55,0.55,0.86,1.3,0.86,2.08v6.79c0,1.93-1.56,3.49-3.49,3.49h-22.4c-1.93,0-3.49-1.56-3.49-3.49
		v-6.79c0-0.78,0.31-1.53,0.86-2.08c2.29-2.3,2.29-6.01,0-8.31c-0.55-0.55-0.86-1.3-0.86-2.08v-0.76c0-0.78,0.31-1.52,0.86-2.08
		c2.29-2.3,2.29-6.01,0-8.31c-0.55-0.55-0.86-1.3-0.86-2.08v-0.76c0-0.78,0.31-1.53,0.86-2.08c2.29-2.3,2.29-6.01,0-8.31
		c-0.55-0.55-0.86-1.3-0.86-2.08v-6.63c0-0.35,0.05-0.69,0.07-1.03l1.26-0.56c3.83-1.7,8.2-1.7,12.03,0c4.59,2.03,9.82,2.03,14.41,0
		l1.43-0.64c0,0.03,0.01,0.05,0.02,0.08c0.01,0.11,0.02,0.21,0.04,0.32c0.08,0.6,0.12,1.22,0.13,1.82V68.01z M66.05,48.3
		c0.49-0.25,0.8-0.76,0.8-1.31v-3.25H78.6V47c0,0.55,0.31,1.06,0.8,1.31c3.27,1.67,5.8,4.52,7.07,7.97l-1.85,0.82
		c-3.83,1.7-8.2,1.7-12.03,0c-4.39-1.94-9.37-2.02-13.82-0.23C59.96,53.16,62.58,50.08,66.05,48.3 M66.85,35.62
		c0-0.38,0.3-0.68,0.68-0.68h10.38c0.38,0,0.68,0.3,0.69,0.68v5.19H66.85V35.62z M88.63,85.38c1.11-1.1,1.72-2.6,1.72-4.15v-0.76
		c0-1.2-0.37-2.37-1.07-3.36c-0.19-0.29-0.41-0.55-0.65-0.8c-0.98-0.99-1.14-2.53-0.38-3.69c0.11-0.17,0.24-0.32,0.38-0.46
		c1.11-1.1,1.72-2.6,1.72-4.15v-6.63c0.01-6.3-3.35-12.12-8.81-15.25v-2.37c0.81,0,1.47-0.66,1.47-1.47c0-0.81-0.66-1.47-1.47-1.47
		v-5.19c0-2-1.62-3.62-3.62-3.62H67.53c-2,0-3.62,1.62-3.62,3.62v5.19c-0.81,0-1.47,0.66-1.47,1.47c0,0.81,0.66,1.47,1.47,1.47v2.37
		c-4.78,2.75-7.99,7.58-8.67,13.05c-0.1,0.73-0.14,1.47-0.15,2.2v6.63c0,1.56,0.62,3.05,1.72,4.15c0.14,0.14,0.27,0.3,0.38,0.46
		c0.76,1.16,0.61,2.71-0.38,3.69c-0.24,0.25-0.46,0.51-0.65,0.8c-0.69,0.98-1.07,2.16-1.07,3.36v0.76c0,1.56,0.62,3.05,1.72,4.15
		c0.14,0.14,0.27,0.3,0.38,0.46c0.76,1.17,0.61,2.71-0.38,3.69c-0.24,0.25-0.46,0.51-0.65,0.8c-0.69,0.98-1.07,2.16-1.07,3.36v0.76
		c0,1.56,0.62,3.05,1.72,4.15c1.15,1.15,1.15,3.01,0,4.15l0,0c-1.11,1.1-1.72,2.59-1.72,4.15v6.79c0,3.55,2.88,6.42,6.43,6.43h22.4
		c3.55,0,6.42-2.88,6.43-6.43v-6.79c0-1.2-0.37-2.38-1.07-3.36c-0.19-0.28-0.41-0.55-0.65-0.8c-0.98-0.99-1.14-2.53-0.38-3.69
		c0.11-0.16,0.24-0.32,0.38-0.46c1.11-1.1,1.72-2.59,1.72-4.15v-0.76c0-1.2-0.37-2.37-1.07-3.36c-0.19-0.28-0.41-0.55-0.65-0.8
		c-0.98-0.99-1.14-2.53-0.38-3.69C88.36,85.68,88.49,85.52,88.63,85.38"/>
</g>
</svg>
