<?xml version="1.0" encoding="utf-8"?>
<!-- Generator: Adobe Illustrator 24.1.2, SVG Export Plug-In . SVG Version: 6.00 Build 0)  -->
<svg version="1.1" id="Layer_1" xmlns="http://www.w3.org/2000/svg" xmlns:xlink="http://www.w3.org/1999/xlink" x="0px" y="0px"
	 viewBox="0 0 144 121" style="enable-background:new 0 0 144 121;" xml:space="preserve">
<style type="text/css">
	.st0{fill:#BFD37B;}
</style>
<path class="st0" d="M97.47,18.15H46.91c-0.84,0-1.53,0.69-1.53,1.53c0,0.06,0,0.12,0.01,0.18l7.58,65.72
	c0.09,0.77,0.74,1.35,1.52,1.35h35.39c0.78,0,1.43-0.58,1.52-1.35l7.58-65.73c0.05-0.44-0.09-0.87-0.38-1.2
	C98.32,18.34,97.91,18.15,97.47,18.15z M88.52,83.88H55.86l-5.17-44.82l0.98-0.44c6.62-2.94,14.21-2.94,20.83,0
	c6.2,2.75,13.2,3.2,19.71,1.29l1.45-0.43L88.52,83.88z M94.04,35.98l-0.56,0.22c-3.01,1.19-6.22,1.79-9.43,1.79
	c-3.53,0-7.07-0.72-10.33-2.16c-7-3.09-15.1-3.24-22.21-0.42l-1.21,0.48L48.63,21.2h47.13L94.04,35.98z"/>
</svg>
