<?xml version="1.0" encoding="utf-8"?>
<!-- Generator: Adobe Illustrator 24.1.2, SVG Export Plug-In . SVG Version: 6.00 Build 0)  -->
<svg version="1.1" id="Layer_1" xmlns="http://www.w3.org/2000/svg" xmlns:xlink="http://www.w3.org/1999/xlink" x="0px" y="0px"
	 viewBox="0 0 144 144" style="enable-background:new 0 0 144 144;" xml:space="preserve">
<style type="text/css">
	.st0{clip-path:url(#SVGID_2_);fill:#BFD37B;}
</style>
<g>
	<defs>
		<rect id="SVGID_1_" x="49.47" y="31.19" width="51.53" height="89.07"/>
	</defs>
	<clipPath id="SVGID_2_">
		<use xlink:href="#SVGID_1_"  style="overflow:visible;"/>
	</clipPath>
	<path class="st0" d="M71,83.17h-6.93c-0.72,0-1.3,0.58-1.3,1.3s0.58,1.3,1.3,1.3H71c0.72,0,1.3-0.58,1.3-1.3S71.72,83.17,71,83.17"
		/>
	<path class="st0" d="M71,89.6h-6.93c-0.72,0-1.3,0.58-1.3,1.3c0,0.72,0.58,1.3,1.3,1.3H71c0.72,0,1.3-0.58,1.3-1.3
		C72.3,90.18,71.72,89.6,71,89.6"/>
	<path class="st0" d="M71,96.02h-6.93c-0.72,0-1.3,0.58-1.3,1.3c0,0.72,0.58,1.3,1.3,1.3H71c0.72,0,1.3-0.58,1.3-1.3
		C72.3,96.6,71.72,96.02,71,96.02"/>
	<path class="st0" d="M71,102.44h-6.93c-0.72,0-1.3,0.58-1.3,1.3s0.58,1.3,1.3,1.3H71c0.72,0,1.3-0.58,1.3-1.3
		S71.72,102.44,71,102.44"/>
	<path class="st0" d="M75.81,78.87v29.54c0,0.56-0.45,1.01-1.01,1.01H60.27c-0.56,0-1.01-0.45-1.01-1.01V78.87
		c0-0.56,0.45-1.01,1.01-1.01H74.8C75.36,77.86,75.81,78.31,75.81,78.87 M60.27,75.25c-1.99,0-3.62,1.62-3.62,3.62v29.54
		c0,1.99,1.62,3.62,3.62,3.62H74.8c2,0,3.62-1.62,3.62-3.62V78.87c0-2-1.62-3.62-3.62-3.62H60.27z"/>
	<path class="st0" d="M97.73,71.62c-1.06,0.81-3.56,0-5.46-2.47c-1.49-1.94-4.92-7.74-6.67-11.75v-2.33
		c3.17,2.14,9.17,8.04,11.16,10.63C98.65,68.18,98.79,70.81,97.73,71.62 M52.07,53.86v-2.55h3.76c0.72,0,1.3-0.58,1.3-1.3
		c0-0.72-0.58-1.3-1.3-1.3h-3.76v-4.3c0-0.76,0.52-1.42,1.26-1.59l8.56-2.05c3.69-0.88,7.6-0.88,11.29,0l8.56,2.05
		c0.74,0.18,1.26,0.83,1.26,1.59v4.3H61.94c-0.72,0-1.31,0.58-1.31,1.3c0,0.72,0.58,1.3,1.31,1.3h21.05v2.55H52.07z M64.91,33.8
		h5.25v3.83c-1.75-0.17-3.51-0.17-5.25,0V33.8z M98.83,64.13c-2.11-2.75-9.71-10.4-13.23-12.07v-7.65c0-1.97-1.34-3.67-3.26-4.13
		c-8.97-2.14-8.52-2.06-9.57-2.27V33.8h0.21c0.72,0,1.3-0.58,1.3-1.31c0-0.72-0.58-1.3-1.3-1.3H62.09c-0.72,0-1.3,0.58-1.3,1.3
		c0,0.72,0.58,1.3,1.3,1.3h0.21v4.21c-1.04,0.2-0.61,0.13-9.57,2.27c-1.92,0.46-3.26,2.16-3.26,4.13v14.05
		c0,1.76,0.95,3.39,2.47,4.27c0.72,0.41,1.16,1.18,1.16,2.01v2.61c0,0.83-0.45,1.59-1.16,2.01c-1.52,0.88-2.47,2.51-2.47,4.27v40.66
		c0,3.3,2.68,5.98,5.98,5.98h24.17c3.3,0,5.98-2.68,5.98-5.98V98.94c0-0.72-0.58-1.3-1.3-1.3c-0.72,0-1.3,0.58-1.3,1.3v15.33
		c0,1.86-1.51,3.37-3.37,3.37H55.45c-1.86,0-3.37-1.51-3.37-3.37V73.62c0-0.82,0.45-1.59,1.16-2.01c1.52-0.87,2.47-2.51,2.47-4.27
		v-2.61c0-1.76-0.95-3.39-2.47-4.27c-0.72-0.41-1.16-1.18-1.16-2.01v-1.98h30.92v1.98c0,0.83-0.45,1.59-1.16,2.01
		c-1.52,0.87-2.47,2.51-2.47,4.27v2.61c0,1.76,0.95,3.39,2.47,4.27c0.72,0.41,1.16,1.18,1.16,2.01v27.08c0,0.72,0.58,1.31,1.3,1.31
		c0.72,0,1.3-0.58,1.3-1.31V73.62c0-1.76-0.95-3.39-2.47-4.27c-0.71-0.41-1.16-1.18-1.16-2.01v-2.61c0-0.83,0.45-1.59,1.16-2.01
		c0.59-0.34,1.09-0.79,1.49-1.32c1.31,2.56,3.96,7.22,5.59,9.34c2.31,3.01,6.39,5.04,9.11,2.95
		C101.74,71.84,101.52,67.63,98.83,64.13"/>
</g>
</svg>
