<?xml version="1.0" encoding="utf-8"?>
<!-- Generator: Adobe Illustrator 24.1.2, SVG Export Plug-In . SVG Version: 6.00 Build 0)  -->
<svg version="1.1" xmlns="http://www.w3.org/2000/svg" xmlns:xlink="http://www.w3.org/1999/xlink" x="0px" y="0px"
	 viewBox="0 0 746.9 137.7" style="enable-background:new 0 0 746.9 137.7;" xml:space="preserve">
<style type="text/css">
	.st0{fill:#CCEAEE;}
	.st1{clip-path:url(#SVGID_2_);fill:#69C2CF;}
	.st2{fill:none;}
	.st3{fill:#FFFFFF;}
	.st4{clip-path:url(#SVGID_4_);fill:#69C2CF;}
	.st5{clip-path:url(#SVGID_6_);fill:#69C2CF;}
	.st6{clip-path:url(#SVGID_8_);fill:#69C2CF;}
	.st7{clip-path:url(#SVGID_10_);fill:#69C2CF;}
	.st8{clip-path:url(#SVGID_12_);fill:#69C2CF;}
	.st9{clip-path:url(#SVGID_14_);fill:#69C2CF;}
</style>
<g id="Layer_1">
	<g>
		<g>
			<path class="st0" d="M175.7,38.7l20,32.3c0,0,5.9,31-22.2,29c-28-2-22.5-28-17.8-33.9S175.7,38.7,175.7,38.7z"/>
			<g>
				<defs>
					<rect id="SVGID_1_" x="147.7" y="30" width="54.6" height="75.1"/>
				</defs>
				<clipPath id="SVGID_2_">
					<use xlink:href="#SVGID_1_"  style="overflow:visible;"/>
				</clipPath>
				<path class="st1" d="M188.9,89.8c0,0-0.1,0.1-0.1,0.1c-0.1,0.1-0.1,0.1-0.1,0.2l-0.1,0.2l-0.1,0.1c-2.8,3-6.4,5-10.4,5.7
					c-0.8,0.1-1.6,0.2-2.5,0.2h-1.2c-0.8,0-1.7-0.1-2.6-0.2c-3.8-0.7-7.4-2.7-10.1-5.6c-3.5-3.8-5.4-8.8-5-13.8
					c0.2-3.6,1.8-6.6,3.1-8.9c0,0,2.5-4.1,2.9-4.6c3.3-5.5,6.8-11,10-16.1l1.6-2.5c0.2-0.3,0.5-0.4,0.8-0.4c0.3,0,0.6,0.2,0.8,0.4
					l1.6,2.5c2.9,4.6,6.4,10.1,9.7,15.6l0.4,0.7c3.6,6,7.8,12.8,4.7,21.1c-0.3,0.9-0.7,1.7-1.2,2.5
					C190.4,87.9,189.7,88.9,188.9,89.8 M201.4,77.8c0-0.5,0-1-0.1-1.6c0-0.1,0-0.2,0-0.3l0-0.2c-0.2-1.7-0.5-3.3-1-4.9
					c-1.6-5.3-4.7-10.3-8.1-15.5c-0.7-1.1-1.3-2.1-2-3.2c-3.2-5.1-4.7-7.3-8.1-12c-1.1-1.6-2.5-3.4-4.1-5.7l-1.9-2.7
					c-0.8-1.3-2.3-0.3-2.7,0.4c-1,1.5-1.7,2.4-3.1,4.3l-1.1,1.6c-4,5.6-7.7,11-11.4,17c-0.4,0.6-0.8,1.3-1.2,1.9l-0.1,0.1
					c-4.2,6.9-8.1,13.4-8.1,20.8c0,1.3,0.1,2.7,0.3,4c0.1,0.9,0.3,1.7,0.5,2.6c0.4,1.7,1,3.3,1.8,4.9c0.7,1.5,1.6,3,2.6,4.4
					c0.5,0.7,1.1,1.3,1.6,2c0.3,0.3,0.6,0.6,0.9,0.9c0.6,0.6,1.2,1.2,1.9,1.7c4.7,3.9,10.7,6,16.8,6c0.9,0,1.8-0.1,2.7-0.1
					c0.9-0.1,1.8-0.2,2.6-0.4c0.5-0.1,1-0.2,1.6-0.4c0.8-0.2,1.5-0.4,2.2-0.7c0.8-0.3,1.6-0.6,2.4-1c1.3-0.6,2.5-1.4,3.7-2.2
					c0.9-0.6,1.8-1.3,2.6-2.1c0.3-0.3,0.6-0.6,0.9-0.9c1.6-1.6,3-3.5,4.2-5.5c0.2-0.4,0.5-0.8,0.7-1.2
					C200.5,86.1,201.4,82,201.4,77.8"/>
			</g>
			<rect x="147.8" y="30" class="st2" width="54.6" height="75.1"/>
			<path class="st3" d="M175.6,97.1h-1.2c-0.9,0-1.9-0.1-2.7-0.2c-4-0.7-7.8-2.8-10.7-5.9c-3.7-4-5.7-9.3-5.3-14.5
				c0.2-3.7,1.8-6.8,3.2-9.4c0,0,1.6-2.5,1.8-2.9c0,0,0.8-1.2,1.1-1.7c3.4-5.6,6.8-11,10-16.1l1.6-2.5c0.4-0.6,1-0.9,1.7-0.9
				c0.6,0,1.3,0.3,1.6,0.9l1.6,2.5c2.5,3.9,6.2,9.8,9.7,15.6l0.4,0.7c3.8,6.2,8,13.2,4.8,22c-0.4,1-0.8,1.8-1.2,2.7
				c-0.6,1.1-1.3,2.1-2.1,3.1l0,0c0,0-0.1,0.1-0.2,0.2l-0.4,0.4c-2.9,3.1-6.8,5.2-11,5.9C177.3,97.1,176.4,97.1,175.6,97.1z M175,45
				l-1.5,2.5c-3.2,5-6.6,10.5-10,16c-0.3,0.5-1.1,1.7-1.1,1.7c-0.2,0.4-1.8,2.9-1.8,2.9c-1.3,2.3-2.7,5.2-2.9,8.5
				c-0.3,4.7,1.4,9.4,4.8,13c2.6,2.8,6,4.6,9.5,5.3c0.7,0.1,1.5,0.2,2.4,0.2h1.2c0.8,0,1.6-0.1,2.3-0.2c3.7-0.6,7.2-2.5,9.8-5.4
				l0.1-0.1c0.1-0.1,0.2-0.2,0.3-0.3l0.1-0.1c0.7-0.9,1.4-1.8,1.9-2.8c0.4-0.7,0.8-1.5,1.1-2.4c2.9-7.8-1.1-14.4-4.6-20.2l-0.4-0.7
				c-3.5-5.8-7.2-11.7-9.6-15.5L175,45z M188.4,89C188.4,89,188.4,89,188.4,89L188.4,89z"/>
			<path class="st3" d="M175.8,105.1h-1.7c-1.3,0-2.6-0.1-3.8-0.3c-5.6-1-10.8-4-14.8-8.2c-5.2-5.6-7.9-13-7.4-20.2
				c0.3-5.1,2.5-9.5,4.5-13c0,0,2.2-3.6,2.5-4.1c0,0,1.1-1.7,1.5-2.4c4.8-7.9,9.6-15.6,14.1-22.7l1.3-1.9c0.7-1,1.8-1.6,2.9-1.6
				c0,0,0,0,0,0c1.2,0,2.3,0.6,2.9,1.6l1,1.6c3.9,6.1,9.1,14.4,13.9,22.3l0.6,1c5.3,8.7,11.2,18.5,6.8,30.7
				c-0.5,1.4-1.1,2.6-1.7,3.7c-0.8,1.5-1.9,3-3,4.4c0,0,0,0,0,0c0,0.1-0.1,0.2-0.2,0.3c0,0,0,0.1-0.1,0.1l-0.4,0.4
				c-4,4.4-9.5,7.3-15.3,8.3C178.3,105,177.1,105.1,175.8,105.1z M175,32.5c-0.5,0-1,0.2-1.3,0.7l-1.2,1.9
				c-4.5,7.1-9.3,14.8-14.1,22.7c-0.5,0.8-1.5,2.5-1.5,2.5c-0.3,0.6-2.5,4.1-2.5,4.1c-1.9,3.3-3.9,7.4-4.2,12.2
				c-0.5,6.7,2,13.6,6.8,18.7c3.7,4,8.6,6.7,13.7,7.6c1.1,0.2,2.2,0.2,3.4,0.2h1.7c1.1,0,2.3-0.1,3.3-0.2c5.4-0.9,10.4-3.6,14.2-7.7
				l0.3-0.3c0.1-0.2,0.2-0.3,0.3-0.4c0,0,0.1-0.1,0.1-0.1c0,0,0,0,0,0l0,0c1.1-1.3,2-2.7,2.8-4.1c0.6-1,1.1-2.2,1.6-3.4
				c4.1-11.2-1.6-20.6-6.6-28.9l-0.6-1c-4.7-7.8-10-16.2-13.9-22.3l-1-1.6C176,32.7,175.6,32.5,175,32.5C175,32.5,175,32.5,175,32.5
				z M195.3,95.9C195.3,95.9,195.3,95.9,195.3,95.9C195.3,95.9,195.3,95.9,195.3,95.9z M194.7,95.1L194.7,95.1L194.7,95.1z
				 M194.1,94.3L194.1,94.3L194.1,94.3z M194.1,94.3C194.1,94.3,194.1,94.3,194.1,94.3C194.1,94.3,194.1,94.3,194.1,94.3z"/>
		</g>
		<g>
			<path class="st0" d="M242.1,38.7l20,32.3c0,0,5.9,31-22.2,29c-28-2-22.5-28-17.8-33.9C226.9,60.2,242.1,38.7,242.1,38.7z"/>
			<g>
				<defs>
					<rect id="SVGID_3_" x="214" y="30" width="54.6" height="75.1"/>
				</defs>
				<clipPath id="SVGID_4_">
					<use xlink:href="#SVGID_3_"  style="overflow:visible;"/>
				</clipPath>
				<path class="st4" d="M255.3,89.8c0,0-0.1,0.1-0.1,0.1c-0.1,0.1-0.1,0.1-0.1,0.2l-0.1,0.2l-0.1,0.1c-2.8,3-6.4,5-10.4,5.7
					c-0.8,0.1-1.6,0.2-2.5,0.2h-1.2c-0.8,0-1.7-0.1-2.6-0.2c-3.8-0.7-7.4-2.7-10.1-5.6c-3.5-3.8-5.4-8.8-5-13.8
					c0.2-3.6,1.8-6.6,3.1-8.9c0,0,2.5-4.1,2.9-4.6c3.3-5.5,6.8-11,10-16.1l1.6-2.5c0.2-0.3,0.5-0.4,0.8-0.4c0.3,0,0.6,0.2,0.8,0.4
					l1.6,2.5c2.9,4.6,6.4,10.1,9.7,15.6l0.4,0.7c3.6,6,7.8,12.8,4.7,21.1c-0.3,0.9-0.7,1.7-1.2,2.5C256.7,87.9,256,88.9,255.3,89.8
					 M267.8,77.8c0-0.5,0-1-0.1-1.6c0-0.1,0-0.2,0-0.3l0-0.2c-0.2-1.7-0.5-3.3-1-4.9c-1.6-5.3-4.7-10.3-8.1-15.5
					c-0.7-1.1-1.3-2.1-2-3.2c-3.2-5.1-4.7-7.3-8.1-12c-1.1-1.6-2.5-3.4-4.1-5.7l-1.9-2.7c-0.8-1.3-2.3-0.3-2.7,0.4
					c-1,1.5-1.7,2.4-3.1,4.3l-1.1,1.6c-4,5.6-7.7,11-11.4,17c-0.4,0.6-0.8,1.3-1.2,1.9l-0.1,0.1c-4.2,6.9-8.1,13.4-8.1,20.8
					c0,1.3,0.1,2.7,0.3,4c0.1,0.9,0.3,1.7,0.5,2.6c0.4,1.7,1,3.3,1.8,4.9c0.7,1.5,1.6,3,2.6,4.4c0.5,0.7,1.1,1.3,1.6,2
					c0.3,0.3,0.6,0.6,0.9,0.9c0.6,0.6,1.2,1.2,1.9,1.7c4.7,3.9,10.7,6,16.8,6c0.9,0,1.8-0.1,2.7-0.1s1.8-0.2,2.6-0.4
					c0.5-0.1,1-0.2,1.6-0.4c0.8-0.2,1.5-0.4,2.2-0.7c0.8-0.3,1.6-0.6,2.4-1c1.3-0.6,2.5-1.4,3.7-2.2c0.9-0.6,1.8-1.3,2.6-2.1
					c0.3-0.3,0.6-0.6,0.9-0.9c1.6-1.6,3-3.5,4.2-5.5c0.2-0.4,0.5-0.8,0.7-1.2C266.8,86.1,267.8,82,267.8,77.8"/>
			</g>
			<rect x="214.2" y="30" class="st2" width="54.6" height="75.1"/>
			<path class="st3" d="M241.9,97.1h-1.2c-0.9,0-1.9-0.1-2.7-0.2c-4-0.7-7.8-2.8-10.7-5.9c-3.7-4-5.7-9.3-5.3-14.5
				c0.2-3.7,1.8-6.8,3.2-9.4c0,0,1.6-2.5,1.8-2.9c0,0,0.8-1.2,1.1-1.7c3.4-5.6,6.8-11,10-16.1l1.6-2.5c0.4-0.6,1-0.9,1.7-0.9
				c0.6,0,1.3,0.3,1.6,0.9l1.6,2.5c2.5,3.9,6.2,9.8,9.7,15.6l0.4,0.7c3.8,6.2,8,13.2,4.8,22c-0.4,1-0.8,1.8-1.2,2.7
				c-0.6,1.1-1.3,2.1-2.1,3.1l0,0c0,0-0.1,0.1-0.2,0.2l-0.4,0.4c-2.9,3.1-6.8,5.2-11,5.9C243.7,97.1,242.8,97.1,241.9,97.1z
				 M241.3,45l-1.5,2.5c-3.2,5-6.6,10.5-10,16c-0.3,0.5-1.1,1.7-1.1,1.7c-0.2,0.4-1.8,2.9-1.8,2.9c-1.3,2.3-2.7,5.2-2.9,8.5
				c-0.3,4.7,1.4,9.4,4.8,13c2.6,2.8,6,4.6,9.5,5.3c0.7,0.1,1.5,0.2,2.4,0.2h1.2c0.8,0,1.6-0.1,2.3-0.2c3.7-0.6,7.2-2.5,9.8-5.4
				l0.1-0.1c0.1-0.1,0.2-0.2,0.3-0.3l0.1-0.1c0.7-0.9,1.4-1.8,1.9-2.8c0.4-0.7,0.8-1.5,1.1-2.4c2.9-7.8-1.1-14.4-4.6-20.2l-0.4-0.7
				c-3.5-5.8-7.2-11.7-9.6-15.5L241.3,45z M254.7,89C254.7,89,254.7,89,254.7,89L254.7,89z"/>
			<path class="st3" d="M242.2,105.1h-1.7c-1.3,0-2.6-0.1-3.8-0.3c-5.6-1-10.8-4-14.8-8.2c-5.2-5.6-7.9-13-7.4-20.2
				c0.3-5.1,2.5-9.5,4.5-13c0,0,2.2-3.6,2.5-4.1c0,0,1.1-1.7,1.5-2.4c4.8-7.9,9.6-15.6,14.1-22.7l1.3-1.9c0.7-1,1.8-1.6,2.9-1.6
				c0,0,0,0,0,0c1.2,0,2.3,0.6,2.9,1.6l1,1.6c3.9,6.1,9.1,14.4,13.9,22.3l0.6,1c5.3,8.7,11.2,18.5,6.8,30.7
				c-0.5,1.4-1.1,2.6-1.7,3.7c-0.8,1.5-1.9,3-3,4.4c0,0,0,0,0,0c0,0.1-0.1,0.2-0.2,0.3c0,0,0,0.1-0.1,0.1l-0.4,0.4
				c-4,4.4-9.5,7.3-15.3,8.3C244.7,105,243.4,105.1,242.2,105.1z M241.4,32.5c-0.5,0-1,0.2-1.3,0.7l-1.2,1.9
				c-4.5,7.1-9.3,14.8-14.1,22.7c-0.5,0.8-1.5,2.5-1.5,2.5c-0.3,0.6-2.5,4.1-2.5,4.1c-1.9,3.3-3.9,7.4-4.2,12.2
				c-0.5,6.7,2,13.6,6.8,18.7c3.7,4,8.6,6.7,13.7,7.6c1.1,0.2,2.2,0.2,3.4,0.2h1.7c1.1,0,2.3-0.1,3.3-0.2c5.4-0.9,10.4-3.6,14.2-7.7
				l0.3-0.3c0.1-0.2,0.2-0.3,0.3-0.4c0,0,0.1-0.1,0.1-0.1c0,0,0,0,0,0l0,0c1.1-1.3,2-2.7,2.8-4.1c0.6-1,1.1-2.2,1.6-3.4
				c4.1-11.2-1.6-20.6-6.6-28.9l-0.6-1c-4.7-7.8-10-16.2-13.9-22.3l-1-1.6C242.4,32.7,241.9,32.5,241.4,32.5
				C241.4,32.5,241.4,32.5,241.4,32.5z M261.6,95.9C261.6,95.9,261.6,95.9,261.6,95.9C261.6,95.9,261.6,95.9,261.6,95.9z
				 M261.1,95.1L261.1,95.1L261.1,95.1z M260.5,94.3L260.5,94.3L260.5,94.3z M260.5,94.3C260.5,94.3,260.5,94.3,260.5,94.3
				C260.5,94.3,260.5,94.3,260.5,94.3z"/>
		</g>
		<g>
			<path class="st0" d="M308.4,38.7l20,32.3c0,0,5.9,31-22.2,29c-28-2-22.5-28-17.8-33.9S308.4,38.7,308.4,38.7z"/>
			<g>
				<defs>
					<rect id="SVGID_5_" x="280.4" y="30" width="54.6" height="75.1"/>
				</defs>
				<clipPath id="SVGID_6_">
					<use xlink:href="#SVGID_5_"  style="overflow:visible;"/>
				</clipPath>
				<path class="st5" d="M321.6,89.8c0,0-0.1,0.1-0.1,0.1c-0.1,0.1-0.1,0.1-0.1,0.2l-0.1,0.2l-0.1,0.1c-2.8,3-6.4,5-10.4,5.7
					c-0.8,0.1-1.6,0.2-2.5,0.2h-1.2c-0.8,0-1.7-0.1-2.6-0.2c-3.8-0.7-7.4-2.7-10.1-5.6c-3.5-3.8-5.4-8.8-5-13.8
					c0.2-3.6,1.8-6.6,3.1-8.9c0,0,2.5-4.1,2.9-4.6c3.3-5.5,6.8-11,10-16.1l1.6-2.5c0.2-0.3,0.5-0.4,0.8-0.4c0.3,0,0.6,0.2,0.8,0.4
					l1.6,2.5c2.9,4.6,6.4,10.1,9.7,15.6l0.4,0.7c3.6,6,7.8,12.8,4.7,21.1c-0.3,0.9-0.7,1.7-1.2,2.5
					C323.1,87.9,322.4,88.9,321.6,89.8 M334.1,77.8c0-0.5,0-1-0.1-1.6c0-0.1,0-0.2,0-0.3l0-0.2c-0.2-1.7-0.5-3.3-1-4.9
					c-1.6-5.3-4.7-10.3-8.1-15.5c-0.7-1.1-1.3-2.1-2-3.2c-3.2-5.1-4.7-7.3-8.1-12c-1.1-1.6-2.5-3.4-4.1-5.7l-1.9-2.7
					c-0.8-1.3-2.3-0.3-2.7,0.4c-1,1.5-1.7,2.4-3.1,4.3l-1.1,1.6c-4,5.6-7.7,11-11.4,17c-0.4,0.6-0.8,1.3-1.2,1.9l-0.1,0.1
					c-4.2,6.9-8.1,13.4-8.1,20.8c0,1.3,0.1,2.7,0.3,4c0.1,0.9,0.3,1.7,0.5,2.6c0.4,1.7,1,3.3,1.8,4.9c0.7,1.5,1.6,3,2.6,4.4
					c0.5,0.7,1.1,1.3,1.6,2c0.3,0.3,0.6,0.6,0.9,0.9c0.6,0.6,1.2,1.2,1.9,1.7c4.7,3.9,10.7,6,16.8,6c0.9,0,1.8-0.1,2.7-0.1
					s1.8-0.2,2.6-0.4c0.5-0.1,1-0.2,1.6-0.4c0.8-0.2,1.5-0.4,2.2-0.7c0.8-0.3,1.6-0.6,2.4-1c1.3-0.6,2.5-1.4,3.7-2.2
					c0.9-0.6,1.8-1.3,2.6-2.1c0.3-0.3,0.6-0.6,0.9-0.9c1.6-1.6,3-3.5,4.2-5.5c0.2-0.4,0.5-0.8,0.7-1.2
					C333.1,86.1,334.1,82,334.1,77.8"/>
			</g>
			<rect x="280.5" y="30" class="st2" width="54.6" height="75.1"/>
			<path class="st3" d="M308.3,97.1h-1.2c-0.9,0-1.9-0.1-2.7-0.2c-4-0.7-7.8-2.8-10.7-5.9c-3.7-4-5.7-9.3-5.3-14.5
				c0.2-3.7,1.8-6.8,3.2-9.4c0,0,1.6-2.5,1.8-2.9c0,0,0.8-1.2,1.1-1.7c3.4-5.6,6.8-11,10-16.1l1.6-2.5c0.4-0.6,1-0.9,1.7-0.9
				c0.6,0,1.3,0.3,1.6,0.9l1.6,2.5c2.5,3.9,6.2,9.8,9.7,15.6l0.4,0.7c3.8,6.2,8,13.2,4.8,22c-0.4,1-0.8,1.8-1.2,2.7
				c-0.6,1.1-1.3,2.1-2.1,3.1l0,0c0,0-0.1,0.1-0.2,0.2l-0.4,0.4c-2.9,3.1-6.8,5.2-11,5.9C310,97.1,309.1,97.1,308.3,97.1z M307.7,45
				l-1.5,2.5c-3.2,5-6.6,10.5-10,16c-0.3,0.5-1.1,1.7-1.1,1.7c-0.2,0.4-1.8,2.9-1.8,2.9c-1.3,2.3-2.7,5.2-2.9,8.5
				c-0.3,4.7,1.4,9.4,4.8,13c2.6,2.8,6,4.6,9.5,5.3c0.7,0.1,1.5,0.2,2.4,0.2h1.2c0.8,0,1.6-0.1,2.3-0.2c3.7-0.6,7.2-2.5,9.8-5.4
				l0.1-0.1c0.1-0.1,0.2-0.2,0.3-0.3l0.1-0.1c0.7-0.9,1.4-1.8,1.9-2.8c0.4-0.7,0.8-1.5,1.1-2.4c2.9-7.8-1.1-14.4-4.6-20.2l-0.4-0.7
				c-3.5-5.8-7.2-11.7-9.6-15.5L307.7,45z M321.1,89C321.1,89,321.1,89,321.1,89L321.1,89z"/>
			<path class="st3" d="M308.5,105.1h-1.7c-1.3,0-2.6-0.1-3.8-0.3c-5.6-1-10.8-4-14.8-8.2c-5.2-5.6-7.9-13-7.4-20.2
				c0.3-5.1,2.5-9.5,4.5-13c0,0,2.2-3.6,2.5-4.1c0,0,1.1-1.7,1.5-2.4c4.8-7.9,9.6-15.6,14.1-22.7l1.3-1.9c0.7-1,1.8-1.6,2.9-1.6
				c0,0,0,0,0,0c1.2,0,2.3,0.6,2.9,1.6l1,1.6c3.9,6.1,9.1,14.4,13.9,22.3l0.6,1c5.3,8.7,11.2,18.5,6.8,30.7
				c-0.5,1.4-1.1,2.6-1.7,3.7c-0.8,1.5-1.9,3-3,4.4c0,0,0,0,0,0c0,0.1-0.1,0.2-0.2,0.3c0,0,0,0.1-0.1,0.1l-0.4,0.4
				c-4,4.4-9.5,7.3-15.3,8.3C311,105,309.8,105.1,308.5,105.1z M307.7,32.5c-0.5,0-1,0.2-1.3,0.7l-1.2,1.9
				c-4.5,7.1-9.3,14.8-14.1,22.7c-0.5,0.8-1.5,2.5-1.5,2.5c-0.3,0.6-2.5,4.1-2.5,4.1c-1.9,3.3-3.9,7.4-4.2,12.2
				c-0.5,6.7,2,13.6,6.8,18.7c3.7,4,8.6,6.7,13.7,7.6c1.1,0.2,2.2,0.2,3.4,0.2h1.7c1.1,0,2.3-0.1,3.3-0.2c5.4-0.9,10.4-3.6,14.2-7.7
				l0.3-0.3c0.1-0.2,0.2-0.3,0.3-0.4c0,0,0.1-0.1,0.1-0.1c0,0,0,0,0,0l0,0c1.1-1.3,2-2.7,2.8-4.1c0.6-1,1.1-2.2,1.6-3.4
				c4.1-11.2-1.6-20.6-6.6-28.9l-0.6-1c-4.7-7.8-10-16.2-13.9-22.3l-1-1.6C308.7,32.7,308.3,32.5,307.7,32.5
				C307.7,32.5,307.7,32.5,307.7,32.5z M328,95.9C328,95.9,328,95.9,328,95.9C328,95.9,328,95.9,328,95.9z M327.4,95.1L327.4,95.1
				L327.4,95.1z M326.8,94.3L326.8,94.3L326.8,94.3z M326.8,94.3C326.8,94.3,326.8,94.3,326.8,94.3
				C326.8,94.3,326.8,94.3,326.8,94.3z"/>
		</g>
		<g>
			<path class="st0" d="M374.7,38.7l20,32.3c0,0,5.9,31-22.2,29c-28-2-22.5-28-17.8-33.9S374.7,38.7,374.7,38.7z"/>
			<g>
				<defs>
					<rect id="SVGID_7_" x="346.7" y="30" width="54.6" height="75.1"/>
				</defs>
				<clipPath id="SVGID_8_">
					<use xlink:href="#SVGID_7_"  style="overflow:visible;"/>
				</clipPath>
				<path class="st6" d="M388,89.8c0,0-0.1,0.1-0.1,0.1c-0.1,0.1-0.1,0.1-0.1,0.2l-0.1,0.2l-0.1,0.1c-2.8,3-6.4,5-10.4,5.7
					c-0.8,0.1-1.6,0.2-2.5,0.2h-1.2c-0.8,0-1.7-0.1-2.6-0.2c-3.8-0.7-7.4-2.7-10.1-5.6c-3.5-3.8-5.4-8.8-5-13.8
					c0.2-3.6,1.8-6.6,3.1-8.9c0,0,2.5-4.1,2.9-4.6c3.3-5.5,6.8-11,10-16.1l1.6-2.5c0.2-0.3,0.5-0.4,0.8-0.4c0.3,0,0.6,0.2,0.8,0.4
					l1.6,2.5c2.9,4.6,6.4,10.1,9.7,15.6l0.4,0.7c3.6,6,7.8,12.8,4.7,21.1c-0.3,0.9-0.7,1.7-1.2,2.5C389.4,87.9,388.7,88.9,388,89.8
					 M400.5,77.8c0-0.5,0-1-0.1-1.6c0-0.1,0-0.2,0-0.3l0-0.2c-0.2-1.7-0.5-3.3-1-4.9c-1.6-5.3-4.7-10.3-8.1-15.5
					c-0.7-1.1-1.3-2.1-2-3.2c-3.2-5.1-4.7-7.3-8.1-12c-1.1-1.6-2.5-3.4-4.1-5.7l-1.9-2.7c-0.8-1.3-2.3-0.3-2.7,0.4
					c-1,1.5-1.7,2.4-3.1,4.3l-1.1,1.6c-4,5.6-7.7,11-11.4,17c-0.4,0.6-0.8,1.3-1.2,1.9l-0.1,0.1c-4.2,6.9-8.1,13.4-8.1,20.8
					c0,1.3,0.1,2.7,0.3,4c0.1,0.9,0.3,1.7,0.5,2.6c0.4,1.7,1,3.3,1.8,4.9c0.7,1.5,1.6,3,2.6,4.4c0.5,0.7,1.1,1.3,1.6,2
					c0.3,0.3,0.6,0.6,0.9,0.9c0.6,0.6,1.2,1.2,1.9,1.7c4.7,3.9,10.7,6,16.8,6c0.9,0,1.8-0.1,2.7-0.1c0.9-0.1,1.8-0.2,2.6-0.4
					c0.5-0.1,1-0.2,1.6-0.4c0.8-0.2,1.5-0.4,2.2-0.7c0.8-0.3,1.6-0.6,2.4-1c1.3-0.6,2.5-1.4,3.7-2.2c0.9-0.6,1.8-1.3,2.6-2.1
					c0.3-0.3,0.6-0.6,0.9-0.9c1.6-1.6,3-3.5,4.2-5.5c0.2-0.4,0.5-0.8,0.7-1.2C399.5,86.1,400.5,82,400.5,77.8"/>
			</g>
			<rect x="346.9" y="30" class="st2" width="54.6" height="75.1"/>
			<path class="st3" d="M374.6,97.1h-1.2c-0.9,0-1.9-0.1-2.7-0.2c-4-0.7-7.8-2.8-10.7-5.9c-3.7-4-5.7-9.3-5.3-14.5
				c0.2-3.7,1.8-6.8,3.2-9.4c0,0,1.6-2.5,1.8-2.9c0,0,0.8-1.2,1.1-1.7c3.4-5.6,6.8-11,10-16.1l1.6-2.5c0.4-0.6,1-0.9,1.7-0.9
				c0.6,0,1.3,0.3,1.6,0.9l1.6,2.5c2.5,3.9,6.2,9.8,9.7,15.6l0.4,0.7c3.8,6.2,8,13.2,4.8,22c-0.4,1-0.8,1.8-1.2,2.7
				c-0.6,1.1-1.3,2.1-2.1,3.1l0,0c0,0-0.1,0.1-0.2,0.2l-0.4,0.4c-2.9,3.1-6.8,5.2-11,5.9C376.4,97.1,375.5,97.1,374.6,97.1z M374,45
				l-1.5,2.5c-3.2,5-6.6,10.5-10,16c-0.3,0.5-1.1,1.7-1.1,1.7c-0.2,0.4-1.8,2.9-1.8,2.9c-1.3,2.3-2.7,5.2-2.9,8.5
				c-0.3,4.7,1.4,9.4,4.8,13c2.6,2.8,6,4.6,9.5,5.3c0.7,0.1,1.5,0.2,2.4,0.2h1.2c0.8,0,1.6-0.1,2.3-0.2c3.7-0.6,7.2-2.5,9.8-5.4
				l0.1-0.1c0.1-0.1,0.2-0.2,0.3-0.3l0.1-0.1c0.7-0.9,1.4-1.8,1.9-2.8c0.4-0.7,0.8-1.5,1.1-2.4c2.9-7.8-1.1-14.4-4.6-20.2l-0.4-0.7
				c-3.5-5.8-7.2-11.7-9.6-15.5L374,45z M387.4,89C387.4,89,387.4,89,387.4,89L387.4,89z"/>
			<path class="st3" d="M374.9,105.1h-1.7c-1.3,0-2.6-0.1-3.8-0.3c-5.6-1-10.8-4-14.8-8.2c-5.2-5.6-7.9-13-7.4-20.2
				c0.3-5.1,2.5-9.5,4.5-13c0,0,2.2-3.6,2.5-4.1c0,0,1.1-1.7,1.5-2.4c4.8-7.9,9.6-15.6,14.1-22.7l1.3-1.9c0.7-1,1.8-1.6,2.9-1.6
				c0,0,0,0,0,0c1.2,0,2.3,0.6,2.9,1.6l1,1.6c3.9,6.1,9.1,14.4,13.9,22.3l0.6,1c5.3,8.7,11.2,18.5,6.8,30.7
				c-0.5,1.4-1.1,2.6-1.7,3.7c-0.8,1.5-1.9,3-3,4.4c0,0,0,0,0,0c0,0.1-0.1,0.2-0.2,0.3c0,0,0,0.1-0.1,0.1l-0.4,0.4
				c-4,4.4-9.5,7.3-15.3,8.3C377.3,105,376.1,105.1,374.9,105.1z M374.1,32.5c-0.5,0-1,0.2-1.3,0.7l-1.2,1.9
				c-4.5,7.1-9.3,14.8-14.1,22.7c-0.5,0.8-1.5,2.5-1.5,2.5c-0.3,0.6-2.5,4.1-2.5,4.1c-1.9,3.3-3.9,7.4-4.2,12.2
				c-0.5,6.7,2,13.6,6.8,18.7c3.7,4,8.6,6.7,13.7,7.6c1.1,0.2,2.2,0.2,3.4,0.2h1.7c1.1,0,2.3-0.1,3.3-0.2c5.4-0.9,10.4-3.6,14.2-7.7
				l0.3-0.3c0.1-0.2,0.2-0.3,0.3-0.4c0,0,0.1-0.1,0.1-0.1c0,0,0,0,0,0l0,0c1.1-1.3,2-2.7,2.8-4.1c0.6-1,1.1-2.2,1.6-3.4
				c4.1-11.2-1.6-20.6-6.6-28.9l-0.6-1c-4.7-7.8-10-16.2-13.9-22.3l-1-1.6C375.1,32.7,374.6,32.5,374.1,32.5
				C374.1,32.5,374.1,32.5,374.1,32.5z M394.3,95.9C394.3,95.9,394.3,95.9,394.3,95.9C394.3,95.9,394.3,95.9,394.3,95.9z
				 M393.8,95.1L393.8,95.1L393.8,95.1z M393.2,94.3L393.2,94.3L393.2,94.3z M393.2,94.3C393.2,94.3,393.2,94.3,393.2,94.3
				C393.2,94.3,393.2,94.3,393.2,94.3z"/>
		</g>
		<g>
			<path class="st0" d="M441.1,38.7l20,32.3c0,0,5.9,31-22.2,29c-28-2-22.5-28-17.8-33.9C425.9,60.2,441.1,38.7,441.1,38.7z"/>
			<g>
				<defs>
					<rect id="SVGID_9_" x="413" y="30" width="54.6" height="75.1"/>
				</defs>
				<clipPath id="SVGID_10_">
					<use xlink:href="#SVGID_9_"  style="overflow:visible;"/>
				</clipPath>
				<path class="st7" d="M454.3,89.8c0,0-0.1,0.1-0.1,0.1c-0.1,0.1-0.1,0.1-0.1,0.2l-0.1,0.2l-0.1,0.1c-2.8,3-6.4,5-10.4,5.7
					c-0.8,0.1-1.6,0.2-2.5,0.2h-1.2c-0.8,0-1.7-0.1-2.6-0.2c-3.8-0.7-7.4-2.7-10.1-5.6c-3.5-3.8-5.4-8.8-5-13.8
					c0.2-3.6,1.8-6.6,3.1-8.9c0,0,2.5-4.1,2.9-4.6c3.3-5.5,6.8-11,10-16.1l1.6-2.5c0.2-0.3,0.5-0.4,0.8-0.4c0.3,0,0.6,0.2,0.8,0.4
					l1.6,2.5c2.9,4.6,6.4,10.1,9.7,15.6l0.4,0.7c3.6,6,7.8,12.8,4.7,21.1c-0.3,0.9-0.7,1.7-1.2,2.5
					C455.8,87.9,455.1,88.9,454.3,89.8 M466.8,77.8c0-0.5,0-1-0.1-1.6c0-0.1,0-0.2,0-0.3l0-0.2c-0.2-1.7-0.5-3.3-1-4.9
					c-1.6-5.3-4.7-10.3-8.1-15.5c-0.7-1.1-1.3-2.1-2-3.2c-3.2-5.1-4.7-7.3-8.1-12c-1.1-1.6-2.5-3.4-4.1-5.7l-1.9-2.7
					c-0.8-1.3-2.3-0.3-2.7,0.4c-1,1.5-1.7,2.4-3.1,4.3l-1.1,1.6c-4,5.6-7.7,11-11.4,17c-0.4,0.6-0.8,1.3-1.2,1.9l-0.1,0.1
					c-4.2,6.9-8.1,13.4-8.1,20.8c0,1.3,0.1,2.7,0.3,4c0.1,0.9,0.3,1.7,0.5,2.6c0.4,1.7,1,3.3,1.8,4.9c0.7,1.5,1.6,3,2.6,4.4
					c0.5,0.7,1.1,1.3,1.6,2c0.3,0.3,0.6,0.6,0.9,0.9c0.6,0.6,1.2,1.2,1.9,1.7c4.7,3.9,10.7,6,16.8,6c0.9,0,1.8-0.1,2.7-0.1
					c0.9-0.1,1.8-0.2,2.6-0.4c0.5-0.1,1-0.2,1.6-0.4c0.8-0.2,1.5-0.4,2.2-0.7c0.8-0.3,1.6-0.6,2.4-1c1.3-0.6,2.5-1.4,3.7-2.2
					c0.9-0.6,1.8-1.3,2.6-2.1c0.3-0.3,0.6-0.6,0.9-0.9c1.6-1.6,3-3.5,4.2-5.5c0.2-0.4,0.5-0.8,0.7-1.2
					C465.8,86.1,466.8,82,466.8,77.8"/>
			</g>
			<rect x="413.2" y="30" class="st2" width="54.6" height="75.1"/>
			<path class="st3" d="M441,97.1h-1.2c-0.9,0-1.9-0.1-2.7-0.2c-4-0.7-7.8-2.8-10.7-5.9c-3.7-4-5.7-9.3-5.3-14.5
				c0.2-3.7,1.8-6.8,3.2-9.4c0,0,1.6-2.5,1.8-2.9c0,0,0.8-1.2,1.1-1.7c3.4-5.6,6.8-11,10-16.1l1.6-2.5c0.4-0.6,1-0.9,1.7-0.9
				c0.6,0,1.3,0.3,1.6,0.9l1.6,2.5c2.5,3.9,6.2,9.8,9.7,15.6l0.4,0.7c3.8,6.2,8,13.2,4.8,22c-0.4,1-0.8,1.8-1.2,2.7
				c-0.6,1.1-1.3,2.1-2.1,3.1l0,0c0,0-0.1,0.1-0.2,0.2l-0.4,0.4c-2.9,3.1-6.8,5.2-11,5.9C442.7,97.1,441.8,97.1,441,97.1z M440.4,45
				l-1.5,2.5c-3.2,5-6.6,10.5-10,16c-0.3,0.5-1.1,1.7-1.1,1.7c-0.2,0.4-1.8,2.9-1.8,2.9c-1.3,2.3-2.7,5.2-2.9,8.5
				c-0.3,4.7,1.4,9.4,4.8,13c2.6,2.8,6,4.6,9.5,5.3c0.7,0.1,1.5,0.2,2.4,0.2h1.2c0.8,0,1.6-0.1,2.3-0.2c3.7-0.6,7.2-2.5,9.8-5.4
				l0.1-0.1c0.1-0.1,0.2-0.2,0.3-0.3l0.1-0.1c0.7-0.9,1.4-1.8,1.9-2.8c0.4-0.7,0.8-1.5,1.1-2.4c2.9-7.8-1.1-14.4-4.6-20.2l-0.4-0.7
				c-3.5-5.8-7.2-11.7-9.6-15.5L440.4,45z M453.8,89C453.8,89,453.8,89,453.8,89L453.8,89z"/>
			<path class="st3" d="M441.2,105.1h-1.7c-1.3,0-2.6-0.1-3.8-0.3c-5.6-1-10.8-4-14.8-8.2c-5.2-5.6-7.9-13-7.4-20.2
				c0.3-5.1,2.5-9.5,4.5-13c0,0,2.2-3.6,2.5-4.1c0,0,1.1-1.7,1.5-2.4c4.8-7.9,9.6-15.6,14.1-22.7l1.3-1.9c0.7-1,1.8-1.6,2.9-1.6
				c0,0,0,0,0,0c1.2,0,2.3,0.6,2.9,1.6l1,1.6c3.9,6.1,9.1,14.4,13.9,22.3l0.6,1c5.3,8.7,11.2,18.5,6.8,30.7
				c-0.5,1.4-1.1,2.6-1.7,3.7c-0.8,1.5-1.9,3-3,4.4c0,0,0,0,0,0c0,0.1-0.1,0.2-0.2,0.3c0,0,0,0.1-0.1,0.1l-0.4,0.4
				c-4,4.4-9.5,7.3-15.3,8.3C443.7,105,442.4,105.1,441.2,105.1z M440.4,32.5c-0.5,0-1,0.2-1.3,0.7l-1.2,1.9
				c-4.5,7.1-9.3,14.8-14.1,22.7c-0.5,0.8-1.5,2.5-1.5,2.5c-0.3,0.6-2.5,4.1-2.5,4.1c-1.9,3.3-3.9,7.4-4.2,12.2
				c-0.5,6.7,2,13.6,6.8,18.7c3.7,4,8.6,6.7,13.7,7.6c1.1,0.2,2.2,0.2,3.4,0.2h1.7c1.1,0,2.3-0.1,3.3-0.2c5.4-0.9,10.4-3.6,14.2-7.7
				l0.3-0.3c0.1-0.2,0.2-0.3,0.3-0.4c0,0,0.1-0.1,0.1-0.1c0,0,0,0,0,0l0,0c1.1-1.3,2-2.7,2.8-4.1c0.6-1,1.1-2.2,1.6-3.4
				c4.1-11.2-1.6-20.6-6.6-28.9l-0.6-1c-4.7-7.8-10-16.2-13.9-22.3l-1-1.6C441.4,32.7,440.9,32.5,440.4,32.5
				C440.4,32.5,440.4,32.5,440.4,32.5z M460.7,95.9C460.7,95.9,460.7,95.9,460.7,95.9C460.7,95.9,460.7,95.9,460.7,95.9z
				 M460.1,95.1L460.1,95.1L460.1,95.1z M459.5,94.3L459.5,94.3L459.5,94.3z M459.5,94.3C459.5,94.3,459.5,94.3,459.5,94.3
				C459.5,94.3,459.5,94.3,459.5,94.3z"/>
		</g>
		<g>
			<path class="st0" d="M507.4,38.7l20,32.3c0,0,5.9,31-22.2,29c-28-2-22.5-28-17.8-33.9S507.4,38.7,507.4,38.7z"/>
			<g>
				<defs>
					<rect id="SVGID_11_" x="479.4" y="30" width="54.6" height="75.1"/>
				</defs>
				<clipPath id="SVGID_12_">
					<use xlink:href="#SVGID_11_"  style="overflow:visible;"/>
				</clipPath>
				<path class="st8" d="M520.7,89.8c0,0-0.1,0.1-0.1,0.1c-0.1,0.1-0.1,0.1-0.1,0.2l-0.1,0.2l-0.1,0.1c-2.8,3-6.4,5-10.4,5.7
					c-0.8,0.1-1.6,0.2-2.5,0.2h-1.2c-0.8,0-1.7-0.1-2.6-0.2c-3.8-0.7-7.4-2.7-10.1-5.6c-3.5-3.8-5.4-8.8-5-13.8
					c0.2-3.6,1.8-6.6,3.1-8.9c0,0,2.5-4.1,2.9-4.6c3.3-5.5,6.8-11,10-16.1l1.6-2.5c0.2-0.3,0.5-0.4,0.8-0.4c0.3,0,0.6,0.2,0.8,0.4
					l1.6,2.5c2.9,4.6,6.4,10.1,9.7,15.6l0.4,0.7c3.6,6,7.8,12.8,4.7,21.1c-0.3,0.9-0.7,1.7-1.2,2.5
					C522.1,87.9,521.4,88.9,520.7,89.8 M533.2,77.8c0-0.5,0-1-0.1-1.6c0-0.1,0-0.2,0-0.3l0-0.2c-0.2-1.7-0.5-3.3-1-4.9
					c-1.6-5.3-4.7-10.3-8.1-15.5c-0.7-1.1-1.3-2.1-2-3.2c-3.2-5.1-4.7-7.3-8.1-12c-1.1-1.6-2.5-3.4-4.1-5.7l-1.9-2.7
					c-0.8-1.3-2.3-0.3-2.7,0.4c-1,1.5-1.7,2.4-3.1,4.3L501,38c-4,5.6-7.7,11-11.4,17c-0.4,0.6-0.8,1.3-1.2,1.9l-0.1,0.1
					c-4.2,6.9-8.1,13.4-8.1,20.8c0,1.3,0.1,2.7,0.3,4c0.1,0.9,0.3,1.7,0.5,2.6c0.4,1.7,1,3.3,1.8,4.9c0.7,1.5,1.6,3,2.6,4.4
					c0.5,0.7,1.1,1.3,1.6,2c0.3,0.3,0.6,0.6,0.9,0.9c0.6,0.6,1.2,1.2,1.9,1.7c4.7,3.9,10.7,6,16.8,6c0.9,0,1.8-0.1,2.7-0.1
					s1.8-0.2,2.6-0.4c0.5-0.1,1-0.2,1.6-0.4c0.8-0.2,1.5-0.4,2.2-0.7c0.8-0.3,1.6-0.6,2.4-1c1.3-0.6,2.5-1.4,3.7-2.2
					c0.9-0.6,1.8-1.3,2.6-2.1c0.3-0.3,0.6-0.6,0.9-0.9c1.6-1.6,3-3.5,4.2-5.5c0.2-0.4,0.5-0.8,0.7-1.2
					C532.2,86.1,533.2,82,533.2,77.8"/>
			</g>
			<rect x="479.6" y="30" class="st2" width="54.6" height="75.1"/>
			<path class="st3" d="M507.3,97.1h-1.2c-0.9,0-1.9-0.1-2.7-0.2c-4-0.7-7.8-2.8-10.7-5.9c-3.7-4-5.7-9.3-5.3-14.5
				c0.2-3.7,1.8-6.8,3.2-9.4c0,0,1.6-2.5,1.8-2.9c0,0,0.8-1.2,1.1-1.7c3.4-5.6,6.8-11,10-16.1l1.6-2.5c0.4-0.6,1-0.9,1.7-0.9
				c0.6,0,1.3,0.3,1.6,0.9l1.6,2.5c2.5,3.9,6.2,9.8,9.7,15.6l0.4,0.7c3.8,6.2,8,13.2,4.8,22c-0.4,1-0.8,1.8-1.2,2.7
				c-0.6,1.1-1.3,2.1-2.1,3.1l0,0c0,0-0.1,0.1-0.2,0.2l-0.4,0.4c-2.9,3.1-6.8,5.2-11,5.9C509.1,97.1,508.2,97.1,507.3,97.1z
				 M506.7,45l-1.5,2.5c-3.2,5-6.6,10.5-10,16c-0.3,0.5-1.1,1.7-1.1,1.7c-0.2,0.4-1.8,2.9-1.8,2.9c-1.3,2.3-2.7,5.2-2.9,8.5
				c-0.3,4.7,1.4,9.4,4.8,13c2.6,2.8,6,4.6,9.5,5.3c0.7,0.1,1.5,0.2,2.4,0.2h1.2c0.8,0,1.6-0.1,2.3-0.2c3.7-0.6,7.2-2.5,9.8-5.4
				l0.1-0.1c0.1-0.1,0.2-0.2,0.3-0.3l0.1-0.1c0.7-0.9,1.4-1.8,1.9-2.8c0.4-0.7,0.8-1.5,1.1-2.4c2.9-7.8-1.1-14.4-4.6-20.2l-0.4-0.7
				c-3.5-5.8-7.2-11.7-9.6-15.5L506.7,45z M520.1,89C520.1,89,520.1,89,520.1,89L520.1,89z"/>
			<path class="st3" d="M507.6,105.1h-1.7c-1.3,0-2.6-0.1-3.8-0.3c-5.6-1-10.8-4-14.8-8.2c-5.2-5.6-7.9-13-7.4-20.2
				c0.3-5.1,2.5-9.5,4.5-13c0,0,2.2-3.6,2.5-4.1c0,0,1.1-1.7,1.5-2.4c4.8-7.9,9.6-15.6,14.1-22.7l1.3-1.9c0.7-1,1.8-1.6,2.9-1.6
				c0,0,0,0,0,0c1.2,0,2.3,0.6,2.9,1.6l1,1.6c3.9,6.1,9.1,14.4,13.9,22.3l0.6,1c5.3,8.7,11.2,18.5,6.8,30.7
				c-0.5,1.4-1.1,2.6-1.7,3.7c-0.8,1.5-1.9,3-3,4.4c0,0,0,0,0,0c0,0.1-0.1,0.2-0.2,0.3c0,0,0,0.1-0.1,0.1l-0.4,0.4
				c-4,4.4-9.5,7.3-15.3,8.3C510,105,508.8,105.1,507.6,105.1z M506.8,32.5c-0.5,0-1,0.2-1.3,0.7l-1.2,1.9
				c-4.5,7.1-9.3,14.8-14.1,22.7c-0.5,0.8-1.5,2.5-1.5,2.5c-0.3,0.6-2.5,4.1-2.5,4.1c-1.9,3.3-3.9,7.4-4.2,12.2
				c-0.5,6.7,2,13.6,6.8,18.7c3.7,4,8.6,6.7,13.7,7.6c1.1,0.2,2.2,0.2,3.4,0.2h1.7c1.1,0,2.3-0.1,3.3-0.2c5.4-0.9,10.4-3.6,14.2-7.7
				l0.3-0.3c0.1-0.2,0.2-0.3,0.3-0.4c0,0,0.1-0.1,0.1-0.1c0,0,0,0,0,0l0,0c1.1-1.3,2-2.7,2.8-4.1c0.6-1,1.1-2.2,1.6-3.4
				c4.1-11.2-1.6-20.6-6.6-28.9l-0.6-1c-4.7-7.8-10-16.2-13.9-22.3l-1-1.6C507.8,32.7,507.3,32.5,506.8,32.5
				C506.8,32.5,506.8,32.5,506.8,32.5z M527,95.9C527,95.9,527,95.9,527,95.9C527,95.9,527,95.9,527,95.9z M526.5,95.1L526.5,95.1
				L526.5,95.1z M525.9,94.3L525.9,94.3L525.9,94.3z M525.9,94.3C525.9,94.3,525.9,94.3,525.9,94.3
				C525.9,94.3,525.9,94.3,525.9,94.3z"/>
		</g>
		<g>
			<path class="st0" d="M573.8,38.7l20,32.3c0,0,5.9,31-22.2,29c-28-2-22.5-28-17.8-33.9C558.6,60.2,573.8,38.7,573.8,38.7z"/>
			<g>
				<defs>
					<rect id="SVGID_13_" x="545.7" y="30" width="54.6" height="75.1"/>
				</defs>
				<clipPath id="SVGID_14_">
					<use xlink:href="#SVGID_13_"  style="overflow:visible;"/>
				</clipPath>
				<path class="st9" d="M587,89.8c0,0-0.1,0.1-0.1,0.1c-0.1,0.1-0.1,0.1-0.1,0.2l-0.1,0.2l-0.1,0.1c-2.8,3-6.4,5-10.4,5.7
					c-0.8,0.1-1.6,0.2-2.5,0.2h-1.2c-0.8,0-1.7-0.1-2.6-0.2c-3.8-0.7-7.4-2.7-10.1-5.6c-3.5-3.8-5.4-8.8-5-13.8
					c0.2-3.6,1.8-6.6,3.1-8.9c0,0,2.5-4.1,2.9-4.6c3.3-5.5,6.8-11,10-16.1l1.6-2.5c0.2-0.3,0.5-0.4,0.8-0.4c0.3,0,0.6,0.2,0.8,0.4
					l1.6,2.5c2.9,4.6,6.4,10.1,9.7,15.6l0.4,0.7c3.6,6,7.8,12.8,4.7,21.1c-0.3,0.9-0.7,1.7-1.2,2.5C588.4,87.9,587.7,88.9,587,89.8
					 M599.5,77.8c0-0.5,0-1-0.1-1.6c0-0.1,0-0.2,0-0.3l0-0.2c-0.2-1.7-0.5-3.3-1-4.9c-1.6-5.3-4.7-10.3-8.1-15.5
					c-0.7-1.1-1.3-2.1-2-3.2c-3.2-5.1-4.7-7.3-8.1-12c-1.1-1.6-2.5-3.4-4.1-5.7l-1.9-2.7c-0.8-1.3-2.3-0.3-2.7,0.4
					c-1,1.5-1.7,2.4-3.1,4.3l-1.1,1.6c-4,5.6-7.7,11-11.4,17c-0.4,0.6-0.8,1.3-1.2,1.9l-0.1,0.1c-4.2,6.9-8.1,13.4-8.1,20.8
					c0,1.3,0.1,2.7,0.3,4c0.1,0.9,0.3,1.7,0.5,2.6c0.4,1.7,1,3.3,1.8,4.9c0.7,1.5,1.6,3,2.6,4.4c0.5,0.7,1.1,1.3,1.6,2
					c0.3,0.3,0.6,0.6,0.9,0.9c0.6,0.6,1.2,1.2,1.9,1.7c4.7,3.9,10.7,6,16.8,6c0.9,0,1.8-0.1,2.7-0.1c0.9-0.1,1.8-0.2,2.6-0.4
					c0.5-0.1,1-0.2,1.6-0.4c0.8-0.2,1.5-0.4,2.2-0.7c0.8-0.3,1.6-0.6,2.4-1c1.3-0.6,2.5-1.4,3.7-2.2c0.9-0.6,1.8-1.3,2.6-2.1
					c0.3-0.3,0.6-0.6,0.9-0.9c1.6-1.6,3-3.5,4.2-5.5c0.2-0.4,0.5-0.8,0.7-1.2C598.5,86.1,599.5,82,599.5,77.8"/>
			</g>
			<rect x="545.9" y="30" class="st2" width="54.6" height="75.1"/>
			<path class="st3" d="M573.7,97.1h-1.2c-0.9,0-1.9-0.1-2.7-0.2c-4-0.7-7.8-2.8-10.7-5.9c-3.7-4-5.7-9.3-5.3-14.5
				c0.2-3.7,1.8-6.8,3.2-9.4c0,0,1.6-2.5,1.8-2.9c0,0,0.8-1.2,1.1-1.7c3.4-5.6,6.8-11,10-16.1l1.6-2.5c0.4-0.6,1-0.9,1.7-0.9
				c0.6,0,1.3,0.3,1.6,0.9l1.6,2.5c2.5,3.9,6.2,9.8,9.7,15.6l0.4,0.7c3.8,6.2,8,13.2,4.8,22c-0.4,1-0.8,1.8-1.2,2.7
				c-0.6,1.1-1.3,2.1-2.1,3.1l0,0c0,0-0.1,0.1-0.2,0.2l-0.4,0.4c-2.9,3.1-6.8,5.2-11,5.9C575.4,97.1,574.5,97.1,573.7,97.1z M573,45
				l-1.5,2.5c-3.2,5-6.6,10.5-10,16c-0.3,0.5-1.1,1.7-1.1,1.7c-0.2,0.4-1.8,2.9-1.8,2.9c-1.3,2.3-2.7,5.2-2.9,8.5
				c-0.3,4.7,1.4,9.4,4.8,13c2.6,2.8,6,4.6,9.5,5.3c0.7,0.1,1.5,0.2,2.4,0.2h1.2c0.8,0,1.6-0.1,2.3-0.2c3.7-0.6,7.2-2.5,9.8-5.4
				l0.1-0.1c0.1-0.1,0.2-0.2,0.3-0.3l0.1-0.1c0.7-0.9,1.4-1.8,1.9-2.8c0.4-0.7,0.8-1.5,1.1-2.4c2.9-7.8-1.1-14.4-4.6-20.2l-0.4-0.7
				c-3.5-5.8-7.2-11.7-9.6-15.5L573,45z M586.5,89C586.5,89,586.5,89,586.5,89L586.5,89z"/>
			<path class="st3" d="M573.9,105.1h-1.7c-1.3,0-2.6-0.1-3.8-0.3c-5.6-1-10.8-4-14.8-8.2c-5.2-5.6-7.9-13-7.4-20.2
				c0.3-5.1,2.5-9.5,4.5-13c0,0,2.2-3.6,2.5-4.1c0,0,1.1-1.7,1.5-2.4c4.8-7.9,9.6-15.6,14.1-22.7l1.3-1.9c0.7-1,1.8-1.6,2.9-1.6
				c0,0,0,0,0,0c1.2,0,2.3,0.6,2.9,1.6l1,1.6c3.9,6.1,9.1,14.4,13.9,22.3l0.6,1c5.3,8.7,11.2,18.5,6.8,30.7
				c-0.5,1.4-1.1,2.6-1.7,3.7c-0.8,1.5-1.9,3-3,4.4c0,0,0,0,0,0c0,0.1-0.1,0.2-0.2,0.3c0,0,0,0.1-0.1,0.1l-0.4,0.4
				c-4,4.4-9.5,7.3-15.3,8.3C576.4,105,575.1,105.1,573.9,105.1z M573.1,32.5c-0.5,0-1,0.2-1.3,0.7l-1.2,1.9
				c-4.5,7.1-9.3,14.8-14.1,22.7c-0.5,0.8-1.5,2.5-1.5,2.5c-0.3,0.6-2.5,4.1-2.5,4.1c-1.9,3.3-3.9,7.4-4.2,12.2
				c-0.5,6.7,2,13.6,6.8,18.7c3.7,4,8.6,6.7,13.7,7.6c1.1,0.2,2.2,0.2,3.4,0.2h1.7c1.1,0,2.3-0.1,3.3-0.2c5.4-0.9,10.4-3.6,14.2-7.7
				l0.3-0.3c0.1-0.2,0.2-0.3,0.3-0.4c0,0,0.1-0.1,0.1-0.1c0,0,0,0,0,0l0,0c1.1-1.3,2-2.7,2.8-4.1c0.6-1,1.1-2.2,1.6-3.4
				c4.1-11.2-1.6-20.6-6.6-28.9l-0.6-1c-4.7-7.8-10-16.2-13.9-22.3l-1-1.6C574.1,32.7,573.6,32.5,573.1,32.5
				C573.1,32.5,573.1,32.5,573.1,32.5z M593.4,95.9C593.4,95.9,593.4,95.9,593.4,95.9C593.4,95.9,593.4,95.9,593.4,95.9z
				 M592.8,95.1L592.8,95.1L592.8,95.1z M592.2,94.3L592.2,94.3L592.2,94.3z M592.2,94.3C592.2,94.3,592.2,94.3,592.2,94.3
				C592.2,94.3,592.2,94.3,592.2,94.3z"/>
		</g>
	</g>
</g>
<g id="Layer_2">
</g>
</svg>
