<?xml version="1.0" encoding="utf-8"?>
<!-- Generator: Adobe Illustrator 24.1.0, SVG Export Plug-In . SVG Version: 6.00 Build 0)  -->
<svg version="1.1" id="Layer_1" xmlns="http://www.w3.org/2000/svg" xmlns:xlink="http://www.w3.org/1999/xlink" x="0px" y="0px"
	 viewBox="0 0 720 360" style="enable-background:new 0 0 720 360;" xml:space="preserve">
<style type="text/css">
	.st0{fill:#67C2CF;}
	.st1{fill:#68C2CF;}
</style>
<g>
	<path class="st0" d="M200.3,66.2c5.4,0,9.7,3,9.7,8c0,17.5,0,35,0,52.6c0,16.4,0.2,32.9,0.7,49.2c1,29.8-11.6,57.9-39.1,71.5
		c-8.5,4.2-17.9,6.4-27.4,6.4h-3.9c-18.3,0-35.3-8.6-51-25.7c-9.6-13.6-14.4-27.7-14.4-42.2c0-21.9,9.7-40.4,29.2-55.4
		c12.4-8.2,25.3-12.3,38.7-12.3c17.2,0,33.4,6.8,48.5,20.3c0,0,0-62.5,0-62.6C191.2,69.9,194.1,66.2,200.3,66.2z M94.1,184.5v2.5
		c0,20.2,10.6,35.2,31.7,45.1c5.7,1.7,10.8,2.5,15.3,2.5c0,0,3,0,3,0c26.4,0,48.2-24.7,47.1-50.7c-0.9-20.8-13.9-35.4-32.3-43.9
		c-6.6-1.7-11.7-2.5-15.3-2.5h-2c-19.7,0-34.5,10.4-44.6,31.2C95.1,174.5,94.1,179.8,94.1,184.5z"/>
</g>
<g>
	<path class="st0" d="M250.4,118.7c4.5,0,9.4,3.8,9.4,8.4c0,0,0,10.9,0,10.9c0-1.5,7.1-5.6,8.4-6.6c3.1-2.1,6.4-4,9.8-5.7
		c6.7-3.2,13.8-5.4,21.2-6.3c7.4-0.9,14.9-0.5,22.1,1.2c6.4,1.5,16.3,3.6,16.8,11.9c0,0.1,0,0.3,0,0.4v0.5c-1,6.2-4.2,9.3-9.3,9.3
		h-0.5c-9-2.9-15.8-4.3-20.3-4.3h-2.9c-19.3,0-33.5,10-42.5,30c-1.9,5.3-2.9,11.4-2.9,18.2V245c0,4.9-3.1,7.9-9.4,8.9h-0.5
		c-5,0-8.1-3.3-9.3-9.8c0,0,0-113.2,0-113.9c0-4.8,3.1-9.9,7.9-11.2C249.1,118.8,249.8,118.7,250.4,118.7z"/>
</g>
<g>
	<path class="st0" d="M576.4,120.2c17.1,0,32.6,6.5,46.5,19.4c13.3,14,19.9,29.7,19.9,47.1c0,24.9-11.8,44.5-35.4,58.7
		c-10.2,5.2-20.1,7.7-29.6,7.7h-3.9c-15.4,0-30.4-6.6-45.1-19.9v67c0,4.1-3.2,6.9-9.7,8.3c-4.6,0-7.7-3.2-9.2-9.7V191
		c0-33.6,15.9-56.2,47.6-67.9C561.4,121.9,567.7,120.9,576.4,120.2z M529.3,185.2v2.5c0,17.7,8.6,31.4,25.7,41.2
		c6.2,3.2,12.8,4.8,19.9,4.8h2.9c18.4,0,32.5-9.5,42.2-28.6c2.3-6,3.4-11.8,3.4-17.4v-2.5c0-14.8-6.8-27.2-20.3-37.4
		c-8-5.5-17.1-8.3-27.3-8.3c-20.1,0-34.8,10.5-44,31.6C530.2,176.3,529.3,181,529.3,185.2z"/>
</g>
<path class="st1" d="M483.3,186.7c0-1.4-0.1-2.8-0.2-4.1c0-0.5-0.1-0.9-0.1-1.4c-0.4-4.1-1.2-8.2-2.5-12.5
	c-4.1-13.3-11.8-25.5-20-38.5c-1.6-2.6-3.2-5.1-4.8-7.7c-10.4-16.8-13.9-20.8-30.1-43.3l-4.5-6.6c-2.4-3.6-6.2-5-9.7,0.2
	c-3.1,4.7-5.5,8-10.5,15.2c-9.7,13.9-19,27.1-28.1,41.7c-1,1.6-2,3.2-2.9,4.8c0,0.1-0.1,0.1-0.1,0.2c-10.4,17.1-20.2,33.3-20.2,52.1
	v0l0,0c0,3.5,0.3,6.9,0.8,10.2c0.3,2.2,0.8,4.4,1.3,6.5c1.1,4.3,2.6,8.4,4.5,12.3c1.9,3.9,4.1,7.6,6.7,11c1.3,1.7,2.7,3.4,4.1,5
	c0.7,0.8,1.5,1.6,2.2,2.3c1.5,1.5,3.1,3,4.8,4.3c11.6,9.6,26.4,15.3,42.6,15.3c2.3,0,4.6-0.1,6.8-0.3c2.2-0.2,4.5-0.6,6.6-1
	c1.3-0.3,2.6-0.6,3.9-0.9c1.9-0.5,3.8-1.1,5.6-1.8c2-0.8,4.1-1.6,6-2.5c3.3-1.6,6.5-3.5,9.5-5.6c2.3-1.6,4.4-3.3,6.5-5.2
	c0.8-0.7,1.6-1.5,2.3-2.2c4.1-4.1,7.7-8.8,10.6-13.8c0.6-1,1.2-2,1.7-3.1C480.6,208,483.3,197.7,483.3,186.7z M452.2,217.3
	c-0.2,0.3-0.4,0.5-0.7,0.8c-0.2,0.2-0.4,0.4-0.6,0.7c-7,7.6-16.4,12.8-26.8,14.6c-2.1,0.3-4.2,0.4-6.4,0.4h-2.9
	c-2.2,0-4.4-0.2-6.6-0.5c-9.7-1.8-18.9-6.8-25.9-14.4c-9.1-9.7-13.7-22.6-12.8-35.3c0.6-8.6,4-16,7.8-22.7c0.3-0.5,0.6-0.9,0.9-1.4
	c0,0,0,0,0,0c0,0-0.1,0-0.1,0c1.2-2,2.4-3.9,3.6-5.8c0.9-1.4,1.8-2.8,2.6-4.2c8.2-13.6,16.6-27,24.5-39.4l3.9-6.1
	c1.7-2.7,5.6-2.7,7.3,0l3.9,6.1c7.2,11.4,15.6,24.8,23.7,38.2l1,1.7c9.2,15.1,19.6,32.2,11.8,53.5c-0.8,2.2-1.8,4.4-3,6.5
	C455.8,212.5,454,215,452.2,217.3z"/>
</svg>
