<?xml version="1.0" encoding="utf-8"?>
<!-- Generator: Adobe Illustrator 24.1.2, SVG Export Plug-In . SVG Version: 6.00 Build 0)  -->
<svg version="1.1" xmlns="http://www.w3.org/2000/svg" xmlns:xlink="http://www.w3.org/1999/xlink" x="0px" y="0px"
	 viewBox="0 0 746.9 137.7" style="enable-background:new 0 0 746.9 137.7;" xml:space="preserve">
<style type="text/css">
	.st0{fill:#CCEAEE;}
	.st1{clip-path:url(#SVGID_2_);fill:#69C2CF;}
	.st2{fill:none;}
	.st3{fill:#FFFFFF;}
	.st4{clip-path:url(#SVGID_4_);fill:#69C2CF;}
	.st5{clip-path:url(#SVGID_6_);fill:#69C2CF;}
	.st6{clip-path:url(#SVGID_8_);fill:#69C2CF;}
	.st7{clip-path:url(#SVGID_10_);fill:#69C2CF;}
	.st8{clip-path:url(#SVGID_12_);fill:#69C2CF;}
	.st9{clip-path:url(#SVGID_14_);fill:#69C2CF;}
	.st10{clip-path:url(#SVGID_16_);fill:#69C2CF;}
	.st11{clip-path:url(#SVGID_18_);fill:#69C2CF;}
	.st12{clip-path:url(#SVGID_20_);fill:#69C2CF;}
</style>
<g id="Layer_1">
	<g>
		<g>
			<path class="st0" d="M81.5,38.7l20,32.3c0,0,5.9,31-22.2,29c-28-2-22.5-28-17.8-33.9S81.5,38.7,81.5,38.7z"/>
			<g>
				<defs>
					<rect id="SVGID_1_" x="53.4" y="30" width="54.6" height="75.1"/>
				</defs>
				<clipPath id="SVGID_2_">
					<use xlink:href="#SVGID_1_"  style="overflow:visible;"/>
				</clipPath>
				<path class="st1" d="M94.7,89.8c0,0-0.1,0.1-0.1,0.1c-0.1,0.1-0.1,0.1-0.1,0.2l-0.1,0.2l-0.1,0.1c-2.8,3-6.4,5-10.4,5.7
					c-0.8,0.1-1.6,0.2-2.5,0.2h-1.2c-0.8,0-1.7-0.1-2.6-0.2c-3.8-0.7-7.4-2.7-10.1-5.6c-3.5-3.8-5.4-8.8-5-13.8
					c0.2-3.6,1.8-6.6,3.1-8.9c0,0,2.5-4.1,2.9-4.6c3.3-5.5,6.8-11,10-16.1l1.6-2.5c0.2-0.3,0.5-0.4,0.8-0.4c0.3,0,0.6,0.2,0.8,0.4
					l1.6,2.5c2.9,4.6,6.4,10.1,9.7,15.6l0.4,0.7c3.6,6,7.8,12.8,4.7,21.1c-0.3,0.9-0.7,1.7-1.2,2.5C96.1,87.9,95.4,88.9,94.7,89.8
					 M107.2,77.8c0-0.5,0-1-0.1-1.6c0-0.1,0-0.2,0-0.3l0-0.2c-0.2-1.7-0.5-3.3-1-4.9c-1.6-5.3-4.7-10.3-8.1-15.5
					c-0.7-1.1-1.3-2.1-2-3.2c-3.2-5.1-4.7-7.3-8.1-12c-1.1-1.6-2.5-3.4-4.1-5.7L82,31.7c-0.8-1.3-2.3-0.3-2.7,0.4
					c-1,1.5-1.7,2.4-3.1,4.3L75,38c-4,5.6-7.7,11-11.4,17c-0.4,0.6-0.8,1.3-1.2,1.9L62.3,57c-4.2,6.9-8.1,13.4-8.1,20.8
					c0,1.3,0.1,2.7,0.3,4c0.1,0.9,0.3,1.7,0.5,2.6c0.4,1.7,1,3.3,1.8,4.9c0.7,1.5,1.6,3,2.6,4.4c0.5,0.7,1.1,1.3,1.6,2
					c0.3,0.3,0.6,0.6,0.9,0.9c0.6,0.6,1.2,1.2,1.9,1.7c4.7,3.9,10.7,6,16.8,6c0.9,0,1.8-0.1,2.7-0.1c0.9-0.1,1.8-0.2,2.6-0.4
					c0.5-0.1,1-0.2,1.6-0.4c0.8-0.2,1.5-0.4,2.2-0.7c0.8-0.3,1.6-0.6,2.4-1c1.3-0.6,2.5-1.4,3.7-2.2c0.9-0.6,1.8-1.3,2.6-2.1
					c0.3-0.3,0.6-0.6,0.9-0.9c1.6-1.6,3-3.5,4.2-5.5c0.2-0.4,0.5-0.8,0.7-1.2C106.2,86.1,107.2,82,107.2,77.8"/>
			</g>
			<rect x="53.6" y="30" class="st2" width="54.6" height="75.1"/>
			<path class="st3" d="M81.3,97.1h-1.2c-0.9,0-1.9-0.1-2.7-0.2c-4-0.7-7.8-2.8-10.7-5.9c-3.7-4-5.7-9.3-5.3-14.5
				c0.2-3.7,1.8-6.8,3.2-9.4c0,0,1.6-2.5,1.8-2.9c0,0,0.8-1.2,1.1-1.7c3.4-5.6,6.8-11,10-16.1l1.6-2.5c0.4-0.6,1-0.9,1.7-0.9
				c0.6,0,1.3,0.3,1.6,0.9l1.6,2.5c2.5,3.9,6.2,9.8,9.7,15.6l0.4,0.7c3.8,6.2,8,13.2,4.8,22c-0.4,1-0.8,1.8-1.2,2.7
				c-0.6,1.1-1.3,2.1-2.1,3.1l0,0c0,0-0.1,0.1-0.2,0.2L95,91c-2.9,3.1-6.8,5.2-11,5.9C83.1,97.1,82.2,97.1,81.3,97.1z M80.7,45
				l-1.5,2.5c-3.2,5-6.6,10.5-10,16c-0.3,0.5-1.1,1.7-1.1,1.7c-0.2,0.4-1.8,2.9-1.8,2.9c-1.3,2.3-2.7,5.2-2.9,8.5
				c-0.3,4.7,1.4,9.4,4.8,13c2.6,2.8,6,4.6,9.5,5.3c0.7,0.1,1.5,0.2,2.4,0.2h1.2c0.8,0,1.6-0.1,2.3-0.2c3.7-0.6,7.2-2.5,9.8-5.4
				l0.1-0.1c0.1-0.1,0.2-0.2,0.3-0.3l0.1-0.1c0.7-0.9,1.4-1.8,1.9-2.8c0.4-0.7,0.8-1.5,1.1-2.4c2.9-7.8-1.1-14.4-4.6-20.2L92,63
				c-3.5-5.8-7.2-11.7-9.6-15.5L80.7,45z M94.2,89C94.2,89,94.2,89,94.2,89L94.2,89z"/>
			<path class="st3" d="M81.6,105.1h-1.7c-1.3,0-2.6-0.1-3.8-0.3c-5.6-1-10.8-4-14.8-8.2c-5.2-5.6-7.9-13-7.4-20.2
				c0.3-5.1,2.5-9.5,4.5-13c0,0,2.2-3.6,2.5-4.1c0,0,1.1-1.7,1.5-2.4c4.8-7.9,9.6-15.6,14.1-22.7l1.3-1.9c0.7-1,1.8-1.6,2.9-1.6
				c0,0,0,0,0,0c1.2,0,2.3,0.6,2.9,1.6l1,1.6c3.9,6.1,9.1,14.4,13.9,22.3l0.6,1c5.3,8.7,11.2,18.5,6.8,30.7
				c-0.5,1.4-1.1,2.6-1.7,3.7c-0.8,1.5-1.9,3-3,4.4c0,0,0,0,0,0c0,0.1-0.1,0.2-0.2,0.3c0,0,0,0.1-0.1,0.1l-0.4,0.4
				c-4,4.4-9.5,7.3-15.3,8.3C84.1,105,82.8,105.1,81.6,105.1z M80.8,32.5c-0.5,0-1,0.2-1.3,0.7L78.3,35c-4.5,7.1-9.3,14.8-14.1,22.7
				c-0.5,0.8-1.5,2.5-1.5,2.5c-0.3,0.6-2.5,4.1-2.5,4.1c-1.9,3.3-3.9,7.4-4.2,12.2c-0.5,6.7,2,13.6,6.8,18.7c3.7,4,8.6,6.7,13.7,7.6
				c1.1,0.2,2.2,0.2,3.4,0.2h1.7c1.1,0,2.3-0.1,3.3-0.2c5.4-0.9,10.4-3.6,14.2-7.7l0.3-0.3c0.1-0.2,0.2-0.3,0.3-0.4
				c0,0,0.1-0.1,0.1-0.1c0,0,0,0,0,0l0,0c1.1-1.3,2-2.7,2.8-4.1c0.6-1,1.1-2.2,1.6-3.4c4.1-11.2-1.6-20.6-6.6-28.9L97,57
				c-4.7-7.8-10-16.2-13.9-22.3l-1-1.6C81.8,32.7,81.3,32.5,80.8,32.5C80.8,32.5,80.8,32.5,80.8,32.5z M101.1,95.9
				C101.1,95.9,101.1,95.9,101.1,95.9C101.1,95.9,101.1,95.9,101.1,95.9z M100.5,95.1L100.5,95.1L100.5,95.1z M99.9,94.3L99.9,94.3
				L99.9,94.3z M99.9,94.3C99.9,94.3,99.9,94.3,99.9,94.3C99.9,94.3,99.9,94.3,99.9,94.3z"/>
		</g>
		<g>
			<path class="st0" d="M146.4,38.7l20,32.3c0,0,5.9,31-22.2,29c-28-2-22.5-28-17.8-33.9S146.4,38.7,146.4,38.7z"/>
			<g>
				<defs>
					<rect id="SVGID_3_" x="118.3" y="30" width="54.6" height="75.1"/>
				</defs>
				<clipPath id="SVGID_4_">
					<use xlink:href="#SVGID_3_"  style="overflow:visible;"/>
				</clipPath>
				<path class="st4" d="M159.6,89.8c0,0-0.1,0.1-0.1,0.1c-0.1,0.1-0.1,0.1-0.1,0.2l-0.1,0.2l-0.1,0.1c-2.8,3-6.4,5-10.4,5.7
					c-0.8,0.1-1.6,0.2-2.5,0.2H145c-0.8,0-1.7-0.1-2.6-0.2c-3.8-0.7-7.4-2.7-10.1-5.6c-3.5-3.8-5.4-8.8-5-13.8
					c0.2-3.6,1.8-6.6,3.1-8.9c0,0,2.5-4.1,2.9-4.6c3.3-5.5,6.8-11,10-16.1l1.6-2.5c0.2-0.3,0.5-0.4,0.8-0.4c0.3,0,0.6,0.2,0.8,0.4
					l1.6,2.5c2.9,4.6,6.4,10.1,9.7,15.6l0.4,0.7c3.6,6,7.8,12.8,4.7,21.1c-0.3,0.9-0.7,1.7-1.2,2.5C161,87.9,160.3,88.9,159.6,89.8
					 M172.1,77.8c0-0.5,0-1-0.1-1.6c0-0.1,0-0.2,0-0.3l0-0.2c-0.2-1.7-0.5-3.3-1-4.9c-1.6-5.3-4.7-10.3-8.1-15.5
					c-0.7-1.1-1.3-2.1-2-3.2c-3.2-5.1-4.7-7.3-8.1-12c-1.1-1.6-2.5-3.4-4.1-5.7l-1.9-2.7c-0.8-1.3-2.3-0.3-2.7,0.4
					c-1,1.5-1.7,2.4-3.1,4.3l-1.1,1.6c-4,5.6-7.7,11-11.4,17c-0.4,0.6-0.8,1.3-1.2,1.9l-0.1,0.1c-4.2,6.9-8.1,13.4-8.1,20.8
					c0,1.3,0.1,2.7,0.3,4c0.1,0.9,0.3,1.7,0.5,2.6c0.4,1.7,1,3.3,1.8,4.9c0.7,1.5,1.6,3,2.6,4.4c0.5,0.7,1.1,1.3,1.6,2
					c0.3,0.3,0.6,0.6,0.9,0.9c0.6,0.6,1.2,1.2,1.9,1.7c4.7,3.9,10.7,6,16.8,6c0.9,0,1.8-0.1,2.7-0.1s1.8-0.2,2.6-0.4
					c0.5-0.1,1-0.2,1.6-0.4c0.8-0.2,1.5-0.4,2.2-0.7c0.8-0.3,1.6-0.6,2.4-1c1.3-0.6,2.5-1.4,3.7-2.2c0.9-0.6,1.8-1.3,2.6-2.1
					c0.3-0.3,0.6-0.6,0.9-0.9c1.6-1.6,3-3.5,4.2-5.5c0.2-0.4,0.5-0.8,0.7-1.2C171.1,86.1,172.1,82,172.1,77.8"/>
			</g>
			<rect x="118.5" y="30" class="st2" width="54.6" height="75.1"/>
			<path class="st3" d="M146.2,97.1h-1.2c-0.9,0-1.9-0.1-2.7-0.2c-4-0.7-7.8-2.8-10.7-5.9c-3.7-4-5.7-9.3-5.3-14.5
				c0.2-3.7,1.8-6.8,3.2-9.4c0,0,1.6-2.5,1.8-2.9c0,0,0.8-1.2,1.1-1.7c3.4-5.6,6.8-11,10-16.1l1.6-2.5c0.4-0.6,1-0.9,1.7-0.9
				c0.6,0,1.3,0.3,1.6,0.9l1.6,2.5c2.5,3.9,6.2,9.8,9.7,15.6l0.4,0.7c3.8,6.2,8,13.2,4.8,22c-0.4,1-0.8,1.8-1.2,2.7
				c-0.6,1.1-1.3,2.1-2.1,3.1l0,0c0,0-0.1,0.1-0.2,0.2l-0.4,0.4c-2.9,3.1-6.8,5.2-11,5.9C148,97.1,147.1,97.1,146.2,97.1z M145.6,45
				l-1.5,2.5c-3.2,5-6.6,10.5-10,16c-0.3,0.5-1.1,1.7-1.1,1.7c-0.2,0.4-1.8,2.9-1.8,2.9c-1.3,2.3-2.7,5.2-2.9,8.5
				c-0.3,4.7,1.4,9.4,4.8,13c2.6,2.8,6,4.6,9.5,5.3c0.7,0.1,1.5,0.2,2.4,0.2h1.2c0.8,0,1.6-0.1,2.3-0.2c3.7-0.6,7.2-2.5,9.8-5.4
				l0.1-0.1c0.1-0.1,0.2-0.2,0.3-0.3l0.1-0.1c0.7-0.9,1.4-1.8,1.9-2.8c0.4-0.7,0.8-1.5,1.1-2.4c2.9-7.8-1.1-14.4-4.6-20.2l-0.4-0.7
				c-3.5-5.8-7.2-11.7-9.6-15.5L145.6,45z M159.1,89C159.1,89,159.1,89,159.1,89L159.1,89z"/>
			<path class="st3" d="M146.5,105.1h-1.7c-1.3,0-2.6-0.1-3.8-0.3c-5.6-1-10.8-4-14.8-8.2c-5.2-5.6-7.9-13-7.4-20.2
				c0.3-5.1,2.5-9.5,4.5-13c0,0,2.2-3.6,2.5-4.1c0,0,1.1-1.7,1.5-2.4c4.8-7.9,9.6-15.6,14.1-22.7l1.3-1.9c0.7-1,1.8-1.6,2.9-1.6
				c0,0,0,0,0,0c1.2,0,2.3,0.6,2.9,1.6l1,1.6c3.9,6.1,9.1,14.4,13.9,22.3l0.6,1c5.3,8.7,11.2,18.5,6.8,30.7
				c-0.5,1.4-1.1,2.6-1.7,3.7c-0.8,1.5-1.9,3-3,4.4c0,0,0,0,0,0c0,0.1-0.1,0.2-0.2,0.3c0,0,0,0.1-0.1,0.1l-0.4,0.4
				c-4,4.4-9.5,7.3-15.3,8.3C149,105,147.7,105.1,146.5,105.1z M145.7,32.5c-0.5,0-1,0.2-1.3,0.7l-1.2,1.9
				c-4.5,7.1-9.3,14.8-14.1,22.7c-0.5,0.8-1.5,2.5-1.5,2.5c-0.3,0.6-2.5,4.1-2.5,4.1c-1.9,3.3-3.9,7.4-4.2,12.2
				c-0.5,6.7,2,13.6,6.8,18.7c3.7,4,8.6,6.7,13.7,7.6c1.1,0.2,2.2,0.2,3.4,0.2h1.7c1.1,0,2.3-0.1,3.3-0.2c5.4-0.9,10.4-3.6,14.2-7.7
				l0.3-0.3c0.1-0.2,0.2-0.3,0.3-0.4c0,0,0.1-0.1,0.1-0.1c0,0,0,0,0,0l0,0c1.1-1.3,2-2.7,2.8-4.1c0.6-1,1.1-2.2,1.6-3.4
				c4.1-11.2-1.6-20.6-6.6-28.9l-0.6-1c-4.7-7.8-10-16.2-13.9-22.3l-1-1.6C146.7,32.7,146.2,32.5,145.7,32.5
				C145.7,32.5,145.7,32.5,145.7,32.5z M166,95.9C166,95.9,166,95.9,166,95.9C166,95.9,166,95.9,166,95.9z M165.4,95.1L165.4,95.1
				L165.4,95.1z M164.8,94.3L164.8,94.3L164.8,94.3z M164.8,94.3C164.8,94.3,164.8,94.3,164.8,94.3
				C164.8,94.3,164.8,94.3,164.8,94.3z"/>
		</g>
		<g>
			<path class="st0" d="M211.3,38.7l20,32.3c0,0,5.9,31-22.2,29c-28-2-22.5-28-17.8-33.9C196.1,60.2,211.3,38.7,211.3,38.7z"/>
			<g>
				<defs>
					<rect id="SVGID_5_" x="183.2" y="30" width="54.6" height="75.1"/>
				</defs>
				<clipPath id="SVGID_6_">
					<use xlink:href="#SVGID_5_"  style="overflow:visible;"/>
				</clipPath>
				<path class="st5" d="M224.5,89.8c0,0-0.1,0.1-0.1,0.1c-0.1,0.1-0.1,0.1-0.1,0.2l-0.1,0.2l-0.1,0.1c-2.8,3-6.4,5-10.4,5.7
					c-0.8,0.1-1.6,0.2-2.5,0.2h-1.2c-0.8,0-1.7-0.1-2.6-0.2c-3.8-0.7-7.4-2.7-10.1-5.6c-3.5-3.8-5.4-8.8-5-13.8
					c0.2-3.6,1.8-6.6,3.1-8.9c0,0,2.5-4.1,2.9-4.6c3.3-5.5,6.8-11,10-16.1l1.6-2.5c0.2-0.3,0.5-0.4,0.8-0.4c0.3,0,0.6,0.2,0.8,0.4
					l1.6,2.5c2.9,4.6,6.4,10.1,9.7,15.6l0.4,0.7c3.6,6,7.8,12.8,4.7,21.1c-0.3,0.9-0.7,1.7-1.2,2.5
					C225.9,87.9,225.2,88.9,224.5,89.8 M237,77.8c0-0.5,0-1-0.1-1.6c0-0.1,0-0.2,0-0.3l0-0.2c-0.2-1.7-0.5-3.3-1-4.9
					c-1.6-5.3-4.7-10.3-8.1-15.5c-0.7-1.1-1.3-2.1-2-3.2c-3.2-5.1-4.7-7.3-8.1-12c-1.1-1.6-2.5-3.4-4.1-5.7l-1.9-2.7
					c-0.8-1.3-2.3-0.3-2.7,0.4c-1,1.5-1.7,2.4-3.1,4.3l-1.1,1.6c-4,5.6-7.7,11-11.4,17c-0.4,0.6-0.8,1.3-1.2,1.9l-0.1,0.1
					c-4.2,6.9-8.1,13.4-8.1,20.8c0,1.3,0.1,2.7,0.3,4c0.1,0.9,0.3,1.7,0.5,2.6c0.4,1.7,1,3.3,1.8,4.9c0.7,1.5,1.6,3,2.6,4.4
					c0.5,0.7,1.1,1.3,1.6,2c0.3,0.3,0.6,0.6,0.9,0.9c0.6,0.6,1.2,1.2,1.9,1.7c4.7,3.9,10.7,6,16.8,6c0.9,0,1.8-0.1,2.7-0.1
					c0.9-0.1,1.8-0.2,2.6-0.4c0.5-0.1,1-0.2,1.6-0.4c0.8-0.2,1.5-0.4,2.2-0.7c0.8-0.3,1.6-0.6,2.4-1c1.3-0.6,2.5-1.4,3.7-2.2
					c0.9-0.6,1.8-1.3,2.6-2.1c0.3-0.3,0.6-0.6,0.9-0.9c1.6-1.6,3-3.5,4.2-5.5c0.2-0.4,0.5-0.8,0.7-1.2C236,86.1,237,82,237,77.8"/>
			</g>
			<rect x="183.4" y="30" class="st2" width="54.6" height="75.1"/>
			<path class="st3" d="M211.1,97.1H210c-0.9,0-1.9-0.1-2.7-0.2c-4-0.7-7.8-2.8-10.7-5.9c-3.7-4-5.7-9.3-5.3-14.5
				c0.2-3.7,1.8-6.8,3.2-9.4c0,0,1.6-2.5,1.8-2.9c0,0,0.8-1.2,1.1-1.7c3.4-5.6,6.8-11,10-16.1l1.6-2.5c0.4-0.6,1-0.9,1.7-0.9
				c0.6,0,1.3,0.3,1.6,0.9l1.6,2.5c2.5,3.9,6.2,9.8,9.7,15.6l0.4,0.7c3.8,6.2,8,13.2,4.8,22c-0.4,1-0.8,1.8-1.2,2.7
				c-0.6,1.1-1.3,2.1-2.1,3.1l0,0c0,0-0.1,0.1-0.2,0.2l-0.4,0.4c-2.9,3.1-6.8,5.2-11,5.9C212.9,97.1,212,97.1,211.1,97.1z M210.5,45
				l-1.5,2.5c-3.2,5-6.6,10.5-10,16c-0.3,0.5-1.1,1.7-1.1,1.7c-0.2,0.4-1.8,2.9-1.8,2.9c-1.3,2.3-2.7,5.2-2.9,8.5
				c-0.3,4.7,1.4,9.4,4.8,13c2.6,2.8,6,4.6,9.5,5.3c0.7,0.1,1.5,0.2,2.4,0.2h1.2c0.8,0,1.6-0.1,2.3-0.2c3.7-0.6,7.2-2.5,9.8-5.4
				l0.1-0.1c0.1-0.1,0.2-0.2,0.3-0.3l0.1-0.1c0.7-0.9,1.4-1.8,1.9-2.8c0.4-0.7,0.8-1.5,1.1-2.4c2.9-7.8-1.1-14.4-4.6-20.2l-0.4-0.7
				c-3.5-5.8-7.2-11.7-9.6-15.5L210.5,45z M224,89C224,89,224,89,224,89L224,89z"/>
			<path class="st3" d="M211.4,105.1h-1.7c-1.3,0-2.6-0.1-3.8-0.3c-5.6-1-10.8-4-14.8-8.2c-5.2-5.6-7.9-13-7.4-20.2
				c0.3-5.1,2.5-9.5,4.5-13c0,0,2.2-3.6,2.5-4.1c0,0,1.1-1.7,1.5-2.4c4.8-7.9,9.6-15.6,14.1-22.7l1.3-1.9c0.7-1,1.8-1.6,2.9-1.6
				c0,0,0,0,0,0c1.2,0,2.3,0.6,2.9,1.6l1,1.6c3.9,6.1,9.1,14.4,13.9,22.3l0.6,1c5.3,8.7,11.2,18.5,6.8,30.7
				c-0.5,1.4-1.1,2.6-1.7,3.7c-0.8,1.5-1.9,3-3,4.4c0,0,0,0,0,0c0,0.1-0.1,0.2-0.2,0.3c0,0,0,0.1-0.1,0.1l-0.4,0.4
				c-4,4.4-9.5,7.3-15.3,8.3C213.9,105,212.6,105.1,211.4,105.1z M210.6,32.5c-0.5,0-1,0.2-1.3,0.7l-1.2,1.9
				c-4.5,7.1-9.3,14.8-14.1,22.7c-0.5,0.8-1.5,2.5-1.5,2.5c-0.3,0.6-2.5,4.1-2.5,4.1c-1.9,3.3-3.9,7.4-4.2,12.2
				c-0.5,6.7,2,13.6,6.8,18.7c3.7,4,8.6,6.7,13.7,7.6c1.1,0.2,2.2,0.2,3.4,0.2h1.7c1.1,0,2.3-0.1,3.3-0.2c5.4-0.9,10.4-3.6,14.2-7.7
				l0.3-0.3c0.1-0.2,0.2-0.3,0.3-0.4c0,0,0.1-0.1,0.1-0.1c0,0,0,0,0,0l0,0c1.1-1.3,2-2.7,2.8-4.1c0.6-1,1.1-2.2,1.6-3.4
				c4.1-11.2-1.6-20.6-6.6-28.9l-0.6-1c-4.7-7.8-10-16.2-13.9-22.3l-1-1.6C211.6,32.7,211.1,32.5,210.6,32.5
				C210.6,32.5,210.6,32.5,210.6,32.5z M230.9,95.9C230.9,95.9,230.9,95.9,230.9,95.9C230.9,95.9,230.9,95.9,230.9,95.9z
				 M230.3,95.1L230.3,95.1L230.3,95.1z M229.7,94.3L229.7,94.3L229.7,94.3z M229.7,94.3C229.7,94.3,229.7,94.3,229.7,94.3
				C229.7,94.3,229.7,94.3,229.7,94.3z"/>
		</g>
		<g>
			<path class="st0" d="M276.2,38.7l20,32.3c0,0,5.9,31-22.2,29c-28-2-22.5-28-17.8-33.9C261,60.2,276.2,38.7,276.2,38.7z"/>
			<g>
				<defs>
					<rect id="SVGID_7_" x="248.1" y="30" width="54.6" height="75.1"/>
				</defs>
				<clipPath id="SVGID_8_">
					<use xlink:href="#SVGID_7_"  style="overflow:visible;"/>
				</clipPath>
				<path class="st6" d="M289.4,89.8c0,0-0.1,0.1-0.1,0.1c-0.1,0.1-0.1,0.1-0.1,0.2l-0.1,0.2l-0.1,0.1c-2.8,3-6.4,5-10.4,5.7
					c-0.8,0.1-1.6,0.2-2.5,0.2h-1.2c-0.8,0-1.7-0.1-2.6-0.2c-3.8-0.7-7.4-2.7-10.1-5.6c-3.5-3.8-5.4-8.8-5-13.8
					c0.2-3.6,1.8-6.6,3.1-8.9c0,0,2.5-4.1,2.9-4.6c3.3-5.5,6.8-11,10-16.1l1.6-2.5c0.2-0.3,0.5-0.4,0.8-0.4c0.3,0,0.6,0.2,0.8,0.4
					l1.6,2.5c2.9,4.6,6.4,10.1,9.7,15.6l0.4,0.7c3.6,6,7.8,12.8,4.7,21.1c-0.3,0.9-0.7,1.7-1.2,2.5
					C290.8,87.9,290.1,88.9,289.4,89.8 M301.9,77.8c0-0.5,0-1-0.1-1.6c0-0.1,0-0.2,0-0.3l0-0.2c-0.2-1.7-0.5-3.3-1-4.9
					c-1.6-5.3-4.7-10.3-8.1-15.5c-0.7-1.1-1.3-2.1-2-3.2c-3.2-5.1-4.7-7.3-8.1-12c-1.1-1.6-2.5-3.4-4.1-5.7l-1.9-2.7
					c-0.8-1.3-2.3-0.3-2.7,0.4c-1,1.5-1.7,2.4-3.1,4.3l-1.1,1.6c-4,5.6-7.7,11-11.4,17c-0.4,0.6-0.8,1.3-1.2,1.9L257,57
					c-4.2,6.9-8.1,13.4-8.1,20.8c0,1.3,0.1,2.7,0.3,4c0.1,0.9,0.3,1.7,0.5,2.6c0.4,1.7,1,3.3,1.8,4.9c0.7,1.5,1.6,3,2.6,4.4
					c0.5,0.7,1.1,1.3,1.6,2c0.3,0.3,0.6,0.6,0.9,0.9c0.6,0.6,1.2,1.2,1.9,1.7c4.7,3.9,10.7,6,16.8,6c0.9,0,1.8-0.1,2.7-0.1
					c0.9-0.1,1.8-0.2,2.6-0.4c0.5-0.1,1-0.2,1.6-0.4c0.8-0.2,1.5-0.4,2.2-0.7c0.8-0.3,1.6-0.6,2.4-1c1.3-0.6,2.5-1.4,3.7-2.2
					c0.9-0.6,1.8-1.3,2.6-2.1c0.3-0.3,0.6-0.6,0.9-0.9c1.6-1.6,3-3.5,4.2-5.5c0.2-0.4,0.5-0.8,0.7-1.2
					C300.9,86.1,301.9,82,301.9,77.8"/>
			</g>
			<rect x="248.3" y="30" class="st2" width="54.6" height="75.1"/>
			<path class="st3" d="M276,97.1h-1.2c-0.9,0-1.9-0.1-2.7-0.2c-4-0.7-7.8-2.8-10.7-5.9c-3.7-4-5.7-9.3-5.3-14.5
				c0.2-3.7,1.8-6.8,3.2-9.4c0,0,1.6-2.5,1.8-2.9c0,0,0.8-1.2,1.1-1.7c3.4-5.6,6.8-11,10-16.1l1.6-2.5c0.4-0.6,1-0.9,1.7-0.9
				c0.6,0,1.3,0.3,1.6,0.9l1.6,2.5c2.5,3.9,6.2,9.8,9.7,15.6l0.4,0.7c3.8,6.2,8,13.2,4.8,22c-0.4,1-0.8,1.8-1.2,2.7
				c-0.6,1.1-1.3,2.1-2.1,3.1l0,0c0,0-0.1,0.1-0.2,0.2l-0.4,0.4c-2.9,3.1-6.8,5.2-11,5.9C277.8,97.1,276.9,97.1,276,97.1z M275.4,45
				l-1.5,2.5c-3.2,5-6.6,10.5-10,16c-0.3,0.5-1.1,1.7-1.1,1.7c-0.2,0.4-1.8,2.9-1.8,2.9c-1.3,2.3-2.7,5.2-2.9,8.5
				c-0.3,4.7,1.4,9.4,4.8,13c2.6,2.8,6,4.6,9.5,5.3c0.7,0.1,1.5,0.2,2.4,0.2h1.2c0.8,0,1.6-0.1,2.3-0.2c3.7-0.6,7.2-2.5,9.8-5.4
				l0.1-0.1c0.1-0.1,0.2-0.2,0.3-0.3l0.1-0.1c0.7-0.9,1.4-1.8,1.9-2.8c0.4-0.7,0.8-1.5,1.1-2.4c2.9-7.8-1.1-14.4-4.6-20.2l-0.4-0.7
				c-3.5-5.8-7.2-11.7-9.6-15.5L275.4,45z M288.9,89C288.9,89,288.9,89,288.9,89L288.9,89z"/>
			<path class="st3" d="M276.3,105.1h-1.7c-1.3,0-2.6-0.1-3.8-0.3c-5.6-1-10.8-4-14.8-8.2c-5.2-5.6-7.9-13-7.4-20.2
				c0.3-5.1,2.5-9.5,4.5-13c0,0,2.2-3.6,2.5-4.1c0,0,1.1-1.7,1.5-2.4c4.8-7.9,9.6-15.6,14.1-22.7l1.3-1.9c0.7-1,1.8-1.6,2.9-1.6
				c0,0,0,0,0,0c1.2,0,2.3,0.6,2.9,1.6l1,1.6c3.9,6.1,9.1,14.4,13.9,22.3l0.6,1c5.3,8.7,11.2,18.5,6.8,30.7
				c-0.5,1.4-1.1,2.6-1.7,3.7c-0.8,1.5-1.9,3-3,4.4c0,0,0,0,0,0c0,0.1-0.1,0.2-0.2,0.3c0,0,0,0.1-0.1,0.1l-0.4,0.4
				c-4,4.4-9.5,7.3-15.3,8.3C278.8,105,277.5,105.1,276.3,105.1z M275.5,32.5c-0.5,0-1,0.2-1.3,0.7L273,35
				c-4.5,7.1-9.3,14.8-14.1,22.7c-0.5,0.8-1.5,2.5-1.5,2.5c-0.3,0.6-2.5,4.1-2.5,4.1c-1.9,3.3-3.9,7.4-4.2,12.2
				c-0.5,6.7,2,13.6,6.8,18.7c3.7,4,8.6,6.7,13.7,7.6c1.1,0.2,2.2,0.2,3.4,0.2h1.7c1.1,0,2.3-0.1,3.3-0.2c5.4-0.9,10.4-3.6,14.2-7.7
				l0.3-0.3c0.1-0.2,0.2-0.3,0.3-0.4c0,0,0.1-0.1,0.1-0.1c0,0,0,0,0,0l0,0c1.1-1.3,2-2.7,2.8-4.1c0.6-1,1.1-2.2,1.6-3.4
				c4.1-11.2-1.6-20.6-6.6-28.9l-0.6-1c-4.7-7.8-10-16.2-13.9-22.3l-1-1.6C276.5,32.7,276,32.5,275.5,32.5
				C275.5,32.5,275.5,32.5,275.5,32.5z M295.8,95.9C295.8,95.9,295.8,95.9,295.8,95.9C295.8,95.9,295.8,95.9,295.8,95.9z
				 M295.2,95.1L295.2,95.1L295.2,95.1z M294.6,94.3L294.6,94.3L294.6,94.3z M294.6,94.3C294.6,94.3,294.6,94.3,294.6,94.3
				C294.6,94.3,294.6,94.3,294.6,94.3z"/>
		</g>
		<g>
			<path class="st0" d="M341.1,38.7l20,32.3c0,0,5.9,31-22.2,29c-28-2-22.5-28-17.8-33.9S341.1,38.7,341.1,38.7z"/>
			<g>
				<defs>
					<rect id="SVGID_9_" x="313" y="30" width="54.6" height="75.1"/>
				</defs>
				<clipPath id="SVGID_10_">
					<use xlink:href="#SVGID_9_"  style="overflow:visible;"/>
				</clipPath>
				<path class="st7" d="M354.3,89.8c0,0-0.1,0.1-0.1,0.1c-0.1,0.1-0.1,0.1-0.1,0.2l-0.1,0.2l-0.1,0.1c-2.8,3-6.4,5-10.4,5.7
					c-0.8,0.1-1.6,0.2-2.5,0.2h-1.2c-0.8,0-1.7-0.1-2.6-0.2c-3.8-0.7-7.4-2.7-10.1-5.6c-3.5-3.8-5.4-8.8-5-13.8
					c0.2-3.6,1.8-6.6,3.1-8.9c0,0,2.5-4.1,2.9-4.6c3.3-5.5,6.8-11,10-16.1l1.6-2.5c0.2-0.3,0.5-0.4,0.8-0.4c0.3,0,0.6,0.2,0.8,0.4
					l1.6,2.5c2.9,4.6,6.4,10.1,9.7,15.6l0.4,0.7c3.6,6,7.8,12.8,4.7,21.1c-0.3,0.9-0.7,1.7-1.2,2.5C355.7,87.9,355,88.9,354.3,89.8
					 M366.8,77.8c0-0.5,0-1-0.1-1.6c0-0.1,0-0.2,0-0.3l0-0.2c-0.2-1.7-0.5-3.3-1-4.9c-1.6-5.3-4.7-10.3-8.1-15.5
					c-0.7-1.1-1.3-2.1-2-3.2c-3.2-5.1-4.7-7.3-8.1-12c-1.1-1.6-2.5-3.4-4.1-5.7l-1.9-2.7c-0.8-1.3-2.3-0.3-2.7,0.4
					c-1,1.5-1.7,2.4-3.1,4.3l-1.1,1.6c-4,5.6-7.7,11-11.4,17c-0.4,0.6-0.8,1.3-1.2,1.9l-0.1,0.1c-4.2,6.9-8.1,13.4-8.1,20.8
					c0,1.3,0.1,2.7,0.3,4c0.1,0.9,0.3,1.7,0.5,2.6c0.4,1.7,1,3.3,1.8,4.9c0.7,1.5,1.6,3,2.6,4.4c0.5,0.7,1.1,1.3,1.6,2
					c0.3,0.3,0.6,0.6,0.9,0.9c0.6,0.6,1.2,1.2,1.9,1.7c4.7,3.9,10.7,6,16.8,6c0.9,0,1.8-0.1,2.7-0.1c0.9-0.1,1.8-0.2,2.6-0.4
					c0.5-0.1,1-0.2,1.6-0.4c0.8-0.2,1.5-0.4,2.2-0.7c0.8-0.3,1.6-0.6,2.4-1c1.3-0.6,2.5-1.4,3.7-2.2c0.9-0.6,1.8-1.3,2.6-2.1
					c0.3-0.3,0.6-0.6,0.9-0.9c1.6-1.6,3-3.5,4.2-5.5c0.2-0.4,0.5-0.8,0.7-1.2C365.8,86.1,366.8,82,366.8,77.8"/>
			</g>
			<rect x="313.2" y="30" class="st2" width="54.6" height="75.1"/>
			<path class="st3" d="M340.9,97.1h-1.2c-0.9,0-1.9-0.1-2.7-0.2c-4-0.7-7.8-2.8-10.7-5.9c-3.7-4-5.7-9.3-5.3-14.5
				c0.2-3.7,1.8-6.8,3.2-9.4c0,0,1.6-2.5,1.8-2.9c0,0,0.8-1.2,1.1-1.7c3.4-5.6,6.8-11,10-16.1l1.6-2.5c0.4-0.6,1-0.9,1.7-0.9
				c0.6,0,1.3,0.3,1.6,0.9l1.6,2.5c2.5,3.9,6.2,9.8,9.7,15.6l0.4,0.7c3.8,6.2,8,13.2,4.8,22c-0.4,1-0.8,1.8-1.2,2.7
				c-0.6,1.1-1.3,2.1-2.1,3.1l0,0c0,0-0.1,0.1-0.2,0.2l-0.4,0.4c-2.9,3.1-6.8,5.2-11,5.9C342.7,97.1,341.8,97.1,340.9,97.1z
				 M340.3,45l-1.5,2.5c-3.2,5-6.6,10.5-10,16c-0.3,0.5-1.1,1.7-1.1,1.7c-0.2,0.4-1.8,2.9-1.8,2.9c-1.3,2.3-2.7,5.2-2.9,8.5
				c-0.3,4.7,1.4,9.4,4.8,13c2.6,2.8,6,4.6,9.5,5.3c0.7,0.1,1.5,0.2,2.4,0.2h1.2c0.8,0,1.6-0.1,2.3-0.2c3.7-0.6,7.2-2.5,9.8-5.4
				l0.1-0.1c0.1-0.1,0.2-0.2,0.3-0.3l0.1-0.1c0.7-0.9,1.4-1.8,1.9-2.8c0.4-0.7,0.8-1.5,1.1-2.4c2.9-7.8-1.1-14.4-4.6-20.2l-0.4-0.7
				c-3.5-5.8-7.2-11.7-9.6-15.5L340.3,45z M353.8,89C353.8,89,353.8,89,353.8,89L353.8,89z"/>
			<path class="st3" d="M341.2,105.1h-1.7c-1.3,0-2.6-0.1-3.8-0.3c-5.6-1-10.8-4-14.8-8.2c-5.2-5.6-7.9-13-7.4-20.2
				c0.3-5.1,2.5-9.5,4.5-13c0,0,2.2-3.6,2.5-4.1c0,0,1.1-1.7,1.5-2.4c4.8-7.9,9.6-15.6,14.1-22.7l1.3-1.9c0.7-1,1.8-1.6,2.9-1.6
				c0,0,0,0,0,0c1.2,0,2.3,0.6,2.9,1.6l1,1.6c3.9,6.1,9.1,14.4,13.9,22.3l0.6,1c5.3,8.7,11.2,18.5,6.8,30.7
				c-0.5,1.4-1.1,2.6-1.7,3.7c-0.8,1.5-1.9,3-3,4.4c0,0,0,0,0,0c0,0.1-0.1,0.2-0.2,0.3c0,0,0,0.1-0.1,0.1l-0.4,0.4
				c-4,4.4-9.5,7.3-15.3,8.3C343.7,105,342.4,105.1,341.2,105.1z M340.4,32.5c-0.5,0-1,0.2-1.3,0.7l-1.2,1.9
				c-4.5,7.1-9.3,14.8-14.1,22.7c-0.5,0.8-1.5,2.5-1.5,2.5c-0.3,0.6-2.5,4.1-2.5,4.1c-1.9,3.3-3.9,7.4-4.2,12.2
				c-0.5,6.7,2,13.6,6.8,18.7c3.7,4,8.6,6.7,13.7,7.6c1.1,0.2,2.2,0.2,3.4,0.2h1.7c1.1,0,2.3-0.1,3.3-0.2c5.4-0.9,10.4-3.6,14.2-7.7
				l0.3-0.3c0.1-0.2,0.2-0.3,0.3-0.4c0,0,0.1-0.1,0.1-0.1c0,0,0,0,0,0l0,0c1.1-1.3,2-2.7,2.8-4.1c0.6-1,1.1-2.2,1.6-3.4
				c4.1-11.2-1.6-20.6-6.6-28.9l-0.6-1c-4.7-7.8-10-16.2-13.9-22.3l-1-1.6C341.4,32.7,340.9,32.5,340.4,32.5
				C340.4,32.5,340.4,32.5,340.4,32.5z M360.7,95.9C360.7,95.9,360.7,95.9,360.7,95.9C360.7,95.9,360.7,95.9,360.7,95.9z
				 M360.1,95.1L360.1,95.1L360.1,95.1z M359.5,94.3L359.5,94.3L359.5,94.3z M359.5,94.3C359.5,94.3,359.5,94.3,359.5,94.3
				C359.5,94.3,359.5,94.3,359.5,94.3z"/>
		</g>
		<g>
			<path class="st0" d="M406,38.7l20,32.3c0,0,5.9,31-22.2,29c-28-2-22.5-28-17.8-33.9S406,38.7,406,38.7z"/>
			<g>
				<defs>
					<rect id="SVGID_11_" x="377.9" y="30" width="54.6" height="75.1"/>
				</defs>
				<clipPath id="SVGID_12_">
					<use xlink:href="#SVGID_11_"  style="overflow:visible;"/>
				</clipPath>
				<path class="st8" d="M419.2,89.8c0,0-0.1,0.1-0.1,0.1C419,89.9,419,90,419,90l-0.1,0.2l-0.1,0.1c-2.8,3-6.4,5-10.4,5.7
					c-0.8,0.1-1.6,0.2-2.5,0.2h-1.2c-0.8,0-1.7-0.1-2.6-0.2c-3.8-0.7-7.4-2.7-10.1-5.6c-3.5-3.8-5.4-8.8-5-13.8
					c0.2-3.6,1.8-6.6,3.1-8.9c0,0,2.5-4.1,2.9-4.6c3.3-5.5,6.8-11,10-16.1l1.6-2.5c0.2-0.3,0.5-0.4,0.8-0.4c0.3,0,0.6,0.2,0.8,0.4
					l1.6,2.5c2.9,4.6,6.4,10.1,9.7,15.6l0.4,0.7c3.6,6,7.8,12.8,4.7,21.1c-0.3,0.9-0.7,1.7-1.2,2.5
					C420.6,87.9,419.9,88.9,419.2,89.8 M431.7,77.8c0-0.5,0-1-0.1-1.6c0-0.1,0-0.2,0-0.3l0-0.2c-0.2-1.7-0.5-3.3-1-4.9
					c-1.6-5.3-4.7-10.3-8.1-15.5c-0.7-1.1-1.3-2.1-2-3.2c-3.2-5.1-4.7-7.3-8.1-12c-1.1-1.6-2.5-3.4-4.1-5.7l-1.9-2.7
					c-0.8-1.3-2.3-0.3-2.7,0.4c-1,1.5-1.7,2.4-3.1,4.3l-1.1,1.6c-4,5.6-7.7,11-11.4,17c-0.4,0.6-0.8,1.3-1.2,1.9l-0.1,0.1
					c-4.2,6.9-8.1,13.4-8.1,20.8c0,1.3,0.1,2.7,0.3,4c0.1,0.9,0.3,1.7,0.5,2.6c0.4,1.7,1,3.3,1.8,4.9c0.7,1.5,1.6,3,2.6,4.4
					c0.5,0.7,1.1,1.3,1.6,2c0.3,0.3,0.6,0.6,0.9,0.9c0.6,0.6,1.2,1.2,1.9,1.7c4.7,3.9,10.7,6,16.8,6c0.9,0,1.8-0.1,2.7-0.1
					s1.8-0.2,2.6-0.4c0.5-0.1,1-0.2,1.6-0.4c0.8-0.2,1.5-0.4,2.2-0.7c0.8-0.3,1.6-0.6,2.4-1c1.3-0.6,2.5-1.4,3.7-2.2
					c0.9-0.6,1.8-1.3,2.6-2.1c0.3-0.3,0.6-0.6,0.9-0.9c1.6-1.6,3-3.5,4.2-5.5c0.2-0.4,0.5-0.8,0.7-1.2
					C430.7,86.1,431.7,82,431.7,77.8"/>
			</g>
			<rect x="378.1" y="30" class="st2" width="54.6" height="75.1"/>
			<path class="st3" d="M405.8,97.1h-1.2c-0.9,0-1.9-0.1-2.7-0.2c-4-0.7-7.8-2.8-10.7-5.9c-3.7-4-5.7-9.3-5.3-14.5
				c0.2-3.7,1.8-6.8,3.2-9.4c0,0,1.6-2.5,1.8-2.9c0,0,0.8-1.2,1.1-1.7c3.4-5.6,6.8-11,10-16.1l1.6-2.5c0.4-0.6,1-0.9,1.7-0.9
				c0.6,0,1.3,0.3,1.6,0.9l1.6,2.5c2.5,3.9,6.2,9.8,9.7,15.6l0.4,0.7c3.8,6.2,8,13.2,4.8,22c-0.4,1-0.8,1.8-1.2,2.7
				c-0.6,1.1-1.3,2.1-2.1,3.1l0,0c0,0-0.1,0.1-0.2,0.2l-0.4,0.4c-2.9,3.1-6.8,5.2-11,5.9C407.6,97.1,406.7,97.1,405.8,97.1z
				 M405.2,45l-1.5,2.5c-3.2,5-6.6,10.5-10,16c-0.3,0.5-1.1,1.7-1.1,1.7c-0.2,0.4-1.8,2.9-1.8,2.9c-1.3,2.3-2.7,5.2-2.9,8.5
				c-0.3,4.7,1.4,9.4,4.8,13c2.6,2.8,6,4.6,9.5,5.3c0.7,0.1,1.5,0.2,2.4,0.2h1.2c0.8,0,1.6-0.1,2.3-0.2c3.7-0.6,7.2-2.5,9.8-5.4
				l0.1-0.1c0.1-0.1,0.2-0.2,0.3-0.3l0.1-0.1c0.7-0.9,1.4-1.8,1.9-2.8c0.4-0.7,0.8-1.5,1.1-2.4c2.9-7.8-1.1-14.4-4.6-20.2l-0.4-0.7
				c-3.5-5.8-7.2-11.7-9.6-15.5L405.2,45z M418.7,89C418.7,89,418.7,89,418.7,89L418.7,89z"/>
			<path class="st3" d="M406.1,105.1h-1.7c-1.3,0-2.6-0.1-3.8-0.3c-5.6-1-10.8-4-14.8-8.2c-5.2-5.6-7.9-13-7.4-20.2
				c0.3-5.1,2.5-9.5,4.5-13c0,0,2.2-3.6,2.5-4.1c0,0,1.1-1.7,1.5-2.4c4.8-7.9,9.6-15.6,14.1-22.7l1.3-1.9c0.7-1,1.8-1.6,2.9-1.6
				c0,0,0,0,0,0c1.2,0,2.3,0.6,2.9,1.6l1,1.6c3.9,6.1,9.1,14.4,13.9,22.3l0.6,1c5.3,8.7,11.2,18.5,6.8,30.7
				c-0.5,1.4-1.1,2.6-1.7,3.7c-0.8,1.5-1.9,3-3,4.4c0,0,0,0,0,0c0,0.1-0.1,0.2-0.2,0.3c0,0,0,0.1-0.1,0.1l-0.4,0.4
				c-4,4.4-9.5,7.3-15.3,8.3C408.6,105,407.3,105.1,406.1,105.1z M405.3,32.5c-0.5,0-1,0.2-1.3,0.7l-1.2,1.9
				c-4.5,7.1-9.3,14.8-14.1,22.7c-0.5,0.8-1.5,2.5-1.5,2.5c-0.3,0.6-2.5,4.1-2.5,4.1c-1.9,3.3-3.9,7.4-4.2,12.2
				c-0.5,6.7,2,13.6,6.8,18.7c3.7,4,8.6,6.7,13.7,7.6c1.1,0.2,2.2,0.2,3.4,0.2h1.7c1.1,0,2.3-0.1,3.3-0.2c5.4-0.9,10.4-3.6,14.2-7.7
				l0.3-0.3c0.1-0.2,0.2-0.3,0.3-0.4c0,0,0.1-0.1,0.1-0.1c0,0,0,0,0,0l0,0c1.1-1.3,2-2.7,2.8-4.1c0.6-1,1.1-2.2,1.6-3.4
				c4.1-11.2-1.6-20.6-6.6-28.9l-0.6-1c-4.7-7.8-10-16.2-13.9-22.3l-1-1.6C406.3,32.7,405.8,32.5,405.3,32.5
				C405.3,32.5,405.3,32.5,405.3,32.5z M425.6,95.9C425.6,95.9,425.6,95.9,425.6,95.9C425.6,95.9,425.6,95.9,425.6,95.9z M425,95.1
				L425,95.1L425,95.1z M424.4,94.3L424.4,94.3L424.4,94.3z M424.4,94.3C424.4,94.3,424.4,94.3,424.4,94.3
				C424.4,94.3,424.4,94.3,424.4,94.3z"/>
		</g>
		<g>
			<path class="st0" d="M470.9,38.7l20,32.3c0,0,5.9,31-22.2,29c-28-2-22.5-28-17.8-33.9S470.9,38.7,470.9,38.7z"/>
			<g>
				<defs>
					<rect id="SVGID_13_" x="442.8" y="30" width="54.6" height="75.1"/>
				</defs>
				<clipPath id="SVGID_14_">
					<use xlink:href="#SVGID_13_"  style="overflow:visible;"/>
				</clipPath>
				<path class="st9" d="M484.1,89.8c0,0-0.1,0.1-0.1,0.1c-0.1,0.1-0.1,0.1-0.1,0.2l-0.1,0.2l-0.1,0.1c-2.8,3-6.4,5-10.4,5.7
					c-0.8,0.1-1.6,0.2-2.5,0.2h-1.2c-0.8,0-1.7-0.1-2.6-0.2c-3.8-0.7-7.4-2.7-10.1-5.6c-3.5-3.8-5.4-8.8-5-13.8
					c0.2-3.6,1.8-6.6,3.1-8.9c0,0,2.5-4.1,2.9-4.6c3.3-5.5,6.8-11,10-16.1l1.6-2.5c0.2-0.3,0.5-0.4,0.8-0.4c0.3,0,0.6,0.2,0.8,0.4
					l1.6,2.5c2.9,4.6,6.4,10.1,9.7,15.6l0.4,0.7c3.6,6,7.8,12.8,4.7,21.1c-0.3,0.9-0.7,1.7-1.2,2.5
					C485.5,87.9,484.8,88.9,484.1,89.8 M496.6,77.8c0-0.5,0-1-0.1-1.6c0-0.1,0-0.2,0-0.3l0-0.2c-0.2-1.7-0.5-3.3-1-4.9
					c-1.6-5.3-4.7-10.3-8.1-15.5c-0.7-1.1-1.3-2.1-2-3.2c-3.2-5.1-4.7-7.3-8.1-12c-1.1-1.6-2.5-3.4-4.1-5.7l-1.9-2.7
					c-0.8-1.3-2.3-0.3-2.7,0.4c-1,1.5-1.7,2.4-3.1,4.3l-1.1,1.6c-4,5.6-7.7,11-11.4,17c-0.4,0.6-0.8,1.3-1.2,1.9l-0.1,0.1
					c-4.2,6.9-8.1,13.4-8.1,20.8c0,1.3,0.1,2.7,0.3,4c0.1,0.9,0.3,1.7,0.5,2.6c0.4,1.7,1,3.3,1.8,4.9c0.7,1.5,1.6,3,2.6,4.4
					c0.5,0.7,1.1,1.3,1.6,2c0.3,0.3,0.6,0.6,0.9,0.9c0.6,0.6,1.2,1.2,1.9,1.7c4.7,3.9,10.7,6,16.8,6c0.9,0,1.8-0.1,2.7-0.1
					s1.8-0.2,2.6-0.4c0.5-0.1,1-0.2,1.6-0.4c0.8-0.2,1.5-0.4,2.2-0.7c0.8-0.3,1.6-0.6,2.4-1c1.3-0.6,2.5-1.4,3.7-2.2
					c0.9-0.6,1.8-1.3,2.6-2.1c0.3-0.3,0.6-0.6,0.9-0.9c1.6-1.6,3-3.5,4.2-5.5c0.2-0.4,0.5-0.8,0.7-1.2
					C495.6,86.1,496.6,82,496.6,77.8"/>
			</g>
			<rect x="443" y="30" class="st2" width="54.6" height="75.1"/>
			<path class="st3" d="M470.7,97.1h-1.2c-0.9,0-1.9-0.1-2.7-0.2c-4-0.7-7.8-2.8-10.7-5.9c-3.7-4-5.7-9.3-5.3-14.5
				c0.2-3.7,1.8-6.8,3.2-9.4c0,0,1.6-2.5,1.8-2.9c0,0,0.8-1.2,1.1-1.7c3.4-5.6,6.8-11,10-16.1l1.6-2.5c0.4-0.6,1-0.9,1.7-0.9
				c0.6,0,1.3,0.3,1.6,0.9l1.6,2.5c2.5,3.9,6.2,9.8,9.7,15.6l0.4,0.7c3.8,6.2,8,13.2,4.8,22c-0.4,1-0.8,1.8-1.2,2.7
				c-0.6,1.1-1.3,2.1-2.1,3.1l0,0c0,0-0.1,0.1-0.2,0.2l-0.4,0.4c-2.9,3.1-6.8,5.2-11,5.9C472.5,97.1,471.6,97.1,470.7,97.1z
				 M470.1,45l-1.5,2.5c-3.2,5-6.6,10.5-10,16c-0.3,0.5-1.1,1.7-1.1,1.7c-0.2,0.4-1.8,2.9-1.8,2.9c-1.3,2.3-2.7,5.2-2.9,8.5
				c-0.3,4.7,1.4,9.4,4.8,13c2.6,2.8,6,4.6,9.5,5.3c0.7,0.1,1.5,0.2,2.4,0.2h1.2c0.8,0,1.6-0.1,2.3-0.2c3.7-0.6,7.2-2.5,9.8-5.4
				l0.1-0.1c0.1-0.1,0.2-0.2,0.3-0.3l0.1-0.1c0.7-0.9,1.4-1.8,1.9-2.8c0.4-0.7,0.8-1.5,1.1-2.4c2.9-7.8-1.1-14.4-4.6-20.2l-0.4-0.7
				c-3.5-5.8-7.2-11.7-9.6-15.5L470.1,45z M483.6,89C483.6,89,483.6,89,483.6,89L483.6,89z"/>
			<path class="st3" d="M471,105.1h-1.7c-1.3,0-2.6-0.1-3.8-0.3c-5.6-1-10.8-4-14.8-8.2c-5.2-5.6-7.9-13-7.4-20.2
				c0.3-5.1,2.5-9.5,4.5-13c0,0,2.2-3.6,2.5-4.1c0,0,1.1-1.7,1.5-2.4c4.8-7.9,9.6-15.6,14.1-22.7l1.3-1.9c0.7-1,1.8-1.6,2.9-1.6
				c0,0,0,0,0,0c1.2,0,2.3,0.6,2.9,1.6l1,1.6c3.9,6.1,9.1,14.4,13.9,22.3l0.6,1c5.3,8.7,11.2,18.5,6.8,30.7
				c-0.5,1.4-1.1,2.6-1.7,3.7c-0.8,1.5-1.9,3-3,4.4c0,0,0,0,0,0c0,0.1-0.1,0.2-0.2,0.3c0,0,0,0.1-0.1,0.1l-0.4,0.4
				c-4,4.4-9.5,7.3-15.3,8.3C473.5,105,472.2,105.1,471,105.1z M470.2,32.5c-0.5,0-1,0.2-1.3,0.7l-1.2,1.9
				c-4.5,7.1-9.3,14.8-14.1,22.7c-0.5,0.8-1.5,2.5-1.5,2.5c-0.3,0.6-2.5,4.1-2.5,4.1c-1.9,3.3-3.9,7.4-4.2,12.2
				c-0.5,6.7,2,13.6,6.8,18.7c3.7,4,8.6,6.7,13.7,7.6c1.1,0.2,2.2,0.2,3.4,0.2h1.7c1.1,0,2.3-0.1,3.3-0.2c5.4-0.9,10.4-3.6,14.2-7.7
				l0.3-0.3c0.1-0.2,0.2-0.3,0.3-0.4c0,0,0.1-0.1,0.1-0.1c0,0,0,0,0,0l0,0c1.1-1.3,2-2.7,2.8-4.1c0.6-1,1.1-2.2,1.6-3.4
				c4.1-11.2-1.6-20.6-6.6-28.9l-0.6-1c-4.7-7.8-10-16.2-13.9-22.3l-1-1.6C471.2,32.7,470.7,32.5,470.2,32.5
				C470.2,32.5,470.2,32.5,470.2,32.5z M490.5,95.9C490.5,95.9,490.5,95.9,490.5,95.9C490.5,95.9,490.5,95.9,490.5,95.9z
				 M489.9,95.1L489.9,95.1L489.9,95.1z M489.3,94.3L489.3,94.3L489.3,94.3z M489.3,94.3C489.3,94.3,489.3,94.3,489.3,94.3
				C489.3,94.3,489.3,94.3,489.3,94.3z"/>
		</g>
		<g>
			<path class="st0" d="M535.8,38.7l20,32.3c0,0,5.9,31-22.2,29c-28-2-22.5-28-17.8-33.9C520.6,60.2,535.8,38.7,535.8,38.7z"/>
			<g>
				<defs>
					<rect id="SVGID_15_" x="507.7" y="30" width="54.6" height="75.1"/>
				</defs>
				<clipPath id="SVGID_16_">
					<use xlink:href="#SVGID_15_"  style="overflow:visible;"/>
				</clipPath>
				<path class="st10" d="M549,89.8c0,0-0.1,0.1-0.1,0.1c-0.1,0.1-0.1,0.1-0.1,0.2l-0.1,0.2l-0.1,0.1c-2.8,3-6.4,5-10.4,5.7
					c-0.8,0.1-1.6,0.2-2.5,0.2h-1.2c-0.8,0-1.7-0.1-2.6-0.2c-3.8-0.7-7.4-2.7-10.1-5.6c-3.5-3.8-5.4-8.8-5-13.8
					c0.2-3.6,1.8-6.6,3.1-8.9c0,0,2.5-4.1,2.9-4.6c3.3-5.5,6.8-11,10-16.1l1.6-2.5c0.2-0.3,0.5-0.4,0.8-0.4c0.3,0,0.6,0.2,0.8,0.4
					l1.6,2.5c2.9,4.6,6.4,10.1,9.7,15.6l0.4,0.7c3.6,6,7.8,12.8,4.7,21.1c-0.3,0.9-0.7,1.7-1.2,2.5C550.4,87.9,549.7,88.9,549,89.8
					 M561.5,77.8c0-0.5,0-1-0.1-1.6c0-0.1,0-0.2,0-0.3l0-0.2c-0.2-1.7-0.5-3.3-1-4.9c-1.6-5.3-4.7-10.3-8.1-15.5
					c-0.7-1.1-1.3-2.1-2-3.2c-3.2-5.1-4.7-7.3-8.1-12c-1.1-1.6-2.5-3.4-4.1-5.7l-1.9-2.7c-0.8-1.3-2.3-0.3-2.7,0.4
					c-1,1.5-1.7,2.4-3.1,4.3l-1.1,1.6c-4,5.6-7.7,11-11.4,17c-0.4,0.6-0.8,1.3-1.2,1.9l-0.1,0.1c-4.2,6.9-8.1,13.4-8.1,20.8
					c0,1.3,0.1,2.7,0.3,4c0.1,0.9,0.3,1.7,0.5,2.6c0.4,1.7,1,3.3,1.8,4.9c0.7,1.5,1.6,3,2.6,4.4c0.5,0.7,1.1,1.3,1.6,2
					c0.3,0.3,0.6,0.6,0.9,0.9c0.6,0.6,1.2,1.2,1.9,1.7c4.7,3.9,10.7,6,16.8,6c0.9,0,1.8-0.1,2.7-0.1s1.8-0.2,2.6-0.4
					c0.5-0.1,1-0.2,1.6-0.4c0.8-0.2,1.5-0.4,2.2-0.7c0.8-0.3,1.6-0.6,2.4-1c1.3-0.6,2.5-1.4,3.8-2.2c0.9-0.6,1.8-1.3,2.6-2.1
					c0.3-0.3,0.6-0.6,0.9-0.9c1.6-1.6,3-3.5,4.2-5.5c0.2-0.4,0.5-0.8,0.7-1.2C560.5,86.1,561.5,82,561.5,77.8"/>
			</g>
			<rect x="507.9" y="30" class="st2" width="54.6" height="75.1"/>
			<path class="st3" d="M535.6,97.1h-1.2c-0.9,0-1.9-0.1-2.7-0.2c-4-0.7-7.8-2.8-10.7-5.9c-3.7-4-5.7-9.3-5.3-14.5
				c0.2-3.7,1.8-6.8,3.2-9.4c0,0,1.6-2.5,1.8-2.9c0,0,0.8-1.2,1.1-1.7c3.4-5.6,6.8-11,10-16.1l1.6-2.5c0.4-0.6,1-0.9,1.7-0.9
				c0.6,0,1.3,0.3,1.6,0.9l1.6,2.5c2.5,3.9,6.2,9.8,9.7,15.6l0.4,0.7c3.8,6.2,8,13.2,4.8,22c-0.4,1-0.8,1.8-1.2,2.7
				c-0.6,1.1-1.3,2.1-2.1,3.1l0,0c0,0-0.1,0.1-0.2,0.2l-0.4,0.4c-2.9,3.1-6.8,5.2-11,5.9C537.4,97.1,536.5,97.1,535.6,97.1z M535,45
				l-1.5,2.5c-3.2,5-6.6,10.5-10,16c-0.3,0.5-1.1,1.7-1.1,1.7c-0.2,0.4-1.8,2.9-1.8,2.9c-1.3,2.3-2.7,5.2-2.9,8.5
				c-0.3,4.7,1.4,9.4,4.8,13c2.6,2.8,6,4.6,9.5,5.3c0.7,0.1,1.5,0.2,2.4,0.2h1.2c0.8,0,1.6-0.1,2.3-0.2c3.7-0.6,7.2-2.5,9.8-5.4
				l0.1-0.1c0.1-0.1,0.2-0.2,0.3-0.3l0.1-0.1c0.7-0.9,1.4-1.8,1.9-2.8c0.4-0.7,0.8-1.5,1.1-2.4c2.9-7.8-1.1-14.4-4.6-20.2l-0.4-0.7
				c-3.5-5.8-7.2-11.7-9.6-15.5L535,45z M548.5,89C548.5,89,548.5,89,548.5,89L548.5,89z"/>
			<path class="st3" d="M535.9,105.1h-1.7c-1.3,0-2.6-0.1-3.8-0.3c-5.6-1-10.8-4-14.8-8.2c-5.2-5.6-7.9-13-7.4-20.2
				c0.3-5.1,2.5-9.5,4.5-13c0,0,2.2-3.6,2.5-4.1c0,0,1.1-1.7,1.5-2.4c4.8-7.9,9.6-15.6,14.1-22.7l1.3-1.9c0.7-1,1.8-1.6,2.9-1.6
				c0,0,0,0,0,0c1.2,0,2.3,0.6,2.9,1.6l1,1.6c3.9,6.1,9.1,14.4,13.9,22.3l0.6,1c5.3,8.7,11.2,18.5,6.8,30.7
				c-0.5,1.4-1.1,2.6-1.7,3.7c-0.8,1.5-1.9,3-3,4.4c0,0,0,0,0,0c0,0.1-0.1,0.2-0.2,0.3c0,0,0,0.1-0.1,0.1l-0.4,0.4
				c-4,4.4-9.5,7.3-15.3,8.3C538.4,105,537.1,105.1,535.9,105.1z M535.1,32.5c-0.5,0-1,0.2-1.3,0.7l-1.2,1.9
				c-4.5,7.1-9.3,14.8-14.1,22.7c-0.5,0.8-1.5,2.5-1.5,2.5c-0.3,0.6-2.5,4.1-2.5,4.1c-1.9,3.3-3.9,7.4-4.2,12.2
				c-0.5,6.7,2,13.6,6.8,18.7c3.7,4,8.6,6.7,13.7,7.6c1.1,0.2,2.2,0.2,3.4,0.2h1.7c1.1,0,2.3-0.1,3.3-0.2c5.4-0.9,10.4-3.6,14.2-7.7
				l0.3-0.3c0.1-0.2,0.2-0.3,0.3-0.4c0,0,0.1-0.1,0.1-0.1c0,0,0,0,0,0l0,0c1.1-1.3,2-2.7,2.8-4.1c0.6-1,1.1-2.2,1.6-3.4
				c4.1-11.2-1.6-20.6-6.6-28.9l-0.6-1c-4.7-7.8-10-16.2-13.9-22.3l-1-1.6C536.1,32.7,535.6,32.5,535.1,32.5
				C535.1,32.5,535.1,32.5,535.1,32.5z M555.4,95.9C555.4,95.9,555.4,95.9,555.4,95.9C555.4,95.9,555.4,95.9,555.4,95.9z
				 M554.8,95.1L554.8,95.1L554.8,95.1z M554.2,94.3L554.2,94.3L554.2,94.3z M554.2,94.3C554.2,94.3,554.2,94.3,554.2,94.3
				C554.2,94.3,554.2,94.3,554.2,94.3z"/>
		</g>
		<g>
			<path class="st0" d="M600.7,38.7l20,32.3c0,0,5.9,31-22.2,29c-28-2-22.5-28-17.8-33.9C585.5,60.2,600.7,38.7,600.7,38.7z"/>
			<g>
				<defs>
					<rect id="SVGID_17_" x="572.6" y="30" width="54.6" height="75.1"/>
				</defs>
				<clipPath id="SVGID_18_">
					<use xlink:href="#SVGID_17_"  style="overflow:visible;"/>
				</clipPath>
				<path class="st11" d="M613.9,89.8c0,0-0.1,0.1-0.1,0.1c-0.1,0.1-0.1,0.1-0.1,0.2l-0.1,0.2l-0.1,0.1c-2.8,3-6.4,5-10.4,5.7
					c-0.8,0.1-1.6,0.2-2.5,0.2h-1.2c-0.8,0-1.7-0.1-2.6-0.2c-3.8-0.7-7.4-2.7-10.1-5.6c-3.5-3.8-5.4-8.8-5-13.8
					c0.2-3.6,1.8-6.6,3.1-8.9c0,0,2.5-4.1,2.9-4.6c3.3-5.5,6.8-11,10-16.1l1.6-2.5c0.2-0.3,0.5-0.4,0.8-0.4c0.3,0,0.6,0.2,0.8,0.4
					l1.6,2.5c2.9,4.6,6.4,10.1,9.7,15.6l0.4,0.7c3.6,6,7.8,12.8,4.7,21.1c-0.3,0.9-0.7,1.7-1.2,2.5
					C615.3,87.9,614.6,88.9,613.9,89.8 M626.4,77.8c0-0.5,0-1-0.1-1.6c0-0.1,0-0.2,0-0.3l0-0.2c-0.2-1.7-0.5-3.3-1-4.9
					c-1.6-5.3-4.7-10.3-8.1-15.5c-0.7-1.1-1.3-2.1-2-3.2c-3.2-5.1-4.7-7.3-8.1-12c-1.1-1.6-2.5-3.4-4.1-5.7l-1.9-2.7
					c-0.8-1.3-2.3-0.3-2.7,0.4c-1,1.5-1.7,2.4-3.1,4.3l-1.1,1.6c-4,5.6-7.7,11-11.4,17c-0.4,0.6-0.8,1.3-1.2,1.9l-0.1,0.1
					c-4.2,6.9-8.1,13.4-8.1,20.8c0,1.3,0.1,2.7,0.3,4c0.1,0.9,0.3,1.7,0.5,2.6c0.4,1.7,1,3.3,1.8,4.9c0.7,1.5,1.6,3,2.6,4.4
					c0.5,0.7,1.1,1.3,1.6,2c0.3,0.3,0.6,0.6,0.9,0.9c0.6,0.6,1.2,1.2,1.9,1.7c4.7,3.9,10.7,6,16.8,6c0.9,0,1.8-0.1,2.7-0.1
					c0.9-0.1,1.8-0.2,2.6-0.4c0.5-0.1,1-0.2,1.6-0.4c0.8-0.2,1.5-0.4,2.2-0.7c0.8-0.3,1.6-0.6,2.4-1c1.3-0.6,2.5-1.4,3.7-2.2
					c0.9-0.6,1.8-1.3,2.6-2.1c0.3-0.3,0.6-0.6,0.9-0.9c1.6-1.6,3-3.5,4.2-5.5c0.2-0.4,0.5-0.8,0.7-1.2
					C625.4,86.1,626.4,82,626.4,77.8"/>
			</g>
			<rect x="572.8" y="30" class="st2" width="54.6" height="75.1"/>
			<path class="st3" d="M600.5,97.1h-1.2c-0.9,0-1.9-0.1-2.7-0.2c-4-0.7-7.8-2.8-10.7-5.9c-3.7-4-5.7-9.3-5.3-14.5
				c0.2-3.7,1.8-6.8,3.2-9.4c0,0,1.6-2.5,1.8-2.9c0,0,0.8-1.2,1.1-1.7c3.4-5.6,6.8-11,10-16.1l1.6-2.5c0.4-0.6,1-0.9,1.7-0.9
				c0.6,0,1.3,0.3,1.6,0.9l1.6,2.5c2.5,3.9,6.2,9.8,9.7,15.6l0.4,0.7c3.8,6.2,8,13.2,4.8,22c-0.4,1-0.8,1.8-1.2,2.7
				c-0.6,1.1-1.3,2.1-2.1,3.1l0,0c0,0-0.1,0.1-0.2,0.2l-0.4,0.4c-2.9,3.1-6.8,5.2-11,5.9C602.3,97.1,601.4,97.1,600.5,97.1z
				 M599.9,45l-1.5,2.5c-3.2,5-6.6,10.5-10,16c-0.3,0.5-1.1,1.7-1.1,1.7c-0.2,0.4-1.8,2.9-1.8,2.9c-1.3,2.3-2.7,5.2-2.9,8.5
				c-0.3,4.7,1.4,9.4,4.8,13c2.6,2.8,6,4.6,9.5,5.3c0.7,0.1,1.5,0.2,2.4,0.2h1.2c0.8,0,1.6-0.1,2.3-0.2c3.7-0.6,7.2-2.5,9.8-5.4
				l0.1-0.1c0.1-0.1,0.2-0.2,0.3-0.3l0.1-0.1c0.7-0.9,1.4-1.8,1.9-2.8c0.4-0.7,0.8-1.5,1.1-2.4c2.9-7.8-1.1-14.4-4.6-20.2l-0.4-0.7
				c-3.5-5.8-7.2-11.7-9.6-15.5L599.9,45z M613.4,89C613.4,89,613.4,89,613.4,89L613.4,89z"/>
			<path class="st3" d="M600.8,105.1h-1.7c-1.3,0-2.6-0.1-3.8-0.3c-5.6-1-10.8-4-14.8-8.2c-5.2-5.6-7.9-13-7.4-20.2
				c0.3-5.1,2.5-9.5,4.5-13c0,0,2.2-3.6,2.5-4.1c0,0,1.1-1.7,1.5-2.4c4.8-7.9,9.6-15.6,14.1-22.7l1.3-1.9c0.7-1,1.8-1.6,2.9-1.6
				c0,0,0,0,0,0c1.2,0,2.3,0.6,2.9,1.6l1,1.6c3.9,6.1,9.1,14.4,13.9,22.3l0.6,1c5.3,8.7,11.2,18.5,6.8,30.7
				c-0.5,1.4-1.1,2.6-1.7,3.7c-0.8,1.5-1.9,3-3,4.4c0,0,0,0,0,0c0,0.1-0.1,0.2-0.2,0.3c0,0,0,0.1-0.1,0.1l-0.4,0.4
				c-4,4.4-9.5,7.3-15.3,8.3C603.3,105,602,105.1,600.8,105.1z M600,32.5c-0.5,0-1,0.2-1.3,0.7l-1.2,1.9
				c-4.5,7.1-9.3,14.8-14.1,22.7c-0.5,0.8-1.5,2.5-1.5,2.5c-0.3,0.6-2.5,4.1-2.5,4.1c-1.9,3.3-3.9,7.4-4.2,12.2
				c-0.5,6.7,2,13.6,6.8,18.7c3.7,4,8.6,6.7,13.7,7.6c1.1,0.2,2.2,0.2,3.4,0.2h1.7c1.1,0,2.3-0.1,3.3-0.2c5.4-0.9,10.4-3.6,14.2-7.7
				l0.3-0.3c0.1-0.2,0.2-0.3,0.3-0.4c0,0,0.1-0.1,0.1-0.1c0,0,0,0,0,0l0,0c1.1-1.3,2-2.7,2.8-4.1c0.6-1,1.1-2.2,1.6-3.4
				c4.1-11.2-1.6-20.6-6.6-28.9l-0.6-1c-4.7-7.8-10-16.2-13.9-22.3l-1-1.6C601,32.7,600.5,32.5,600,32.5C600,32.5,600,32.5,600,32.5
				z M620.3,95.9C620.3,95.9,620.3,95.9,620.3,95.9C620.3,95.9,620.3,95.9,620.3,95.9z M619.7,95.1L619.7,95.1L619.7,95.1z
				 M619.1,94.3L619.1,94.3L619.1,94.3z M619.1,94.3C619.1,94.3,619.1,94.3,619.1,94.3C619.1,94.3,619.1,94.3,619.1,94.3z"/>
		</g>
		<g>
			<path class="st0" d="M665.6,38.7l20,32.3c0,0,5.9,31-22.2,29c-28-2-22.5-28-17.8-33.9C650.4,60.2,665.6,38.7,665.6,38.7z"/>
			<g>
				<defs>
					<rect id="SVGID_19_" x="637.5" y="30" width="54.6" height="75.1"/>
				</defs>
				<clipPath id="SVGID_20_">
					<use xlink:href="#SVGID_19_"  style="overflow:visible;"/>
				</clipPath>
				<path class="st12" d="M678.8,89.8c0,0-0.1,0.1-0.1,0.1c-0.1,0.1-0.1,0.1-0.1,0.2l-0.1,0.2l-0.1,0.1c-2.8,3-6.4,5-10.4,5.7
					c-0.8,0.1-1.6,0.2-2.5,0.2h-1.2c-0.8,0-1.7-0.1-2.6-0.2c-3.8-0.7-7.4-2.7-10.1-5.6c-3.5-3.8-5.4-8.8-5-13.8
					c0.2-3.6,1.8-6.6,3.1-8.9c0,0,2.5-4.1,2.9-4.6c3.3-5.5,6.8-11,10-16.1l1.6-2.5c0.2-0.3,0.5-0.4,0.8-0.4c0.3,0,0.6,0.2,0.8,0.4
					l1.6,2.5c2.9,4.6,6.4,10.1,9.7,15.6l0.4,0.7c3.6,6,7.8,12.8,4.7,21.1c-0.3,0.9-0.7,1.7-1.2,2.5
					C680.2,87.9,679.5,88.9,678.8,89.8 M691.3,77.8c0-0.5,0-1-0.1-1.6c0-0.1,0-0.2,0-0.3l0-0.2c-0.2-1.7-0.5-3.3-1-4.9
					c-1.6-5.3-4.7-10.3-8.1-15.5c-0.7-1.1-1.3-2.1-2-3.2c-3.2-5.1-4.7-7.3-8.1-12c-1.1-1.6-2.5-3.4-4.1-5.7l-1.9-2.7
					c-0.8-1.3-2.3-0.3-2.7,0.4c-1,1.5-1.7,2.4-3.1,4.3l-1.1,1.6c-4,5.6-7.7,11-11.4,17c-0.4,0.6-0.8,1.3-1.2,1.9l-0.1,0.1
					c-4.2,6.9-8.1,13.4-8.1,20.8c0,1.3,0.1,2.7,0.3,4c0.1,0.9,0.3,1.7,0.5,2.6c0.4,1.7,1,3.3,1.8,4.9c0.7,1.5,1.6,3,2.6,4.4
					c0.5,0.7,1.1,1.3,1.6,2c0.3,0.3,0.6,0.6,0.9,0.9c0.6,0.6,1.2,1.2,1.9,1.7c4.7,3.9,10.7,6,16.8,6c0.9,0,1.8-0.1,2.7-0.1
					s1.8-0.2,2.6-0.4c0.5-0.1,1-0.2,1.6-0.4c0.8-0.2,1.5-0.4,2.2-0.7c0.8-0.3,1.6-0.6,2.4-1c1.3-0.6,2.5-1.4,3.8-2.2
					c0.9-0.6,1.8-1.3,2.6-2.1c0.3-0.3,0.6-0.6,0.9-0.9c1.6-1.6,3-3.5,4.2-5.5c0.2-0.4,0.5-0.8,0.7-1.2
					C690.3,86.1,691.3,82,691.3,77.8"/>
			</g>
			<rect x="637.7" y="30" class="st2" width="54.6" height="75.1"/>
			<path class="st3" d="M665.4,97.1h-1.2c-0.9,0-1.9-0.1-2.7-0.2c-4-0.7-7.8-2.8-10.7-5.9c-3.7-4-5.7-9.3-5.3-14.5
				c0.2-3.7,1.8-6.8,3.2-9.4c0,0,1.6-2.5,1.8-2.9c0,0,0.8-1.2,1.1-1.7c3.4-5.6,6.8-11,10-16.1l1.6-2.5c0.4-0.6,1-0.9,1.7-0.9
				c0.6,0,1.3,0.3,1.6,0.9l1.6,2.5c2.5,3.9,6.2,9.8,9.7,15.6l0.4,0.7c3.8,6.2,8,13.2,4.8,22c-0.4,1-0.8,1.8-1.2,2.7
				c-0.6,1.1-1.3,2.1-2.1,3.1l0,0c0,0-0.1,0.1-0.2,0.2L679,91c-2.9,3.1-6.8,5.2-11,5.9C667.2,97.1,666.3,97.1,665.4,97.1z M664.8,45
				l-1.5,2.5c-3.2,5-6.6,10.5-10,16c-0.3,0.5-1.1,1.7-1.1,1.7c-0.2,0.4-1.8,2.9-1.8,2.9c-1.3,2.3-2.7,5.2-2.9,8.5
				c-0.3,4.7,1.4,9.4,4.8,13c2.6,2.8,6,4.6,9.5,5.3c0.7,0.1,1.5,0.2,2.4,0.2h1.2c0.8,0,1.6-0.1,2.3-0.2c3.7-0.6,7.2-2.5,9.8-5.4
				l0.1-0.1c0.1-0.1,0.2-0.2,0.3-0.3l0.1-0.1c0.7-0.9,1.4-1.8,1.9-2.8c0.4-0.7,0.8-1.5,1.1-2.4c2.9-7.8-1.1-14.4-4.6-20.2L676,63
				c-3.5-5.8-7.2-11.7-9.6-15.5L664.8,45z M678.3,89C678.3,89,678.3,89,678.3,89L678.3,89z"/>
			<path class="st3" d="M665.7,105.1H664c-1.3,0-2.6-0.1-3.8-0.3c-5.6-1-10.8-4-14.8-8.2c-5.2-5.6-7.9-13-7.4-20.2
				c0.3-5.1,2.5-9.5,4.5-13c0,0,2.2-3.6,2.5-4.1c0,0,1.1-1.7,1.5-2.4c4.8-7.9,9.6-15.6,14.1-22.7l1.3-1.9c0.7-1,1.8-1.6,2.9-1.6
				c0,0,0,0,0,0c1.2,0,2.3,0.6,2.9,1.6l1,1.6c3.9,6.1,9.1,14.4,13.9,22.3l0.6,1c5.3,8.7,11.2,18.5,6.8,30.7
				c-0.5,1.4-1.1,2.6-1.7,3.7c-0.8,1.5-1.9,3-3,4.4c0,0,0,0,0,0c0,0.1-0.1,0.2-0.2,0.3c0,0,0,0.1-0.1,0.1l-0.4,0.4
				c-4,4.4-9.5,7.3-15.3,8.3C668.2,105,666.9,105.1,665.7,105.1z M664.9,32.5c-0.5,0-1,0.2-1.3,0.7l-1.2,1.9
				c-4.5,7.1-9.3,14.8-14.1,22.7c-0.5,0.8-1.5,2.5-1.5,2.5c-0.3,0.6-2.5,4.1-2.5,4.1c-1.9,3.3-3.9,7.4-4.2,12.2
				c-0.5,6.7,2,13.6,6.8,18.7c3.7,4,8.6,6.7,13.7,7.6c1.1,0.2,2.2,0.2,3.4,0.2h1.7c1.1,0,2.3-0.1,3.3-0.2c5.4-0.9,10.4-3.6,14.2-7.7
				l0.3-0.3c0.1-0.2,0.2-0.3,0.3-0.4c0,0,0.1-0.1,0.1-0.1c0,0,0,0,0,0l0,0c1.1-1.3,2-2.7,2.8-4.1c0.6-1,1.1-2.2,1.6-3.4
				c4.1-11.2-1.6-20.6-6.6-28.9l-0.6-1c-4.7-7.8-10-16.2-13.9-22.3l-1-1.6C665.9,32.7,665.4,32.5,664.9,32.5
				C664.9,32.5,664.9,32.5,664.9,32.5z M685.2,95.9C685.2,95.9,685.2,95.9,685.2,95.9C685.2,95.9,685.2,95.9,685.2,95.9z
				 M684.6,95.1L684.6,95.1L684.6,95.1z M684,94.3L684,94.3L684,94.3z M684,94.3C684,94.3,684,94.3,684,94.3
				C684,94.3,684,94.3,684,94.3z"/>
		</g>
	</g>
</g>
<g id="Layer_2">
</g>
</svg>
