<?xml version="1.0" encoding="utf-8"?>
<!-- Generator: Adobe Illustrator 24.1.2, SVG Export Plug-In . SVG Version: 6.00 Build 0)  -->
<svg version="1.1" xmlns="http://www.w3.org/2000/svg" xmlns:xlink="http://www.w3.org/1999/xlink" x="0px" y="0px"
	 viewBox="0 0 746.9 137.7" style="enable-background:new 0 0 746.9 137.7;" xml:space="preserve">
<style type="text/css">
	.st0{fill:#CCEAEE;}
	.st1{clip-path:url(#SVGID_2_);fill:#69C2CF;}
	.st2{fill:none;}
	.st3{fill:#FFFFFF;}
	.st4{clip-path:url(#SVGID_4_);fill:#69C2CF;}
	.st5{clip-path:url(#SVGID_6_);fill:#69C2CF;}
	.st6{clip-path:url(#SVGID_8_);fill:#69C2CF;}
	.st7{clip-path:url(#SVGID_10_);fill:#69C2CF;}
	.st8{clip-path:url(#SVGID_12_);fill:#69C2CF;}
	.st9{clip-path:url(#SVGID_14_);fill:#69C2CF;}
	.st10{clip-path:url(#SVGID_16_);fill:#69C2CF;}
</style>
<g id="Layer_1">
	<g>
		<g>
			<path class="st0" d="M147,38.7l20,32.3c0,0,5.9,31-22.2,29c-28-2-22.5-28-17.8-33.9S147,38.7,147,38.7z"/>
			<g>
				<defs>
					<rect id="SVGID_1_" x="118.9" y="30" width="54.6" height="75.1"/>
				</defs>
				<clipPath id="SVGID_2_">
					<use xlink:href="#SVGID_1_"  style="overflow:visible;"/>
				</clipPath>
				<path class="st1" d="M160.2,89.8c0,0-0.1,0.1-0.1,0.1c-0.1,0.1-0.1,0.1-0.1,0.2l-0.1,0.2l-0.1,0.1c-2.8,3-6.4,5-10.4,5.7
					c-0.8,0.1-1.6,0.2-2.5,0.2h-1.2c-0.8,0-1.7-0.1-2.6-0.2c-3.8-0.7-7.4-2.7-10.1-5.6c-3.5-3.8-5.4-8.8-5-13.8
					c0.2-3.6,1.8-6.6,3.1-8.9c0,0,2.5-4.1,2.9-4.6c3.3-5.5,6.8-11,10-16.1l1.6-2.5c0.2-0.3,0.5-0.4,0.8-0.4c0.3,0,0.6,0.2,0.8,0.4
					l1.6,2.5c2.9,4.6,6.4,10.1,9.7,15.6l0.4,0.7c3.6,6,7.8,12.8,4.7,21.1c-0.3,0.9-0.7,1.7-1.2,2.5C161.7,87.9,161,88.9,160.2,89.8
					 M172.7,77.8c0-0.5,0-1-0.1-1.6c0-0.1,0-0.2,0-0.3l0-0.2c-0.2-1.7-0.5-3.3-1-4.9c-1.6-5.3-4.7-10.3-8.1-15.5
					c-0.7-1.1-1.3-2.1-2-3.2c-3.2-5.1-4.7-7.3-8.1-12c-1.1-1.6-2.5-3.4-4.1-5.7l-1.9-2.7c-0.8-1.3-2.3-0.3-2.7,0.4
					c-1,1.5-1.7,2.4-3.1,4.3l-1.1,1.6c-4,5.6-7.7,11-11.4,17c-0.4,0.6-0.8,1.3-1.2,1.9l-0.1,0.1c-4.2,6.9-8.1,13.4-8.1,20.8
					c0,1.3,0.1,2.7,0.3,4c0.1,0.9,0.3,1.7,0.5,2.6c0.4,1.7,1,3.3,1.8,4.9c0.7,1.5,1.6,3,2.6,4.4c0.5,0.7,1.1,1.3,1.6,2
					c0.3,0.3,0.6,0.6,0.9,0.9c0.6,0.6,1.2,1.2,1.9,1.7c4.7,3.9,10.7,6,16.8,6c0.9,0,1.8-0.1,2.7-0.1s1.8-0.2,2.6-0.4
					c0.5-0.1,1-0.2,1.6-0.4c0.8-0.2,1.5-0.4,2.2-0.7c0.8-0.3,1.6-0.6,2.4-1c1.3-0.6,2.5-1.4,3.7-2.2c0.9-0.6,1.8-1.3,2.6-2.1
					c0.3-0.3,0.6-0.6,0.9-0.9c1.6-1.6,3-3.5,4.2-5.5c0.2-0.4,0.5-0.8,0.7-1.2C171.7,86.1,172.7,82,172.7,77.8"/>
			</g>
			<rect x="119.1" y="30" class="st2" width="54.6" height="75.1"/>
			<path class="st3" d="M146.9,97.1h-1.2c-0.9,0-1.9-0.1-2.7-0.2c-4-0.7-7.8-2.8-10.7-5.9c-3.7-4-5.7-9.3-5.3-14.5
				c0.2-3.7,1.8-6.8,3.2-9.4c0,0,1.6-2.5,1.8-2.9c0,0,0.8-1.2,1.1-1.7c3.4-5.6,6.8-11,10-16.1l1.6-2.5c0.4-0.6,1-0.9,1.7-0.9
				c0.6,0,1.3,0.3,1.6,0.9l1.6,2.5c2.5,3.9,6.2,9.8,9.7,15.6l0.4,0.7c3.8,6.2,8,13.2,4.8,22c-0.4,1-0.8,1.8-1.2,2.7
				c-0.6,1.1-1.3,2.1-2.1,3.1l0,0c0,0-0.1,0.1-0.2,0.2l-0.4,0.4c-2.9,3.1-6.8,5.2-11,5.9C148.6,97.1,147.7,97.1,146.9,97.1z
				 M146.3,45l-1.5,2.5c-3.2,5-6.6,10.5-10,16c-0.3,0.5-1.1,1.7-1.1,1.7c-0.2,0.4-1.8,2.9-1.8,2.9c-1.3,2.3-2.7,5.2-2.9,8.5
				c-0.3,4.7,1.4,9.4,4.8,13c2.6,2.8,6,4.6,9.5,5.3c0.7,0.1,1.5,0.2,2.4,0.2h1.2c0.8,0,1.6-0.1,2.3-0.2c3.7-0.6,7.2-2.5,9.8-5.4
				l0.1-0.1c0.1-0.1,0.2-0.2,0.3-0.3l0.1-0.1c0.7-0.9,1.4-1.8,1.9-2.8c0.4-0.7,0.8-1.5,1.1-2.4c2.9-7.8-1.1-14.4-4.6-20.2l-0.4-0.7
				c-3.5-5.8-7.2-11.7-9.6-15.5L146.3,45z M159.7,89C159.7,89,159.7,89,159.7,89L159.7,89z"/>
			<path class="st3" d="M147.1,105.1h-1.7c-1.3,0-2.6-0.1-3.8-0.3c-5.6-1-10.8-4-14.8-8.2c-5.2-5.6-7.9-13-7.4-20.2
				c0.3-5.1,2.5-9.5,4.5-13c0,0,2.2-3.6,2.5-4.1c0,0,1.1-1.7,1.5-2.4c4.8-7.9,9.6-15.6,14.1-22.7l1.3-1.9c0.7-1,1.8-1.6,2.9-1.6
				c0,0,0,0,0,0c1.2,0,2.3,0.6,2.9,1.6l1,1.6c3.9,6.1,9.1,14.4,13.9,22.3l0.6,1c5.3,8.7,11.2,18.5,6.8,30.7
				c-0.5,1.4-1.1,2.6-1.7,3.7c-0.8,1.5-1.9,3-3,4.4c0,0,0,0,0,0c0,0.1-0.1,0.2-0.2,0.3c0,0,0,0.1-0.1,0.1l-0.4,0.4
				c-4,4.4-9.5,7.3-15.3,8.3C149.6,105,148.3,105.1,147.1,105.1z M146.3,32.5c-0.5,0-1,0.2-1.3,0.7l-1.2,1.9
				c-4.5,7.1-9.3,14.8-14.1,22.7c-0.5,0.8-1.5,2.5-1.5,2.5c-0.3,0.6-2.5,4.1-2.5,4.1c-1.9,3.3-3.9,7.4-4.2,12.2
				c-0.5,6.7,2,13.6,6.8,18.7c3.7,4,8.6,6.7,13.7,7.6c1.1,0.2,2.2,0.2,3.4,0.2h1.7c1.1,0,2.3-0.1,3.3-0.2c5.4-0.9,10.4-3.6,14.2-7.7
				l0.3-0.3c0.1-0.2,0.2-0.3,0.3-0.4c0,0,0.1-0.1,0.1-0.1c0,0,0,0,0,0l0,0c1.1-1.3,2-2.7,2.8-4.1c0.6-1,1.1-2.2,1.6-3.4
				c4.1-11.2-1.6-20.6-6.6-28.9l-0.6-1c-4.7-7.8-10-16.2-13.9-22.3l-1-1.6C147.3,32.7,146.8,32.5,146.3,32.5
				C146.3,32.5,146.3,32.5,146.3,32.5z M166.6,95.9C166.6,95.9,166.6,95.9,166.6,95.9C166.6,95.9,166.6,95.9,166.6,95.9z M166,95.1
				L166,95.1L166,95.1z M165.4,94.3L165.4,94.3L165.4,94.3z M165.4,94.3C165.4,94.3,165.4,94.3,165.4,94.3
				C165.4,94.3,165.4,94.3,165.4,94.3z"/>
		</g>
		<g>
			<path class="st0" d="M212,38.7l20,32.3c0,0,5.9,31-22.2,29c-28-2-22.5-28-17.8-33.9C196.8,60.2,212,38.7,212,38.7z"/>
			<g>
				<defs>
					<rect id="SVGID_3_" x="183.9" y="30" width="54.6" height="75.1"/>
				</defs>
				<clipPath id="SVGID_4_">
					<use xlink:href="#SVGID_3_"  style="overflow:visible;"/>
				</clipPath>
				<path class="st4" d="M225.2,89.8c0,0-0.1,0.1-0.1,0.1c-0.1,0.1-0.1,0.1-0.1,0.2l-0.1,0.2l-0.1,0.1c-2.8,3-6.4,5-10.4,5.7
					c-0.8,0.1-1.6,0.2-2.5,0.2h-1.2c-0.8,0-1.7-0.1-2.6-0.2c-3.8-0.7-7.4-2.7-10.1-5.6c-3.5-3.8-5.4-8.8-5-13.8
					c0.2-3.6,1.8-6.6,3.1-8.9c0,0,2.5-4.1,2.9-4.6c3.3-5.5,6.8-11,10-16.1l1.6-2.5c0.2-0.3,0.5-0.4,0.8-0.4c0.3,0,0.6,0.2,0.8,0.4
					l1.6,2.5c2.9,4.6,6.4,10.1,9.7,15.6l0.4,0.7c3.6,6,7.8,12.8,4.7,21.1c-0.3,0.9-0.7,1.7-1.2,2.5
					C226.6,87.9,225.9,88.9,225.2,89.8 M237.7,77.8c0-0.5,0-1-0.1-1.6c0-0.1,0-0.2,0-0.3l0-0.2c-0.2-1.7-0.5-3.3-1-4.9
					c-1.6-5.3-4.7-10.3-8.1-15.5c-0.7-1.1-1.3-2.1-2-3.2c-3.2-5.1-4.7-7.3-8.1-12c-1.1-1.6-2.5-3.4-4.1-5.7l-1.9-2.7
					c-0.8-1.3-2.3-0.3-2.7,0.4c-1,1.5-1.7,2.4-3.1,4.3l-1.1,1.6c-4,5.6-7.7,11-11.4,17c-0.4,0.6-0.8,1.3-1.2,1.9l-0.1,0.1
					c-4.2,6.9-8.1,13.4-8.1,20.8c0,1.3,0.1,2.7,0.3,4c0.1,0.9,0.3,1.7,0.5,2.6c0.4,1.7,1,3.3,1.8,4.9c0.7,1.5,1.6,3,2.6,4.4
					c0.5,0.7,1.1,1.3,1.6,2c0.3,0.3,0.6,0.6,0.9,0.9c0.6,0.6,1.2,1.2,1.9,1.7c4.7,3.9,10.7,6,16.8,6c0.9,0,1.8-0.1,2.7-0.1
					s1.8-0.2,2.6-0.4c0.5-0.1,1-0.2,1.6-0.4c0.8-0.2,1.5-0.4,2.2-0.7c0.8-0.3,1.6-0.6,2.4-1c1.3-0.6,2.5-1.4,3.7-2.2
					c0.9-0.6,1.8-1.3,2.6-2.1c0.3-0.3,0.6-0.6,0.9-0.9c1.6-1.6,3-3.5,4.2-5.5c0.2-0.4,0.5-0.8,0.7-1.2
					C236.7,86.1,237.7,82,237.7,77.8"/>
			</g>
			<rect x="184.1" y="30" class="st2" width="54.6" height="75.1"/>
			<path class="st3" d="M211.8,97.1h-1.2c-0.9,0-1.9-0.1-2.7-0.2c-4-0.7-7.8-2.8-10.7-5.9c-3.7-4-5.7-9.3-5.3-14.5
				c0.2-3.7,1.8-6.8,3.2-9.4c0,0,1.6-2.5,1.8-2.9c0,0,0.8-1.2,1.1-1.7c3.4-5.6,6.8-11,10-16.1l1.6-2.5c0.4-0.6,1-0.9,1.7-0.9
				c0.6,0,1.3,0.3,1.6,0.9l1.6,2.5c2.5,3.9,6.2,9.8,9.7,15.6l0.4,0.7c3.8,6.2,8,13.2,4.8,22c-0.4,1-0.8,1.8-1.2,2.7
				c-0.6,1.1-1.3,2.1-2.1,3.1l0,0c0,0-0.1,0.1-0.2,0.2l-0.4,0.4c-2.9,3.1-6.8,5.2-11,5.9C213.6,97.1,212.7,97.1,211.8,97.1z
				 M211.2,45l-1.5,2.5c-3.2,5-6.6,10.5-10,16c-0.3,0.5-1.1,1.7-1.1,1.7c-0.2,0.4-1.8,2.9-1.8,2.9c-1.3,2.3-2.7,5.2-2.9,8.5
				c-0.3,4.7,1.4,9.4,4.8,13c2.6,2.8,6,4.6,9.5,5.3c0.7,0.1,1.5,0.2,2.4,0.2h1.2c0.8,0,1.6-0.1,2.3-0.2c3.7-0.6,7.2-2.5,9.8-5.4
				l0.1-0.1c0.1-0.1,0.2-0.2,0.3-0.3l0.1-0.1c0.7-0.9,1.4-1.8,1.9-2.8c0.4-0.7,0.8-1.5,1.1-2.4c2.9-7.8-1.1-14.4-4.6-20.2l-0.4-0.7
				c-3.5-5.8-7.2-11.7-9.6-15.5L211.2,45z M224.7,89C224.7,89,224.6,89,224.7,89L224.7,89z"/>
			<path class="st3" d="M212.1,105.1h-1.7c-1.3,0-2.6-0.1-3.8-0.3c-5.6-1-10.8-4-14.8-8.2c-5.2-5.6-7.9-13-7.4-20.2
				c0.3-5.1,2.5-9.5,4.5-13c0,0,2.2-3.6,2.5-4.1c0,0,1.1-1.7,1.5-2.4c4.8-7.9,9.6-15.6,14.1-22.7l1.3-1.9c0.7-1,1.8-1.6,2.9-1.6
				c0,0,0,0,0,0c1.2,0,2.3,0.6,2.9,1.6l1,1.6c3.9,6.1,9.1,14.4,13.9,22.3l0.6,1c5.3,8.7,11.2,18.5,6.8,30.7
				c-0.5,1.4-1.1,2.6-1.7,3.7c-0.8,1.5-1.9,3-3,4.4c0,0,0,0,0,0c0,0.1-0.1,0.2-0.2,0.3c0,0,0,0.1-0.1,0.1l-0.4,0.4
				c-4,4.4-9.5,7.3-15.3,8.3C214.6,105,213.3,105.1,212.1,105.1z M211.3,32.5c-0.5,0-1,0.2-1.3,0.7l-1.2,1.9
				c-4.5,7.1-9.3,14.8-14.1,22.7c-0.5,0.8-1.5,2.5-1.5,2.5c-0.3,0.6-2.5,4.1-2.5,4.1c-1.9,3.3-3.9,7.4-4.2,12.2
				c-0.5,6.7,2,13.6,6.8,18.7c3.7,4,8.6,6.7,13.7,7.6c1.1,0.2,2.2,0.2,3.4,0.2h1.7c1.1,0,2.3-0.1,3.3-0.2c5.4-0.9,10.4-3.6,14.2-7.7
				l0.3-0.3c0.1-0.2,0.2-0.3,0.3-0.4c0,0,0.1-0.1,0.1-0.1c0,0,0,0,0,0l0,0c1.1-1.3,2-2.7,2.8-4.1c0.6-1,1.1-2.2,1.6-3.4
				c4.1-11.2-1.6-20.6-6.6-28.9l-0.6-1c-4.7-7.8-10-16.2-13.9-22.3l-1-1.6C212.3,32.7,211.8,32.5,211.3,32.5
				C211.3,32.5,211.3,32.5,211.3,32.5z M231.6,95.9C231.6,95.9,231.6,95.9,231.6,95.9C231.6,95.9,231.6,95.9,231.6,95.9z M231,95.1
				L231,95.1L231,95.1z M230.4,94.3L230.4,94.3L230.4,94.3z M230.4,94.3C230.4,94.3,230.4,94.3,230.4,94.3
				C230.4,94.3,230.4,94.3,230.4,94.3z"/>
		</g>
		<g>
			<path class="st0" d="M276.9,38.7l20,32.3c0,0,5.9,31-22.2,29c-28-2-22.5-28-17.8-33.9C261.8,60.2,276.9,38.7,276.9,38.7z"/>
			<g>
				<defs>
					<rect id="SVGID_5_" x="248.9" y="30" width="54.6" height="75.1"/>
				</defs>
				<clipPath id="SVGID_6_">
					<use xlink:href="#SVGID_5_"  style="overflow:visible;"/>
				</clipPath>
				<path class="st5" d="M290.2,89.8c0,0-0.1,0.1-0.1,0.1c-0.1,0.1-0.1,0.1-0.1,0.2l-0.1,0.2l-0.1,0.1c-2.8,3-6.4,5-10.4,5.7
					c-0.8,0.1-1.6,0.2-2.5,0.2h-1.2c-0.8,0-1.7-0.1-2.6-0.2c-3.8-0.7-7.4-2.7-10.1-5.6c-3.5-3.8-5.4-8.8-5-13.8
					c0.2-3.6,1.8-6.6,3.1-8.9c0,0,2.5-4.1,2.9-4.6c3.3-5.5,6.8-11,10-16.1l1.6-2.5c0.2-0.3,0.5-0.4,0.8-0.4c0.3,0,0.6,0.2,0.8,0.4
					l1.6,2.5c2.9,4.6,6.4,10.1,9.7,15.6l0.4,0.7c3.6,6,7.8,12.8,4.7,21.1c-0.3,0.9-0.7,1.7-1.2,2.5
					C291.6,87.9,290.9,88.9,290.2,89.8 M302.6,77.8c0-0.5,0-1-0.1-1.6c0-0.1,0-0.2,0-0.3l0-0.2c-0.2-1.7-0.5-3.3-1-4.9
					c-1.6-5.3-4.7-10.3-8.1-15.5c-0.7-1.1-1.3-2.1-2-3.2c-3.2-5.1-4.7-7.3-8.1-12c-1.1-1.6-2.5-3.4-4.1-5.7l-1.9-2.7
					c-0.8-1.3-2.3-0.3-2.7,0.4c-1,1.5-1.7,2.4-3.1,4.3l-1.1,1.6c-4,5.6-7.7,11-11.4,17c-0.4,0.6-0.8,1.3-1.2,1.9l-0.1,0.1
					c-4.2,6.9-8.1,13.4-8.1,20.8c0,1.3,0.1,2.7,0.3,4c0.1,0.9,0.3,1.7,0.5,2.6c0.4,1.7,1,3.3,1.8,4.9c0.7,1.5,1.6,3,2.6,4.4
					c0.5,0.7,1.1,1.3,1.6,2c0.3,0.3,0.6,0.6,0.9,0.9c0.6,0.6,1.2,1.2,1.9,1.7c4.7,3.9,10.7,6,16.8,6c0.9,0,1.8-0.1,2.7-0.1
					c0.9-0.1,1.8-0.2,2.6-0.4c0.5-0.1,1-0.2,1.6-0.4c0.8-0.2,1.5-0.4,2.2-0.7c0.8-0.3,1.6-0.6,2.4-1c1.3-0.6,2.5-1.4,3.7-2.2
					c0.9-0.6,1.8-1.3,2.6-2.1c0.3-0.3,0.6-0.6,0.9-0.9c1.6-1.6,3-3.5,4.2-5.5c0.2-0.4,0.5-0.8,0.7-1.2
					C301.7,86.1,302.6,82,302.6,77.8"/>
			</g>
			<rect x="249.1" y="30" class="st2" width="54.6" height="75.1"/>
			<path class="st3" d="M276.8,97.1h-1.2c-0.9,0-1.9-0.1-2.7-0.2c-4-0.7-7.8-2.8-10.7-5.9c-3.7-4-5.7-9.3-5.3-14.5
				c0.2-3.7,1.8-6.8,3.2-9.4c0,0,1.6-2.5,1.8-2.9c0,0,0.8-1.2,1.1-1.7c3.4-5.6,6.8-11,10-16.1l1.6-2.5c0.4-0.6,1-0.9,1.7-0.9
				c0.6,0,1.3,0.3,1.6,0.9l1.6,2.5c2.5,3.9,6.2,9.8,9.7,15.6l0.4,0.7c3.8,6.2,8,13.2,4.8,22c-0.4,1-0.8,1.8-1.2,2.7
				c-0.6,1.1-1.3,2.1-2.1,3.1l0,0c0,0-0.1,0.1-0.2,0.2l-0.4,0.4c-2.9,3.1-6.8,5.2-11,5.9C278.6,97.1,277.7,97.1,276.8,97.1z
				 M276.2,45l-1.5,2.5c-3.2,5-6.6,10.5-10,16c-0.3,0.5-1.1,1.7-1.1,1.7c-0.2,0.4-1.8,2.9-1.8,2.9c-1.3,2.3-2.7,5.2-2.9,8.5
				c-0.3,4.7,1.4,9.4,4.8,13c2.6,2.8,6,4.6,9.5,5.3c0.7,0.1,1.5,0.2,2.4,0.2h1.2c0.8,0,1.6-0.1,2.3-0.2c3.7-0.6,7.2-2.5,9.8-5.4
				l0.1-0.1c0.1-0.1,0.2-0.2,0.3-0.3l0.1-0.1c0.7-0.9,1.4-1.8,1.9-2.8c0.4-0.7,0.8-1.5,1.1-2.4c2.9-7.8-1.1-14.4-4.6-20.2l-0.4-0.7
				c-3.5-5.8-7.2-11.7-9.6-15.5L276.2,45z M289.6,89C289.6,89,289.6,89,289.6,89L289.6,89z"/>
			<path class="st3" d="M277.1,105.1h-1.7c-1.3,0-2.6-0.1-3.8-0.3c-5.6-1-10.8-4-14.8-8.2c-5.2-5.6-7.9-13-7.4-20.2
				c0.3-5.1,2.5-9.5,4.5-13c0,0,2.2-3.6,2.5-4.1c0,0,1.1-1.7,1.5-2.4c4.8-7.9,9.6-15.6,14.1-22.7l1.3-1.9c0.7-1,1.8-1.6,2.9-1.6
				c0,0,0,0,0,0c1.2,0,2.3,0.6,2.9,1.6l1,1.6c3.9,6.1,9.1,14.4,13.9,22.3l0.6,1c5.3,8.7,11.2,18.5,6.8,30.7
				c-0.5,1.4-1.1,2.6-1.7,3.7c-0.8,1.5-1.9,3-3,4.4c0,0,0,0,0,0c0,0.1-0.1,0.2-0.2,0.3c0,0,0,0.1-0.1,0.1l-0.4,0.4
				c-4,4.4-9.5,7.3-15.3,8.3C279.5,105,278.3,105.1,277.1,105.1z M276.2,32.5c-0.5,0-1,0.2-1.3,0.7l-1.2,1.9
				c-4.5,7.1-9.3,14.8-14.1,22.7c-0.5,0.8-1.5,2.5-1.5,2.5c-0.3,0.6-2.5,4.1-2.5,4.1c-1.9,3.3-3.9,7.4-4.2,12.2
				c-0.5,6.7,2,13.6,6.8,18.7c3.7,4,8.6,6.7,13.7,7.6c1.1,0.2,2.2,0.2,3.4,0.2h1.7c1.1,0,2.3-0.1,3.3-0.2c5.4-0.9,10.4-3.6,14.2-7.7
				l0.3-0.3c0.1-0.2,0.2-0.3,0.3-0.4c0,0,0.1-0.1,0.1-0.1c0,0,0,0,0,0l0,0c1.1-1.3,2-2.7,2.8-4.1c0.6-1,1.1-2.2,1.6-3.4
				c4.1-11.2-1.6-20.6-6.6-28.9l-0.6-1c-4.7-7.8-10-16.2-13.9-22.3l-1-1.6C277.2,32.7,276.8,32.5,276.2,32.5
				C276.3,32.5,276.2,32.5,276.2,32.5z M296.5,95.9C296.5,95.9,296.5,95.9,296.5,95.9C296.5,95.9,296.5,95.9,296.5,95.9z M296,95.1
				L296,95.1L296,95.1z M295.4,94.3L295.4,94.3L295.4,94.3z M295.4,94.3C295.4,94.3,295.4,94.3,295.4,94.3
				C295.4,94.3,295.4,94.3,295.4,94.3z"/>
		</g>
		<g>
			<path class="st0" d="M341.9,38.7l20,32.3c0,0,5.9,31-22.2,29c-28-2-22.5-28-17.8-33.9S341.9,38.7,341.9,38.7z"/>
			<g>
				<defs>
					<rect id="SVGID_7_" x="313.8" y="30" width="54.6" height="75.1"/>
				</defs>
				<clipPath id="SVGID_8_">
					<use xlink:href="#SVGID_7_"  style="overflow:visible;"/>
				</clipPath>
				<path class="st6" d="M355.1,89.8c0,0-0.1,0.1-0.1,0.1c-0.1,0.1-0.1,0.1-0.1,0.2l-0.1,0.2l-0.1,0.1c-2.8,3-6.4,5-10.4,5.7
					c-0.8,0.1-1.6,0.2-2.5,0.2h-1.2c-0.8,0-1.7-0.1-2.6-0.2c-3.8-0.7-7.4-2.7-10.1-5.6c-3.5-3.8-5.4-8.8-5-13.8
					c0.2-3.6,1.8-6.6,3.1-8.9c0,0,2.5-4.1,2.9-4.6c3.3-5.5,6.8-11,10-16.1l1.6-2.5c0.2-0.3,0.5-0.4,0.8-0.4c0.3,0,0.6,0.2,0.8,0.4
					l1.6,2.5c2.9,4.6,6.4,10.1,9.7,15.6l0.4,0.7c3.6,6,7.8,12.8,4.7,21.1c-0.3,0.9-0.7,1.7-1.2,2.5
					C356.6,87.9,355.9,88.9,355.1,89.8 M367.6,77.8c0-0.5,0-1-0.1-1.6c0-0.1,0-0.2,0-0.3l0-0.2c-0.2-1.7-0.5-3.3-1-4.9
					c-1.6-5.3-4.7-10.3-8.1-15.5c-0.7-1.1-1.3-2.1-2-3.2c-3.2-5.1-4.7-7.3-8.1-12c-1.1-1.6-2.5-3.4-4.1-5.7l-1.9-2.7
					c-0.8-1.3-2.3-0.3-2.7,0.4c-1,1.5-1.7,2.4-3.1,4.3l-1.1,1.6c-4,5.6-7.7,11-11.4,17c-0.4,0.6-0.8,1.3-1.2,1.9l-0.1,0.1
					c-4.2,6.9-8.1,13.4-8.1,20.8c0,1.3,0.1,2.7,0.3,4c0.1,0.9,0.3,1.7,0.5,2.6c0.4,1.7,1,3.3,1.8,4.9c0.7,1.5,1.6,3,2.6,4.4
					c0.5,0.7,1.1,1.3,1.6,2c0.3,0.3,0.6,0.6,0.9,0.9c0.6,0.6,1.2,1.2,1.9,1.7c4.7,3.9,10.7,6,16.8,6c0.9,0,1.8-0.1,2.7-0.1
					c0.9-0.1,1.8-0.2,2.6-0.4c0.5-0.1,1-0.2,1.6-0.4c0.8-0.2,1.5-0.4,2.2-0.7c0.8-0.3,1.6-0.6,2.4-1c1.3-0.6,2.5-1.4,3.7-2.2
					c0.9-0.6,1.8-1.3,2.6-2.1c0.3-0.3,0.6-0.6,0.9-0.9c1.6-1.6,3-3.5,4.2-5.5c0.2-0.4,0.5-0.8,0.7-1.2
					C366.6,86.1,367.6,82,367.6,77.8"/>
			</g>
			<rect x="314" y="30" class="st2" width="54.6" height="75.1"/>
			<path class="st3" d="M341.8,97.1h-1.2c-0.9,0-1.9-0.1-2.7-0.2c-4-0.7-7.8-2.8-10.7-5.9c-3.7-4-5.7-9.3-5.3-14.5
				c0.2-3.7,1.8-6.8,3.2-9.4c0,0,1.6-2.5,1.8-2.9c0,0,0.8-1.2,1.1-1.7c3.4-5.6,6.8-11,10-16.1l1.6-2.5c0.4-0.6,1-0.9,1.7-0.9
				c0.6,0,1.3,0.3,1.6,0.9l1.6,2.5c2.5,3.9,6.2,9.8,9.7,15.6l0.4,0.7c3.8,6.2,8,13.2,4.8,22c-0.4,1-0.8,1.8-1.2,2.7
				c-0.6,1.1-1.3,2.1-2.1,3.1l0,0c0,0-0.1,0.1-0.2,0.2l-0.4,0.4c-2.9,3.1-6.8,5.2-11,5.9C343.5,97.1,342.6,97.1,341.8,97.1z
				 M341.2,45l-1.5,2.5c-3.2,5-6.6,10.5-10,16c-0.3,0.5-1.1,1.7-1.1,1.7c-0.2,0.4-1.8,2.9-1.8,2.9c-1.3,2.3-2.7,5.2-2.9,8.5
				c-0.3,4.7,1.4,9.4,4.8,13c2.6,2.8,6,4.6,9.5,5.3c0.7,0.1,1.5,0.2,2.4,0.2h1.2c0.8,0,1.6-0.1,2.3-0.2c3.7-0.6,7.2-2.5,9.8-5.4
				l0.1-0.1c0.1-0.1,0.2-0.2,0.3-0.3l0.1-0.1c0.7-0.9,1.4-1.8,1.9-2.8c0.4-0.7,0.8-1.5,1.1-2.4c2.9-7.8-1.1-14.4-4.6-20.2l-0.4-0.7
				c-3.5-5.8-7.2-11.7-9.6-15.5L341.2,45z M354.6,89C354.6,89,354.6,89,354.6,89L354.6,89z"/>
			<path class="st3" d="M342,105.1h-1.7c-1.3,0-2.6-0.1-3.8-0.3c-5.6-1-10.8-4-14.8-8.2c-5.2-5.6-7.9-13-7.4-20.2
				c0.3-5.1,2.5-9.5,4.5-13c0,0,2.2-3.6,2.5-4.1c0,0,1.1-1.7,1.5-2.4c4.8-7.9,9.6-15.6,14.1-22.7l1.3-1.9c0.7-1,1.8-1.6,2.9-1.6
				c0,0,0,0,0,0c1.2,0,2.3,0.6,2.9,1.6l1,1.6c3.9,6.1,9.1,14.4,13.9,22.3l0.6,1c5.3,8.7,11.2,18.5,6.8,30.7
				c-0.5,1.4-1.1,2.6-1.7,3.7c-0.8,1.5-1.9,3-3,4.4c0,0,0,0,0,0c0,0.1-0.1,0.2-0.2,0.3c0,0,0,0.1-0.1,0.1l-0.4,0.4
				c-4,4.4-9.5,7.3-15.3,8.3C344.5,105,343.2,105.1,342,105.1z M341.2,32.5c-0.5,0-1,0.2-1.3,0.7l-1.2,1.9
				c-4.5,7.1-9.3,14.8-14.1,22.7c-0.5,0.8-1.5,2.5-1.5,2.5c-0.3,0.6-2.5,4.1-2.5,4.1c-1.9,3.3-3.9,7.4-4.2,12.2
				c-0.5,6.7,2,13.6,6.8,18.7c3.7,4,8.6,6.7,13.7,7.6c1.1,0.2,2.2,0.2,3.4,0.2h1.7c1.1,0,2.3-0.1,3.3-0.2c5.4-0.9,10.4-3.6,14.2-7.7
				l0.3-0.3c0.1-0.2,0.2-0.3,0.3-0.4c0,0,0.1-0.1,0.1-0.1c0,0,0,0,0,0l0,0c1.1-1.3,2-2.7,2.8-4.1c0.6-1,1.1-2.2,1.6-3.4
				c4.1-11.2-1.6-20.6-6.6-28.9l-0.6-1c-4.7-7.8-10-16.2-13.9-22.3l-1-1.6C342.2,32.7,341.7,32.5,341.2,32.5
				C341.2,32.5,341.2,32.5,341.2,32.5z M361.5,95.9C361.5,95.9,361.5,95.9,361.5,95.9C361.5,95.9,361.5,95.9,361.5,95.9z
				 M360.9,95.1L360.9,95.1L360.9,95.1z M360.3,94.3L360.3,94.3L360.3,94.3z M360.3,94.3C360.3,94.3,360.3,94.3,360.3,94.3
				C360.3,94.3,360.3,94.3,360.3,94.3z"/>
		</g>
		<g>
			<path class="st0" d="M406.9,38.7l20,32.3c0,0,5.9,31-22.2,29c-28-2-22.5-28-17.8-33.9S406.9,38.7,406.9,38.7z"/>
			<g>
				<defs>
					<rect id="SVGID_9_" x="378.8" y="30" width="54.6" height="75.1"/>
				</defs>
				<clipPath id="SVGID_10_">
					<use xlink:href="#SVGID_9_"  style="overflow:visible;"/>
				</clipPath>
				<path class="st7" d="M420.1,89.8c0,0-0.1,0.1-0.1,0.1c-0.1,0.1-0.1,0.1-0.1,0.2l-0.1,0.2l-0.1,0.1c-2.8,3-6.4,5-10.4,5.7
					c-0.8,0.1-1.6,0.2-2.5,0.2h-1.2c-0.8,0-1.7-0.1-2.6-0.2c-3.8-0.7-7.4-2.7-10.1-5.6c-3.5-3.8-5.4-8.8-5-13.8
					c0.2-3.6,1.8-6.6,3.1-8.9c0,0,2.5-4.1,2.9-4.6c3.3-5.5,6.8-11,10-16.1l1.6-2.5c0.2-0.3,0.5-0.4,0.8-0.4c0.3,0,0.6,0.2,0.8,0.4
					l1.6,2.5c2.9,4.6,6.4,10.1,9.7,15.6l0.4,0.7c3.6,6,7.8,12.8,4.7,21.1c-0.3,0.9-0.7,1.7-1.2,2.5
					C421.5,87.9,420.8,88.9,420.1,89.8 M432.6,77.8c0-0.5,0-1-0.1-1.6c0-0.1,0-0.2,0-0.3l0-0.2c-0.2-1.7-0.5-3.3-1-4.9
					c-1.6-5.3-4.7-10.3-8.1-15.5c-0.7-1.1-1.3-2.1-2-3.2c-3.2-5.1-4.7-7.3-8.1-12c-1.1-1.6-2.5-3.4-4.1-5.7l-1.9-2.7
					c-0.8-1.3-2.3-0.3-2.7,0.4c-1,1.5-1.7,2.4-3.1,4.3l-1.1,1.6c-4,5.6-7.7,11-11.4,17c-0.4,0.6-0.8,1.3-1.2,1.9l-0.1,0.1
					c-4.2,6.9-8.1,13.4-8.1,20.8c0,1.3,0.1,2.7,0.3,4c0.1,0.9,0.3,1.7,0.5,2.6c0.4,1.7,1,3.3,1.8,4.9c0.7,1.5,1.6,3,2.6,4.4
					c0.5,0.7,1.1,1.3,1.6,2c0.3,0.3,0.6,0.6,0.9,0.9c0.6,0.6,1.2,1.2,1.9,1.7c4.7,3.9,10.7,6,16.8,6c0.9,0,1.8-0.1,2.7-0.1
					c0.9-0.1,1.8-0.2,2.6-0.4c0.5-0.1,1-0.2,1.6-0.4c0.8-0.2,1.5-0.4,2.2-0.7c0.8-0.3,1.6-0.6,2.4-1c1.3-0.6,2.5-1.4,3.7-2.2
					c0.9-0.6,1.8-1.3,2.6-2.1c0.3-0.3,0.6-0.6,0.9-0.9c1.6-1.6,3-3.5,4.2-5.5c0.2-0.4,0.5-0.8,0.7-1.2
					C431.6,86.1,432.6,82,432.6,77.8"/>
			</g>
			<rect x="379" y="30" class="st2" width="54.6" height="75.1"/>
			<path class="st3" d="M406.7,97.1h-1.2c-0.9,0-1.9-0.1-2.7-0.2c-4-0.7-7.8-2.8-10.7-5.9c-3.7-4-5.7-9.3-5.3-14.5
				c0.2-3.7,1.8-6.8,3.2-9.4c0,0,1.6-2.5,1.8-2.9c0,0,0.8-1.2,1.1-1.7c3.4-5.6,6.8-11,10-16.1l1.6-2.5c0.4-0.6,1-0.9,1.7-0.9
				c0.6,0,1.3,0.3,1.6,0.9l1.6,2.5c2.5,3.9,6.2,9.8,9.7,15.6l0.4,0.7c3.8,6.2,8,13.2,4.8,22c-0.4,1-0.8,1.8-1.2,2.7
				c-0.6,1.1-1.3,2.1-2.1,3.1l0,0c0,0-0.1,0.1-0.2,0.2l-0.4,0.4c-2.9,3.1-6.8,5.2-11,5.9C408.5,97.1,407.6,97.1,406.7,97.1z
				 M406.1,45l-1.5,2.5c-3.2,5-6.6,10.5-10,16c-0.3,0.5-1.1,1.7-1.1,1.7c-0.2,0.4-1.8,2.9-1.8,2.9c-1.3,2.3-2.7,5.2-2.9,8.5
				c-0.3,4.7,1.4,9.4,4.8,13c2.6,2.8,6,4.6,9.5,5.3c0.7,0.1,1.5,0.2,2.4,0.2h1.2c0.8,0,1.6-0.1,2.3-0.2c3.7-0.6,7.2-2.5,9.8-5.4
				l0.1-0.1c0.1-0.1,0.2-0.2,0.3-0.3l0.1-0.1c0.7-0.9,1.4-1.8,1.9-2.8c0.4-0.7,0.8-1.5,1.1-2.4c2.9-7.8-1.1-14.4-4.6-20.2l-0.4-0.7
				c-3.5-5.8-7.2-11.7-9.6-15.5L406.1,45z M419.6,89C419.6,89,419.6,89,419.6,89L419.6,89z"/>
			<path class="st3" d="M407,105.1h-1.7c-1.3,0-2.6-0.1-3.8-0.3c-5.6-1-10.8-4-14.8-8.2c-5.2-5.6-7.9-13-7.4-20.2
				c0.3-5.1,2.5-9.5,4.5-13c0,0,2.2-3.6,2.5-4.1c0,0,1.1-1.7,1.5-2.4c4.8-7.9,9.6-15.6,14.1-22.7l1.3-1.9c0.7-1,1.8-1.6,2.9-1.6
				c0,0,0,0,0,0c1.2,0,2.3,0.6,2.9,1.6l1,1.6c3.9,6.1,9.1,14.4,13.9,22.3l0.6,1c5.3,8.7,11.2,18.5,6.8,30.7
				c-0.5,1.4-1.1,2.6-1.7,3.7c-0.8,1.5-1.9,3-3,4.4c0,0,0,0,0,0c0,0.1-0.1,0.2-0.2,0.3c0,0,0,0.1-0.1,0.1l-0.4,0.4
				c-4,4.4-9.5,7.3-15.3,8.3C409.5,105,408.2,105.1,407,105.1z M406.2,32.5c-0.5,0-1,0.2-1.3,0.7l-1.2,1.9
				c-4.5,7.1-9.3,14.8-14.1,22.7c-0.5,0.8-1.5,2.5-1.5,2.5c-0.3,0.6-2.5,4.1-2.5,4.1c-1.9,3.3-3.9,7.4-4.2,12.2
				c-0.5,6.7,2,13.6,6.8,18.7c3.7,4,8.6,6.7,13.7,7.6c1.1,0.2,2.2,0.2,3.4,0.2h1.7c1.1,0,2.3-0.1,3.3-0.2c5.4-0.9,10.4-3.6,14.2-7.7
				l0.3-0.3c0.1-0.2,0.2-0.3,0.3-0.4c0,0,0.1-0.1,0.1-0.1c0,0,0,0,0,0l0,0c1.1-1.3,2-2.7,2.8-4.1c0.6-1,1.1-2.2,1.6-3.4
				c4.1-11.2-1.6-20.6-6.6-28.9l-0.6-1c-4.7-7.8-10-16.2-13.9-22.3l-1-1.6C407.2,32.7,406.7,32.5,406.2,32.5
				C406.2,32.5,406.2,32.5,406.2,32.5z M426.5,95.9C426.5,95.9,426.5,95.9,426.5,95.9C426.5,95.9,426.5,95.9,426.5,95.9z
				 M425.9,95.1L425.9,95.1L425.9,95.1z M425.3,94.3L425.3,94.3L425.3,94.3z M425.3,94.3C425.3,94.3,425.3,94.3,425.3,94.3
				C425.3,94.3,425.3,94.3,425.3,94.3z"/>
		</g>
		<g>
			<path class="st0" d="M471.8,38.7l20,32.3c0,0,5.9,31-22.2,29c-28-2-22.5-28-17.8-33.9S471.8,38.7,471.8,38.7z"/>
			<g>
				<defs>
					<rect id="SVGID_11_" x="443.8" y="30" width="54.6" height="75.1"/>
				</defs>
				<clipPath id="SVGID_12_">
					<use xlink:href="#SVGID_11_"  style="overflow:visible;"/>
				</clipPath>
				<path class="st8" d="M485.1,89.8c0,0-0.1,0.1-0.1,0.1c-0.1,0.1-0.1,0.1-0.1,0.2l-0.1,0.2l-0.1,0.1c-2.8,3-6.4,5-10.4,5.7
					c-0.8,0.1-1.6,0.2-2.5,0.2h-1.2c-0.8,0-1.7-0.1-2.6-0.2c-3.8-0.7-7.4-2.7-10.1-5.6c-3.5-3.8-5.4-8.8-5-13.8
					c0.2-3.6,1.8-6.6,3.1-8.9c0,0,2.5-4.1,2.9-4.6c3.3-5.5,6.8-11,10-16.1l1.6-2.5c0.2-0.3,0.5-0.4,0.8-0.4c0.3,0,0.6,0.2,0.8,0.4
					l1.6,2.5c2.9,4.6,6.4,10.1,9.7,15.6l0.4,0.7c3.6,6,7.8,12.8,4.7,21.1c-0.3,0.9-0.7,1.7-1.2,2.5
					C486.5,87.9,485.8,88.9,485.1,89.8 M497.5,77.8c0-0.5,0-1-0.1-1.6c0-0.1,0-0.2,0-0.3l0-0.2c-0.2-1.7-0.5-3.3-1-4.9
					c-1.6-5.3-4.7-10.3-8.1-15.5c-0.7-1.1-1.3-2.1-2-3.2c-3.2-5.1-4.7-7.3-8.1-12c-1.1-1.6-2.5-3.4-4.1-5.7l-1.9-2.7
					c-0.8-1.3-2.3-0.3-2.7,0.4c-1,1.5-1.7,2.4-3.1,4.3l-1.1,1.6c-4,5.6-7.7,11-11.4,17c-0.4,0.6-0.8,1.3-1.2,1.9l-0.1,0.1
					c-4.2,6.9-8.1,13.4-8.1,20.8c0,1.3,0.1,2.7,0.3,4c0.1,0.9,0.3,1.7,0.5,2.6c0.4,1.7,1,3.3,1.8,4.9c0.7,1.5,1.6,3,2.6,4.4
					c0.5,0.7,1.1,1.3,1.6,2c0.3,0.3,0.6,0.6,0.9,0.9c0.6,0.6,1.2,1.2,1.9,1.7c4.7,3.9,10.7,6,16.8,6c0.9,0,1.8-0.1,2.7-0.1
					c0.9-0.1,1.8-0.2,2.6-0.4c0.5-0.1,1-0.2,1.6-0.4c0.8-0.2,1.5-0.4,2.2-0.7c0.8-0.3,1.6-0.6,2.4-1c1.3-0.6,2.5-1.4,3.7-2.2
					c0.9-0.6,1.8-1.3,2.6-2.1c0.3-0.3,0.6-0.6,0.9-0.9c1.6-1.6,3-3.5,4.2-5.5c0.2-0.4,0.5-0.8,0.7-1.2
					C496.6,86.1,497.5,82,497.5,77.8"/>
			</g>
			<rect x="444" y="30" class="st2" width="54.6" height="75.1"/>
			<path class="st3" d="M471.7,97.1h-1.2c-0.9,0-1.9-0.1-2.7-0.2c-4-0.7-7.8-2.8-10.7-5.9c-3.7-4-5.7-9.3-5.3-14.5
				c0.2-3.7,1.8-6.8,3.2-9.4c0,0,1.6-2.5,1.8-2.9c0,0,0.8-1.2,1.1-1.7c3.4-5.6,6.8-11,10-16.1l1.6-2.5c0.4-0.6,1-0.9,1.7-0.9
				c0.6,0,1.3,0.3,1.6,0.9l1.6,2.5c2.5,3.9,6.2,9.8,9.7,15.6l0.4,0.7c3.8,6.2,8,13.2,4.8,22c-0.4,1-0.8,1.8-1.2,2.7
				c-0.6,1.1-1.3,2.1-2.1,3.1l0,0c0,0-0.1,0.1-0.2,0.2l-0.4,0.4c-2.9,3.1-6.8,5.2-11,5.9C473.5,97.1,472.6,97.1,471.7,97.1z
				 M471.1,45l-1.5,2.5c-3.2,5-6.6,10.5-10,16c-0.3,0.5-1.1,1.7-1.1,1.7c-0.2,0.4-1.8,2.9-1.8,2.9c-1.3,2.3-2.7,5.2-2.9,8.5
				c-0.3,4.7,1.4,9.4,4.8,13c2.6,2.8,6,4.6,9.5,5.3c0.7,0.1,1.5,0.2,2.4,0.2h1.2c0.8,0,1.6-0.1,2.3-0.2c3.7-0.6,7.2-2.5,9.8-5.4
				l0.1-0.1c0.1-0.1,0.2-0.2,0.3-0.3l0.1-0.1c0.7-0.9,1.4-1.8,1.9-2.8c0.4-0.7,0.8-1.5,1.1-2.4c2.9-7.8-1.1-14.4-4.6-20.2l-0.4-0.7
				c-3.5-5.8-7.2-11.7-9.6-15.5L471.1,45z M484.5,89C484.5,89,484.5,89,484.5,89L484.5,89z"/>
			<path class="st3" d="M472,105.1h-1.7c-1.3,0-2.6-0.1-3.8-0.3c-5.6-1-10.8-4-14.8-8.2c-5.2-5.6-7.9-13-7.4-20.2
				c0.3-5.1,2.5-9.5,4.5-13c0,0,2.2-3.6,2.5-4.1c0,0,1.1-1.7,1.5-2.4c4.8-7.9,9.6-15.6,14.1-22.7l1.3-1.9c0.7-1,1.8-1.6,2.9-1.6
				c0,0,0,0,0,0c1.2,0,2.3,0.6,2.9,1.6l1,1.6c3.9,6.1,9.1,14.4,13.9,22.3l0.6,1c5.3,8.7,11.2,18.5,6.8,30.7
				c-0.5,1.4-1.1,2.6-1.7,3.7c-0.8,1.5-1.9,3-3,4.4c0,0,0,0,0,0c0,0.1-0.1,0.2-0.2,0.3c0,0,0,0.1-0.1,0.1l-0.4,0.4
				c-4,4.4-9.5,7.3-15.3,8.3C474.4,105,473.2,105.1,472,105.1z M471.1,32.5c-0.5,0-1,0.2-1.3,0.7l-1.2,1.9
				c-4.5,7.1-9.3,14.8-14.1,22.7c-0.5,0.8-1.5,2.5-1.5,2.5c-0.3,0.6-2.5,4.1-2.5,4.1c-1.9,3.3-3.9,7.4-4.2,12.2
				c-0.5,6.7,2,13.6,6.8,18.7c3.7,4,8.6,6.7,13.7,7.6c1.1,0.2,2.2,0.2,3.4,0.2h1.7c1.1,0,2.3-0.1,3.3-0.2c5.4-0.9,10.4-3.6,14.2-7.7
				l0.3-0.3c0.1-0.2,0.2-0.3,0.3-0.4c0,0,0.1-0.1,0.1-0.1c0,0,0,0,0,0l0,0c1.1-1.3,2-2.7,2.8-4.1c0.6-1,1.1-2.2,1.6-3.4
				c4.1-11.2-1.6-20.6-6.6-28.9l-0.6-1c-4.7-7.8-10-16.2-13.9-22.3l-1-1.6C472.1,32.7,471.7,32.5,471.1,32.5
				C471.2,32.5,471.2,32.5,471.1,32.5z M491.4,95.9C491.4,95.9,491.4,95.9,491.4,95.9C491.4,95.9,491.4,95.9,491.4,95.9z
				 M490.9,95.1L490.9,95.1L490.9,95.1z M490.3,94.3L490.3,94.3L490.3,94.3z M490.3,94.3C490.3,94.3,490.3,94.3,490.3,94.3
				C490.3,94.3,490.3,94.3,490.3,94.3z"/>
		</g>
		<g>
			<path class="st0" d="M536.8,38.7l20,32.3c0,0,5.9,31-22.2,29c-28-2-22.5-28-17.8-33.9C521.6,60.2,536.8,38.7,536.8,38.7z"/>
			<g>
				<defs>
					<rect id="SVGID_13_" x="508.7" y="30" width="54.6" height="75.1"/>
				</defs>
				<clipPath id="SVGID_14_">
					<use xlink:href="#SVGID_13_"  style="overflow:visible;"/>
				</clipPath>
				<path class="st9" d="M550,89.8c0,0-0.1,0.1-0.1,0.1c-0.1,0.1-0.1,0.1-0.1,0.2l-0.1,0.2l-0.1,0.1c-2.8,3-6.4,5-10.4,5.7
					c-0.8,0.1-1.6,0.2-2.5,0.2h-1.2c-0.8,0-1.7-0.1-2.6-0.2c-3.8-0.7-7.4-2.7-10.1-5.6c-3.5-3.8-5.4-8.8-5-13.8
					c0.2-3.6,1.8-6.6,3.1-8.9c0,0,2.5-4.1,2.9-4.6c3.3-5.5,6.8-11,10-16.1l1.6-2.5c0.2-0.3,0.5-0.4,0.8-0.4c0.3,0,0.6,0.2,0.8,0.4
					l1.6,2.5c2.9,4.6,6.4,10.1,9.7,15.6l0.4,0.7c3.6,6,7.8,12.8,4.7,21.1c-0.3,0.9-0.7,1.7-1.2,2.5C551.5,87.9,550.8,88.9,550,89.8
					 M562.5,77.8c0-0.5,0-1-0.1-1.6c0-0.1,0-0.2,0-0.3l0-0.2c-0.2-1.7-0.5-3.3-1-4.9c-1.6-5.3-4.7-10.3-8.1-15.5
					c-0.7-1.1-1.3-2.1-2-3.2c-3.2-5.1-4.7-7.3-8.1-12c-1.1-1.6-2.5-3.4-4.1-5.7l-1.9-2.7c-0.8-1.3-2.3-0.3-2.7,0.4
					c-1,1.5-1.7,2.4-3.1,4.3l-1.1,1.6c-4,5.6-7.7,11-11.4,17c-0.4,0.6-0.8,1.3-1.2,1.9l-0.1,0.1c-4.2,6.9-8.1,13.4-8.1,20.8
					c0,1.3,0.1,2.7,0.3,4c0.1,0.9,0.3,1.7,0.5,2.6c0.4,1.7,1,3.3,1.8,4.9c0.7,1.5,1.6,3,2.6,4.4c0.5,0.7,1.1,1.3,1.6,2
					c0.3,0.3,0.6,0.6,0.9,0.9c0.6,0.6,1.2,1.2,1.9,1.7c4.7,3.9,10.7,6,16.8,6c0.9,0,1.8-0.1,2.7-0.1s1.8-0.2,2.6-0.4
					c0.5-0.1,1-0.2,1.6-0.4c0.8-0.2,1.5-0.4,2.2-0.7c0.8-0.3,1.6-0.6,2.4-1c1.3-0.6,2.5-1.4,3.7-2.2c0.9-0.6,1.8-1.3,2.6-2.1
					c0.3-0.3,0.6-0.6,0.9-0.9c1.6-1.6,3-3.5,4.2-5.5c0.2-0.4,0.5-0.8,0.7-1.2C561.5,86.1,562.5,82,562.5,77.8"/>
			</g>
			<rect x="508.9" y="30" class="st2" width="54.6" height="75.1"/>
			<path class="st3" d="M536.7,97.1h-1.2c-0.9,0-1.9-0.1-2.7-0.2c-4-0.7-7.8-2.8-10.7-5.9c-3.7-4-5.7-9.3-5.3-14.5
				c0.2-3.7,1.8-6.8,3.2-9.4c0,0,1.6-2.5,1.8-2.9c0,0,0.8-1.2,1.1-1.7c3.4-5.6,6.8-11,10-16.1l1.6-2.5c0.4-0.6,1-0.9,1.7-0.9
				c0.6,0,1.3,0.3,1.6,0.9l1.6,2.5c2.5,3.9,6.2,9.8,9.7,15.6l0.4,0.7c3.8,6.2,8,13.2,4.8,22c-0.4,1-0.8,1.8-1.2,2.7
				c-0.6,1.1-1.3,2.1-2.1,3.1l0,0c0,0-0.1,0.1-0.2,0.2l-0.4,0.4c-2.9,3.1-6.8,5.2-11,5.9C538.4,97.1,537.5,97.1,536.7,97.1z
				 M536.1,45l-1.5,2.5c-3.2,5-6.6,10.5-10,16c-0.3,0.5-1.1,1.7-1.1,1.7c-0.2,0.4-1.8,2.9-1.8,2.9c-1.3,2.3-2.7,5.2-2.9,8.5
				c-0.3,4.7,1.4,9.4,4.8,13c2.6,2.8,6,4.6,9.5,5.3c0.7,0.1,1.5,0.2,2.4,0.2h1.2c0.8,0,1.6-0.1,2.3-0.2c3.7-0.6,7.2-2.5,9.8-5.4
				l0.1-0.1c0.1-0.1,0.2-0.2,0.3-0.3l0.1-0.1c0.7-0.9,1.4-1.8,1.9-2.8c0.4-0.7,0.8-1.5,1.1-2.4c2.9-7.8-1.1-14.4-4.6-20.2l-0.4-0.7
				c-3.5-5.8-7.2-11.7-9.6-15.5L536.1,45z M549.5,89C549.5,89,549.5,89,549.5,89L549.5,89z"/>
			<path class="st3" d="M536.9,105.1h-1.7c-1.3,0-2.6-0.1-3.8-0.3c-5.6-1-10.8-4-14.8-8.2c-5.2-5.6-7.9-13-7.4-20.2
				c0.3-5.1,2.5-9.5,4.5-13c0,0,2.2-3.6,2.5-4.1c0,0,1.1-1.7,1.5-2.4c4.8-7.9,9.6-15.6,14.1-22.7l1.3-1.9c0.7-1,1.8-1.6,2.9-1.6
				c0,0,0,0,0,0c1.2,0,2.3,0.6,2.9,1.6l1,1.6c3.9,6.1,9.1,14.4,13.9,22.3l0.6,1c5.3,8.7,11.2,18.5,6.8,30.7
				c-0.5,1.4-1.1,2.6-1.7,3.7c-0.8,1.5-1.9,3-3,4.4c0,0,0,0,0,0c0,0.1-0.1,0.2-0.2,0.3c0,0,0,0.1-0.1,0.1l-0.4,0.4
				c-4,4.4-9.5,7.3-15.3,8.3C539.4,105,538.1,105.1,536.9,105.1z M536.1,32.5c-0.5,0-1,0.2-1.3,0.7l-1.2,1.9
				c-4.5,7.1-9.3,14.8-14.1,22.7c-0.5,0.8-1.5,2.5-1.5,2.5c-0.3,0.6-2.5,4.1-2.5,4.1c-1.9,3.3-3.9,7.4-4.2,12.2
				c-0.5,6.7,2,13.6,6.8,18.7c3.7,4,8.6,6.7,13.7,7.6c1.1,0.2,2.2,0.2,3.4,0.2h1.7c1.1,0,2.3-0.1,3.3-0.2c5.4-0.9,10.4-3.6,14.2-7.7
				l0.3-0.3c0.1-0.2,0.2-0.3,0.3-0.4c0,0,0.1-0.1,0.1-0.1c0,0,0,0,0,0l0,0c1.1-1.3,2-2.7,2.8-4.1c0.6-1,1.1-2.2,1.6-3.4
				c4.1-11.2-1.6-20.6-6.6-28.9l-0.6-1c-4.7-7.8-10-16.2-13.9-22.3l-1-1.6C537.1,32.7,536.7,32.5,536.1,32.5
				C536.1,32.5,536.1,32.5,536.1,32.5z M556.4,95.9C556.4,95.9,556.4,95.9,556.4,95.9C556.4,95.9,556.4,95.9,556.4,95.9z
				 M555.8,95.1L555.8,95.1L555.8,95.1z M555.2,94.3L555.2,94.3L555.2,94.3z M555.2,94.3C555.2,94.3,555.2,94.3,555.2,94.3
				C555.2,94.3,555.2,94.3,555.2,94.3z"/>
		</g>
		<g>
			<path class="st0" d="M601.8,38.7l20,32.3c0,0,5.9,31-22.2,29c-28-2-22.5-28-17.8-33.9C586.6,60.2,601.8,38.7,601.8,38.7z"/>
			<g>
				<defs>
					<rect id="SVGID_15_" x="573.7" y="30" width="54.6" height="75.1"/>
				</defs>
				<clipPath id="SVGID_16_">
					<use xlink:href="#SVGID_15_"  style="overflow:visible;"/>
				</clipPath>
				<path class="st10" d="M615,89.8c0,0-0.1,0.1-0.1,0.1c-0.1,0.1-0.1,0.1-0.1,0.2l-0.1,0.2l-0.1,0.1c-2.8,3-6.4,5-10.4,5.7
					c-0.8,0.1-1.6,0.2-2.5,0.2h-1.2c-0.8,0-1.7-0.1-2.6-0.2c-3.8-0.7-7.4-2.7-10.1-5.6c-3.5-3.8-5.4-8.8-5-13.8
					c0.2-3.6,1.8-6.6,3.1-8.9c0,0,2.5-4.1,2.9-4.6c3.3-5.5,6.8-11,10-16.1l1.6-2.5c0.2-0.3,0.5-0.4,0.8-0.4c0.3,0,0.6,0.2,0.8,0.4
					l1.6,2.5c2.9,4.6,6.4,10.1,9.7,15.6l0.4,0.7c3.6,6,7.8,12.8,4.7,21.1c-0.3,0.9-0.7,1.7-1.2,2.5C616.4,87.9,615.7,88.9,615,89.8
					 M627.5,77.8c0-0.5,0-1-0.1-1.6c0-0.1,0-0.2,0-0.3l0-0.2c-0.2-1.7-0.5-3.3-1-4.9c-1.6-5.3-4.7-10.3-8.1-15.5
					c-0.7-1.1-1.3-2.1-2-3.2c-3.2-5.1-4.7-7.3-8.1-12c-1.1-1.6-2.5-3.4-4.1-5.7l-1.9-2.7c-0.8-1.3-2.3-0.3-2.7,0.4
					c-1,1.5-1.7,2.4-3.1,4.3l-1.1,1.6c-4,5.6-7.7,11-11.4,17c-0.4,0.6-0.8,1.3-1.2,1.9l-0.1,0.1c-4.2,6.9-8.1,13.4-8.1,20.8
					c0,1.3,0.1,2.7,0.3,4c0.1,0.9,0.3,1.7,0.5,2.6c0.4,1.7,1,3.3,1.8,4.9c0.7,1.5,1.6,3,2.6,4.4c0.5,0.7,1.1,1.3,1.6,2
					c0.3,0.3,0.6,0.6,0.9,0.9c0.6,0.6,1.2,1.2,1.9,1.7c4.7,3.9,10.7,6,16.8,6c0.9,0,1.8-0.1,2.7-0.1c0.9-0.1,1.8-0.2,2.6-0.4
					c0.5-0.1,1-0.2,1.6-0.4c0.8-0.2,1.5-0.4,2.2-0.7c0.8-0.3,1.6-0.6,2.4-1c1.3-0.6,2.5-1.4,3.7-2.2c0.9-0.6,1.8-1.3,2.6-2.1
					c0.3-0.3,0.6-0.6,0.9-0.9c1.6-1.6,3-3.5,4.2-5.5c0.2-0.4,0.5-0.8,0.7-1.2C626.5,86.1,627.5,82,627.5,77.8"/>
			</g>
			<rect x="573.9" y="30" class="st2" width="54.6" height="75.1"/>
			<path class="st3" d="M601.6,97.1h-1.2c-0.9,0-1.9-0.1-2.7-0.2c-4-0.7-7.8-2.8-10.7-5.9c-3.7-4-5.7-9.3-5.3-14.5
				c0.2-3.7,1.8-6.8,3.2-9.4c0,0,1.6-2.5,1.8-2.9c0,0,0.8-1.2,1.1-1.7c3.4-5.6,6.8-11,10-16.1l1.6-2.5c0.4-0.6,1-0.9,1.7-0.9
				c0.6,0,1.3,0.3,1.6,0.9l1.6,2.5c2.5,3.9,6.2,9.8,9.7,15.6l0.4,0.7c3.8,6.2,8,13.2,4.8,22c-0.4,1-0.8,1.8-1.2,2.7
				c-0.6,1.1-1.3,2.1-2.1,3.1l0,0c0,0-0.1,0.1-0.2,0.2l-0.4,0.4c-2.9,3.1-6.8,5.2-11,5.9C603.4,97.1,602.5,97.1,601.6,97.1z M601,45
				l-1.5,2.5c-3.2,5-6.6,10.5-10,16c-0.3,0.5-1.1,1.7-1.1,1.7c-0.2,0.4-1.8,2.9-1.8,2.9c-1.3,2.3-2.7,5.2-2.9,8.5
				c-0.3,4.7,1.4,9.4,4.8,13c2.6,2.8,6,4.6,9.5,5.3c0.7,0.1,1.5,0.2,2.4,0.2h1.2c0.8,0,1.6-0.1,2.3-0.2c3.7-0.6,7.2-2.5,9.8-5.4
				l0.1-0.1c0.1-0.1,0.2-0.2,0.3-0.3l0.1-0.1c0.7-0.9,1.4-1.8,1.9-2.8c0.4-0.7,0.8-1.5,1.1-2.4c2.9-7.8-1.1-14.4-4.6-20.2l-0.4-0.7
				c-3.5-5.8-7.2-11.7-9.6-15.5L601,45z M614.5,89C614.5,89,614.5,89,614.5,89L614.5,89z"/>
			<path class="st3" d="M601.9,105.1h-1.7c-1.3,0-2.6-0.1-3.8-0.3c-5.6-1-10.8-4-14.8-8.2c-5.2-5.6-7.9-13-7.4-20.2
				c0.3-5.1,2.5-9.5,4.5-13c0,0,2.2-3.6,2.5-4.1c0,0,1.1-1.7,1.5-2.4c4.8-7.9,9.6-15.6,14.1-22.7l1.3-1.9c0.7-1,1.8-1.6,2.9-1.6
				c0,0,0,0,0,0c1.2,0,2.3,0.6,2.9,1.6l1,1.6c3.9,6.1,9.1,14.4,13.9,22.3l0.6,1c5.3,8.7,11.2,18.5,6.8,30.7
				c-0.5,1.4-1.1,2.6-1.7,3.7c-0.8,1.5-1.9,3-3,4.4c0,0,0,0,0,0c0,0.1-0.1,0.2-0.2,0.3c0,0,0,0.1-0.1,0.1l-0.4,0.4
				c-4,4.4-9.5,7.3-15.3,8.3C604.4,105,603.1,105.1,601.9,105.1z M601.1,32.5c-0.5,0-1,0.2-1.3,0.7l-1.2,1.9
				c-4.5,7.1-9.3,14.8-14.1,22.7c-0.5,0.8-1.5,2.5-1.5,2.5c-0.3,0.6-2.5,4.1-2.5,4.1c-1.9,3.3-3.9,7.4-4.2,12.2
				c-0.5,6.7,2,13.6,6.8,18.7c3.7,4,8.6,6.7,13.7,7.6c1.1,0.2,2.2,0.2,3.4,0.2h1.7c1.1,0,2.3-0.1,3.3-0.2c5.4-0.9,10.4-3.6,14.2-7.7
				l0.3-0.3c0.1-0.2,0.2-0.3,0.3-0.4c0,0,0.1-0.1,0.1-0.1c0,0,0,0,0,0l0,0c1.1-1.3,2-2.7,2.8-4.1c0.6-1,1.1-2.2,1.6-3.4
				c4.1-11.2-1.6-20.6-6.6-28.9l-0.6-1c-4.7-7.8-10-16.2-13.9-22.3l-1-1.6C602.1,32.7,601.6,32.5,601.1,32.5
				C601.1,32.5,601.1,32.5,601.1,32.5z M621.4,95.9C621.4,95.9,621.4,95.9,621.4,95.9C621.4,95.9,621.4,95.9,621.4,95.9z
				 M620.8,95.1L620.8,95.1L620.8,95.1z M620.2,94.3L620.2,94.3L620.2,94.3z M620.2,94.3C620.2,94.3,620.2,94.3,620.2,94.3
				C620.2,94.3,620.2,94.3,620.2,94.3z"/>
		</g>
	</g>
</g>
<g id="Layer_2">
</g>
</svg>
