<?xml version="1.0" encoding="utf-8"?>
<!-- Generator: Adobe Illustrator 24.1.2, SVG Export Plug-In . SVG Version: 6.00 Build 0)  -->
<svg version="1.1" xmlns="http://www.w3.org/2000/svg" xmlns:xlink="http://www.w3.org/1999/xlink" x="0px" y="0px"
	 viewBox="0 0 746.9 137.7" style="enable-background:new 0 0 746.9 137.7;" xml:space="preserve">
<style type="text/css">
	.st0{fill:#CCEAEE;}
	.st1{clip-path:url(#SVGID_2_);fill:#69C2CF;}
	.st2{fill:none;}
	.st3{fill:#FFFFFF;}
	.st4{clip-path:url(#SVGID_4_);fill:#69C2CF;}
	.st5{clip-path:url(#SVGID_6_);fill:#69C2CF;}
	.st6{clip-path:url(#SVGID_8_);fill:#69C2CF;}
</style>
<g id="Layer_1">
	<g>
		<g>
			<path class="st0" d="M273.8,38.7l20,32.3c0,0,5.9,31-22.2,29c-28-2-22.5-28-17.8-33.9C258.6,60.2,273.8,38.7,273.8,38.7z"/>
			<g>
				<defs>
					<rect id="SVGID_1_" x="245.7" y="30" width="54.6" height="75.1"/>
				</defs>
				<clipPath id="SVGID_2_">
					<use xlink:href="#SVGID_1_"  style="overflow:visible;"/>
				</clipPath>
				<path class="st1" d="M287,89.8c0,0-0.1,0.1-0.1,0.1c-0.1,0.1-0.1,0.1-0.1,0.2l-0.1,0.2l-0.1,0.1c-2.8,3-6.4,5-10.4,5.7
					c-0.8,0.1-1.6,0.2-2.5,0.2h-1.2c-0.8,0-1.7-0.1-2.6-0.2c-3.8-0.7-7.4-2.7-10.1-5.6c-3.5-3.8-5.4-8.8-5-13.8
					c0.2-3.6,1.8-6.6,3.1-8.9c0,0,2.5-4.1,2.9-4.6c3.3-5.5,6.8-11,10-16.1l1.6-2.5c0.2-0.3,0.5-0.4,0.8-0.4c0.3,0,0.6,0.2,0.8,0.4
					l1.6,2.5c2.9,4.6,6.4,10.1,9.7,15.6l0.4,0.7c3.6,6,7.8,12.8,4.7,21.1c-0.3,0.9-0.7,1.7-1.2,2.5C288.4,87.9,287.7,88.9,287,89.8
					 M299.5,77.8c0-0.5,0-1-0.1-1.6c0-0.1,0-0.2,0-0.3l0-0.2c-0.2-1.7-0.5-3.3-1-4.9c-1.6-5.3-4.7-10.3-8.1-15.5
					c-0.7-1.1-1.3-2.1-2-3.2c-3.2-5.1-4.7-7.3-8.1-12c-1.1-1.6-2.5-3.4-4.1-5.7l-1.9-2.7c-0.8-1.3-2.3-0.3-2.7,0.4
					c-1,1.5-1.7,2.4-3.1,4.3l-1.1,1.6c-4,5.6-7.7,11-11.4,17c-0.4,0.6-0.8,1.3-1.2,1.9l-0.1,0.1c-4.2,6.9-8.1,13.4-8.1,20.8
					c0,1.3,0.1,2.7,0.3,4c0.1,0.9,0.3,1.7,0.5,2.6c0.4,1.7,1,3.3,1.8,4.9c0.7,1.5,1.6,3,2.6,4.4c0.5,0.7,1.1,1.3,1.6,2
					c0.3,0.3,0.6,0.6,0.9,0.9c0.6,0.6,1.2,1.2,1.9,1.7c4.7,3.9,10.7,6,16.8,6c0.9,0,1.8-0.1,2.7-0.1c0.9-0.1,1.8-0.2,2.6-0.4
					c0.5-0.1,1-0.2,1.6-0.4c0.8-0.2,1.5-0.4,2.2-0.7c0.8-0.3,1.6-0.6,2.4-1c1.3-0.6,2.5-1.4,3.7-2.2c0.9-0.6,1.8-1.3,2.6-2.1
					c0.3-0.3,0.6-0.6,0.9-0.9c1.6-1.6,3-3.5,4.2-5.5c0.2-0.4,0.5-0.8,0.7-1.2C298.5,86.1,299.5,82,299.5,77.8"/>
			</g>
			<rect x="245.9" y="30" class="st2" width="54.6" height="75.1"/>
			<path class="st3" d="M273.6,97.1h-1.2c-0.9,0-1.9-0.1-2.7-0.2c-4-0.7-7.8-2.8-10.7-5.9c-3.7-4-5.7-9.3-5.3-14.5
				c0.2-3.7,1.8-6.8,3.2-9.4c0,0,1.6-2.5,1.8-2.9c0,0,0.8-1.2,1.1-1.7c3.4-5.6,6.8-11,10-16.1l1.6-2.5c0.4-0.6,1-0.9,1.7-0.9
				c0.6,0,1.3,0.3,1.6,0.9l1.6,2.5c2.5,3.9,6.2,9.8,9.7,15.6l0.4,0.7c3.8,6.2,8,13.2,4.8,22c-0.4,1-0.8,1.8-1.2,2.7
				c-0.6,1.1-1.3,2.1-2.1,3.1l0,0c0,0-0.1,0.1-0.2,0.2l-0.4,0.4c-2.9,3.1-6.8,5.2-11,5.9C275.4,97.1,274.5,97.1,273.6,97.1z M273,45
				l-1.5,2.5c-3.2,5-6.6,10.5-10,16c-0.3,0.5-1.1,1.7-1.1,1.7c-0.2,0.4-1.8,2.9-1.8,2.9c-1.3,2.3-2.7,5.2-2.9,8.5
				c-0.3,4.7,1.4,9.4,4.8,13c2.6,2.8,6,4.6,9.5,5.3c0.7,0.1,1.5,0.2,2.4,0.2h1.2c0.8,0,1.6-0.1,2.3-0.2c3.7-0.6,7.2-2.5,9.8-5.4
				l0.1-0.1c0.1-0.1,0.2-0.2,0.3-0.3l0.1-0.1c0.7-0.9,1.4-1.8,1.9-2.8c0.4-0.7,0.8-1.5,1.1-2.4c2.9-7.8-1.1-14.4-4.6-20.2l-0.4-0.7
				c-3.5-5.8-7.2-11.7-9.6-15.5L273,45z M286.5,89C286.5,89,286.5,89,286.5,89L286.5,89z"/>
			<path class="st3" d="M273.9,105.1h-1.7c-1.3,0-2.6-0.1-3.8-0.3c-5.6-1-10.8-4-14.8-8.2c-5.2-5.6-7.9-13-7.4-20.2
				c0.3-5.1,2.5-9.5,4.5-13c0,0,2.2-3.6,2.5-4.1c0,0,1.1-1.7,1.5-2.4c4.8-7.9,9.6-15.6,14.1-22.7l1.3-1.9c0.7-1,1.8-1.6,2.9-1.6
				c0,0,0,0,0,0c1.2,0,2.3,0.6,2.9,1.6l1,1.6c3.9,6.1,9.1,14.4,13.9,22.3l0.6,1c5.3,8.7,11.2,18.5,6.8,30.7
				c-0.5,1.4-1.1,2.6-1.7,3.7c-0.8,1.5-1.9,3-3,4.4c0,0,0,0,0,0c0,0.1-0.1,0.2-0.2,0.3c0,0,0,0.1-0.1,0.1l-0.4,0.4
				c-4,4.4-9.5,7.3-15.3,8.3C276.4,105,275.1,105.1,273.9,105.1z M273.1,32.5c-0.5,0-1,0.2-1.3,0.7l-1.2,1.9
				c-4.5,7.1-9.3,14.8-14.1,22.7c-0.5,0.8-1.5,2.5-1.5,2.5c-0.3,0.6-2.5,4.1-2.5,4.1c-1.9,3.3-3.9,7.4-4.2,12.2
				c-0.5,6.7,2,13.6,6.8,18.7c3.7,4,8.6,6.7,13.7,7.6c1.1,0.2,2.2,0.2,3.4,0.2h1.7c1.1,0,2.3-0.1,3.3-0.2c5.4-0.9,10.4-3.6,14.2-7.7
				l0.3-0.3c0.1-0.2,0.2-0.3,0.3-0.4c0,0,0.1-0.1,0.1-0.1c0,0,0,0,0,0l0,0c1.1-1.3,2-2.7,2.8-4.1c0.6-1,1.1-2.2,1.6-3.4
				c4.1-11.2-1.6-20.6-6.6-28.9l-0.6-1c-4.7-7.8-10-16.2-13.9-22.3l-1-1.6C274.1,32.7,273.6,32.5,273.1,32.5
				C273.1,32.5,273.1,32.5,273.1,32.5z M293.4,95.9C293.4,95.9,293.4,95.9,293.4,95.9C293.4,95.9,293.4,95.9,293.4,95.9z
				 M292.8,95.1L292.8,95.1L292.8,95.1z M292.2,94.3L292.2,94.3L292.2,94.3z M292.2,94.3C292.2,94.3,292.2,94.3,292.2,94.3
				C292.2,94.3,292.2,94.3,292.2,94.3z"/>
		</g>
		<g>
			<path class="st0" d="M340.7,38.7l20,32.3c0,0,5.9,31-22.2,29c-28-2-22.5-28-17.8-33.9C325.5,60.2,340.7,38.7,340.7,38.7z"/>
			<g>
				<defs>
					<rect id="SVGID_3_" x="312.6" y="30" width="54.6" height="75.1"/>
				</defs>
				<clipPath id="SVGID_4_">
					<use xlink:href="#SVGID_3_"  style="overflow:visible;"/>
				</clipPath>
				<path class="st4" d="M353.9,89.8c0,0-0.1,0.1-0.1,0.1c-0.1,0.1-0.1,0.1-0.1,0.2l-0.1,0.2l-0.1,0.1c-2.8,3-6.4,5-10.4,5.7
					c-0.8,0.1-1.6,0.2-2.5,0.2h-1.2c-0.8,0-1.7-0.1-2.6-0.2c-3.8-0.7-7.4-2.7-10.1-5.6c-3.5-3.8-5.4-8.8-5-13.8
					c0.2-3.6,1.8-6.6,3.1-8.9c0,0,2.5-4.1,2.9-4.6c3.3-5.5,6.8-11,10-16.1l1.6-2.5c0.2-0.3,0.5-0.4,0.8-0.4c0.3,0,0.6,0.2,0.8,0.4
					l1.6,2.5c2.9,4.6,6.4,10.1,9.7,15.6l0.4,0.7c3.6,6,7.8,12.8,4.7,21.1c-0.3,0.9-0.7,1.7-1.2,2.5
					C355.3,87.9,354.6,88.9,353.9,89.8 M366.4,77.8c0-0.5,0-1-0.1-1.6c0-0.1,0-0.2,0-0.3l0-0.2c-0.2-1.7-0.5-3.3-1-4.9
					c-1.6-5.3-4.7-10.3-8.1-15.5c-0.7-1.1-1.3-2.1-2-3.2c-3.2-5.1-4.7-7.3-8.1-12c-1.1-1.6-2.5-3.4-4.1-5.7l-1.9-2.7
					c-0.8-1.3-2.3-0.3-2.7,0.4c-1,1.5-1.7,2.4-3.1,4.3l-1.1,1.6c-4,5.6-7.7,11-11.4,17c-0.4,0.6-0.8,1.3-1.2,1.9l-0.1,0.1
					c-4.2,6.9-8.1,13.4-8.1,20.8c0,1.3,0.1,2.7,0.3,4c0.1,0.9,0.3,1.7,0.5,2.6c0.4,1.7,1,3.3,1.8,4.9c0.7,1.5,1.6,3,2.6,4.4
					c0.5,0.7,1.1,1.3,1.6,2c0.3,0.3,0.6,0.6,0.9,0.9c0.6,0.6,1.2,1.2,1.9,1.7c4.7,3.9,10.7,6,16.8,6c0.9,0,1.8-0.1,2.7-0.1
					c0.9-0.1,1.8-0.2,2.6-0.4c0.5-0.1,1-0.2,1.6-0.4c0.8-0.2,1.5-0.4,2.2-0.7c0.8-0.3,1.6-0.6,2.4-1c1.3-0.6,2.5-1.4,3.7-2.2
					c0.9-0.6,1.8-1.3,2.6-2.1c0.3-0.3,0.6-0.6,0.9-0.9c1.6-1.6,3-3.5,4.2-5.5c0.2-0.4,0.5-0.8,0.7-1.2
					C365.4,86.1,366.4,82,366.4,77.8"/>
			</g>
			<rect x="312.8" y="30" class="st2" width="54.6" height="75.1"/>
			<path class="st3" d="M340.5,97.1h-1.2c-0.9,0-1.9-0.1-2.7-0.2c-4-0.7-7.8-2.8-10.7-5.9c-3.7-4-5.7-9.3-5.3-14.5
				c0.2-3.7,1.8-6.8,3.2-9.4c0,0,1.6-2.5,1.8-2.9c0,0,0.8-1.2,1.1-1.7c3.4-5.6,6.8-11,10-16.1l1.6-2.5c0.4-0.6,1-0.9,1.7-0.9
				c0.6,0,1.3,0.3,1.6,0.9l1.6,2.5c2.5,3.9,6.2,9.8,9.7,15.6l0.4,0.7c3.8,6.2,8,13.2,4.8,22c-0.4,1-0.8,1.8-1.2,2.7
				c-0.6,1.1-1.3,2.1-2.1,3.1l0,0c0,0-0.1,0.1-0.2,0.2l-0.4,0.4c-2.9,3.1-6.8,5.2-11,5.9C342.3,97.1,341.4,97.1,340.5,97.1z
				 M339.9,45l-1.5,2.5c-3.2,5-6.6,10.5-10,16c-0.3,0.5-1.1,1.7-1.1,1.7c-0.2,0.4-1.8,2.9-1.8,2.9c-1.3,2.3-2.7,5.2-2.9,8.5
				c-0.3,4.7,1.4,9.4,4.8,13c2.6,2.8,6,4.6,9.5,5.3c0.7,0.1,1.5,0.2,2.4,0.2h1.2c0.8,0,1.6-0.1,2.3-0.2c3.7-0.6,7.2-2.5,9.8-5.4
				l0.1-0.1c0.1-0.1,0.2-0.2,0.3-0.3l0.1-0.1c0.7-0.9,1.4-1.8,1.9-2.8c0.4-0.7,0.8-1.5,1.1-2.4c2.9-7.8-1.1-14.4-4.6-20.2l-0.4-0.7
				c-3.5-5.8-7.2-11.7-9.6-15.5L339.9,45z M353.4,89C353.4,89,353.4,89,353.4,89L353.4,89z"/>
			<path class="st3" d="M340.8,105.1h-1.7c-1.3,0-2.6-0.1-3.8-0.3c-5.6-1-10.8-4-14.8-8.2c-5.2-5.6-7.9-13-7.4-20.2
				c0.3-5.1,2.5-9.5,4.5-13c0,0,2.2-3.6,2.5-4.1c0,0,1.1-1.7,1.5-2.4c4.8-7.9,9.6-15.6,14.1-22.7l1.3-1.9c0.7-1,1.8-1.6,2.9-1.6
				c0,0,0,0,0,0c1.2,0,2.3,0.6,2.9,1.6l1,1.6c3.9,6.1,9.1,14.4,13.9,22.3l0.6,1c5.3,8.7,11.2,18.5,6.8,30.7
				c-0.5,1.4-1.1,2.6-1.7,3.7c-0.8,1.5-1.9,3-3,4.4c0,0,0,0,0,0c0,0.1-0.1,0.2-0.2,0.3c0,0,0,0.1-0.1,0.1l-0.4,0.4
				c-4,4.4-9.5,7.3-15.3,8.3C343.3,105,342,105.1,340.8,105.1z M340,32.5c-0.5,0-1,0.2-1.3,0.7l-1.2,1.9
				c-4.5,7.1-9.3,14.8-14.1,22.7c-0.5,0.8-1.5,2.5-1.5,2.5c-0.3,0.6-2.5,4.1-2.5,4.1c-1.9,3.3-3.9,7.4-4.2,12.2
				c-0.5,6.7,2,13.6,6.8,18.7c3.7,4,8.6,6.7,13.7,7.6c1.1,0.2,2.2,0.2,3.4,0.2h1.7c1.1,0,2.3-0.1,3.3-0.2c5.4-0.9,10.4-3.6,14.2-7.7
				l0.3-0.3c0.1-0.2,0.2-0.3,0.3-0.4c0,0,0.1-0.1,0.1-0.1c0,0,0,0,0,0l0,0c1.1-1.3,2-2.7,2.8-4.1c0.6-1,1.1-2.2,1.6-3.4
				c4.1-11.2-1.6-20.6-6.6-28.9l-0.6-1c-4.7-7.8-10-16.2-13.9-22.3l-1-1.6C341,32.7,340.5,32.5,340,32.5C340,32.5,340,32.5,340,32.5
				z M360.3,95.9C360.3,95.9,360.3,95.9,360.3,95.9C360.3,95.9,360.3,95.9,360.3,95.9z M359.7,95.1L359.7,95.1L359.7,95.1z
				 M359.1,94.3L359.1,94.3L359.1,94.3z M359.1,94.3C359.1,94.3,359.1,94.3,359.1,94.3C359.1,94.3,359.1,94.3,359.1,94.3z"/>
		</g>
		<g>
			<path class="st0" d="M407.6,38.7l20,32.3c0,0,5.9,31-22.2,29c-28-2-22.5-28-17.8-33.9C392.4,60.2,407.6,38.7,407.6,38.7z"/>
			<g>
				<defs>
					<rect id="SVGID_5_" x="379.5" y="30" width="54.6" height="75.1"/>
				</defs>
				<clipPath id="SVGID_6_">
					<use xlink:href="#SVGID_5_"  style="overflow:visible;"/>
				</clipPath>
				<path class="st5" d="M420.8,89.8c0,0-0.1,0.1-0.1,0.1c-0.1,0.1-0.1,0.1-0.1,0.2l-0.1,0.2l-0.1,0.1c-2.8,3-6.4,5-10.4,5.7
					c-0.8,0.1-1.6,0.2-2.5,0.2h-1.2c-0.8,0-1.7-0.1-2.6-0.2c-3.8-0.7-7.4-2.7-10.1-5.6c-3.5-3.8-5.4-8.8-5-13.8
					c0.2-3.6,1.8-6.6,3.1-8.9c0,0,2.5-4.1,2.9-4.6c3.3-5.5,6.8-11,10-16.1l1.6-2.5c0.2-0.3,0.5-0.4,0.8-0.4c0.3,0,0.6,0.2,0.8,0.4
					l1.6,2.5c2.9,4.6,6.4,10.1,9.7,15.6l0.4,0.7c3.6,6,7.8,12.8,4.7,21.1c-0.3,0.9-0.7,1.7-1.2,2.5
					C422.2,87.9,421.5,88.9,420.8,89.8 M433.3,77.8c0-0.5,0-1-0.1-1.6c0-0.1,0-0.2,0-0.3l0-0.2c-0.2-1.7-0.5-3.3-1-4.9
					c-1.6-5.3-4.7-10.3-8.1-15.5c-0.7-1.1-1.3-2.1-2-3.2c-3.2-5.1-4.7-7.3-8.1-12c-1.1-1.6-2.5-3.4-4.1-5.7l-1.9-2.7
					c-0.8-1.3-2.3-0.3-2.7,0.4c-1,1.5-1.7,2.4-3.1,4.3l-1.1,1.6c-4,5.6-7.7,11-11.4,17c-0.4,0.6-0.8,1.3-1.2,1.9l-0.1,0.1
					c-4.2,6.9-8.1,13.4-8.1,20.8c0,1.3,0.1,2.7,0.3,4c0.1,0.9,0.3,1.7,0.5,2.6c0.4,1.7,1,3.3,1.8,4.9c0.7,1.5,1.6,3,2.6,4.4
					c0.5,0.7,1.1,1.3,1.6,2c0.3,0.3,0.6,0.6,0.9,0.9c0.6,0.6,1.2,1.2,1.9,1.7c4.7,3.9,10.7,6,16.8,6c0.9,0,1.8-0.1,2.7-0.1
					c0.9-0.1,1.8-0.2,2.6-0.4c0.5-0.1,1-0.2,1.6-0.4c0.8-0.2,1.5-0.4,2.2-0.7c0.8-0.3,1.6-0.6,2.4-1c1.3-0.6,2.5-1.4,3.7-2.2
					c0.9-0.6,1.8-1.3,2.6-2.1c0.3-0.3,0.6-0.6,0.9-0.9c1.6-1.6,3-3.5,4.2-5.5c0.2-0.4,0.5-0.8,0.7-1.2
					C432.3,86.1,433.3,82,433.3,77.8"/>
			</g>
			<rect x="379.7" y="30" class="st2" width="54.6" height="75.1"/>
			<path class="st3" d="M407.4,97.1h-1.2c-0.9,0-1.9-0.1-2.7-0.2c-4-0.7-7.8-2.8-10.7-5.9c-3.7-4-5.7-9.3-5.3-14.5
				c0.2-3.7,1.8-6.8,3.2-9.4c0,0,1.6-2.5,1.8-2.9c0,0,0.8-1.2,1.1-1.7c3.4-5.6,6.8-11,10-16.1l1.6-2.5c0.4-0.6,1-0.9,1.7-0.9
				c0.6,0,1.3,0.3,1.6,0.9l1.6,2.5c2.5,3.9,6.2,9.8,9.7,15.6l0.4,0.7c3.8,6.2,8,13.2,4.8,22c-0.4,1-0.8,1.8-1.2,2.7
				c-0.6,1.1-1.3,2.1-2.1,3.1l0,0c0,0-0.1,0.1-0.2,0.2L421,91c-2.9,3.1-6.8,5.2-11,5.9C409.2,97.1,408.3,97.1,407.4,97.1z M406.8,45
				l-1.5,2.5c-3.2,5-6.6,10.5-10,16c-0.3,0.5-1.1,1.7-1.1,1.7c-0.2,0.4-1.8,2.9-1.8,2.9c-1.3,2.3-2.7,5.2-2.9,8.5
				c-0.3,4.7,1.4,9.4,4.8,13c2.6,2.8,6,4.6,9.5,5.3c0.7,0.1,1.5,0.2,2.4,0.2h1.2c0.8,0,1.6-0.1,2.3-0.2c3.7-0.6,7.2-2.5,9.8-5.4
				l0.1-0.1c0.1-0.1,0.2-0.2,0.3-0.3l0.1-0.1c0.7-0.9,1.4-1.8,1.9-2.8c0.4-0.7,0.8-1.5,1.1-2.4c2.9-7.8-1.1-14.4-4.6-20.2L418,63
				c-3.5-5.8-7.2-11.7-9.6-15.5L406.8,45z M420.2,89C420.2,89,420.2,89,420.2,89L420.2,89z"/>
			<path class="st3" d="M407.7,105.1H406c-1.3,0-2.6-0.1-3.8-0.3c-5.6-1-10.8-4-14.8-8.2c-5.2-5.6-7.9-13-7.4-20.2
				c0.3-5.1,2.5-9.5,4.5-13c0,0,2.2-3.6,2.5-4.1c0,0,1.1-1.7,1.5-2.4c4.8-7.9,9.6-15.6,14.1-22.7l1.3-1.9c0.7-1,1.8-1.6,2.9-1.6
				c0,0,0,0,0,0c1.2,0,2.3,0.6,2.9,1.6l1,1.6c3.9,6.1,9.1,14.4,13.9,22.3l0.6,1c5.3,8.7,11.2,18.5,6.8,30.7
				c-0.5,1.4-1.1,2.6-1.7,3.7c-0.8,1.5-1.9,3-3,4.4c0,0,0,0,0,0c0,0.1-0.1,0.2-0.2,0.3c0,0,0,0.1-0.1,0.1l-0.4,0.4
				c-4,4.4-9.5,7.3-15.3,8.3C410.2,105,408.9,105.1,407.7,105.1z M406.9,32.5c-0.5,0-1,0.2-1.3,0.7l-1.2,1.9
				c-4.5,7.1-9.3,14.8-14.1,22.7c-0.5,0.8-1.5,2.5-1.5,2.5c-0.3,0.6-2.5,4.1-2.5,4.1c-1.9,3.3-3.9,7.4-4.2,12.2
				c-0.5,6.7,2,13.6,6.8,18.7c3.7,4,8.6,6.7,13.7,7.6c1.1,0.2,2.2,0.2,3.4,0.2h1.7c1.1,0,2.3-0.1,3.3-0.2c5.4-0.9,10.4-3.6,14.2-7.7
				l0.3-0.3c0.1-0.2,0.2-0.3,0.3-0.4c0,0,0.1-0.1,0.1-0.1c0,0,0,0,0,0l0,0c1.1-1.3,2-2.7,2.8-4.1c0.6-1,1.1-2.2,1.6-3.4
				c4.1-11.2-1.6-20.6-6.6-28.9l-0.6-1c-4.7-7.8-10-16.2-13.9-22.3l-1-1.6C407.9,32.7,407.4,32.5,406.9,32.5
				C406.9,32.5,406.9,32.5,406.9,32.5z M427.1,95.9C427.1,95.9,427.1,95.9,427.1,95.9C427.1,95.9,427.1,95.9,427.1,95.9z
				 M426.6,95.1L426.6,95.1L426.6,95.1z M426,94.3L426,94.3L426,94.3z M426,94.3C426,94.3,426,94.3,426,94.3
				C426,94.3,426,94.3,426,94.3z"/>
		</g>
		<g>
			<path class="st0" d="M474.4,38.7l20,32.3c0,0,5.9,31-22.2,29c-28-2-22.5-28-17.8-33.9C459.3,60.2,474.4,38.7,474.4,38.7z"/>
			<g>
				<defs>
					<rect id="SVGID_7_" x="446.4" y="30" width="54.6" height="75.1"/>
				</defs>
				<clipPath id="SVGID_8_">
					<use xlink:href="#SVGID_7_"  style="overflow:visible;"/>
				</clipPath>
				<path class="st6" d="M487.7,89.8c0,0-0.1,0.1-0.1,0.1c-0.1,0.1-0.1,0.1-0.1,0.2l-0.1,0.2l-0.1,0.1c-2.8,3-6.4,5-10.4,5.7
					c-0.8,0.1-1.6,0.2-2.5,0.2h-1.2c-0.8,0-1.7-0.1-2.6-0.2c-3.8-0.7-7.4-2.7-10.1-5.6c-3.5-3.8-5.4-8.8-5-13.8
					c0.2-3.6,1.8-6.6,3.1-8.9c0,0,2.5-4.1,2.9-4.6c3.3-5.5,6.8-11,10-16.1l1.6-2.5c0.2-0.3,0.5-0.4,0.8-0.4c0.3,0,0.6,0.2,0.8,0.4
					l1.6,2.5c2.9,4.6,6.4,10.1,9.7,15.6l0.4,0.7c3.6,6,7.8,12.8,4.7,21.1c-0.3,0.9-0.7,1.7-1.2,2.5
					C489.1,87.9,488.4,88.9,487.7,89.8 M500.2,77.8c0-0.5,0-1-0.1-1.6c0-0.1,0-0.2,0-0.3l0-0.2c-0.2-1.7-0.5-3.3-1-4.9
					c-1.6-5.3-4.7-10.3-8.1-15.5c-0.7-1.1-1.3-2.1-2-3.2c-3.2-5.1-4.7-7.3-8.1-12c-1.1-1.6-2.5-3.4-4.1-5.7l-1.9-2.7
					c-0.8-1.3-2.3-0.3-2.7,0.4c-1,1.5-1.7,2.4-3.1,4.3L468,38c-4,5.6-7.7,11-11.4,17c-0.4,0.6-0.8,1.3-1.2,1.9l-0.1,0.1
					c-4.2,6.9-8.1,13.4-8.1,20.8c0,1.3,0.1,2.7,0.3,4c0.1,0.9,0.3,1.7,0.5,2.6c0.4,1.7,1,3.3,1.8,4.9c0.7,1.5,1.6,3,2.6,4.4
					c0.5,0.7,1.1,1.3,1.6,2c0.3,0.3,0.6,0.6,0.9,0.9c0.6,0.6,1.2,1.2,1.9,1.7c4.7,3.9,10.7,6,16.8,6c0.9,0,1.8-0.1,2.7-0.1
					c0.9-0.1,1.8-0.2,2.6-0.4c0.5-0.1,1-0.2,1.6-0.4c0.8-0.2,1.5-0.4,2.2-0.7c0.8-0.3,1.6-0.6,2.4-1c1.3-0.6,2.5-1.4,3.7-2.2
					c0.9-0.6,1.8-1.3,2.6-2.1c0.3-0.3,0.6-0.6,0.9-0.9c1.6-1.6,3-3.5,4.2-5.5c0.2-0.4,0.5-0.8,0.7-1.2
					C499.2,86.1,500.2,82,500.2,77.8"/>
			</g>
			<rect x="446.6" y="30" class="st2" width="54.6" height="75.1"/>
			<path class="st3" d="M474.3,97.1h-1.2c-0.9,0-1.9-0.1-2.7-0.2c-4-0.7-7.8-2.8-10.7-5.9c-3.7-4-5.7-9.3-5.3-14.5
				c0.2-3.7,1.8-6.8,3.2-9.4c0,0,1.6-2.5,1.8-2.9c0,0,0.8-1.2,1.1-1.7c3.4-5.6,6.8-11,10-16.1l1.6-2.5c0.4-0.6,1-0.9,1.7-0.9
				c0.6,0,1.3,0.3,1.6,0.9l1.6,2.5c2.5,3.9,6.2,9.8,9.7,15.6l0.4,0.7c3.8,6.2,8,13.2,4.8,22c-0.4,1-0.8,1.8-1.2,2.7
				c-0.6,1.1-1.3,2.1-2.1,3.1l0,0c0,0-0.1,0.1-0.2,0.2l-0.4,0.4c-2.9,3.1-6.8,5.2-11,5.9C476.1,97.1,475.2,97.1,474.3,97.1z
				 M473.7,45l-1.5,2.5c-3.2,5-6.6,10.5-10,16c-0.3,0.5-1.1,1.7-1.1,1.7c-0.2,0.4-1.8,2.9-1.8,2.9c-1.3,2.3-2.7,5.2-2.9,8.5
				c-0.3,4.7,1.4,9.4,4.8,13c2.6,2.8,6,4.6,9.5,5.3c0.7,0.1,1.5,0.2,2.4,0.2h1.2c0.8,0,1.6-0.1,2.3-0.2c3.7-0.6,7.2-2.5,9.8-5.4
				l0.1-0.1c0.1-0.1,0.2-0.2,0.3-0.3l0.1-0.1c0.7-0.9,1.4-1.8,1.9-2.8c0.4-0.7,0.8-1.5,1.1-2.4c2.9-7.8-1.1-14.4-4.6-20.2l-0.4-0.7
				c-3.5-5.8-7.2-11.7-9.6-15.5L473.7,45z M487.1,89C487.1,89,487.1,89,487.1,89L487.1,89z"/>
			<path class="st3" d="M474.6,105.1h-1.7c-1.3,0-2.6-0.1-3.8-0.3c-5.6-1-10.8-4-14.8-8.2c-5.2-5.6-7.9-13-7.4-20.2
				c0.3-5.1,2.5-9.5,4.5-13c0,0,2.2-3.6,2.5-4.1c0,0,1.1-1.7,1.5-2.4c4.8-7.9,9.6-15.6,14.1-22.7l1.3-1.9c0.7-1,1.8-1.6,2.9-1.6
				c0,0,0,0,0,0c1.2,0,2.3,0.6,2.9,1.6l1,1.6c3.9,6.1,9.1,14.4,13.9,22.3l0.6,1c5.3,8.7,11.2,18.5,6.8,30.7
				c-0.5,1.4-1.1,2.6-1.7,3.7c-0.8,1.5-1.9,3-3,4.4c0,0,0,0,0,0c0,0.1-0.1,0.2-0.2,0.3c0,0,0,0.1-0.1,0.1l-0.4,0.4
				c-4,4.4-9.5,7.3-15.3,8.3C477,105,475.8,105.1,474.6,105.1z M473.8,32.5c-0.5,0-1,0.2-1.3,0.7l-1.2,1.9
				c-4.5,7.1-9.3,14.8-14.1,22.7c-0.5,0.8-1.5,2.5-1.5,2.5c-0.3,0.6-2.5,4.1-2.5,4.1c-1.9,3.3-3.9,7.4-4.2,12.2
				c-0.5,6.7,2,13.6,6.8,18.7c3.7,4,8.6,6.7,13.7,7.6c1.1,0.2,2.2,0.2,3.4,0.2h1.7c1.1,0,2.3-0.1,3.3-0.2c5.4-0.9,10.4-3.6,14.2-7.7
				l0.3-0.3c0.1-0.2,0.2-0.3,0.3-0.4c0,0,0.1-0.1,0.1-0.1c0,0,0,0,0,0l0,0c1.1-1.3,2-2.7,2.8-4.1c0.6-1,1.1-2.2,1.6-3.4
				c4.1-11.2-1.6-20.6-6.6-28.9l-0.6-1c-4.7-7.8-10-16.2-13.9-22.3l-1-1.6C474.8,32.7,474.3,32.5,473.8,32.5
				C473.8,32.5,473.8,32.5,473.8,32.5z M494,95.9C494,95.9,494,95.9,494,95.9C494,95.9,494,95.9,494,95.9z M493.5,95.1L493.5,95.1
				L493.5,95.1z M492.9,94.3L492.9,94.3L492.9,94.3z M492.9,94.3C492.9,94.3,492.9,94.3,492.9,94.3
				C492.9,94.3,492.9,94.3,492.9,94.3z"/>
		</g>
	</g>
</g>
<g id="Layer_2">
</g>
</svg>
