<?xml version="1.0" encoding="utf-8"?>
<!-- Generator: Adobe Illustrator 24.1.2, SVG Export Plug-In . SVG Version: 6.00 Build 0)  -->
<svg version="1.1" xmlns="http://www.w3.org/2000/svg" xmlns:xlink="http://www.w3.org/1999/xlink" x="0px" y="0px"
	 viewBox="0 0 746.9 137.7" style="enable-background:new 0 0 746.9 137.7;" xml:space="preserve">
<style type="text/css">
	.st0{fill:#CCEAEE;}
	.st1{clip-path:url(#SVGID_2_);fill:#69C2CF;}
	.st2{fill:none;}
	.st3{fill:#FFFFFF;}
	.st4{clip-path:url(#SVGID_4_);fill:#69C2CF;}
	.st5{clip-path:url(#SVGID_6_);fill:#69C2CF;}
	.st6{clip-path:url(#SVGID_8_);fill:#69C2CF;}
	.st7{clip-path:url(#SVGID_10_);fill:#69C2CF;}
	.st8{clip-path:url(#SVGID_12_);fill:#69C2CF;}
	.st9{clip-path:url(#SVGID_14_);fill:#69C2CF;}
	.st10{clip-path:url(#SVGID_16_);fill:#69C2CF;}
	.st11{clip-path:url(#SVGID_18_);fill:#69C2CF;}
	.st12{clip-path:url(#SVGID_20_);fill:#69C2CF;}
	.st13{clip-path:url(#SVGID_22_);fill:#69C2CF;}
</style>
<g id="Layer_1">
	<g>
		<g>
			<path class="st0" d="M48.3,38.7l20,32.3c0,0,5.9,31-22.2,29c-28-2-22.5-28-17.8-33.9S48.3,38.7,48.3,38.7z"/>
			<g>
				<defs>
					<rect id="SVGID_1_" x="20.2" y="30" width="54.6" height="75.1"/>
				</defs>
				<clipPath id="SVGID_2_">
					<use xlink:href="#SVGID_1_"  style="overflow:visible;"/>
				</clipPath>
				<path class="st1" d="M61.5,89.8c0,0-0.1,0.1-0.1,0.1c-0.1,0.1-0.1,0.1-0.1,0.2l-0.1,0.2L61,90.3c-2.8,3-6.4,5-10.4,5.7
					c-0.8,0.1-1.6,0.2-2.5,0.2h-1.2c-0.8,0-1.7-0.1-2.6-0.2c-3.8-0.7-7.4-2.7-10.1-5.6c-3.5-3.8-5.4-8.8-5-13.8
					c0.2-3.6,1.8-6.6,3.1-8.9c0,0,2.5-4.1,2.9-4.6c3.3-5.5,6.8-11,10-16.1l1.6-2.5c0.2-0.3,0.5-0.4,0.8-0.4c0.3,0,0.6,0.2,0.8,0.4
					l1.6,2.5c2.9,4.6,6.4,10.1,9.7,15.6l0.4,0.7c3.6,6,7.8,12.8,4.7,21.1c-0.3,0.9-0.7,1.7-1.2,2.5C62.9,87.9,62.2,88.9,61.5,89.8
					 M74,77.8c0-0.5,0-1-0.1-1.6c0-0.1,0-0.2,0-0.3l0-0.2c-0.2-1.7-0.5-3.3-1-4.9c-1.6-5.3-4.7-10.3-8.1-15.5
					c-0.7-1.1-1.3-2.1-2-3.2c-3.2-5.1-4.7-7.3-8.1-12c-1.1-1.6-2.5-3.4-4.1-5.7l-1.9-2.7c-0.8-1.3-2.3-0.3-2.7,0.4
					c-1,1.5-1.7,2.4-3.1,4.3L41.8,38c-4,5.6-7.7,11-11.4,17c-0.4,0.6-0.8,1.3-1.2,1.9L29.1,57C24.9,63.9,21,70.4,21,77.8
					c0,1.3,0.1,2.7,0.3,4c0.1,0.9,0.3,1.7,0.5,2.6c0.4,1.7,1,3.3,1.8,4.9c0.7,1.5,1.6,3,2.6,4.4c0.5,0.7,1.1,1.3,1.6,2
					c0.3,0.3,0.6,0.6,0.9,0.9c0.6,0.6,1.2,1.2,1.9,1.7c4.7,3.9,10.7,6,16.8,6c0.9,0,1.8-0.1,2.7-0.1c0.9-0.1,1.8-0.2,2.6-0.4
					c0.5-0.1,1-0.2,1.6-0.4c0.8-0.2,1.5-0.4,2.2-0.7c0.8-0.3,1.6-0.6,2.4-1c1.3-0.6,2.5-1.4,3.7-2.2c0.9-0.6,1.8-1.3,2.6-2.1
					c0.3-0.3,0.6-0.6,0.9-0.9c1.6-1.6,3-3.5,4.2-5.5c0.2-0.4,0.5-0.8,0.7-1.2C73,86.1,74,82,74,77.8"/>
			</g>
			<rect x="20.4" y="30" class="st2" width="54.6" height="75.1"/>
			<path class="st3" d="M48.1,97.1h-1.2c-0.9,0-1.9-0.1-2.7-0.2c-4-0.7-7.8-2.8-10.7-5.9c-3.7-4-5.7-9.3-5.3-14.5
				c0.2-3.7,1.8-6.8,3.2-9.4c0,0,1.6-2.5,1.8-2.9c0,0,0.8-1.2,1.1-1.7c3.4-5.6,6.8-11,10-16.1l1.6-2.5c0.4-0.6,1-0.9,1.7-0.9
				c0.6,0,1.3,0.3,1.6,0.9l1.6,2.5c2.5,3.9,6.2,9.8,9.7,15.6l0.4,0.7c3.8,6.2,8,13.2,4.8,22c-0.4,1-0.8,1.8-1.2,2.7
				c-0.6,1.1-1.3,2.1-2.1,3.1l0,0c0,0-0.1,0.1-0.2,0.2L61.7,91c-2.9,3.1-6.8,5.2-11,5.9C49.9,97.1,49,97.1,48.1,97.1z M47.5,45
				L46,47.5c-3.2,5-6.6,10.5-10,16C35.7,64,35,65.2,35,65.2c-0.2,0.4-1.8,2.9-1.8,2.9c-1.3,2.3-2.7,5.2-2.9,8.5
				c-0.3,4.7,1.4,9.4,4.8,13c2.6,2.8,6,4.6,9.5,5.3c0.7,0.1,1.5,0.2,2.4,0.2h1.2c0.8,0,1.6-0.1,2.3-0.2c3.7-0.6,7.2-2.5,9.8-5.4
				l0.1-0.1c0.1-0.1,0.2-0.2,0.3-0.3l0.1-0.1c0.7-0.9,1.4-1.8,1.9-2.8c0.4-0.7,0.8-1.5,1.1-2.4c2.9-7.8-1.1-14.4-4.6-20.2L58.7,63
				c-3.5-5.8-7.2-11.7-9.6-15.5L47.5,45z M60.9,89C60.9,89,60.9,89,60.9,89L60.9,89z"/>
			<path class="st3" d="M48.4,105.1h-1.7c-1.3,0-2.6-0.1-3.8-0.3c-5.6-1-10.8-4-14.8-8.2c-5.2-5.6-7.9-13-7.4-20.2
				c0.3-5.1,2.5-9.5,4.5-13c0,0,2.2-3.6,2.5-4.1c0,0,1.1-1.7,1.5-2.4C34,48.8,38.9,41.1,43.4,34l1.3-1.9c0.7-1,1.8-1.6,2.9-1.6
				c0,0,0,0,0,0c1.2,0,2.3,0.6,2.9,1.6l1,1.6c3.9,6.1,9.1,14.4,13.9,22.3l0.6,1c5.3,8.7,11.2,18.5,6.8,30.7
				c-0.5,1.4-1.1,2.6-1.7,3.7c-0.8,1.5-1.9,3-3,4.4c0,0,0,0,0,0c0,0.1-0.1,0.2-0.2,0.3c0,0,0,0.1-0.1,0.1l-0.4,0.4
				c-4,4.4-9.5,7.3-15.3,8.3C50.9,105,49.6,105.1,48.4,105.1z M47.6,32.5c-0.5,0-1,0.2-1.3,0.7L45.1,35c-4.5,7.1-9.3,14.8-14.1,22.7
				c-0.5,0.8-1.5,2.5-1.5,2.5c-0.3,0.6-2.5,4.1-2.5,4.1c-1.9,3.3-3.9,7.4-4.2,12.2c-0.5,6.7,2,13.6,6.8,18.7c3.7,4,8.6,6.7,13.7,7.6
				c1.1,0.2,2.2,0.2,3.4,0.2h1.7c1.1,0,2.3-0.1,3.3-0.2c5.4-0.9,10.4-3.6,14.2-7.7l0.3-0.3c0.1-0.2,0.2-0.3,0.3-0.4
				c0,0,0.1-0.1,0.1-0.1c0,0,0,0,0,0l0,0c1.1-1.3,2-2.7,2.8-4.1c0.6-1,1.1-2.2,1.6-3.4C75,75.7,69.3,66.3,64.3,58l-0.6-1
				c-4.7-7.8-10-16.2-13.9-22.3l-1-1.6C48.6,32.7,48.1,32.5,47.6,32.5C47.6,32.5,47.6,32.5,47.6,32.5z M67.8,95.9
				C67.8,95.9,67.8,95.9,67.8,95.9C67.8,95.9,67.8,95.9,67.8,95.9z M67.3,95.1L67.3,95.1L67.3,95.1z M66.7,94.3L66.7,94.3L66.7,94.3
				z M66.7,94.3C66.7,94.3,66.7,94.3,66.7,94.3C66.7,94.3,66.7,94.3,66.7,94.3z"/>
		</g>
		<g>
			<path class="st0" d="M113.4,38.7l20,32.3c0,0,5.9,31-22.2,29c-28-2-22.5-28-17.8-33.9C98.3,60.2,113.4,38.7,113.4,38.7z"/>
			<g>
				<defs>
					<rect id="SVGID_3_" x="85.4" y="30" width="54.6" height="75.1"/>
				</defs>
				<clipPath id="SVGID_4_">
					<use xlink:href="#SVGID_3_"  style="overflow:visible;"/>
				</clipPath>
				<path class="st4" d="M126.6,89.8c0,0-0.1,0.1-0.1,0.1c-0.1,0.1-0.1,0.1-0.1,0.2l-0.1,0.2l-0.1,0.1c-2.8,3-6.4,5-10.4,5.7
					c-0.8,0.1-1.6,0.2-2.5,0.2h-1.2c-0.8,0-1.7-0.1-2.6-0.2c-3.8-0.7-7.4-2.7-10.1-5.6c-3.5-3.8-5.4-8.8-5-13.8
					c0.2-3.6,1.8-6.6,3.1-8.9c0,0,2.5-4.1,2.9-4.6c3.3-5.5,6.8-11,10-16.1l1.6-2.5c0.2-0.3,0.5-0.4,0.8-0.4c0.3,0,0.6,0.2,0.8,0.4
					l1.6,2.5c2.9,4.6,6.4,10.1,9.7,15.6l0.4,0.7c3.6,6,7.8,12.8,4.7,21.1c-0.3,0.9-0.7,1.7-1.2,2.5
					C128.1,87.9,127.4,88.9,126.6,89.8 M139.1,77.8c0-0.5,0-1-0.1-1.6c0-0.1,0-0.2,0-0.3l0-0.2c-0.2-1.7-0.5-3.3-1-4.9
					c-1.6-5.3-4.7-10.3-8.1-15.5c-0.7-1.1-1.3-2.1-2-3.2c-3.2-5.1-4.7-7.3-8.1-12c-1.1-1.6-2.5-3.4-4.1-5.7l-1.9-2.7
					c-0.8-1.3-2.3-0.3-2.7,0.4c-1,1.5-1.7,2.4-3.1,4.3l-1.1,1.6c-4,5.6-7.7,11-11.4,17c-0.4,0.6-0.8,1.3-1.2,1.9L94.3,57
					c-4.2,6.9-8.1,13.4-8.1,20.8c0,1.3,0.1,2.7,0.3,4c0.1,0.9,0.3,1.7,0.5,2.6c0.4,1.7,1,3.3,1.8,4.9c0.7,1.5,1.6,3,2.6,4.4
					c0.5,0.7,1.1,1.3,1.6,2c0.3,0.3,0.6,0.6,0.9,0.9c0.6,0.6,1.2,1.2,1.9,1.7c4.7,3.9,10.7,6,16.8,6c0.9,0,1.8-0.1,2.7-0.1
					c0.9-0.1,1.8-0.2,2.6-0.4c0.5-0.1,1-0.2,1.6-0.4c0.8-0.2,1.5-0.4,2.2-0.7c0.8-0.3,1.6-0.6,2.4-1c1.3-0.6,2.5-1.4,3.7-2.2
					c0.9-0.6,1.8-1.3,2.6-2.1c0.3-0.3,0.6-0.6,0.9-0.9c1.6-1.6,3-3.5,4.2-5.5c0.2-0.4,0.5-0.8,0.7-1.2
					C138.2,86.1,139.1,82,139.1,77.8"/>
			</g>
			<rect x="85.5" y="30" class="st2" width="54.6" height="75.1"/>
			<path class="st3" d="M113.3,97.1h-1.2c-0.9,0-1.9-0.1-2.7-0.2c-4-0.7-7.8-2.8-10.7-5.9c-3.7-4-5.7-9.3-5.3-14.5
				c0.2-3.7,1.8-6.8,3.2-9.4c0,0,1.6-2.5,1.8-2.9c0,0,0.8-1.2,1.1-1.7c3.4-5.6,6.8-11,10-16.1l1.6-2.5c0.4-0.6,1-0.9,1.7-0.9
				c0.6,0,1.3,0.3,1.6,0.9l1.6,2.5c2.5,3.9,6.2,9.8,9.7,15.6l0.4,0.7c3.8,6.2,8,13.2,4.8,22c-0.4,1-0.8,1.8-1.2,2.7
				c-0.6,1.1-1.3,2.1-2.1,3.1l0,0c0,0-0.1,0.1-0.2,0.2l-0.4,0.4c-2.9,3.1-6.8,5.2-11,5.9C115,97.1,114.1,97.1,113.3,97.1z M112.7,45
				l-1.5,2.5c-3.2,5-6.6,10.5-10,16c-0.3,0.5-1.1,1.7-1.1,1.7c-0.2,0.4-1.8,2.9-1.8,2.9c-1.3,2.3-2.7,5.2-2.9,8.5
				c-0.3,4.7,1.4,9.4,4.8,13c2.6,2.8,6,4.6,9.5,5.3c0.7,0.1,1.5,0.2,2.4,0.2h1.2c0.8,0,1.6-0.1,2.3-0.2c3.7-0.6,7.2-2.5,9.8-5.4
				l0.1-0.1c0.1-0.1,0.2-0.2,0.3-0.3l0.1-0.1c0.7-0.9,1.4-1.8,1.9-2.8c0.4-0.7,0.8-1.5,1.1-2.4c2.9-7.8-1.1-14.4-4.6-20.2l-0.4-0.7
				c-3.5-5.8-7.2-11.7-9.6-15.5L112.7,45z M126.1,89C126.1,89,126.1,89,126.1,89L126.1,89z"/>
			<path class="st3" d="M113.5,105.1h-1.7c-1.3,0-2.6-0.1-3.8-0.3c-5.6-1-10.8-4-14.8-8.2c-5.2-5.6-7.9-13-7.4-20.2
				c0.3-5.1,2.5-9.5,4.5-13c0,0,2.2-3.6,2.5-4.1c0,0,1.1-1.7,1.5-2.4c4.8-7.9,9.6-15.6,14.1-22.7l1.3-1.9c0.7-1,1.8-1.6,2.9-1.6
				c0,0,0,0,0,0c1.2,0,2.3,0.6,2.9,1.6l1,1.6c3.9,6.1,9.1,14.4,13.9,22.3l0.6,1c5.3,8.7,11.2,18.5,6.8,30.7
				c-0.5,1.4-1.1,2.6-1.7,3.7c-0.8,1.5-1.9,3-3,4.4c0,0,0,0,0,0c0,0.1-0.1,0.2-0.2,0.3c0,0,0,0.1-0.1,0.1l-0.4,0.4
				c-4,4.4-9.5,7.3-15.3,8.3C116,105,114.8,105.1,113.5,105.1z M112.7,32.5c-0.5,0-1,0.2-1.3,0.7l-1.2,1.9
				c-4.5,7.1-9.3,14.8-14.1,22.7c-0.5,0.8-1.5,2.5-1.5,2.5c-0.3,0.6-2.5,4.1-2.5,4.1c-1.9,3.3-3.9,7.4-4.2,12.2
				c-0.5,6.7,2,13.6,6.8,18.7c3.7,4,8.6,6.7,13.7,7.6c1.1,0.2,2.2,0.2,3.4,0.2h1.7c1.1,0,2.3-0.1,3.3-0.2c5.4-0.9,10.4-3.6,14.2-7.7
				l0.3-0.3c0.1-0.2,0.2-0.3,0.3-0.4c0,0,0.1-0.1,0.1-0.1c0,0,0,0,0,0l0,0c1.1-1.3,2-2.7,2.8-4.1c0.6-1,1.1-2.2,1.6-3.4
				c4.1-11.2-1.6-20.6-6.6-28.9l-0.6-1c-4.7-7.8-10-16.2-13.9-22.3l-1-1.6C113.7,32.7,113.3,32.5,112.7,32.5
				C112.7,32.5,112.7,32.5,112.7,32.5z M133,95.9C133,95.9,133,95.9,133,95.9C133,95.9,133,95.9,133,95.9z M132.4,95.1L132.4,95.1
				L132.4,95.1z M131.8,94.3L131.8,94.3L131.8,94.3z M131.8,94.3C131.8,94.3,131.8,94.3,131.8,94.3
				C131.8,94.3,131.8,94.3,131.8,94.3z"/>
		</g>
		<g>
			<path class="st0" d="M178.6,38.7l20,32.3c0,0,5.9,31-22.2,29c-28-2-22.5-28-17.8-33.9C163.4,60.2,178.6,38.7,178.6,38.7z"/>
			<g>
				<defs>
					<rect id="SVGID_5_" x="150.5" y="30" width="54.6" height="75.1"/>
				</defs>
				<clipPath id="SVGID_6_">
					<use xlink:href="#SVGID_5_"  style="overflow:visible;"/>
				</clipPath>
				<path class="st5" d="M191.8,89.8c0,0-0.1,0.1-0.1,0.1c-0.1,0.1-0.1,0.1-0.1,0.2l-0.1,0.2l-0.1,0.1c-2.8,3-6.4,5-10.4,5.7
					c-0.8,0.1-1.6,0.2-2.5,0.2h-1.2c-0.8,0-1.7-0.1-2.6-0.2c-3.8-0.7-7.4-2.7-10.1-5.6c-3.5-3.8-5.4-8.8-5-13.8
					c0.2-3.6,1.8-6.6,3.1-8.9c0,0,2.5-4.1,2.9-4.6c3.3-5.5,6.8-11,10-16.1l1.6-2.5c0.2-0.3,0.5-0.4,0.8-0.4c0.3,0,0.6,0.2,0.8,0.4
					l1.6,2.5c2.9,4.6,6.4,10.1,9.7,15.6l0.4,0.7c3.6,6,7.8,12.8,4.7,21.1c-0.3,0.9-0.7,1.7-1.2,2.5
					C193.2,87.9,192.5,88.9,191.8,89.8 M204.3,77.8c0-0.5,0-1-0.1-1.6c0-0.1,0-0.2,0-0.3l0-0.2c-0.2-1.7-0.5-3.3-1-4.9
					c-1.6-5.3-4.7-10.3-8.1-15.5c-0.7-1.1-1.3-2.1-2-3.2c-3.2-5.1-4.7-7.3-8.1-12c-1.1-1.6-2.5-3.4-4.1-5.7l-1.9-2.7
					c-0.8-1.3-2.3-0.3-2.7,0.4c-1,1.5-1.7,2.4-3.1,4.3l-1.1,1.6c-4,5.6-7.7,11-11.4,17c-0.4,0.6-0.8,1.3-1.2,1.9l-0.1,0.1
					c-4.2,6.9-8.1,13.4-8.1,20.8c0,1.3,0.1,2.7,0.3,4c0.1,0.9,0.3,1.7,0.5,2.6c0.4,1.7,1,3.3,1.8,4.9c0.7,1.5,1.6,3,2.6,4.4
					c0.5,0.7,1.1,1.3,1.6,2c0.3,0.3,0.6,0.6,0.9,0.9c0.6,0.6,1.2,1.2,1.9,1.7c4.7,3.9,10.7,6,16.8,6c0.9,0,1.8-0.1,2.7-0.1
					s1.8-0.2,2.6-0.4c0.5-0.1,1-0.2,1.6-0.4c0.8-0.2,1.5-0.4,2.2-0.7c0.8-0.3,1.6-0.6,2.4-1c1.3-0.6,2.5-1.4,3.7-2.2
					c0.9-0.6,1.8-1.3,2.6-2.1c0.3-0.3,0.6-0.6,0.9-0.9c1.6-1.6,3-3.5,4.2-5.5c0.2-0.4,0.5-0.8,0.7-1.2
					C203.3,86.1,204.3,82,204.3,77.8"/>
			</g>
			<rect x="150.7" y="30" class="st2" width="54.6" height="75.1"/>
			<path class="st3" d="M178.4,97.1h-1.2c-0.9,0-1.9-0.1-2.7-0.2c-4-0.7-7.8-2.8-10.7-5.9c-3.7-4-5.7-9.3-5.3-14.5
				c0.2-3.7,1.8-6.8,3.2-9.4c0,0,1.6-2.5,1.8-2.9c0,0,0.8-1.2,1.1-1.7c3.4-5.6,6.8-11,10-16.1l1.6-2.5c0.4-0.6,1-0.9,1.7-0.9
				c0.6,0,1.3,0.3,1.6,0.9l1.6,2.5c2.5,3.9,6.2,9.8,9.7,15.6l0.4,0.7c3.8,6.2,8,13.2,4.8,22c-0.4,1-0.8,1.8-1.2,2.7
				c-0.6,1.1-1.3,2.1-2.1,3.1l0,0c0,0-0.1,0.1-0.2,0.2L192,91c-2.9,3.1-6.8,5.2-11,5.9C180.2,97.1,179.3,97.1,178.4,97.1z M177.8,45
				l-1.5,2.5c-3.2,5-6.6,10.5-10,16c-0.3,0.5-1.1,1.7-1.1,1.7c-0.2,0.4-1.8,2.9-1.8,2.9c-1.3,2.3-2.7,5.2-2.9,8.5
				c-0.3,4.7,1.4,9.4,4.8,13c2.6,2.8,6,4.6,9.5,5.3c0.7,0.1,1.5,0.2,2.4,0.2h1.2c0.8,0,1.6-0.1,2.3-0.2c3.7-0.6,7.2-2.5,9.8-5.4
				l0.1-0.1c0.1-0.1,0.2-0.2,0.3-0.3l0.1-0.1c0.7-0.9,1.4-1.8,1.9-2.8c0.4-0.7,0.8-1.5,1.1-2.4c2.9-7.8-1.1-14.4-4.6-20.2L189,63
				c-3.5-5.8-7.2-11.7-9.6-15.5L177.8,45z M191.3,89C191.2,89,191.2,89,191.3,89L191.3,89z"/>
			<path class="st3" d="M178.7,105.1H177c-1.3,0-2.6-0.1-3.8-0.3c-5.6-1-10.8-4-14.8-8.2c-5.2-5.6-7.9-13-7.4-20.2
				c0.3-5.1,2.5-9.5,4.5-13c0,0,2.2-3.6,2.5-4.1c0,0,1.1-1.7,1.5-2.4c4.8-7.9,9.6-15.6,14.1-22.7l1.3-1.9c0.7-1,1.8-1.6,2.9-1.6
				c0,0,0,0,0,0c1.2,0,2.3,0.6,2.9,1.6l1,1.6c3.9,6.1,9.1,14.4,13.9,22.3l0.6,1c5.3,8.7,11.2,18.5,6.8,30.7
				c-0.5,1.4-1.1,2.6-1.7,3.7c-0.8,1.5-1.9,3-3,4.4c0,0,0,0,0,0c0,0.1-0.1,0.2-0.2,0.3c0,0,0,0.1-0.1,0.1l-0.4,0.4
				c-4,4.4-9.5,7.3-15.3,8.3C181.2,105,179.9,105.1,178.7,105.1z M177.9,32.5c-0.5,0-1,0.2-1.3,0.7l-1.2,1.9
				c-4.5,7.1-9.3,14.8-14.1,22.7c-0.5,0.8-1.5,2.5-1.5,2.5c-0.3,0.6-2.5,4.1-2.5,4.1c-1.9,3.3-3.9,7.4-4.2,12.2
				c-0.5,6.7,2,13.6,6.8,18.7c3.7,4,8.6,6.7,13.7,7.6c1.1,0.2,2.2,0.2,3.4,0.2h1.7c1.1,0,2.3-0.1,3.3-0.2c5.4-0.9,10.4-3.6,14.2-7.7
				l0.3-0.3c0.1-0.2,0.2-0.3,0.3-0.4c0,0,0.1-0.1,0.1-0.1c0,0,0,0,0,0l0,0c1.1-1.3,2-2.7,2.8-4.1c0.6-1,1.1-2.2,1.6-3.4
				c4.1-11.2-1.6-20.6-6.6-28.9l-0.6-1c-4.7-7.8-10-16.2-13.9-22.3l-1-1.6C178.9,32.7,178.4,32.5,177.9,32.5
				C177.9,32.5,177.9,32.5,177.9,32.5z M198.1,95.9C198.1,95.9,198.1,95.9,198.1,95.9C198.1,95.9,198.1,95.9,198.1,95.9z
				 M197.6,95.1L197.6,95.1L197.6,95.1z M197,94.3L197,94.3L197,94.3z M197,94.3C197,94.3,197,94.3,197,94.3
				C197,94.3,197,94.3,197,94.3z"/>
		</g>
		<g>
			<path class="st0" d="M243.7,38.7l20,32.3c0,0,5.9,31-22.2,29c-28-2-22.5-28-17.8-33.9S243.7,38.7,243.7,38.7z"/>
			<g>
				<defs>
					<rect id="SVGID_7_" x="215.7" y="30" width="54.6" height="75.1"/>
				</defs>
				<clipPath id="SVGID_8_">
					<use xlink:href="#SVGID_7_"  style="overflow:visible;"/>
				</clipPath>
				<path class="st6" d="M256.9,89.8c0,0-0.1,0.1-0.1,0.1c-0.1,0.1-0.1,0.1-0.1,0.2l-0.1,0.2l-0.1,0.1c-2.8,3-6.4,5-10.4,5.7
					c-0.8,0.1-1.6,0.2-2.5,0.2h-1.2c-0.8,0-1.7-0.1-2.6-0.2c-3.8-0.7-7.4-2.7-10.1-5.6c-3.5-3.8-5.4-8.8-5-13.8
					c0.2-3.6,1.8-6.6,3.1-8.9c0,0,2.5-4.1,2.9-4.6c3.3-5.5,6.8-11,10-16.1l1.6-2.5c0.2-0.3,0.5-0.4,0.8-0.4c0.3,0,0.6,0.2,0.8,0.4
					l1.6,2.5c2.9,4.6,6.4,10.1,9.7,15.6l0.4,0.7c3.6,6,7.8,12.8,4.7,21.1c-0.3,0.9-0.7,1.7-1.2,2.5
					C258.4,87.9,257.7,88.9,256.9,89.8 M269.4,77.8c0-0.5,0-1-0.1-1.6c0-0.1,0-0.2,0-0.3l0-0.2c-0.2-1.7-0.5-3.3-1-4.9
					c-1.6-5.3-4.7-10.3-8.1-15.5c-0.7-1.1-1.3-2.1-2-3.2c-3.2-5.1-4.7-7.3-8.1-12c-1.1-1.6-2.5-3.4-4.1-5.7l-1.9-2.7
					c-0.8-1.3-2.3-0.3-2.7,0.4c-1,1.5-1.7,2.4-3.1,4.3l-1.1,1.6c-4,5.6-7.7,11-11.4,17c-0.4,0.6-0.8,1.3-1.2,1.9l-0.1,0.1
					c-4.2,6.9-8.1,13.4-8.1,20.8c0,1.3,0.1,2.7,0.3,4c0.1,0.9,0.3,1.7,0.5,2.6c0.4,1.7,1,3.3,1.8,4.9c0.7,1.5,1.6,3,2.6,4.4
					c0.5,0.7,1.1,1.3,1.6,2c0.3,0.3,0.6,0.6,0.9,0.9c0.6,0.6,1.2,1.2,1.9,1.7c4.7,3.9,10.7,6,16.8,6c0.9,0,1.8-0.1,2.7-0.1
					c0.9-0.1,1.8-0.2,2.6-0.4c0.5-0.1,1-0.2,1.6-0.4c0.8-0.2,1.5-0.4,2.2-0.7c0.8-0.3,1.6-0.6,2.4-1c1.3-0.6,2.5-1.4,3.7-2.2
					c0.9-0.6,1.8-1.3,2.6-2.1c0.3-0.3,0.6-0.6,0.9-0.9c1.6-1.6,3-3.5,4.2-5.5c0.2-0.4,0.5-0.8,0.7-1.2
					C268.5,86.1,269.4,82,269.4,77.8"/>
			</g>
			<rect x="215.8" y="30" class="st2" width="54.6" height="75.1"/>
			<path class="st3" d="M243.6,97.1h-1.2c-0.9,0-1.9-0.1-2.7-0.2c-4-0.7-7.8-2.8-10.7-5.9c-3.7-4-5.7-9.3-5.3-14.5
				c0.2-3.7,1.8-6.8,3.2-9.4c0,0,1.6-2.5,1.8-2.9c0,0,0.8-1.2,1.1-1.7c3.4-5.6,6.8-11,10-16.1l1.6-2.5c0.4-0.6,1-0.9,1.7-0.9
				c0.6,0,1.3,0.3,1.6,0.9l1.6,2.5c2.5,3.9,6.2,9.8,9.7,15.6l0.4,0.7c3.8,6.2,8,13.2,4.8,22c-0.4,1-0.8,1.8-1.2,2.7
				c-0.6,1.1-1.3,2.1-2.1,3.1l0,0c0,0-0.1,0.1-0.2,0.2l-0.4,0.4c-2.9,3.1-6.8,5.2-11,5.9C245.3,97.1,244.5,97.1,243.6,97.1z M243,45
				l-1.5,2.5c-3.2,5-6.6,10.5-10,16c-0.3,0.5-1.1,1.7-1.1,1.7c-0.2,0.4-1.8,2.9-1.8,2.9c-1.3,2.3-2.7,5.2-2.9,8.5
				c-0.3,4.7,1.4,9.4,4.8,13c2.6,2.8,6,4.6,9.5,5.3c0.7,0.1,1.5,0.2,2.4,0.2h1.2c0.8,0,1.6-0.1,2.3-0.2c3.7-0.6,7.2-2.5,9.8-5.4
				l0.1-0.1c0.1-0.1,0.2-0.2,0.3-0.3l0.1-0.1c0.7-0.9,1.4-1.8,1.9-2.8c0.4-0.7,0.8-1.5,1.1-2.4c2.9-7.8-1.1-14.4-4.6-20.2l-0.4-0.7
				c-3.5-5.8-7.2-11.7-9.6-15.5L243,45z M256.4,89C256.4,89,256.4,89,256.4,89L256.4,89z"/>
			<path class="st3" d="M243.8,105.1h-1.7c-1.3,0-2.6-0.1-3.8-0.3c-5.6-1-10.8-4-14.8-8.2c-5.2-5.6-7.9-13-7.4-20.2
				c0.3-5.1,2.5-9.5,4.5-13c0,0,2.2-3.6,2.5-4.1c0,0,1.1-1.7,1.5-2.4c4.8-7.9,9.6-15.6,14.1-22.7l1.3-1.9c0.7-1,1.8-1.6,2.9-1.6
				c0,0,0,0,0,0c1.2,0,2.3,0.6,2.9,1.6l1,1.6c3.9,6.1,9.1,14.4,13.9,22.3l0.6,1c5.3,8.7,11.2,18.5,6.8,30.7
				c-0.5,1.4-1.1,2.6-1.7,3.7c-0.8,1.5-1.9,3-3,4.4c0,0,0,0,0,0c0,0.1-0.1,0.2-0.2,0.3c0,0,0,0.1-0.1,0.1l-0.4,0.4
				c-4,4.4-9.5,7.3-15.3,8.3C246.3,105,245.1,105.1,243.8,105.1z M243,32.5c-0.5,0-1,0.2-1.3,0.7l-1.2,1.9
				c-4.5,7.1-9.3,14.8-14.1,22.7c-0.5,0.8-1.5,2.5-1.5,2.5c-0.3,0.6-2.5,4.1-2.5,4.1c-1.9,3.3-3.9,7.4-4.2,12.2
				c-0.5,6.7,2,13.6,6.8,18.7c3.7,4,8.6,6.7,13.7,7.6c1.1,0.2,2.2,0.2,3.4,0.2h1.7c1.1,0,2.3-0.1,3.3-0.2c5.4-0.9,10.4-3.6,14.2-7.7
				l0.3-0.3c0.1-0.2,0.2-0.3,0.3-0.4c0,0,0.1-0.1,0.1-0.1c0,0,0,0,0,0l0,0c1.1-1.3,2-2.7,2.8-4.1c0.6-1,1.1-2.2,1.6-3.4
				c4.1-11.2-1.6-20.6-6.6-28.9l-0.6-1c-4.7-7.8-10-16.2-13.9-22.3l-1-1.6C244,32.7,243.6,32.5,243,32.5C243,32.5,243,32.5,243,32.5
				z M263.3,95.9C263.3,95.9,263.3,95.9,263.3,95.9C263.3,95.9,263.3,95.9,263.3,95.9z M262.8,95.1L262.8,95.1L262.8,95.1z
				 M262.1,94.3L262.1,94.3L262.1,94.3z M262.2,94.3C262.2,94.3,262.1,94.3,262.2,94.3C262.1,94.3,262.2,94.3,262.2,94.3z"/>
		</g>
		<g>
			<path class="st0" d="M308.9,38.7l20,32.3c0,0,5.9,31-22.2,29c-28-2-22.5-28-17.8-33.9C293.7,60.2,308.9,38.7,308.9,38.7z"/>
			<g>
				<defs>
					<rect id="SVGID_9_" x="280.8" y="30" width="54.6" height="75.1"/>
				</defs>
				<clipPath id="SVGID_10_">
					<use xlink:href="#SVGID_9_"  style="overflow:visible;"/>
				</clipPath>
				<path class="st7" d="M322.1,89.8c0,0-0.1,0.1-0.1,0.1c-0.1,0.1-0.1,0.1-0.1,0.2l-0.1,0.2l-0.1,0.1c-2.8,3-6.4,5-10.4,5.7
					c-0.8,0.1-1.6,0.2-2.5,0.2h-1.2c-0.8,0-1.7-0.1-2.6-0.2c-3.8-0.7-7.4-2.7-10.1-5.6c-3.5-3.8-5.4-8.8-5-13.8
					c0.2-3.6,1.8-6.6,3.1-8.9c0,0,2.5-4.1,2.9-4.6c3.3-5.5,6.8-11,10-16.1l1.6-2.5c0.2-0.3,0.5-0.4,0.8-0.4c0.3,0,0.6,0.2,0.8,0.4
					l1.6,2.5c2.9,4.6,6.4,10.1,9.7,15.6l0.4,0.7c3.6,6,7.8,12.8,4.7,21.1c-0.3,0.9-0.7,1.7-1.2,2.5
					C323.5,87.9,322.8,88.9,322.1,89.8 M334.6,77.8c0-0.5,0-1-0.1-1.6c0-0.1,0-0.2,0-0.3l0-0.2c-0.2-1.7-0.5-3.3-1-4.9
					c-1.6-5.3-4.7-10.3-8.1-15.5c-0.7-1.1-1.3-2.1-2-3.2c-3.2-5.1-4.7-7.3-8.1-12c-1.1-1.6-2.5-3.4-4.1-5.7l-1.9-2.7
					c-0.8-1.3-2.3-0.3-2.7,0.4c-1,1.5-1.7,2.4-3.1,4.3l-1.1,1.6c-4,5.6-7.7,11-11.4,17c-0.4,0.6-0.8,1.3-1.2,1.9l-0.1,0.1
					c-4.2,6.9-8.1,13.4-8.1,20.8c0,1.3,0.1,2.7,0.3,4c0.1,0.9,0.3,1.7,0.5,2.6c0.4,1.7,1,3.3,1.8,4.9c0.7,1.5,1.6,3,2.6,4.4
					c0.5,0.7,1.1,1.3,1.6,2c0.3,0.3,0.6,0.6,0.9,0.9c0.6,0.6,1.2,1.2,1.9,1.7c4.7,3.9,10.7,6,16.8,6c0.9,0,1.8-0.1,2.7-0.1
					c0.9-0.1,1.8-0.2,2.6-0.4c0.5-0.1,1-0.2,1.6-0.4c0.8-0.2,1.5-0.4,2.2-0.7c0.8-0.3,1.6-0.6,2.4-1c1.3-0.6,2.5-1.4,3.7-2.2
					c0.9-0.6,1.8-1.3,2.6-2.1c0.3-0.3,0.6-0.6,0.9-0.9c1.6-1.6,3-3.5,4.2-5.5c0.2-0.4,0.5-0.8,0.7-1.2
					C333.6,86.1,334.6,82,334.6,77.8"/>
			</g>
			<rect x="281" y="30" class="st2" width="54.6" height="75.1"/>
			<path class="st3" d="M308.7,97.1h-1.2c-0.9,0-1.9-0.1-2.7-0.2c-4-0.7-7.8-2.8-10.7-5.9c-3.7-4-5.7-9.3-5.3-14.5
				c0.2-3.7,1.8-6.8,3.2-9.4c0,0,1.6-2.5,1.8-2.9c0,0,0.8-1.2,1.1-1.7c3.4-5.6,6.8-11,10-16.1l1.6-2.5c0.4-0.6,1-0.9,1.7-0.9
				c0.6,0,1.3,0.3,1.6,0.9l1.6,2.5c2.5,3.9,6.2,9.8,9.7,15.6l0.4,0.7c3.8,6.2,8,13.2,4.8,22c-0.4,1-0.8,1.8-1.2,2.7
				c-0.6,1.1-1.3,2.1-2.1,3.1l0,0c0,0-0.1,0.1-0.2,0.2l-0.4,0.4c-2.9,3.1-6.8,5.2-11,5.9C310.5,97.1,309.6,97.1,308.7,97.1z
				 M308.1,45l-1.5,2.5c-3.2,5-6.6,10.5-10,16c-0.3,0.5-1.1,1.7-1.1,1.7c-0.2,0.4-1.8,2.9-1.8,2.9c-1.3,2.3-2.7,5.2-2.9,8.5
				c-0.3,4.7,1.4,9.4,4.8,13c2.6,2.8,6,4.6,9.5,5.3c0.7,0.1,1.5,0.2,2.4,0.2h1.2c0.8,0,1.6-0.1,2.3-0.2c3.7-0.6,7.2-2.5,9.8-5.4
				l0.1-0.1c0.1-0.1,0.2-0.2,0.3-0.3l0.1-0.1c0.7-0.9,1.4-1.8,1.9-2.8c0.4-0.7,0.8-1.5,1.1-2.4c2.9-7.8-1.1-14.4-4.6-20.2l-0.4-0.7
				c-3.5-5.8-7.2-11.7-9.6-15.5L308.1,45z M321.6,89C321.6,89,321.6,89,321.6,89L321.6,89z"/>
			<path class="st3" d="M309,105.1h-1.7c-1.3,0-2.6-0.1-3.8-0.3c-5.6-1-10.8-4-14.8-8.2c-5.2-5.6-7.9-13-7.4-20.2
				c0.3-5.1,2.5-9.5,4.5-13c0,0,2.2-3.6,2.5-4.1c0,0,1.1-1.7,1.5-2.4c4.8-7.9,9.6-15.6,14.1-22.7l1.3-1.9c0.7-1,1.8-1.6,2.9-1.6
				c0,0,0,0,0,0c1.2,0,2.3,0.6,2.9,1.6l1,1.6c3.9,6.1,9.1,14.4,13.9,22.3l0.6,1c5.3,8.7,11.2,18.5,6.8,30.7
				c-0.5,1.4-1.1,2.6-1.7,3.7c-0.8,1.5-1.9,3-3,4.4c0,0,0,0,0,0c0,0.1-0.1,0.2-0.2,0.3c0,0,0,0.1-0.1,0.1l-0.4,0.4
				c-4,4.4-9.5,7.3-15.3,8.3C311.5,105,310.2,105.1,309,105.1z M308.2,32.5c-0.5,0-1,0.2-1.3,0.7l-1.2,1.9
				c-4.5,7.1-9.3,14.8-14.1,22.7c-0.5,0.8-1.5,2.5-1.5,2.5c-0.3,0.6-2.5,4.1-2.5,4.1c-1.9,3.3-3.9,7.4-4.2,12.2
				c-0.5,6.7,2,13.6,6.8,18.7c3.7,4,8.6,6.7,13.7,7.6c1.1,0.2,2.2,0.2,3.4,0.2h1.7c1.1,0,2.3-0.1,3.3-0.2c5.4-0.9,10.4-3.6,14.2-7.7
				l0.3-0.3c0.1-0.2,0.2-0.3,0.3-0.4c0,0,0.1-0.1,0.1-0.1c0,0,0,0,0,0l0,0c1.1-1.3,2-2.7,2.8-4.1c0.6-1,1.1-2.2,1.6-3.4
				c4.1-11.2-1.6-20.6-6.6-28.9l-0.6-1c-4.7-7.8-10-16.2-13.9-22.3l-1-1.6C309.2,32.7,308.7,32.5,308.2,32.5
				C308.2,32.5,308.2,32.5,308.2,32.5z M328.5,95.9C328.5,95.9,328.5,95.9,328.5,95.9C328.5,95.9,328.5,95.9,328.5,95.9z
				 M327.9,95.1L327.9,95.1L327.9,95.1z M327.3,94.3L327.3,94.3L327.3,94.3z M327.3,94.3C327.3,94.3,327.3,94.3,327.3,94.3
				C327.3,94.3,327.3,94.3,327.3,94.3z"/>
		</g>
		<g>
			<path class="st0" d="M374,38.7l20,32.3c0,0,5.9,31-22.2,29c-28-2-22.5-28-17.8-33.9S374,38.7,374,38.7z"/>
			<g>
				<defs>
					<rect id="SVGID_11_" x="346" y="30" width="54.6" height="75.1"/>
				</defs>
				<clipPath id="SVGID_12_">
					<use xlink:href="#SVGID_11_"  style="overflow:visible;"/>
				</clipPath>
				<path class="st8" d="M387.2,89.8c0,0-0.1,0.1-0.1,0.1c-0.1,0.1-0.1,0.1-0.1,0.2l-0.1,0.2l-0.1,0.1c-2.8,3-6.4,5-10.4,5.7
					c-0.8,0.1-1.6,0.2-2.5,0.2h-1.2c-0.8,0-1.7-0.1-2.6-0.2c-3.8-0.7-7.4-2.7-10.1-5.6c-3.5-3.8-5.4-8.8-5-13.8
					c0.2-3.6,1.8-6.6,3.1-8.9c0,0,2.5-4.1,2.9-4.6c3.3-5.5,6.8-11,10-16.1l1.6-2.5c0.2-0.3,0.5-0.4,0.8-0.4c0.3,0,0.6,0.2,0.8,0.4
					l1.6,2.5c2.9,4.6,6.4,10.1,9.7,15.6l0.4,0.7c3.6,6,7.8,12.8,4.7,21.1c-0.3,0.9-0.7,1.7-1.2,2.5C388.7,87.9,388,88.9,387.2,89.8
					 M399.7,77.8c0-0.5,0-1-0.1-1.6c0-0.1,0-0.2,0-0.3l0-0.2c-0.2-1.7-0.5-3.3-1-4.9c-1.6-5.3-4.7-10.3-8.1-15.5
					c-0.7-1.1-1.3-2.1-2-3.2c-3.2-5.1-4.7-7.3-8.1-12c-1.1-1.6-2.5-3.4-4.1-5.7l-1.9-2.7c-0.8-1.3-2.3-0.3-2.7,0.4
					c-1,1.5-1.7,2.4-3.1,4.3l-1.1,1.6c-4,5.6-7.7,11-11.4,17c-0.4,0.6-0.8,1.3-1.2,1.9l-0.1,0.1c-4.2,6.9-8.1,13.4-8.1,20.8
					c0,1.3,0.1,2.7,0.3,4c0.1,0.9,0.3,1.7,0.5,2.6c0.4,1.7,1,3.3,1.8,4.9c0.7,1.5,1.6,3,2.6,4.4c0.5,0.7,1.1,1.3,1.6,2
					c0.3,0.3,0.6,0.6,0.9,0.9c0.6,0.6,1.2,1.2,1.9,1.7c4.7,3.9,10.7,6,16.8,6c0.9,0,1.8-0.1,2.7-0.1c0.9-0.1,1.8-0.2,2.6-0.4
					c0.5-0.1,1-0.2,1.6-0.4c0.8-0.2,1.5-0.4,2.2-0.7c0.8-0.3,1.6-0.6,2.4-1c1.3-0.6,2.5-1.4,3.7-2.2c0.9-0.6,1.8-1.3,2.6-2.1
					c0.3-0.3,0.6-0.6,0.9-0.9c1.6-1.6,3-3.5,4.2-5.5c0.2-0.4,0.5-0.8,0.7-1.2C398.8,86.1,399.7,82,399.7,77.8"/>
			</g>
			<rect x="346.2" y="30" class="st2" width="54.6" height="75.1"/>
			<path class="st3" d="M373.9,97.1h-1.2c-0.9,0-1.9-0.1-2.7-0.2c-4-0.7-7.8-2.8-10.7-5.9c-3.7-4-5.7-9.3-5.3-14.5
				c0.2-3.7,1.8-6.8,3.2-9.4c0,0,1.6-2.5,1.8-2.9c0,0,0.8-1.2,1.1-1.7c3.4-5.6,6.8-11,10-16.1l1.6-2.5c0.4-0.6,1-0.9,1.7-0.9
				c0.6,0,1.3,0.3,1.6,0.9l1.6,2.5c2.5,3.9,6.2,9.8,9.7,15.6l0.4,0.7c3.8,6.2,8,13.2,4.8,22c-0.4,1-0.8,1.8-1.2,2.7
				c-0.6,1.1-1.3,2.1-2.1,3.1l0,0c0,0-0.1,0.1-0.2,0.2l-0.4,0.4c-2.9,3.1-6.8,5.2-11,5.9C375.7,97.1,374.8,97.1,373.9,97.1z
				 M373.3,45l-1.5,2.5c-3.2,5-6.6,10.5-10,16c-0.3,0.5-1.1,1.7-1.1,1.7c-0.2,0.4-1.8,2.9-1.8,2.9c-1.3,2.3-2.7,5.2-2.9,8.5
				c-0.3,4.7,1.4,9.4,4.8,13c2.6,2.8,6,4.6,9.5,5.3c0.7,0.1,1.5,0.2,2.4,0.2h1.2c0.8,0,1.6-0.1,2.3-0.2c3.7-0.6,7.2-2.5,9.8-5.4
				l0.1-0.1c0.1-0.1,0.2-0.2,0.3-0.3l0.1-0.1c0.7-0.9,1.4-1.8,1.9-2.8c0.4-0.7,0.8-1.5,1.1-2.4c2.9-7.8-1.1-14.4-4.6-20.2l-0.4-0.7
				c-3.5-5.8-7.2-11.7-9.6-15.5L373.3,45z M386.7,89C386.7,89,386.7,89,386.7,89L386.7,89z"/>
			<path class="st3" d="M374.1,105.1h-1.7c-1.3,0-2.6-0.1-3.8-0.3c-5.6-1-10.8-4-14.8-8.2c-5.2-5.6-7.9-13-7.4-20.2
				c0.3-5.1,2.5-9.5,4.5-13c0,0,2.2-3.6,2.5-4.1c0,0,1.1-1.7,1.5-2.4c4.8-7.9,9.6-15.6,14.1-22.7l1.3-1.9c0.7-1,1.8-1.6,2.9-1.6
				c0,0,0,0,0,0c1.2,0,2.3,0.6,2.9,1.6l1,1.6c3.9,6.1,9.1,14.4,13.9,22.3l0.6,1c5.3,8.7,11.2,18.5,6.8,30.7
				c-0.5,1.4-1.1,2.6-1.7,3.7c-0.8,1.5-1.9,3-3,4.4c0,0,0,0,0,0c0,0.1-0.1,0.2-0.2,0.3c0,0,0,0.1-0.1,0.1l-0.4,0.4
				c-4,4.4-9.5,7.3-15.3,8.3C376.6,105,375.4,105.1,374.1,105.1z M373.3,32.5c-0.5,0-1,0.2-1.3,0.7l-1.2,1.9
				c-4.5,7.1-9.3,14.8-14.1,22.7c-0.5,0.8-1.5,2.5-1.5,2.5c-0.3,0.6-2.5,4.1-2.5,4.1c-1.9,3.3-3.9,7.4-4.2,12.2
				c-0.5,6.7,2,13.6,6.8,18.7c3.7,4,8.6,6.7,13.7,7.6c1.1,0.2,2.2,0.2,3.4,0.2h1.7c1.1,0,2.3-0.1,3.3-0.2c5.4-0.9,10.4-3.6,14.2-7.7
				l0.3-0.3c0.1-0.2,0.2-0.3,0.3-0.4c0,0,0.1-0.1,0.1-0.1c0,0,0,0,0,0l0,0c1.1-1.3,2-2.7,2.8-4.1c0.6-1,1.1-2.2,1.6-3.4
				c4.1-11.2-1.6-20.6-6.6-28.9l-0.6-1c-4.7-7.8-10-16.2-13.9-22.3l-1-1.6C374.3,32.7,373.9,32.5,373.3,32.5
				C373.3,32.5,373.3,32.5,373.3,32.5z M393.6,95.9C393.6,95.9,393.6,95.9,393.6,95.9C393.6,95.9,393.6,95.9,393.6,95.9z
				 M393.1,95.1L393.1,95.1L393.1,95.1z M392.5,94.3L392.5,94.3L392.5,94.3z M392.5,94.3C392.5,94.3,392.5,94.3,392.5,94.3
				C392.5,94.3,392.5,94.3,392.5,94.3z"/>
		</g>
		<g>
			<path class="st0" d="M439.2,38.7l20,32.3c0,0,5.9,31-22.2,29c-28-2-22.5-28-17.8-33.9S439.2,38.7,439.2,38.7z"/>
			<g>
				<defs>
					<rect id="SVGID_13_" x="411.1" y="30" width="54.6" height="75.1"/>
				</defs>
				<clipPath id="SVGID_14_">
					<use xlink:href="#SVGID_13_"  style="overflow:visible;"/>
				</clipPath>
				<path class="st9" d="M452.4,89.8c0,0-0.1,0.1-0.1,0.1c-0.1,0.1-0.1,0.1-0.1,0.2l-0.1,0.2l-0.1,0.1c-2.8,3-6.4,5-10.4,5.7
					c-0.8,0.1-1.6,0.2-2.5,0.2h-1.2c-0.8,0-1.7-0.1-2.6-0.2c-3.8-0.7-7.4-2.7-10.1-5.6c-3.5-3.8-5.4-8.8-5-13.8
					c0.2-3.6,1.8-6.6,3.1-8.9c0,0,2.5-4.1,2.9-4.6c3.3-5.5,6.8-11,10-16.1l1.6-2.5c0.2-0.3,0.5-0.4,0.8-0.4c0.3,0,0.6,0.2,0.8,0.4
					l1.6,2.5c2.9,4.6,6.4,10.1,9.7,15.6l0.4,0.7c3.6,6,7.8,12.8,4.7,21.1c-0.3,0.9-0.7,1.7-1.2,2.5
					C453.8,87.9,453.1,88.9,452.4,89.8 M464.9,77.8c0-0.5,0-1-0.1-1.6c0-0.1,0-0.2,0-0.3l0-0.2c-0.2-1.7-0.5-3.3-1-4.9
					c-1.6-5.3-4.7-10.3-8.1-15.5c-0.7-1.1-1.3-2.1-2-3.2c-3.2-5.1-4.7-7.3-8.1-12c-1.1-1.6-2.5-3.4-4.1-5.7l-1.9-2.7
					c-0.8-1.3-2.3-0.3-2.7,0.4c-1,1.5-1.7,2.4-3.1,4.3l-1.1,1.6c-4,5.6-7.7,11-11.4,17c-0.4,0.6-0.8,1.3-1.2,1.9L420,57
					c-4.2,6.9-8.1,13.4-8.1,20.8c0,1.3,0.1,2.7,0.3,4c0.1,0.9,0.3,1.7,0.5,2.6c0.4,1.7,1,3.3,1.8,4.9c0.7,1.5,1.6,3,2.6,4.4
					c0.5,0.7,1.1,1.3,1.6,2c0.3,0.3,0.6,0.6,0.9,0.9c0.6,0.6,1.2,1.2,1.9,1.7c4.7,3.9,10.7,6,16.8,6c0.9,0,1.8-0.1,2.7-0.1
					c0.9-0.1,1.8-0.2,2.6-0.4c0.5-0.1,1-0.2,1.6-0.4c0.8-0.2,1.5-0.4,2.2-0.7c0.8-0.3,1.6-0.6,2.4-1c1.3-0.6,2.5-1.4,3.7-2.2
					c0.9-0.6,1.8-1.3,2.6-2.1c0.3-0.3,0.6-0.6,0.9-0.9c1.6-1.6,3-3.5,4.2-5.5c0.2-0.4,0.5-0.8,0.7-1.2
					C463.9,86.1,464.9,82,464.9,77.8"/>
			</g>
			<rect x="411.3" y="30" class="st2" width="54.6" height="75.1"/>
			<path class="st3" d="M439,97.1h-1.2c-0.9,0-1.9-0.1-2.7-0.2c-4-0.7-7.8-2.8-10.7-5.9c-3.7-4-5.7-9.3-5.3-14.5
				c0.2-3.7,1.8-6.8,3.2-9.4c0,0,1.6-2.5,1.8-2.9c0,0,0.8-1.2,1.1-1.7c3.4-5.6,6.8-11,10-16.1l1.6-2.5c0.4-0.6,1-0.9,1.7-0.9
				c0.6,0,1.3,0.3,1.6,0.9l1.6,2.5c2.5,3.9,6.2,9.8,9.7,15.6l0.4,0.7c3.8,6.2,8,13.2,4.8,22c-0.4,1-0.8,1.8-1.2,2.7
				c-0.6,1.1-1.3,2.1-2.1,3.1l0,0c0,0-0.1,0.1-0.2,0.2l-0.4,0.4c-2.9,3.1-6.8,5.2-11,5.9C440.8,97.1,439.9,97.1,439,97.1z M438.4,45
				l-1.5,2.5c-3.2,5-6.6,10.5-10,16c-0.3,0.5-1.1,1.7-1.1,1.7c-0.2,0.4-1.8,2.9-1.8,2.9c-1.3,2.3-2.7,5.2-2.9,8.5
				c-0.3,4.7,1.4,9.4,4.8,13c2.6,2.8,6,4.6,9.5,5.3c0.7,0.1,1.5,0.2,2.4,0.2h1.2c0.8,0,1.6-0.1,2.3-0.2c3.7-0.6,7.2-2.5,9.8-5.4
				l0.1-0.1c0.1-0.1,0.2-0.2,0.3-0.3l0.1-0.1c0.7-0.9,1.4-1.8,1.9-2.8c0.4-0.7,0.8-1.5,1.1-2.4c2.9-7.8-1.1-14.4-4.6-20.2l-0.4-0.7
				c-3.5-5.8-7.2-11.7-9.6-15.5L438.4,45z M451.9,89C451.9,89,451.9,89,451.9,89L451.9,89z"/>
			<path class="st3" d="M439.3,105.1h-1.7c-1.3,0-2.6-0.1-3.8-0.3c-5.6-1-10.8-4-14.8-8.2c-5.2-5.6-7.9-13-7.4-20.2
				c0.3-5.1,2.5-9.5,4.5-13c0,0,2.2-3.6,2.5-4.1c0,0,1.1-1.7,1.5-2.4c4.8-7.9,9.6-15.6,14.1-22.7l1.3-1.9c0.7-1,1.8-1.6,2.9-1.6
				c0,0,0,0,0,0c1.2,0,2.3,0.6,2.9,1.6l1,1.6c3.9,6.1,9.1,14.4,13.9,22.3l0.6,1c5.3,8.7,11.2,18.5,6.8,30.7
				c-0.5,1.4-1.1,2.6-1.7,3.7c-0.8,1.5-1.9,3-3,4.4c0,0,0,0,0,0c0,0.1-0.1,0.2-0.2,0.3c0,0,0,0.1-0.1,0.1l-0.4,0.4
				c-4,4.4-9.5,7.3-15.3,8.3C441.8,105,440.5,105.1,439.3,105.1z M438.5,32.5c-0.5,0-1,0.2-1.3,0.7L436,35
				c-4.5,7.1-9.3,14.8-14.1,22.7c-0.5,0.8-1.5,2.5-1.5,2.5c-0.3,0.6-2.5,4.1-2.5,4.1c-1.9,3.3-3.9,7.4-4.2,12.2
				c-0.5,6.7,2,13.6,6.8,18.7c3.7,4,8.6,6.7,13.7,7.6c1.1,0.2,2.2,0.2,3.4,0.2h1.7c1.1,0,2.3-0.1,3.3-0.2c5.4-0.9,10.4-3.6,14.2-7.7
				l0.3-0.3c0.1-0.2,0.2-0.3,0.3-0.4c0,0,0.1-0.1,0.1-0.1c0,0,0,0,0,0l0,0c1.1-1.3,2-2.7,2.8-4.1c0.6-1,1.1-2.2,1.6-3.4
				c4.1-11.2-1.6-20.6-6.6-28.9l-0.6-1c-4.7-7.8-10-16.2-13.9-22.3l-1-1.6C439.5,32.7,439,32.5,438.5,32.5
				C438.5,32.5,438.5,32.5,438.5,32.5z M458.8,95.9C458.8,95.9,458.8,95.9,458.8,95.9C458.8,95.9,458.8,95.9,458.8,95.9z
				 M458.2,95.1L458.2,95.1L458.2,95.1z M457.6,94.3L457.6,94.3L457.6,94.3z M457.6,94.3C457.6,94.3,457.6,94.3,457.6,94.3
				C457.6,94.3,457.6,94.3,457.6,94.3z"/>
		</g>
		<g>
			<path class="st0" d="M504.3,38.7l20,32.3c0,0,5.9,31-22.2,29c-28-2-22.5-28-17.8-33.9S504.3,38.7,504.3,38.7z"/>
			<g>
				<defs>
					<rect id="SVGID_15_" x="476.3" y="30" width="54.6" height="75.1"/>
				</defs>
				<clipPath id="SVGID_16_">
					<use xlink:href="#SVGID_15_"  style="overflow:visible;"/>
				</clipPath>
				<path class="st10" d="M517.6,89.8c0,0-0.1,0.1-0.1,0.1c-0.1,0.1-0.1,0.1-0.1,0.2l-0.1,0.2l-0.1,0.1c-2.8,3-6.4,5-10.4,5.7
					c-0.8,0.1-1.6,0.2-2.5,0.2H503c-0.8,0-1.7-0.1-2.6-0.2c-3.8-0.7-7.4-2.7-10.1-5.6c-3.5-3.8-5.4-8.8-5-13.8
					c0.2-3.6,1.8-6.6,3.1-8.9c0,0,2.5-4.1,2.9-4.6c3.3-5.5,6.8-11,10-16.1l1.6-2.5c0.2-0.3,0.5-0.4,0.8-0.4c0.3,0,0.6,0.2,0.8,0.4
					l1.6,2.5c2.9,4.6,6.4,10.1,9.7,15.6l0.4,0.7c3.6,6,7.8,12.8,4.7,21.1c-0.3,0.9-0.7,1.7-1.2,2.5C519,87.9,518.3,88.9,517.6,89.8
					 M530,77.8c0-0.5,0-1-0.1-1.6c0-0.1,0-0.2,0-0.3l0-0.2c-0.2-1.7-0.5-3.3-1-4.9c-1.6-5.3-4.7-10.3-8.1-15.5
					c-0.7-1.1-1.3-2.1-2-3.2c-3.2-5.1-4.7-7.3-8.1-12c-1.1-1.6-2.5-3.4-4.1-5.7l-1.9-2.7c-0.8-1.3-2.3-0.3-2.7,0.4
					c-1,1.5-1.7,2.4-3.1,4.3l-1.1,1.6c-4,5.6-7.7,11-11.4,17c-0.4,0.6-0.8,1.3-1.2,1.9l-0.1,0.1c-4.2,6.9-8.1,13.4-8.1,20.8
					c0,1.3,0.1,2.7,0.3,4c0.1,0.9,0.3,1.7,0.5,2.6c0.4,1.7,1,3.3,1.8,4.9c0.7,1.5,1.6,3,2.6,4.4c0.5,0.7,1.1,1.3,1.6,2
					c0.3,0.3,0.6,0.6,0.9,0.9c0.6,0.6,1.2,1.2,1.9,1.7c4.7,3.9,10.7,6,16.8,6c0.9,0,1.8-0.1,2.7-0.1s1.8-0.2,2.6-0.4
					c0.5-0.1,1-0.2,1.6-0.4c0.8-0.2,1.5-0.4,2.2-0.7c0.8-0.3,1.6-0.6,2.4-1c1.3-0.6,2.5-1.4,3.7-2.2c0.9-0.6,1.8-1.3,2.6-2.1
					c0.3-0.3,0.6-0.6,0.9-0.9c1.6-1.6,3-3.5,4.2-5.5c0.2-0.4,0.5-0.8,0.7-1.2C529.1,86.1,530,82,530,77.8"/>
			</g>
			<rect x="476.5" y="30" class="st2" width="54.6" height="75.1"/>
			<path class="st3" d="M504.2,97.1H503c-0.9,0-1.9-0.1-2.7-0.2c-4-0.7-7.8-2.8-10.7-5.9c-3.7-4-5.7-9.3-5.3-14.5
				c0.2-3.7,1.8-6.8,3.2-9.4c0,0,1.6-2.5,1.8-2.9c0,0,0.8-1.2,1.1-1.7c3.4-5.6,6.8-11,10-16.1l1.6-2.5c0.4-0.6,1-0.9,1.7-0.9
				c0.6,0,1.3,0.3,1.6,0.9l1.6,2.5c2.5,3.9,6.2,9.8,9.7,15.6l0.4,0.7c3.8,6.2,8,13.2,4.8,22c-0.4,1-0.8,1.8-1.2,2.7
				c-0.6,1.1-1.3,2.1-2.1,3.1l0,0c0,0-0.1,0.1-0.2,0.2l-0.4,0.4c-2.9,3.1-6.8,5.2-11,5.9C506,97.1,505.1,97.1,504.2,97.1z M503.6,45
				l-1.5,2.5c-3.2,5-6.6,10.5-10,16c-0.3,0.5-1.1,1.7-1.1,1.7c-0.2,0.4-1.8,2.9-1.8,2.9c-1.3,2.3-2.7,5.2-2.9,8.5
				c-0.3,4.7,1.4,9.4,4.8,13c2.6,2.8,6,4.6,9.5,5.3c0.7,0.1,1.5,0.2,2.4,0.2h1.2c0.8,0,1.6-0.1,2.3-0.2c3.7-0.6,7.2-2.5,9.8-5.4
				l0.1-0.1c0.1-0.1,0.2-0.2,0.3-0.3l0.1-0.1c0.7-0.9,1.4-1.8,1.9-2.8c0.4-0.7,0.8-1.5,1.1-2.4c2.9-7.8-1.1-14.4-4.6-20.2l-0.4-0.7
				c-3.5-5.8-7.2-11.7-9.6-15.5L503.6,45z M517,89C517,89,517,89,517,89L517,89z"/>
			<path class="st3" d="M504.4,105.1h-1.7c-1.3,0-2.6-0.1-3.8-0.3c-5.6-1-10.8-4-14.8-8.2c-5.2-5.6-7.9-13-7.4-20.2
				c0.3-5.1,2.5-9.5,4.5-13c0,0,2.2-3.6,2.5-4.1c0,0,1.1-1.7,1.5-2.4c4.8-7.9,9.6-15.6,14.1-22.7l1.3-1.9c0.7-1,1.8-1.6,2.9-1.6
				c0,0,0,0,0,0c1.2,0,2.3,0.6,2.9,1.6l1,1.6c3.9,6.1,9.1,14.4,13.9,22.3l0.6,1c5.3,8.7,11.2,18.5,6.8,30.7
				c-0.5,1.4-1.1,2.6-1.7,3.7c-0.8,1.5-1.9,3-3,4.4c0,0,0,0,0,0c0,0.1-0.1,0.2-0.2,0.3c0,0,0,0.1-0.1,0.1l-0.4,0.4
				c-4,4.4-9.5,7.3-15.3,8.3C506.9,105,505.7,105.1,504.4,105.1z M503.6,32.5c-0.5,0-1,0.2-1.3,0.7l-1.2,1.9
				c-4.5,7.1-9.3,14.8-14.1,22.7c-0.5,0.8-1.5,2.5-1.5,2.5c-0.3,0.6-2.5,4.1-2.5,4.1c-1.9,3.3-3.9,7.4-4.2,12.2
				c-0.5,6.7,2,13.6,6.8,18.7c3.7,4,8.6,6.7,13.7,7.6c1.1,0.2,2.2,0.2,3.4,0.2h1.7c1.1,0,2.3-0.1,3.3-0.2c5.4-0.9,10.4-3.6,14.2-7.7
				l0.3-0.3c0.1-0.2,0.2-0.3,0.3-0.4c0,0,0.1-0.1,0.1-0.1c0,0,0,0,0,0l0,0c1.1-1.3,2-2.7,2.8-4.1c0.6-1,1.1-2.2,1.6-3.4
				c4.1-11.2-1.6-20.6-6.6-28.9l-0.6-1c-4.7-7.8-10-16.2-13.9-22.3l-1-1.6C504.6,32.7,504.2,32.5,503.6,32.5
				C503.6,32.5,503.6,32.5,503.6,32.5z M523.9,95.9C523.9,95.9,523.9,95.9,523.9,95.9C523.9,95.9,523.9,95.9,523.9,95.9z
				 M523.4,95.1L523.4,95.1L523.4,95.1z M522.8,94.3L522.8,94.3L522.8,94.3z M522.8,94.3C522.8,94.3,522.8,94.3,522.8,94.3
				C522.8,94.3,522.8,94.3,522.8,94.3z"/>
		</g>
		<g>
			<path class="st0" d="M569.5,38.7l20,32.3c0,0,5.9,31-22.2,29c-28-2-22.5-28-17.8-33.9C554.3,60.2,569.5,38.7,569.5,38.7z"/>
			<g>
				<defs>
					<rect id="SVGID_17_" x="541.4" y="30" width="54.6" height="75.1"/>
				</defs>
				<clipPath id="SVGID_18_">
					<use xlink:href="#SVGID_17_"  style="overflow:visible;"/>
				</clipPath>
				<path class="st11" d="M582.7,89.8c0,0-0.1,0.1-0.1,0.1c-0.1,0.1-0.1,0.1-0.1,0.2l-0.1,0.2l-0.1,0.1c-2.8,3-6.4,5-10.4,5.7
					c-0.8,0.1-1.6,0.2-2.5,0.2h-1.2c-0.8,0-1.7-0.1-2.6-0.2c-3.8-0.7-7.4-2.7-10.1-5.6c-3.5-3.8-5.4-8.8-5-13.8
					c0.2-3.6,1.8-6.6,3.1-8.9c0,0,2.5-4.1,2.9-4.6c3.3-5.5,6.8-11,10-16.1l1.6-2.5c0.2-0.3,0.5-0.4,0.8-0.4c0.3,0,0.6,0.2,0.8,0.4
					l1.6,2.5c2.9,4.6,6.4,10.1,9.7,15.6l0.4,0.7c3.6,6,7.8,12.8,4.7,21.1c-0.3,0.9-0.7,1.7-1.2,2.5
					C584.1,87.9,583.4,88.9,582.7,89.8 M595.2,77.8c0-0.5,0-1-0.1-1.6c0-0.1,0-0.2,0-0.3l0-0.2c-0.2-1.7-0.5-3.3-1-4.9
					c-1.6-5.3-4.7-10.3-8.1-15.5c-0.7-1.1-1.3-2.1-2-3.2c-3.2-5.1-4.7-7.3-8.1-12c-1.1-1.6-2.5-3.4-4.1-5.7l-1.9-2.7
					c-0.8-1.3-2.3-0.3-2.7,0.4c-1,1.5-1.7,2.4-3.1,4.3L563,38c-4,5.6-7.7,11-11.4,17c-0.4,0.6-0.8,1.3-1.2,1.9l-0.1,0.1
					c-4.2,6.9-8.1,13.4-8.1,20.8c0,1.3,0.1,2.7,0.3,4c0.1,0.9,0.3,1.7,0.5,2.6c0.4,1.7,1,3.3,1.8,4.9c0.7,1.5,1.6,3,2.6,4.4
					c0.5,0.7,1.1,1.3,1.6,2c0.3,0.3,0.6,0.6,0.9,0.9c0.6,0.6,1.2,1.2,1.9,1.7c4.7,3.9,10.7,6,16.8,6c0.9,0,1.8-0.1,2.7-0.1
					s1.8-0.2,2.6-0.4c0.5-0.1,1-0.2,1.6-0.4c0.8-0.2,1.5-0.4,2.2-0.7c0.8-0.3,1.6-0.6,2.4-1c1.3-0.6,2.5-1.4,3.8-2.2
					c0.9-0.6,1.8-1.3,2.6-2.1c0.3-0.3,0.6-0.6,0.9-0.9c1.6-1.6,3-3.5,4.2-5.5c0.2-0.4,0.5-0.8,0.7-1.2
					C594.2,86.1,595.2,82,595.2,77.8"/>
			</g>
			<rect x="541.6" y="30" class="st2" width="54.6" height="75.1"/>
			<path class="st3" d="M569.3,97.1h-1.2c-0.9,0-1.9-0.1-2.7-0.2c-4-0.7-7.8-2.8-10.7-5.9c-3.7-4-5.7-9.3-5.3-14.5
				c0.2-3.7,1.8-6.8,3.2-9.4c0,0,1.6-2.5,1.8-2.9c0,0,0.8-1.2,1.1-1.7c3.4-5.6,6.8-11,10-16.1l1.6-2.5c0.4-0.6,1-0.9,1.7-0.9
				c0.6,0,1.3,0.3,1.6,0.9l1.6,2.5c2.5,3.9,6.2,9.8,9.7,15.6l0.4,0.7c3.8,6.2,8,13.2,4.8,22c-0.4,1-0.8,1.8-1.2,2.7
				c-0.6,1.1-1.3,2.1-2.1,3.1l0,0c0,0-0.1,0.1-0.2,0.2l-0.4,0.4c-2.9,3.1-6.8,5.2-11,5.9C571.1,97.1,570.2,97.1,569.3,97.1z
				 M568.7,45l-1.5,2.5c-3.2,5-6.6,10.5-10,16c-0.3,0.5-1.1,1.7-1.1,1.7c-0.2,0.4-1.8,2.9-1.8,2.9c-1.3,2.3-2.7,5.2-2.9,8.5
				c-0.3,4.7,1.4,9.4,4.8,13c2.6,2.8,6,4.6,9.5,5.3c0.7,0.1,1.5,0.2,2.4,0.2h1.2c0.8,0,1.6-0.1,2.3-0.2c3.7-0.6,7.2-2.5,9.8-5.4
				l0.1-0.1c0.1-0.1,0.2-0.2,0.3-0.3l0.1-0.1c0.7-0.9,1.4-1.8,1.9-2.8c0.4-0.7,0.8-1.5,1.1-2.4c2.9-7.8-1.1-14.4-4.6-20.2l-0.4-0.7
				c-3.5-5.8-7.2-11.7-9.6-15.5L568.7,45z M582.2,89C582.2,89,582.2,89,582.2,89L582.2,89z"/>
			<path class="st3" d="M569.6,105.1h-1.7c-1.3,0-2.6-0.1-3.8-0.3c-5.6-1-10.8-4-14.8-8.2c-5.2-5.6-7.9-13-7.4-20.2
				c0.3-5.1,2.5-9.5,4.5-13c0,0,2.2-3.6,2.5-4.1c0,0,1.1-1.7,1.5-2.4c4.8-7.9,9.6-15.6,14.1-22.7l1.3-1.9c0.7-1,1.8-1.6,2.9-1.6
				c0,0,0,0,0,0c1.2,0,2.3,0.6,2.9,1.6l1,1.6c3.9,6.1,9.1,14.4,13.9,22.3l0.6,1c5.3,8.7,11.2,18.5,6.8,30.7
				c-0.5,1.4-1.1,2.6-1.7,3.7c-0.8,1.5-1.9,3-3,4.4c0,0,0,0,0,0c0,0.1-0.1,0.2-0.2,0.3c0,0,0,0.1-0.1,0.1l-0.4,0.4
				c-4,4.4-9.5,7.3-15.3,8.3C572.1,105,570.8,105.1,569.6,105.1z M568.8,32.5c-0.5,0-1,0.2-1.3,0.7l-1.2,1.9
				c-4.5,7.1-9.3,14.8-14.1,22.7c-0.5,0.8-1.5,2.5-1.5,2.5c-0.3,0.6-2.5,4.1-2.5,4.1c-1.9,3.3-3.9,7.4-4.2,12.2
				c-0.5,6.7,2,13.6,6.8,18.7c3.7,4,8.6,6.7,13.7,7.6c1.1,0.2,2.2,0.2,3.4,0.2h1.7c1.1,0,2.3-0.1,3.3-0.2c5.4-0.9,10.4-3.6,14.2-7.7
				l0.3-0.3c0.1-0.2,0.2-0.3,0.3-0.4c0,0,0.1-0.1,0.1-0.1c0,0,0,0,0,0l0,0c1.1-1.3,2-2.7,2.8-4.1c0.6-1,1.1-2.2,1.6-3.4
				c4.1-11.2-1.6-20.6-6.6-28.9l-0.6-1c-4.7-7.8-10-16.2-13.9-22.3l-1-1.6C569.8,32.7,569.3,32.5,568.8,32.5
				C568.8,32.5,568.8,32.5,568.8,32.5z M589.1,95.9C589.1,95.9,589.1,95.9,589.1,95.9C589.1,95.9,589.1,95.9,589.1,95.9z
				 M588.5,95.1L588.5,95.1L588.5,95.1z M587.9,94.3L587.9,94.3L587.9,94.3z M587.9,94.3C587.9,94.3,587.9,94.3,587.9,94.3
				C587.9,94.3,587.9,94.3,587.9,94.3z"/>
		</g>
		<g>
			<path class="st0" d="M634.6,38.7l20,32.3c0,0,5.9,31-22.2,29c-28-2-22.5-28-17.8-33.9C619.5,60.2,634.6,38.7,634.6,38.7z"/>
			<g>
				<defs>
					<rect id="SVGID_19_" x="606.6" y="30" width="54.6" height="75.1"/>
				</defs>
				<clipPath id="SVGID_20_">
					<use xlink:href="#SVGID_19_"  style="overflow:visible;"/>
				</clipPath>
				<path class="st12" d="M647.9,89.8c0,0-0.1,0.1-0.1,0.1c-0.1,0.1-0.1,0.1-0.1,0.2l-0.1,0.2l-0.1,0.1c-2.8,3-6.4,5-10.4,5.7
					c-0.8,0.1-1.6,0.2-2.5,0.2h-1.2c-0.8,0-1.7-0.1-2.6-0.2c-3.8-0.7-7.4-2.7-10.1-5.6c-3.5-3.8-5.4-8.8-5-13.8
					c0.2-3.6,1.8-6.6,3.1-8.9c0,0,2.5-4.1,2.9-4.6c3.3-5.5,6.8-11,10-16.1l1.6-2.5c0.2-0.3,0.5-0.4,0.8-0.4c0.3,0,0.6,0.2,0.8,0.4
					l1.6,2.5c2.9,4.6,6.4,10.1,9.7,15.6l0.4,0.7c3.6,6,7.8,12.8,4.7,21.1c-0.3,0.9-0.7,1.7-1.2,2.5
					C649.3,87.9,648.6,88.9,647.9,89.8 M660.3,77.8c0-0.5,0-1-0.1-1.6c0-0.1,0-0.2,0-0.3l0-0.2c-0.2-1.7-0.5-3.3-1-4.9
					c-1.6-5.3-4.7-10.3-8.1-15.5c-0.7-1.1-1.3-2.1-2-3.2c-3.2-5.1-4.7-7.3-8.1-12c-1.1-1.6-2.5-3.4-4.1-5.7l-1.9-2.7
					c-0.8-1.3-2.3-0.3-2.7,0.4c-1,1.5-1.7,2.4-3.1,4.3l-1.1,1.6c-4,5.6-7.7,11-11.4,17c-0.4,0.6-0.8,1.3-1.2,1.9l-0.1,0.1
					c-4.2,6.9-8.1,13.4-8.1,20.8c0,1.3,0.1,2.7,0.3,4c0.1,0.9,0.3,1.7,0.5,2.6c0.4,1.7,1,3.3,1.8,4.9c0.7,1.5,1.6,3,2.6,4.4
					c0.5,0.7,1.1,1.3,1.6,2c0.3,0.3,0.6,0.6,0.9,0.9c0.6,0.6,1.2,1.2,1.9,1.7c4.7,3.9,10.7,6,16.8,6c0.9,0,1.8-0.1,2.7-0.1
					c0.9-0.1,1.8-0.2,2.6-0.4c0.5-0.1,1-0.2,1.6-0.4c0.8-0.2,1.5-0.4,2.2-0.7c0.8-0.3,1.6-0.6,2.4-1c1.3-0.6,2.5-1.4,3.7-2.2
					c0.9-0.6,1.8-1.3,2.6-2.1c0.3-0.3,0.6-0.6,0.9-0.9c1.6-1.6,3-3.5,4.2-5.5c0.2-0.4,0.5-0.8,0.7-1.2
					C659.4,86.1,660.3,82,660.3,77.8"/>
			</g>
			<rect x="606.8" y="30" class="st2" width="54.6" height="75.1"/>
			<path class="st3" d="M634.5,97.1h-1.2c-0.9,0-1.9-0.1-2.7-0.2c-4-0.7-7.8-2.8-10.7-5.9c-3.7-4-5.7-9.3-5.3-14.5
				c0.2-3.7,1.8-6.8,3.2-9.4c0,0,1.6-2.5,1.8-2.9c0,0,0.8-1.2,1.1-1.7c3.4-5.6,6.8-11,10-16.1l1.6-2.5c0.4-0.6,1-0.9,1.7-0.9
				c0.6,0,1.3,0.3,1.6,0.9l1.6,2.5c2.5,3.9,6.2,9.8,9.7,15.6l0.4,0.7c3.8,6.2,8,13.2,4.8,22c-0.4,1-0.8,1.8-1.2,2.7
				c-0.6,1.1-1.3,2.1-2.1,3.1l0,0c0,0-0.1,0.1-0.2,0.2l-0.4,0.4c-2.9,3.1-6.8,5.2-11,5.9C636.3,97.1,635.4,97.1,634.5,97.1z
				 M633.9,45l-1.5,2.5c-3.2,5-6.6,10.5-10,16c-0.3,0.5-1.1,1.7-1.1,1.7c-0.2,0.4-1.8,2.9-1.8,2.9c-1.3,2.3-2.7,5.2-2.9,8.5
				c-0.3,4.7,1.4,9.4,4.8,13c2.6,2.8,6,4.6,9.5,5.3c0.7,0.1,1.5,0.2,2.4,0.2h1.2c0.8,0,1.6-0.1,2.3-0.2c3.7-0.6,7.2-2.5,9.8-5.4
				l0.1-0.1c0.1-0.1,0.2-0.2,0.3-0.3l0.1-0.1c0.7-0.9,1.4-1.8,1.9-2.8c0.4-0.7,0.8-1.5,1.1-2.4c2.9-7.8-1.1-14.4-4.6-20.2l-0.4-0.7
				c-3.5-5.8-7.2-11.7-9.6-15.5L633.9,45z M647.3,89C647.3,89,647.3,89,647.3,89L647.3,89z"/>
			<path class="st3" d="M634.7,105.1h-1.7c-1.3,0-2.6-0.1-3.8-0.3c-5.6-1-10.8-4-14.8-8.2c-5.2-5.6-7.9-13-7.4-20.2
				c0.3-5.1,2.5-9.5,4.5-13c0,0,2.2-3.6,2.5-4.1c0,0,1.1-1.7,1.5-2.4c4.8-7.9,9.6-15.6,14.1-22.7l1.3-1.9c0.7-1,1.8-1.6,2.9-1.6
				c0,0,0,0,0,0c1.2,0,2.3,0.6,2.9,1.6l1,1.6c3.9,6.1,9.1,14.4,13.9,22.3l0.6,1c5.3,8.7,11.2,18.5,6.8,30.7
				c-0.5,1.4-1.1,2.6-1.7,3.7c-0.8,1.5-1.9,3-3,4.4c0,0,0,0,0,0c0,0.1-0.1,0.2-0.2,0.3c0,0,0,0.1-0.1,0.1l-0.4,0.4
				c-4,4.4-9.5,7.3-15.3,8.3C637.2,105,636,105.1,634.7,105.1z M633.9,32.5c-0.5,0-1,0.2-1.3,0.7l-1.2,1.9
				c-4.5,7.1-9.3,14.8-14.1,22.7c-0.5,0.8-1.5,2.5-1.5,2.5c-0.3,0.6-2.5,4.1-2.5,4.1c-1.9,3.3-3.9,7.4-4.2,12.2
				c-0.5,6.7,2,13.6,6.8,18.7c3.7,4,8.6,6.7,13.7,7.6c1.1,0.2,2.2,0.2,3.4,0.2h1.7c1.1,0,2.3-0.1,3.3-0.2c5.4-0.9,10.4-3.6,14.2-7.7
				l0.3-0.3c0.1-0.2,0.2-0.3,0.3-0.4c0,0,0.1-0.1,0.1-0.1c0,0,0,0,0,0l0,0c1.1-1.3,2-2.7,2.8-4.1c0.6-1,1.1-2.2,1.6-3.4
				c4.1-11.2-1.6-20.6-6.6-28.9l-0.6-1c-4.7-7.8-10-16.2-13.9-22.3l-1-1.6C634.9,32.7,634.5,32.5,633.9,32.5
				C634,32.5,633.9,32.5,633.9,32.5z M654.2,95.9C654.2,95.9,654.2,95.9,654.2,95.9C654.2,95.9,654.2,95.9,654.2,95.9z M653.7,95.1
				L653.7,95.1L653.7,95.1z M653.1,94.3L653.1,94.3L653.1,94.3z M653.1,94.3C653.1,94.3,653.1,94.3,653.1,94.3
				C653.1,94.3,653.1,94.3,653.1,94.3z"/>
		</g>
		<g>
			<path class="st0" d="M699.8,38.7l20,32.3c0,0,5.9,31-22.2,29c-28-2-22.5-28-17.8-33.9C684.6,60.2,699.8,38.7,699.8,38.7z"/>
			<g>
				<defs>
					<rect id="SVGID_21_" x="671.7" y="30" width="54.6" height="75.1"/>
				</defs>
				<clipPath id="SVGID_22_">
					<use xlink:href="#SVGID_21_"  style="overflow:visible;"/>
				</clipPath>
				<path class="st13" d="M713,89.8c0,0-0.1,0.1-0.1,0.1c-0.1,0.1-0.1,0.1-0.1,0.2l-0.1,0.2l-0.1,0.1c-2.8,3-6.4,5-10.4,5.7
					c-0.8,0.1-1.6,0.2-2.5,0.2h-1.2c-0.8,0-1.7-0.1-2.6-0.2c-3.8-0.7-7.4-2.7-10.1-5.6c-3.5-3.8-5.4-8.8-5-13.8
					c0.2-3.6,1.8-6.6,3.1-8.9c0,0,2.5-4.1,2.9-4.6c3.3-5.5,6.8-11,10-16.1l1.6-2.5c0.2-0.3,0.5-0.4,0.8-0.4c0.3,0,0.6,0.2,0.8,0.4
					l1.6,2.5c2.9,4.6,6.4,10.1,9.7,15.6l0.4,0.7c3.6,6,7.8,12.8,4.7,21.1c-0.3,0.9-0.7,1.7-1.2,2.5C714.4,87.9,713.7,88.9,713,89.8
					 M725.5,77.8c0-0.5,0-1-0.1-1.6c0-0.1,0-0.2,0-0.3l0-0.2c-0.2-1.7-0.5-3.3-1-4.9c-1.6-5.3-4.7-10.3-8.1-15.5
					c-0.7-1.1-1.3-2.1-2-3.2c-3.2-5.1-4.7-7.3-8.1-12c-1.1-1.6-2.5-3.4-4.1-5.7l-1.9-2.7c-0.8-1.3-2.3-0.3-2.7,0.4
					c-1,1.5-1.7,2.4-3.1,4.3l-1.1,1.6c-4,5.6-7.7,11-11.4,17c-0.4,0.6-0.8,1.3-1.2,1.9l-0.1,0.1c-4.2,6.9-8.1,13.4-8.1,20.8
					c0,1.3,0.1,2.7,0.3,4c0.1,0.9,0.3,1.7,0.5,2.6c0.4,1.7,1,3.3,1.8,4.9c0.7,1.5,1.6,3,2.6,4.4c0.5,0.7,1.1,1.3,1.6,2
					c0.3,0.3,0.6,0.6,0.9,0.9c0.6,0.6,1.2,1.2,1.9,1.7c4.7,3.9,10.7,6,16.8,6c0.9,0,1.8-0.1,2.7-0.1c0.9-0.1,1.8-0.2,2.6-0.4
					c0.5-0.1,1-0.2,1.6-0.4c0.8-0.2,1.5-0.4,2.2-0.7c0.8-0.3,1.6-0.6,2.4-1c1.3-0.6,2.5-1.4,3.8-2.2c0.9-0.6,1.8-1.3,2.6-2.1
					c0.3-0.3,0.6-0.6,0.9-0.9c1.6-1.6,3-3.5,4.2-5.5c0.2-0.4,0.5-0.8,0.7-1.2C724.5,86.1,725.5,82,725.5,77.8"/>
			</g>
			<rect x="671.9" y="30" class="st2" width="54.6" height="75.1"/>
			<path class="st3" d="M699.6,97.1h-1.2c-0.9,0-1.9-0.1-2.7-0.2c-4-0.7-7.8-2.8-10.7-5.9c-3.7-4-5.7-9.3-5.3-14.5
				c0.2-3.7,1.8-6.8,3.2-9.4c0,0,1.6-2.5,1.8-2.9c0,0,0.8-1.2,1.1-1.7c3.4-5.6,6.8-11,10-16.1l1.6-2.5c0.4-0.6,1-0.9,1.7-0.9
				c0.6,0,1.3,0.3,1.6,0.9l1.6,2.5c2.5,3.9,6.2,9.8,9.7,15.6l0.4,0.7c3.8,6.2,8,13.2,4.8,22c-0.4,1-0.8,1.8-1.2,2.7
				c-0.6,1.1-1.3,2.1-2.1,3.1l0,0c0,0-0.1,0.1-0.2,0.2l-0.4,0.4c-2.9,3.1-6.8,5.2-11,5.9C701.4,97.1,700.5,97.1,699.6,97.1z M699,45
				l-1.5,2.5c-3.2,5-6.6,10.5-10,16c-0.3,0.5-1.1,1.7-1.1,1.7c-0.2,0.4-1.8,2.9-1.8,2.9c-1.3,2.3-2.7,5.2-2.9,8.5
				c-0.3,4.7,1.4,9.4,4.8,13c2.6,2.8,6,4.6,9.5,5.3c0.7,0.1,1.5,0.2,2.4,0.2h1.2c0.8,0,1.6-0.1,2.3-0.2c3.7-0.6,7.2-2.5,9.8-5.4
				l0.1-0.1c0.1-0.1,0.2-0.2,0.3-0.3l0.1-0.1c0.7-0.9,1.4-1.8,1.9-2.8c0.4-0.7,0.8-1.5,1.1-2.4c2.9-7.8-1.1-14.4-4.6-20.2l-0.4-0.7
				c-3.5-5.8-7.2-11.7-9.6-15.5L699,45z M712.5,89C712.5,89,712.5,89,712.5,89L712.5,89z"/>
			<path class="st3" d="M699.9,105.1h-1.7c-1.3,0-2.6-0.1-3.8-0.3c-5.6-1-10.8-4-14.8-8.2c-5.2-5.6-7.9-13-7.4-20.2
				c0.3-5.1,2.5-9.5,4.5-13c0,0,2.2-3.6,2.5-4.1c0,0,1.1-1.7,1.5-2.4c4.8-7.9,9.6-15.6,14.1-22.7l1.3-1.9c0.7-1,1.8-1.6,2.9-1.6
				c0,0,0,0,0,0c1.2,0,2.3,0.6,2.9,1.6l1,1.6c3.9,6.1,9.1,14.4,13.9,22.3l0.6,1c5.3,8.7,11.2,18.5,6.8,30.7
				c-0.5,1.4-1.1,2.6-1.7,3.7c-0.8,1.5-1.9,3-3,4.4c0,0,0,0,0,0c0,0.1-0.1,0.2-0.2,0.3c0,0,0,0.1-0.1,0.1l-0.4,0.4
				c-4,4.4-9.5,7.3-15.3,8.3C702.4,105,701.1,105.1,699.9,105.1z M699.1,32.5c-0.5,0-1,0.2-1.3,0.7l-1.2,1.9
				c-4.5,7.1-9.3,14.8-14.1,22.7c-0.5,0.8-1.5,2.5-1.5,2.5c-0.3,0.6-2.5,4.1-2.5,4.1c-1.9,3.3-3.9,7.4-4.2,12.2
				c-0.5,6.7,2,13.6,6.8,18.7c3.7,4,8.6,6.7,13.7,7.6c1.1,0.2,2.2,0.2,3.4,0.2h1.7c1.1,0,2.3-0.1,3.3-0.2c5.4-0.9,10.4-3.6,14.2-7.7
				l0.3-0.3c0.1-0.2,0.2-0.3,0.3-0.4c0,0,0.1-0.1,0.1-0.1c0,0,0,0,0,0l0,0c1.1-1.3,2-2.7,2.8-4.1c0.6-1,1.1-2.2,1.6-3.4
				c4.1-11.2-1.6-20.6-6.6-28.9l-0.6-1c-4.7-7.8-10-16.2-13.9-22.3l-1-1.6C700.1,32.7,699.6,32.5,699.1,32.5
				C699.1,32.5,699.1,32.5,699.1,32.5z M719.4,95.9C719.4,95.9,719.4,95.9,719.4,95.9C719.4,95.9,719.4,95.9,719.4,95.9z
				 M718.8,95.1L718.8,95.1L718.8,95.1z M718.2,94.3L718.2,94.3L718.2,94.3z M718.2,94.3C718.2,94.3,718.2,94.3,718.2,94.3
				C718.2,94.3,718.2,94.3,718.2,94.3z"/>
		</g>
	</g>
</g>
<g id="Layer_2">
</g>
</svg>
