<?xml version="1.0" encoding="utf-8"?>
<!-- Generator: Adobe Illustrator 24.1.0, SVG Export Plug-In . SVG Version: 6.00 Build 0)  -->
<svg version="1.1" id="Layer_1" xmlns="http://www.w3.org/2000/svg" xmlns:xlink="http://www.w3.org/1999/xlink" x="0px" y="0px"
	 viewBox="0 0 746.9 137.7" style="enable-background:new 0 0 746.9 137.7;" xml:space="preserve">
<style type="text/css">
	.st0{fill:#CCEAEE;}
	.st1{clip-path:url(#SVGID_2_);fill:#69C2CF;}
	.st2{clip-path:url(#SVGID_2_);fill:none;stroke:#FFFFFF;stroke-width:1.761;stroke-miterlimit:10;}
</style>
<polygon class="st0" points="55.9,60.6 44.7,82.2 55.9,101.9 76,99 91.6,82.2 68.1,41.8 "/>
<polygon class="st0" points="122.5,54.6 111.3,76.2 122.5,95.9 144.1,99.6 158.2,76.2 134.7,35.8 "/>
<polygon class="st0" points="192,54.6 180.7,76.2 192,95.9 213.5,99.6 227.6,76.2 204.2,35.8 "/>
<polygon class="st0" points="262.3,54.6 251.1,76.2 262.3,95.9 283.9,99.6 298,76.2 274.5,35.8 "/>
<polygon class="st0" points="329.9,54.6 318.6,76.2 329.9,95.9 351.4,99.6 365.5,76.2 342.1,35.8 "/>
<polygon class="st0" points="400.2,60.6 389,82.2 400.2,101.9 419.9,101.3 435.9,82.2 412.4,41.8 "/>
<polygon class="st0" points="468.7,60.6 457.4,82.2 468.7,101.9 488.3,100.2 504.3,82.2 480.9,41.8 "/>
<polygon class="st0" points="536,55.9 524.8,77.4 536,97.1 557.6,100.9 571.7,77.4 548.2,37.1 "/>
<polygon class="st0" points="606.6,60.6 595.3,82.2 606.6,101.9 626.1,99.7 642.2,82.2 618.8,41.8 "/>
<polygon class="st0" points="676,60.6 664.7,82.2 676,101.9 694.5,100.2 711.6,82.2 688.2,41.8 "/>
<g>
	<defs>
		<rect id="SVGID_1_" x="39.7" y="28.3" width="676" height="77.3"/>
	</defs>
	<clipPath id="SVGID_2_">
		<use xlink:href="#SVGID_1_"  style="overflow:visible;"/>
	</clipPath>
	<path class="st1" d="M81.8,89.3c0,0-0.1,0.1-0.1,0.1c0,0-0.3,0.3-0.3,0.3c-2.9,3.1-6.7,5.2-10.7,5.9c-0.8,0.1-1.7,0.2-2.5,0.2H67
		c-0.8,0-1.7-0.1-2.6-0.2c-3.8-0.7-7.5-2.7-10.3-5.7c-3.6-3.9-5.5-9-5.1-14c0.3-3.6,1.8-6.8,3.1-9.1l0.3-0.5l0.9-1.2l-0.1,0
		c0.2-0.4,0.5-0.8,0.7-1.2c0.4-0.7,0.8-1.2,1.1-1.8c3.4-5.6,6.9-11.2,10.2-16.4l1.6-2.5c0.2-0.3,0.5-0.4,0.8-0.4
		c0.3,0,0.6,0.2,0.8,0.4l1.6,2.5c3,4.7,6.5,10.3,9.9,15.9l0.4,0.7c3.7,6.1,7.9,13,4.8,21.5c-0.3,0.9-0.7,1.7-1.2,2.6
		C83.2,87.4,82.5,88.4,81.8,89.3 M94.5,77.2c0-0.6,0-1.1-0.1-1.7l0-0.3c-0.2-1.9-0.5-3.6-1-5.3c-1.7-5.4-4.8-10.5-8.2-15.8
		c-0.7-1.1-1.4-2.1-2-3.2c-3.2-5.2-4.8-7.4-8.3-12.2c-1.2-1.6-2.5-3.4-4.2-5.8l-1.9-2.8c-0.4-0.6-0.9-1-1.3-1c-0.4,0-0.9,0.4-1.3,1
		c-1,1.6-1.9,2.8-3.3,4.7l-1.1,1.6c-4,5.8-7.8,11.2-11.7,17.3c-0.4,0.7-0.8,1.3-1.2,2c-4.3,7.1-8.3,13.7-8.3,21.3
		c0,1.4,0.1,2.8,0.3,4.1c0.1,0.9,0.3,1.8,0.5,2.6c0.4,1.7,1,3.4,1.8,4.9c0.8,1.6,1.7,3.1,2.7,4.4c0.5,0.7,1.1,1.4,1.7,2
		c0.3,0.3,0.6,0.6,0.9,0.9c0.6,0.6,1.3,1.2,1.9,1.7c4.8,4,10.9,6.2,17.1,6.2c0.9,0,1.8,0,2.8-0.1c0.9-0.1,1.8-0.2,2.7-0.4
		c0.5-0.1,1.1-0.2,1.6-0.4c0.8-0.2,1.5-0.4,2.2-0.7c0.8-0.3,1.6-0.6,2.4-1c1.3-0.6,2.6-1.4,3.8-2.3c0.9-0.7,1.8-1.4,2.6-2.1
		c0.3-0.3,0.6-0.6,0.9-0.9c1.6-1.6,3.1-3.5,4.3-5.6c0.2-0.4,0.5-0.8,0.7-1.2C93.5,85.6,94.5,81.5,94.5,77.2"/>
	<path class="st2" d="M81.8,89.3c0,0-0.1,0.1-0.1,0.1c0,0-0.3,0.3-0.3,0.3c-2.9,3.1-6.7,5.2-10.7,5.9c-0.8,0.1-1.7,0.2-2.5,0.2H67
		c-0.8,0-1.7-0.1-2.6-0.2c-3.8-0.7-7.5-2.7-10.3-5.7c-3.6-3.9-5.5-9-5.1-14c0.3-3.6,1.8-6.8,3.1-9.1l0.3-0.5l0.9-1.2l-0.1,0
		c0.2-0.4,0.5-0.8,0.7-1.2c0.4-0.7,0.8-1.2,1.1-1.8c3.4-5.6,6.9-11.2,10.2-16.4l1.6-2.5c0.2-0.3,0.5-0.4,0.8-0.4
		c0.3,0,0.6,0.2,0.8,0.4l1.6,2.5c3,4.7,6.5,10.3,9.9,15.9l0.4,0.7c3.7,6.1,7.9,13,4.8,21.5c-0.3,0.9-0.7,1.7-1.2,2.6
		C83.2,87.4,82.5,88.4,81.8,89.3z M94.5,77.2c0-0.6,0-1.1-0.1-1.7l0-0.3c-0.2-1.9-0.5-3.6-1-5.3c-1.7-5.4-4.8-10.5-8.2-15.8
		c-0.7-1.1-1.4-2.1-2-3.2c-3.2-5.2-4.8-7.4-8.3-12.2c-1.2-1.6-2.5-3.4-4.2-5.8l-1.9-2.8c-0.4-0.6-0.9-1-1.3-1c-0.4,0-0.9,0.4-1.3,1
		c-1,1.6-1.9,2.8-3.3,4.7l-1.1,1.6c-4,5.8-7.8,11.2-11.7,17.3c-0.4,0.7-0.8,1.3-1.2,2c-4.3,7.1-8.3,13.7-8.3,21.3
		c0,1.4,0.1,2.8,0.3,4.1c0.1,0.9,0.3,1.8,0.5,2.6c0.4,1.7,1,3.4,1.8,4.9c0.8,1.6,1.7,3.1,2.7,4.4c0.5,0.7,1.1,1.4,1.7,2
		c0.3,0.3,0.6,0.6,0.9,0.9c0.6,0.6,1.3,1.2,1.9,1.7c4.8,4,10.9,6.2,17.1,6.2c0.9,0,1.8,0,2.8-0.1c0.9-0.1,1.8-0.2,2.7-0.4
		c0.5-0.1,1.1-0.2,1.6-0.4c0.8-0.2,1.5-0.4,2.2-0.7c0.8-0.3,1.6-0.6,2.4-1c1.3-0.6,2.6-1.4,3.8-2.3c0.9-0.7,1.8-1.4,2.6-2.1
		c0.3-0.3,0.6-0.6,0.9-0.9c1.6-1.6,3.1-3.5,4.3-5.6c0.2-0.4,0.5-0.8,0.7-1.2C93.5,85.6,94.5,81.5,94.5,77.2z"/>
	<path class="st1" d="M357.5,89.3c0,0-0.1,0.1-0.1,0.1l-0.2,0.2c0,0-0.2,0.3-0.2,0.2c-2.8,3-6.6,5.1-10.6,5.8
		c-0.8,0.1-1.7,0.2-2.5,0.2h-1.2c-0.8,0-1.7-0.1-2.6-0.2c-3.8-0.7-7.5-2.7-10.3-5.7c-3.6-3.9-5.5-9-5.1-14c0.3-3.6,1.8-6.8,3.1-9.1
		l0.3-0.5l0.9-1.2l-0.1,0c0.2-0.4,0.5-0.8,0.7-1.2c0.4-0.7,0.8-1.2,1.1-1.8c3.4-5.6,6.9-11.2,10.2-16.4l1.6-2.5
		c0.2-0.3,0.5-0.4,0.8-0.4c0.3,0,0.6,0.2,0.8,0.4l1.6,2.5c3,4.7,6.5,10.3,9.9,15.9l0.4,0.7c3.7,6.1,7.9,13,4.8,21.5
		c-0.3,0.9-0.7,1.7-1.2,2.6C358.9,87.4,358.2,88.4,357.5,89.3 M370.2,77.2c0-0.6,0-1.1-0.1-1.7l0-0.3c-0.2-1.9-0.5-3.6-1-5.3
		c-1.7-5.4-4.8-10.5-8.2-15.8c-0.7-1.1-1.4-2.1-2-3.2c-3.2-5.2-4.8-7.4-8.3-12.2c-1.2-1.6-2.5-3.4-4.2-5.8l-1.9-2.8
		c-0.4-0.6-0.9-1-1.3-1c-0.4,0-0.9,0.4-1.3,1c-1,1.6-1.9,2.8-3.3,4.7l-1.1,1.6c-4,5.8-7.8,11.2-11.7,17.3c-0.4,0.7-0.8,1.3-1.2,2
		c-4.3,7.1-8.3,13.7-8.3,21.3c0,1.4,0.1,2.8,0.3,4.1c0.1,0.9,0.3,1.8,0.5,2.6c0.4,1.7,1,3.4,1.8,4.9c0.8,1.6,1.7,3.1,2.7,4.4
		c0.5,0.7,1.1,1.4,1.6,2c0.3,0.3,0.6,0.6,0.9,0.9c0.6,0.6,1.3,1.2,1.9,1.7c4.8,4,10.9,6.2,17.1,6.2c0.9,0,1.8,0,2.8-0.1
		c0.9-0.1,1.8-0.2,2.7-0.4c0.5-0.1,1.1-0.2,1.6-0.4c0.8-0.2,1.5-0.4,2.2-0.7c0.8-0.3,1.6-0.6,2.4-1c1.3-0.6,2.6-1.4,3.8-2.3
		c0.9-0.7,1.8-1.4,2.6-2.1c0.3-0.3,0.6-0.6,0.9-0.9c1.6-1.6,3.1-3.5,4.3-5.6c0.2-0.4,0.5-0.8,0.7-1.2
		C369.2,85.6,370.2,81.5,370.2,77.2"/>
	<path class="st2" d="M357.5,89.3c0,0-0.1,0.1-0.1,0.1l-0.2,0.2c0,0-0.2,0.3-0.2,0.2c-2.8,3-6.6,5.1-10.6,5.8
		c-0.8,0.1-1.7,0.2-2.5,0.2h-1.2c-0.8,0-1.7-0.1-2.6-0.2c-3.8-0.7-7.5-2.7-10.3-5.7c-3.6-3.9-5.5-9-5.1-14c0.3-3.6,1.8-6.8,3.1-9.1
		l0.3-0.5l0.9-1.2l-0.1,0c0.2-0.4,0.5-0.8,0.7-1.2c0.4-0.7,0.8-1.2,1.1-1.8c3.4-5.6,6.9-11.2,10.2-16.4l1.6-2.5
		c0.2-0.3,0.5-0.4,0.8-0.4c0.3,0,0.6,0.2,0.8,0.4l1.6,2.5c3,4.7,6.5,10.3,9.9,15.9l0.4,0.7c3.7,6.1,7.9,13,4.8,21.5
		c-0.3,0.9-0.7,1.7-1.2,2.6C358.9,87.4,358.2,88.4,357.5,89.3z M370.2,77.2c0-0.6,0-1.1-0.1-1.7l0-0.3c-0.2-1.9-0.5-3.6-1-5.3
		c-1.7-5.4-4.8-10.5-8.2-15.8c-0.7-1.1-1.4-2.1-2-3.2c-3.2-5.2-4.8-7.4-8.3-12.2c-1.2-1.6-2.5-3.4-4.2-5.8l-1.9-2.8
		c-0.4-0.6-0.9-1-1.3-1c-0.4,0-0.9,0.4-1.3,1c-1,1.6-1.9,2.8-3.3,4.7l-1.1,1.6c-4,5.8-7.8,11.2-11.7,17.3c-0.4,0.7-0.8,1.3-1.2,2
		c-4.3,7.1-8.3,13.7-8.3,21.3c0,1.4,0.1,2.8,0.3,4.1c0.1,0.9,0.3,1.8,0.5,2.6c0.4,1.7,1,3.4,1.8,4.9c0.8,1.6,1.7,3.1,2.7,4.4
		c0.5,0.7,1.1,1.4,1.6,2c0.3,0.3,0.6,0.6,0.9,0.9c0.6,0.6,1.3,1.2,1.9,1.7c4.8,4,10.9,6.2,17.1,6.2c0.9,0,1.8,0,2.8-0.1
		c0.9-0.1,1.8-0.2,2.7-0.4c0.5-0.1,1.1-0.2,1.6-0.4c0.8-0.2,1.5-0.4,2.2-0.7c0.8-0.3,1.6-0.6,2.4-1c1.3-0.6,2.6-1.4,3.8-2.3
		c0.9-0.7,1.8-1.4,2.6-2.1c0.3-0.3,0.6-0.6,0.9-0.9c1.6-1.6,3.1-3.5,4.3-5.6c0.2-0.4,0.5-0.8,0.7-1.2
		C369.2,85.6,370.2,81.5,370.2,77.2z"/>
	<path class="st1" d="M219.6,89.3c0,0-0.1,0.1-0.1,0.1l-0.2,0.2c0,0-0.2,0.3-0.2,0.2c-2.8,3-6.6,5.1-10.6,5.8
		c-0.8,0.1-1.7,0.2-2.5,0.2h-1.2c-0.8,0-1.7-0.1-2.6-0.2c-3.8-0.7-7.5-2.7-10.3-5.7c-3.6-3.9-5.5-9-5.1-14c0.3-3.6,1.8-6.8,3.1-9.1
		l0.3-0.5l0.9-1.2l-0.1,0c0.2-0.4,0.5-0.8,0.7-1.2c0.4-0.7,0.8-1.2,1.1-1.8c3.4-5.6,6.9-11.2,10.2-16.4l1.6-2.5
		c0.2-0.3,0.5-0.4,0.8-0.4c0.3,0,0.6,0.2,0.8,0.4l1.6,2.5c3,4.7,6.5,10.3,9.9,15.9l0.4,0.7c3.7,6.1,7.9,13,4.8,21.5
		c-0.3,0.9-0.7,1.7-1.2,2.6C221.1,87.4,220.4,88.4,219.6,89.3 M232.4,77.2c0-0.6,0-1.1-0.1-1.7l0-0.3c-0.2-1.9-0.5-3.6-1-5.3
		c-1.7-5.4-4.8-10.5-8.2-15.8c-0.7-1.1-1.4-2.1-2-3.2c-3.2-5.2-4.8-7.4-8.3-12.2c-1.2-1.6-2.5-3.4-4.2-5.8l-1.9-2.8
		c-0.4-0.6-0.9-1-1.3-1c-0.4,0-0.9,0.4-1.3,1c-1,1.6-1.9,2.8-3.3,4.7l-1.1,1.6c-4,5.8-7.8,11.2-11.7,17.3c-0.4,0.7-0.8,1.3-1.2,2
		c-4.3,7.1-8.3,13.7-8.3,21.3c0,1.4,0.1,2.8,0.3,4.1c0.1,0.9,0.3,1.8,0.5,2.6c0.4,1.7,1,3.4,1.8,4.9c0.8,1.6,1.7,3.1,2.7,4.4
		c0.5,0.7,1.1,1.4,1.6,2c0.3,0.3,0.6,0.6,0.9,0.9c0.6,0.6,1.3,1.2,1.9,1.7c4.8,4,10.9,6.2,17.1,6.2c0.9,0,1.8,0,2.8-0.1
		c0.9-0.1,1.8-0.2,2.7-0.4c0.5-0.1,1.1-0.2,1.6-0.4c0.8-0.2,1.5-0.4,2.2-0.7c0.8-0.3,1.6-0.6,2.4-1c1.3-0.6,2.6-1.4,3.8-2.3
		c0.9-0.7,1.8-1.4,2.6-2.1c0.3-0.3,0.6-0.6,0.9-0.9c1.6-1.6,3.1-3.5,4.3-5.6c0.2-0.4,0.5-0.8,0.7-1.2
		C231.4,85.6,232.4,81.5,232.4,77.2"/>
	<path class="st2" d="M219.6,89.3c0,0-0.1,0.1-0.1,0.1l-0.2,0.2c0,0-0.2,0.3-0.2,0.2c-2.8,3-6.6,5.1-10.6,5.8
		c-0.8,0.1-1.7,0.2-2.5,0.2h-1.2c-0.8,0-1.7-0.1-2.6-0.2c-3.8-0.7-7.5-2.7-10.3-5.7c-3.6-3.9-5.5-9-5.1-14c0.3-3.6,1.8-6.8,3.1-9.1
		l0.3-0.5l0.9-1.2l-0.1,0c0.2-0.4,0.5-0.8,0.7-1.2c0.4-0.7,0.8-1.2,1.1-1.8c3.4-5.6,6.9-11.2,10.2-16.4l1.6-2.5
		c0.2-0.3,0.5-0.4,0.8-0.4c0.3,0,0.6,0.2,0.8,0.4l1.6,2.5c3,4.7,6.5,10.3,9.9,15.9l0.4,0.7c3.7,6.1,7.9,13,4.8,21.5
		c-0.3,0.9-0.7,1.7-1.2,2.6C221.1,87.4,220.4,88.4,219.6,89.3z M232.4,77.2c0-0.6,0-1.1-0.1-1.7l0-0.3c-0.2-1.9-0.5-3.6-1-5.3
		c-1.7-5.4-4.8-10.5-8.2-15.8c-0.7-1.1-1.4-2.1-2-3.2c-3.2-5.2-4.8-7.4-8.3-12.2c-1.2-1.6-2.5-3.4-4.2-5.8l-1.9-2.8
		c-0.4-0.6-0.9-1-1.3-1c-0.4,0-0.9,0.4-1.3,1c-1,1.6-1.9,2.8-3.3,4.7l-1.1,1.6c-4,5.8-7.8,11.2-11.7,17.3c-0.4,0.7-0.8,1.3-1.2,2
		c-4.3,7.1-8.3,13.7-8.3,21.3c0,1.4,0.1,2.8,0.3,4.1c0.1,0.9,0.3,1.8,0.5,2.6c0.4,1.7,1,3.4,1.8,4.9c0.8,1.6,1.7,3.1,2.7,4.4
		c0.5,0.7,1.1,1.4,1.6,2c0.3,0.3,0.6,0.6,0.9,0.9c0.6,0.6,1.3,1.2,1.9,1.7c4.8,4,10.9,6.2,17.1,6.2c0.9,0,1.8,0,2.8-0.1
		c0.9-0.1,1.8-0.2,2.7-0.4c0.5-0.1,1.1-0.2,1.6-0.4c0.8-0.2,1.5-0.4,2.2-0.7c0.8-0.3,1.6-0.6,2.4-1c1.3-0.6,2.6-1.4,3.8-2.3
		c0.9-0.7,1.8-1.4,2.6-2.1c0.3-0.3,0.6-0.6,0.9-0.9c1.6-1.6,3.1-3.5,4.3-5.6c0.2-0.4,0.5-0.8,0.7-1.2
		C231.4,85.6,232.4,81.5,232.4,77.2z"/>
	<path class="st1" d="M495.3,89.3c0,0-0.1,0.1-0.1,0.1c0,0-0.3,0.3-0.3,0.3c-2.9,3.1-6.7,5.2-10.7,5.9c-0.8,0.1-1.7,0.2-2.5,0.2
		h-1.2c-0.8,0-1.7-0.1-2.6-0.2c-3.8-0.7-7.5-2.7-10.3-5.7c-3.6-3.9-5.5-9-5.1-14c0.3-3.6,1.8-6.8,3.1-9.1l0.3-0.5l0.9-1.2
		c0,0-0.1,0-0.1,0c0.2-0.4,0.5-0.8,0.7-1.2c0.4-0.7,0.8-1.2,1.1-1.8c3.4-5.6,6.9-11.2,10.2-16.4l1.6-2.5c0.2-0.3,0.5-0.4,0.8-0.4
		c0.3,0,0.6,0.2,0.8,0.4l1.6,2.5c3,4.7,6.5,10.3,9.9,15.9l0.4,0.7c3.7,6.1,7.9,13,4.8,21.5c-0.3,0.9-0.7,1.7-1.2,2.6
		C496.8,87.4,496.1,88.4,495.3,89.3 M508.1,77.2c0-0.6,0-1.1-0.1-1.7l0-0.3c-0.2-1.9-0.5-3.6-1-5.3c-1.7-5.4-4.8-10.5-8.2-15.8
		c-0.7-1.1-1.4-2.1-2-3.2c-3.2-5.2-4.8-7.4-8.3-12.2c-1.2-1.6-2.5-3.4-4.2-5.8l-1.9-2.8c-0.4-0.6-0.9-1-1.3-1c-0.4,0-0.9,0.4-1.3,1
		c-1,1.6-1.9,2.8-3.3,4.7l-1.1,1.6c-4,5.8-7.8,11.2-11.7,17.3c-0.4,0.7-0.8,1.3-1.2,2c-4.3,7.1-8.3,13.7-8.3,21.3
		c0,1.4,0.1,2.8,0.3,4.1c0.1,0.9,0.3,1.8,0.5,2.6c0.4,1.7,1,3.4,1.8,4.9c0.8,1.6,1.7,3.1,2.7,4.4c0.5,0.7,1.1,1.4,1.6,2
		c0.3,0.3,0.6,0.6,0.9,0.9c0.6,0.6,1.3,1.2,1.9,1.7c4.8,4,10.9,6.2,17.1,6.2c0.9,0,1.8,0,2.8-0.1c0.9-0.1,1.8-0.2,2.7-0.4
		c0.5-0.1,1.1-0.2,1.6-0.4c0.8-0.2,1.5-0.4,2.2-0.7c0.8-0.3,1.6-0.6,2.4-1c1.3-0.6,2.6-1.4,3.8-2.3c0.9-0.7,1.8-1.4,2.6-2.1
		c0.3-0.3,0.6-0.6,0.9-0.9c1.6-1.6,3.1-3.5,4.3-5.6c0.2-0.4,0.5-0.8,0.7-1.2C507.1,85.6,508.1,81.5,508.1,77.2"/>
	<path class="st2" d="M495.3,89.3c0,0-0.1,0.1-0.1,0.1c0,0-0.3,0.3-0.3,0.3c-2.9,3.1-6.7,5.2-10.7,5.9c-0.8,0.1-1.7,0.2-2.5,0.2
		h-1.2c-0.8,0-1.7-0.1-2.6-0.2c-3.8-0.7-7.5-2.7-10.3-5.7c-3.6-3.9-5.5-9-5.1-14c0.3-3.6,1.8-6.8,3.1-9.1l0.3-0.5l0.9-1.2
		c0,0-0.1,0-0.1,0c0.2-0.4,0.5-0.8,0.7-1.2c0.4-0.7,0.8-1.2,1.1-1.8c3.4-5.6,6.9-11.2,10.2-16.4l1.6-2.5c0.2-0.3,0.5-0.4,0.8-0.4
		c0.3,0,0.6,0.2,0.8,0.4l1.6,2.5c3,4.7,6.5,10.3,9.9,15.9l0.4,0.7c3.7,6.1,7.9,13,4.8,21.5c-0.3,0.9-0.7,1.7-1.2,2.6
		C496.8,87.4,496.1,88.4,495.3,89.3z M508.1,77.2c0-0.6,0-1.1-0.1-1.7l0-0.3c-0.2-1.9-0.5-3.6-1-5.3c-1.7-5.4-4.8-10.5-8.2-15.8
		c-0.7-1.1-1.4-2.1-2-3.2c-3.2-5.2-4.8-7.4-8.3-12.2c-1.2-1.6-2.5-3.4-4.2-5.8l-1.9-2.8c-0.4-0.6-0.9-1-1.3-1c-0.4,0-0.9,0.4-1.3,1
		c-1,1.6-1.9,2.8-3.3,4.7l-1.1,1.6c-4,5.8-7.8,11.2-11.7,17.3c-0.4,0.7-0.8,1.3-1.2,2c-4.3,7.1-8.3,13.7-8.3,21.3
		c0,1.4,0.1,2.8,0.3,4.1c0.1,0.9,0.3,1.8,0.5,2.6c0.4,1.7,1,3.4,1.8,4.9c0.8,1.6,1.7,3.1,2.7,4.4c0.5,0.7,1.1,1.4,1.6,2
		c0.3,0.3,0.6,0.6,0.9,0.9c0.6,0.6,1.3,1.2,1.9,1.7c4.8,4,10.9,6.2,17.1,6.2c0.9,0,1.8,0,2.8-0.1c0.9-0.1,1.8-0.2,2.7-0.4
		c0.5-0.1,1.1-0.2,1.6-0.4c0.8-0.2,1.5-0.4,2.2-0.7c0.8-0.3,1.6-0.6,2.4-1c1.3-0.6,2.6-1.4,3.8-2.3c0.9-0.7,1.8-1.4,2.6-2.1
		c0.3-0.3,0.6-0.6,0.9-0.9c1.6-1.6,3.1-3.5,4.3-5.6c0.2-0.4,0.5-0.8,0.7-1.2C507.1,85.6,508.1,81.5,508.1,77.2z"/>
	<path class="st1" d="M633.2,89.3c0,0-0.1,0.1-0.1,0.1c0,0-0.3,0.3-0.3,0.3c-2.9,3.1-6.7,5.2-10.7,5.9c-0.8,0.1-1.7,0.2-2.5,0.2
		h-1.2c-0.8,0-1.7-0.1-2.6-0.2c-3.8-0.7-7.5-2.7-10.3-5.7c-3.6-3.9-5.5-9-5.1-14c0.3-3.6,1.8-6.8,3.1-9.1l0.3-0.5l0.9-1.2
		c0,0-0.1,0-0.1,0c0.2-0.4,0.5-0.8,0.7-1.2c0.4-0.7,0.8-1.2,1.1-1.8c3.4-5.6,6.9-11.2,10.2-16.4l1.6-2.5c0.2-0.3,0.5-0.4,0.8-0.4
		c0.3,0,0.6,0.2,0.8,0.4l1.6,2.5c3,4.7,6.5,10.3,9.9,15.9l0.4,0.7c3.7,6.1,7.9,13,4.8,21.5c-0.3,0.9-0.7,1.7-1.2,2.6
		C634.6,87.4,633.9,88.4,633.2,89.3 M645.9,77.2c0-0.6,0-1.1-0.1-1.7l0-0.3c-0.2-1.9-0.5-3.6-1-5.3c-1.7-5.4-4.8-10.5-8.2-15.8
		c-0.7-1.1-1.4-2.1-2-3.2c-3.2-5.2-4.8-7.4-8.3-12.2c-1.2-1.6-2.5-3.4-4.2-5.8l-1.9-2.8c-0.4-0.6-0.9-1-1.3-1c-0.4,0-0.9,0.4-1.3,1
		c-1,1.6-1.9,2.8-3.3,4.7l-1.1,1.6c-4,5.8-7.8,11.2-11.7,17.3c-0.4,0.7-0.8,1.3-1.2,2C596,63,592,69.6,592,77.2
		c0,1.4,0.1,2.8,0.3,4.1c0.1,0.9,0.3,1.8,0.5,2.6c0.4,1.7,1,3.4,1.8,4.9c0.8,1.6,1.7,3.1,2.7,4.4c0.5,0.7,1.1,1.4,1.7,2
		c0.3,0.3,0.6,0.6,0.9,0.9c0.6,0.6,1.3,1.2,1.9,1.7c4.8,4,10.9,6.2,17.1,6.2c0.9,0,1.8,0,2.8-0.1c0.9-0.1,1.8-0.2,2.7-0.4
		c0.5-0.1,1.1-0.2,1.6-0.4c0.8-0.2,1.5-0.4,2.2-0.7c0.8-0.3,1.6-0.6,2.4-1c1.3-0.6,2.6-1.4,3.8-2.3c0.9-0.7,1.8-1.4,2.6-2.1
		c0.3-0.3,0.6-0.6,0.9-0.9c1.6-1.6,3.1-3.5,4.3-5.6c0.2-0.4,0.5-0.8,0.7-1.2C644.9,85.6,645.9,81.5,645.9,77.2"/>
	<path class="st2" d="M633.2,89.3c0,0-0.1,0.1-0.1,0.1c0,0-0.3,0.3-0.3,0.3c-2.9,3.1-6.7,5.2-10.7,5.9c-0.8,0.1-1.7,0.2-2.5,0.2
		h-1.2c-0.8,0-1.7-0.1-2.6-0.2c-3.8-0.7-7.5-2.7-10.3-5.7c-3.6-3.9-5.5-9-5.1-14c0.3-3.6,1.8-6.8,3.1-9.1l0.3-0.5l0.9-1.2
		c0,0-0.1,0-0.1,0c0.2-0.4,0.5-0.8,0.7-1.2c0.4-0.7,0.8-1.2,1.1-1.8c3.4-5.6,6.9-11.2,10.2-16.4l1.6-2.5c0.2-0.3,0.5-0.4,0.8-0.4
		c0.3,0,0.6,0.2,0.8,0.4l1.6,2.5c3,4.7,6.5,10.3,9.9,15.9l0.4,0.7c3.7,6.1,7.9,13,4.8,21.5c-0.3,0.9-0.7,1.7-1.2,2.6
		C634.6,87.4,633.9,88.4,633.2,89.3z M645.9,77.2c0-0.6,0-1.1-0.1-1.7l0-0.3c-0.2-1.9-0.5-3.6-1-5.3c-1.7-5.4-4.8-10.5-8.2-15.8
		c-0.7-1.1-1.4-2.1-2-3.2c-3.2-5.2-4.8-7.4-8.3-12.2c-1.2-1.6-2.5-3.4-4.2-5.8l-1.9-2.8c-0.4-0.6-0.9-1-1.3-1c-0.4,0-0.9,0.4-1.3,1
		c-1,1.6-1.9,2.8-3.3,4.7l-1.1,1.6c-4,5.8-7.8,11.2-11.7,17.3c-0.4,0.7-0.8,1.3-1.2,2C596,63,592,69.6,592,77.2
		c0,1.4,0.1,2.8,0.3,4.1c0.1,0.9,0.3,1.8,0.5,2.6c0.4,1.7,1,3.4,1.8,4.9c0.8,1.6,1.7,3.1,2.7,4.4c0.5,0.7,1.1,1.4,1.7,2
		c0.3,0.3,0.6,0.6,0.9,0.9c0.6,0.6,1.3,1.2,1.9,1.7c4.8,4,10.9,6.2,17.1,6.2c0.9,0,1.8,0,2.8-0.1c0.9-0.1,1.8-0.2,2.7-0.4
		c0.5-0.1,1.1-0.2,1.6-0.4c0.8-0.2,1.5-0.4,2.2-0.7c0.8-0.3,1.6-0.6,2.4-1c1.3-0.6,2.6-1.4,3.8-2.3c0.9-0.7,1.8-1.4,2.6-2.1
		c0.3-0.3,0.6-0.6,0.9-0.9c1.6-1.6,3.1-3.5,4.3-5.6c0.2-0.4,0.5-0.8,0.7-1.2C644.9,85.6,645.9,81.5,645.9,77.2z"/>
	<path class="st1" d="M150.7,89.3c0,0-0.1,0.1-0.1,0.1c0,0-0.3,0.3-0.3,0.3c-2.9,3.1-6.7,5.2-10.7,5.9c-0.8,0.1-1.7,0.2-2.5,0.2
		h-1.2c-0.8,0-1.7-0.1-2.6-0.2c-3.8-0.7-7.5-2.7-10.3-5.7c-3.6-3.9-5.5-9-5.1-14c0.3-3.6,1.8-6.8,3.1-9.1l0.3-0.5l0.9-1.2
		c0,0-0.1,0-0.1,0c0.2-0.4,0.5-0.8,0.7-1.2c0.4-0.7,0.8-1.2,1.1-1.8c3.4-5.6,6.9-11.2,10.2-16.4l1.6-2.5c0.2-0.3,0.5-0.4,0.8-0.4
		c0.3,0,0.6,0.2,0.8,0.4l1.6,2.5c3,4.7,6.5,10.3,9.9,15.9l0.4,0.7c3.7,6.1,7.9,13.1,4.8,21.5c-0.3,0.9-0.7,1.7-1.2,2.6
		C152.2,87.4,151.4,88.4,150.7,89.3 M163.4,77.2c0-0.6,0-1.1-0.1-1.7l0-0.3c-0.2-1.9-0.5-3.6-1-5.3c-1.7-5.4-4.8-10.5-8.2-15.8
		c-0.7-1.1-1.4-2.1-2-3.2c-3.2-5.2-4.8-7.4-8.3-12.2c-1.2-1.6-2.5-3.4-4.2-5.8l-1.9-2.8c-0.4-0.6-0.9-1-1.3-1c-0.4,0-0.9,0.4-1.3,1
		c-1,1.6-1.9,2.8-3.3,4.7l-1.1,1.6c-4,5.8-7.8,11.2-11.7,17.3c-0.4,0.7-0.8,1.3-1.2,2c-4.3,7.1-8.3,13.7-8.3,21.3
		c0,1.4,0.1,2.8,0.3,4.1c0.1,0.9,0.3,1.8,0.5,2.6c0.4,1.7,1,3.4,1.8,4.9c0.8,1.6,1.7,3.1,2.7,4.4c0.5,0.7,1.1,1.4,1.7,2
		c0.3,0.3,0.6,0.6,0.9,0.9c0.6,0.6,1.3,1.2,1.9,1.7c4.8,4,10.9,6.2,17.1,6.2c0.9,0,1.8,0,2.8-0.1c0.9-0.1,1.8-0.2,2.7-0.4
		c0.5-0.1,1.1-0.2,1.6-0.4c0.8-0.2,1.5-0.4,2.2-0.7c0.8-0.3,1.6-0.6,2.4-1c1.3-0.6,2.6-1.4,3.8-2.3c0.9-0.7,1.8-1.4,2.6-2.1
		c0.3-0.3,0.6-0.6,0.9-0.9c1.6-1.6,3.1-3.5,4.3-5.6c0.2-0.4,0.5-0.8,0.7-1.2C162.4,85.6,163.4,81.5,163.4,77.2"/>
	<path class="st2" d="M150.7,89.3c0,0-0.1,0.1-0.1,0.1c0,0-0.3,0.3-0.3,0.3c-2.9,3.1-6.7,5.2-10.7,5.9c-0.8,0.1-1.7,0.2-2.5,0.2
		h-1.2c-0.8,0-1.7-0.1-2.6-0.2c-3.8-0.7-7.5-2.7-10.3-5.7c-3.6-3.9-5.5-9-5.1-14c0.3-3.6,1.8-6.8,3.1-9.1l0.3-0.5l0.9-1.2
		c0,0-0.1,0-0.1,0c0.2-0.4,0.5-0.8,0.7-1.2c0.4-0.7,0.8-1.2,1.1-1.8c3.4-5.6,6.9-11.2,10.2-16.4l1.6-2.5c0.2-0.3,0.5-0.4,0.8-0.4
		c0.3,0,0.6,0.2,0.8,0.4l1.6,2.5c3,4.7,6.5,10.3,9.9,15.9l0.4,0.7c3.7,6.1,7.9,13.1,4.8,21.5c-0.3,0.9-0.7,1.7-1.2,2.6
		C152.2,87.4,151.4,88.4,150.7,89.3z M163.4,77.2c0-0.6,0-1.1-0.1-1.7l0-0.3c-0.2-1.9-0.5-3.6-1-5.3c-1.7-5.4-4.8-10.5-8.2-15.8
		c-0.7-1.1-1.4-2.1-2-3.2c-3.2-5.2-4.8-7.4-8.3-12.2c-1.2-1.6-2.5-3.4-4.2-5.8l-1.9-2.8c-0.4-0.6-0.9-1-1.3-1c-0.4,0-0.9,0.4-1.3,1
		c-1,1.6-1.9,2.8-3.3,4.7l-1.1,1.6c-4,5.8-7.8,11.2-11.7,17.3c-0.4,0.7-0.8,1.3-1.2,2c-4.3,7.1-8.3,13.7-8.3,21.3
		c0,1.4,0.1,2.8,0.3,4.1c0.1,0.9,0.3,1.8,0.5,2.6c0.4,1.7,1,3.4,1.8,4.9c0.8,1.6,1.7,3.1,2.7,4.4c0.5,0.7,1.1,1.4,1.7,2
		c0.3,0.3,0.6,0.6,0.9,0.9c0.6,0.6,1.3,1.2,1.9,1.7c4.8,4,10.9,6.2,17.1,6.2c0.9,0,1.8,0,2.8-0.1c0.9-0.1,1.8-0.2,2.7-0.4
		c0.5-0.1,1.1-0.2,1.6-0.4c0.8-0.2,1.5-0.4,2.2-0.7c0.8-0.3,1.6-0.6,2.4-1c1.3-0.6,2.6-1.4,3.8-2.3c0.9-0.7,1.8-1.4,2.6-2.1
		c0.3-0.3,0.6-0.6,0.9-0.9c1.6-1.6,3.1-3.5,4.3-5.6c0.2-0.4,0.5-0.8,0.7-1.2C162.4,85.6,163.4,81.5,163.4,77.2z"/>
	<path class="st1" d="M426.4,89.3c0,0-0.1,0.1-0.1,0.1c0,0-0.3,0.3-0.3,0.3c-2.9,3.1-6.7,5.2-10.7,5.9c-0.8,0.1-1.7,0.2-2.5,0.2
		h-1.2c-0.8,0-1.7-0.1-2.6-0.2c-3.8-0.7-7.5-2.7-10.3-5.7c-3.6-3.9-5.5-9-5.1-14c0.3-3.6,1.8-6.8,3.1-9.1l0.3-0.5l0.9-1.2
		c0,0-0.1,0-0.1,0c0.2-0.4,0.5-0.8,0.7-1.2c0.4-0.7,0.8-1.2,1.1-1.8c3.4-5.6,6.9-11.2,10.2-16.4l1.6-2.5c0.2-0.3,0.5-0.4,0.8-0.4
		c0.3,0,0.6,0.2,0.8,0.4l1.6,2.5c3,4.7,6.5,10.3,9.9,15.9l0.4,0.7c3.7,6.1,7.9,13.1,4.8,21.5c-0.3,0.9-0.7,1.7-1.2,2.6
		C427.8,87.4,427.1,88.4,426.4,89.3 M439.1,77.2c0-0.6,0-1.1-0.1-1.7l0-0.3c-0.2-1.9-0.5-3.6-1-5.3c-1.7-5.4-4.8-10.5-8.2-15.8
		c-0.7-1.1-1.4-2.1-2-3.2c-3.2-5.2-4.8-7.4-8.3-12.2c-1.2-1.6-2.5-3.4-4.2-5.8l-1.9-2.8c-0.4-0.6-0.9-1-1.3-1c-0.4,0-0.9,0.4-1.3,1
		c-1,1.6-1.9,2.8-3.3,4.7l-1.1,1.6c-4,5.8-7.8,11.2-11.7,17.3c-0.4,0.7-0.8,1.3-1.2,2c-4.3,7.1-8.3,13.7-8.3,21.3
		c0,1.4,0.1,2.8,0.3,4.1c0.1,0.9,0.3,1.8,0.5,2.6c0.4,1.7,1,3.4,1.8,4.9c0.8,1.6,1.7,3.1,2.7,4.4c0.5,0.7,1.1,1.4,1.6,2
		c0.3,0.3,0.6,0.6,0.9,0.9c0.6,0.6,1.3,1.2,1.9,1.7c4.8,4,10.9,6.2,17.1,6.2c0.9,0,1.8,0,2.8-0.1c0.9-0.1,1.8-0.2,2.7-0.4
		c0.5-0.1,1.1-0.2,1.6-0.4c0.8-0.2,1.5-0.4,2.2-0.7c0.8-0.3,1.6-0.6,2.4-1c1.3-0.6,2.6-1.4,3.8-2.3c0.9-0.7,1.8-1.4,2.6-2.1
		c0.3-0.3,0.6-0.6,0.9-0.9c1.6-1.6,3.1-3.5,4.3-5.6c0.2-0.4,0.5-0.8,0.7-1.2C438.1,85.6,439.1,81.5,439.1,77.2"/>
	<path class="st2" d="M426.4,89.3c0,0-0.1,0.1-0.1,0.1c0,0-0.3,0.3-0.3,0.3c-2.9,3.1-6.7,5.2-10.7,5.9c-0.8,0.1-1.7,0.2-2.5,0.2
		h-1.2c-0.8,0-1.7-0.1-2.6-0.2c-3.8-0.7-7.5-2.7-10.3-5.7c-3.6-3.9-5.5-9-5.1-14c0.3-3.6,1.8-6.8,3.1-9.1l0.3-0.5l0.9-1.2
		c0,0-0.1,0-0.1,0c0.2-0.4,0.5-0.8,0.7-1.2c0.4-0.7,0.8-1.2,1.1-1.8c3.4-5.6,6.9-11.2,10.2-16.4l1.6-2.5c0.2-0.3,0.5-0.4,0.8-0.4
		c0.3,0,0.6,0.2,0.8,0.4l1.6,2.5c3,4.7,6.5,10.3,9.9,15.9l0.4,0.7c3.7,6.1,7.9,13.1,4.8,21.5c-0.3,0.9-0.7,1.7-1.2,2.6
		C427.8,87.4,427.1,88.4,426.4,89.3z M439.1,77.2c0-0.6,0-1.1-0.1-1.7l0-0.3c-0.2-1.9-0.5-3.6-1-5.3c-1.7-5.4-4.8-10.5-8.2-15.8
		c-0.7-1.1-1.4-2.1-2-3.2c-3.2-5.2-4.8-7.4-8.3-12.2c-1.2-1.6-2.5-3.4-4.2-5.8l-1.9-2.8c-0.4-0.6-0.9-1-1.3-1c-0.4,0-0.9,0.4-1.3,1
		c-1,1.6-1.9,2.8-3.3,4.7l-1.1,1.6c-4,5.8-7.8,11.2-11.7,17.3c-0.4,0.7-0.8,1.3-1.2,2c-4.3,7.1-8.3,13.7-8.3,21.3
		c0,1.4,0.1,2.8,0.3,4.1c0.1,0.9,0.3,1.8,0.5,2.6c0.4,1.7,1,3.4,1.8,4.9c0.8,1.6,1.7,3.1,2.7,4.4c0.5,0.7,1.1,1.4,1.6,2
		c0.3,0.3,0.6,0.6,0.9,0.9c0.6,0.6,1.3,1.2,1.9,1.7c4.8,4,10.9,6.2,17.1,6.2c0.9,0,1.8,0,2.8-0.1c0.9-0.1,1.8-0.2,2.7-0.4
		c0.5-0.1,1.1-0.2,1.6-0.4c0.8-0.2,1.5-0.4,2.2-0.7c0.8-0.3,1.6-0.6,2.4-1c1.3-0.6,2.6-1.4,3.8-2.3c0.9-0.7,1.8-1.4,2.6-2.1
		c0.3-0.3,0.6-0.6,0.9-0.9c1.6-1.6,3.1-3.5,4.3-5.6c0.2-0.4,0.5-0.8,0.7-1.2C438.1,85.6,439.1,81.5,439.1,77.2z"/>
	<path class="st1" d="M288.6,89.3c0,0-0.1,0.1-0.1,0.1c0,0-0.3,0.3-0.3,0.3c-2.9,3.1-6.7,5.2-10.7,5.9c-0.8,0.1-1.7,0.2-2.5,0.2
		h-1.2c-0.8,0-1.7-0.1-2.6-0.2c-3.8-0.7-7.5-2.7-10.3-5.7c-3.6-3.9-5.5-9-5.1-14c0.3-3.6,1.8-6.8,3.1-9.1l0.3-0.5l0.9-1.2
		c0,0-0.1,0-0.1,0c0.2-0.4,0.5-0.8,0.7-1.2c0.4-0.7,0.8-1.2,1.1-1.8c3.4-5.6,6.9-11.2,10.2-16.4l1.6-2.5c0.2-0.3,0.5-0.4,0.8-0.4
		c0.3,0,0.6,0.2,0.8,0.4l1.6,2.5c3,4.7,6.5,10.3,9.9,15.9l0.4,0.7c3.7,6.1,7.9,13.1,4.8,21.5c-0.3,0.9-0.7,1.7-1.2,2.6
		C290,87.4,289.3,88.4,288.6,89.3 M301.3,77.2c0-0.6,0-1.1-0.1-1.7l0-0.3c-0.2-1.9-0.5-3.6-1-5.3c-1.7-5.4-4.8-10.5-8.2-15.8
		c-0.7-1.1-1.4-2.1-2-3.2c-3.2-5.2-4.8-7.4-8.3-12.2c-1.2-1.6-2.5-3.4-4.2-5.8l-1.9-2.8c-0.4-0.6-0.9-1-1.3-1c-0.4,0-0.9,0.4-1.3,1
		c-1,1.6-1.9,2.8-3.3,4.7l-1.1,1.6c-4,5.8-7.8,11.2-11.7,17.3c-0.4,0.7-0.8,1.3-1.2,2c-4.3,7.1-8.3,13.7-8.3,21.3
		c0,1.4,0.1,2.8,0.3,4.1c0.1,0.9,0.3,1.8,0.5,2.6c0.4,1.7,1,3.4,1.8,4.9c0.8,1.6,1.7,3.1,2.7,4.4c0.5,0.7,1.1,1.4,1.6,2
		c0.3,0.3,0.6,0.6,0.9,0.9c0.6,0.6,1.3,1.2,1.9,1.7c4.8,4,10.9,6.2,17.1,6.2c0.9,0,1.8,0,2.8-0.1c0.9-0.1,1.8-0.2,2.7-0.4
		c0.5-0.1,1.1-0.2,1.6-0.4c0.8-0.2,1.5-0.4,2.2-0.7c0.8-0.3,1.6-0.6,2.4-1c1.3-0.6,2.6-1.4,3.8-2.3c0.9-0.7,1.8-1.4,2.6-2.1
		c0.3-0.3,0.6-0.6,0.9-0.9c1.6-1.6,3.1-3.5,4.3-5.6c0.2-0.4,0.5-0.8,0.7-1.2C300.3,85.6,301.3,81.5,301.3,77.2"/>
	<path class="st2" d="M288.6,89.3c0,0-0.1,0.1-0.1,0.1c0,0-0.3,0.3-0.3,0.3c-2.9,3.1-6.7,5.2-10.7,5.9c-0.8,0.1-1.7,0.2-2.5,0.2
		h-1.2c-0.8,0-1.7-0.1-2.6-0.2c-3.8-0.7-7.5-2.7-10.3-5.7c-3.6-3.9-5.5-9-5.1-14c0.3-3.6,1.8-6.8,3.1-9.1l0.3-0.5l0.9-1.2
		c0,0-0.1,0-0.1,0c0.2-0.4,0.5-0.8,0.7-1.2c0.4-0.7,0.8-1.2,1.1-1.8c3.4-5.6,6.9-11.2,10.2-16.4l1.6-2.5c0.2-0.3,0.5-0.4,0.8-0.4
		c0.3,0,0.6,0.2,0.8,0.4l1.6,2.5c3,4.7,6.5,10.3,9.9,15.9l0.4,0.7c3.7,6.1,7.9,13.1,4.8,21.5c-0.3,0.9-0.7,1.7-1.2,2.6
		C290,87.4,289.3,88.4,288.6,89.3z M301.3,77.2c0-0.6,0-1.1-0.1-1.7l0-0.3c-0.2-1.9-0.5-3.6-1-5.3c-1.7-5.4-4.8-10.5-8.2-15.8
		c-0.7-1.1-1.4-2.1-2-3.2c-3.2-5.2-4.8-7.4-8.3-12.2c-1.2-1.6-2.5-3.4-4.2-5.8l-1.9-2.8c-0.4-0.6-0.9-1-1.3-1c-0.4,0-0.9,0.4-1.3,1
		c-1,1.6-1.9,2.8-3.3,4.7l-1.1,1.6c-4,5.8-7.8,11.2-11.7,17.3c-0.4,0.7-0.8,1.3-1.2,2c-4.3,7.1-8.3,13.7-8.3,21.3
		c0,1.4,0.1,2.8,0.3,4.1c0.1,0.9,0.3,1.8,0.5,2.6c0.4,1.7,1,3.4,1.8,4.9c0.8,1.6,1.7,3.1,2.7,4.4c0.5,0.7,1.1,1.4,1.6,2
		c0.3,0.3,0.6,0.6,0.9,0.9c0.6,0.6,1.3,1.2,1.9,1.7c4.8,4,10.9,6.2,17.1,6.2c0.9,0,1.8,0,2.8-0.1c0.9-0.1,1.8-0.2,2.7-0.4
		c0.5-0.1,1.1-0.2,1.6-0.4c0.8-0.2,1.5-0.4,2.2-0.7c0.8-0.3,1.6-0.6,2.4-1c1.3-0.6,2.6-1.4,3.8-2.3c0.9-0.7,1.8-1.4,2.6-2.1
		c0.3-0.3,0.6-0.6,0.9-0.9c1.6-1.6,3.1-3.5,4.3-5.6c0.2-0.4,0.5-0.8,0.7-1.2C300.3,85.6,301.3,81.5,301.3,77.2z"/>
	<path class="st1" d="M564.2,89.3c0,0-0.1,0.1-0.1,0.1c0,0-0.3,0.3-0.3,0.3c-2.9,3.1-6.7,5.2-10.7,5.9c-0.8,0.1-1.7,0.2-2.5,0.2
		h-1.2c-0.8,0-1.7-0.1-2.6-0.2c-3.8-0.7-7.5-2.7-10.3-5.7c-3.6-3.9-5.5-9-5.1-14c0.3-3.6,1.8-6.8,3.1-9.1l0.3-0.5l0.9-1.2
		c0,0-0.1,0-0.1,0c0.2-0.4,0.5-0.8,0.7-1.2c0.4-0.7,0.8-1.2,1.1-1.8c3.4-5.6,6.9-11.2,10.2-16.4l1.6-2.5c0.2-0.3,0.5-0.4,0.8-0.4
		c0.3,0,0.6,0.2,0.8,0.4l1.6,2.5c3,4.7,6.5,10.3,9.9,15.9l0.4,0.7c3.7,6.1,7.9,13.1,4.8,21.5c-0.3,0.9-0.7,1.7-1.2,2.6
		C565.7,87.4,565,88.4,564.2,89.3 M577,77.2c0-0.6,0-1.1-0.1-1.7l0-0.3c-0.2-1.9-0.5-3.6-1-5.3c-1.7-5.4-4.8-10.5-8.2-15.8
		c-0.7-1.1-1.4-2.1-2-3.2c-3.2-5.2-4.8-7.4-8.3-12.2c-1.2-1.6-2.5-3.4-4.2-5.8l-1.9-2.8c-0.4-0.6-0.9-1-1.3-1c-0.4,0-0.9,0.4-1.3,1
		c-1,1.6-1.9,2.8-3.3,4.7l-1.1,1.6c-4,5.8-7.8,11.2-11.7,17.3c-0.4,0.7-0.8,1.3-1.2,2c-4.3,7.1-8.3,13.7-8.3,21.3
		c0,1.4,0.1,2.8,0.3,4.1c0.1,0.9,0.3,1.8,0.5,2.6c0.4,1.7,1,3.4,1.8,4.9c0.8,1.6,1.7,3.1,2.7,4.4c0.5,0.7,1.1,1.4,1.6,2
		c0.3,0.3,0.6,0.6,0.9,0.9c0.6,0.6,1.3,1.2,1.9,1.7c4.8,4,10.9,6.2,17.1,6.2c0.9,0,1.8,0,2.8-0.1c0.9-0.1,1.8-0.2,2.7-0.4
		c0.5-0.1,1.1-0.2,1.6-0.4c0.8-0.2,1.5-0.4,2.2-0.7c0.8-0.3,1.6-0.6,2.4-1c1.3-0.6,2.6-1.4,3.8-2.3c0.9-0.7,1.8-1.4,2.6-2.1
		c0.3-0.3,0.6-0.6,0.9-0.9c1.6-1.6,3.1-3.5,4.3-5.6c0.2-0.4,0.5-0.8,0.7-1.2C576,85.6,577,81.5,577,77.2"/>
	<path class="st2" d="M564.2,89.3c0,0-0.1,0.1-0.1,0.1c0,0-0.3,0.3-0.3,0.3c-2.9,3.1-6.7,5.2-10.7,5.9c-0.8,0.1-1.7,0.2-2.5,0.2
		h-1.2c-0.8,0-1.7-0.1-2.6-0.2c-3.8-0.7-7.5-2.7-10.3-5.7c-3.6-3.9-5.5-9-5.1-14c0.3-3.6,1.8-6.8,3.1-9.1l0.3-0.5l0.9-1.2
		c0,0-0.1,0-0.1,0c0.2-0.4,0.5-0.8,0.7-1.2c0.4-0.7,0.8-1.2,1.1-1.8c3.4-5.6,6.9-11.2,10.2-16.4l1.6-2.5c0.2-0.3,0.5-0.4,0.8-0.4
		c0.3,0,0.6,0.2,0.8,0.4l1.6,2.5c3,4.7,6.5,10.3,9.9,15.9l0.4,0.7c3.7,6.1,7.9,13.1,4.8,21.5c-0.3,0.9-0.7,1.7-1.2,2.6
		C565.7,87.4,565,88.4,564.2,89.3z M577,77.2c0-0.6,0-1.1-0.1-1.7l0-0.3c-0.2-1.9-0.5-3.6-1-5.3c-1.7-5.4-4.8-10.5-8.2-15.8
		c-0.7-1.1-1.4-2.1-2-3.2c-3.2-5.2-4.8-7.4-8.3-12.2c-1.2-1.6-2.5-3.4-4.2-5.8l-1.9-2.8c-0.4-0.6-0.9-1-1.3-1c-0.4,0-0.9,0.4-1.3,1
		c-1,1.6-1.9,2.8-3.3,4.7l-1.1,1.6c-4,5.8-7.8,11.2-11.7,17.3c-0.4,0.7-0.8,1.3-1.2,2c-4.3,7.1-8.3,13.7-8.3,21.3
		c0,1.4,0.1,2.8,0.3,4.1c0.1,0.9,0.3,1.8,0.5,2.6c0.4,1.7,1,3.4,1.8,4.9c0.8,1.6,1.7,3.1,2.7,4.4c0.5,0.7,1.1,1.4,1.6,2
		c0.3,0.3,0.6,0.6,0.9,0.9c0.6,0.6,1.3,1.2,1.9,1.7c4.8,4,10.9,6.2,17.1,6.2c0.9,0,1.8,0,2.8-0.1c0.9-0.1,1.8-0.2,2.7-0.4
		c0.5-0.1,1.1-0.2,1.6-0.4c0.8-0.2,1.5-0.4,2.2-0.7c0.8-0.3,1.6-0.6,2.4-1c1.3-0.6,2.6-1.4,3.8-2.3c0.9-0.7,1.8-1.4,2.6-2.1
		c0.3-0.3,0.6-0.6,0.9-0.9c1.6-1.6,3.1-3.5,4.3-5.6c0.2-0.4,0.5-0.8,0.7-1.2C576,85.6,577,81.5,577,77.2z"/>
	<path class="st1" d="M702.1,89.3c0,0-0.1,0.1-0.1,0.1c0,0-0.3,0.3-0.3,0.3c-2.9,3.1-6.7,5.2-10.7,5.9c-0.8,0.1-1.7,0.2-2.5,0.2
		h-1.2c-0.8,0-1.7-0.1-2.6-0.2c-3.8-0.7-7.5-2.7-10.3-5.7c-3.6-3.9-5.5-9-5.1-14c0.3-3.6,1.8-6.8,3.1-9.1l0.3-0.5l0.9-1.2
		c0,0-0.1,0-0.1,0c0.2-0.4,0.5-0.8,0.7-1.2c0.4-0.7,0.8-1.2,1.1-1.8c3.4-5.6,6.9-11.2,10.2-16.4l1.6-2.5c0.2-0.3,0.5-0.4,0.8-0.4
		c0.3,0,0.6,0.2,0.8,0.4l1.6,2.5c3,4.7,6.5,10.3,9.9,15.9l0.4,0.7c3.7,6.1,7.9,13.1,4.8,21.5c-0.3,0.9-0.7,1.7-1.2,2.6
		C703.5,87.4,702.8,88.4,702.1,89.3 M714.8,77.2c0-0.6,0-1.1-0.1-1.7l0-0.3c-0.2-1.9-0.5-3.6-1-5.3c-1.7-5.4-4.8-10.5-8.2-15.8
		c-0.7-1.1-1.4-2.1-2-3.2c-3.2-5.2-4.8-7.4-8.3-12.2c-1.2-1.6-2.5-3.4-4.2-5.8l-1.9-2.8c-0.4-0.6-0.9-1-1.3-1c-0.4,0-0.9,0.4-1.3,1
		c-1,1.6-1.9,2.8-3.3,4.7l-1.1,1.6c-4,5.8-7.8,11.2-11.7,17.3c-0.4,0.7-0.8,1.3-1.2,2c-4.3,7.1-8.3,13.7-8.3,21.3
		c0,1.4,0.1,2.8,0.3,4.1c0.1,0.9,0.3,1.8,0.5,2.6c0.4,1.7,1,3.4,1.8,4.9c0.8,1.6,1.7,3.1,2.7,4.4c0.5,0.7,1.1,1.4,1.7,2
		c0.3,0.3,0.6,0.6,0.9,0.9c0.6,0.6,1.3,1.2,1.9,1.7c4.8,4,10.9,6.2,17.1,6.2c0.9,0,1.8,0,2.8-0.1c0.9-0.1,1.8-0.2,2.7-0.4
		c0.5-0.1,1.1-0.2,1.6-0.4c0.8-0.2,1.5-0.4,2.2-0.7c0.8-0.3,1.6-0.6,2.4-1c1.3-0.6,2.6-1.4,3.8-2.3c0.9-0.7,1.8-1.4,2.6-2.1
		c0.3-0.3,0.6-0.6,0.9-0.9c1.6-1.6,3.1-3.5,4.3-5.6c0.2-0.4,0.5-0.8,0.7-1.2C713.8,85.6,714.8,81.5,714.8,77.2"/>
	<path class="st2" d="M702.1,89.3c0,0-0.1,0.1-0.1,0.1c0,0-0.3,0.3-0.3,0.3c-2.9,3.1-6.7,5.2-10.7,5.9c-0.8,0.1-1.7,0.2-2.5,0.2
		h-1.2c-0.8,0-1.7-0.1-2.6-0.2c-3.8-0.7-7.5-2.7-10.3-5.7c-3.6-3.9-5.5-9-5.1-14c0.3-3.6,1.8-6.8,3.1-9.1l0.3-0.5l0.9-1.2
		c0,0-0.1,0-0.1,0c0.2-0.4,0.5-0.8,0.7-1.2c0.4-0.7,0.8-1.2,1.1-1.8c3.4-5.6,6.9-11.2,10.2-16.4l1.6-2.5c0.2-0.3,0.5-0.4,0.8-0.4
		c0.3,0,0.6,0.2,0.8,0.4l1.6,2.5c3,4.7,6.5,10.3,9.9,15.9l0.4,0.7c3.7,6.1,7.9,13.1,4.8,21.5c-0.3,0.9-0.7,1.7-1.2,2.6
		C703.5,87.4,702.8,88.4,702.1,89.3z M714.8,77.2c0-0.6,0-1.1-0.1-1.7l0-0.3c-0.2-1.9-0.5-3.6-1-5.3c-1.7-5.4-4.8-10.5-8.2-15.8
		c-0.7-1.1-1.4-2.1-2-3.2c-3.2-5.2-4.8-7.4-8.3-12.2c-1.2-1.6-2.5-3.4-4.2-5.8l-1.9-2.8c-0.4-0.6-0.9-1-1.3-1c-0.4,0-0.9,0.4-1.3,1
		c-1,1.6-1.9,2.8-3.3,4.7l-1.1,1.6c-4,5.8-7.8,11.2-11.7,17.3c-0.4,0.7-0.8,1.3-1.2,2c-4.3,7.1-8.3,13.7-8.3,21.3
		c0,1.4,0.1,2.8,0.3,4.1c0.1,0.9,0.3,1.8,0.5,2.6c0.4,1.7,1,3.4,1.8,4.9c0.8,1.6,1.7,3.1,2.7,4.4c0.5,0.7,1.1,1.4,1.7,2
		c0.3,0.3,0.6,0.6,0.9,0.9c0.6,0.6,1.3,1.2,1.9,1.7c4.8,4,10.9,6.2,17.1,6.2c0.9,0,1.8,0,2.8-0.1c0.9-0.1,1.8-0.2,2.7-0.4
		c0.5-0.1,1.1-0.2,1.6-0.4c0.8-0.2,1.5-0.4,2.2-0.7c0.8-0.3,1.6-0.6,2.4-1c1.3-0.6,2.6-1.4,3.8-2.3c0.9-0.7,1.8-1.4,2.6-2.1
		c0.3-0.3,0.6-0.6,0.9-0.9c1.6-1.6,3.1-3.5,4.3-5.6c0.2-0.4,0.5-0.8,0.7-1.2C713.8,85.6,714.8,81.5,714.8,77.2z"/>
</g>
</svg>
