<?xml version="1.0" encoding="utf-8"?>
<!-- Generator: Adobe Illustrator 24.1.2, SVG Export Plug-In . SVG Version: 6.00 Build 0)  -->
<svg version="1.1" xmlns="http://www.w3.org/2000/svg" xmlns:xlink="http://www.w3.org/1999/xlink" x="0px" y="0px"
	 viewBox="0 0 248.2 320.7" style="enable-background:new 0 0 248.2 320.7;" xml:space="preserve">
<style type="text/css">
	.st0{clip-path:url(#SVGID_2_);fill:#69C2CF;}
	.st1{clip-path:url(#SVGID_4_);fill:none;stroke:#FFFFFF;stroke-width:6;stroke-miterlimit:10;}
</style>
<g id="Layer_1">
	<g>
		<g>
			<defs>
				<rect id="SVGID_1_" x="21.2" y="23.1" width="202.3" height="278.5"/>
			</defs>
			<clipPath id="SVGID_2_">
				<use xlink:href="#SVGID_1_"  style="overflow:visible;"/>
			</clipPath>
			<path class="st0" d="M174.2,244.8c-0.1,0.1-0.2,0.3-0.4,0.4c-0.2,0.2-0.4,0.4-0.5,0.6l-0.5,0.6l-0.4,0.4
				c-10.2,11-23.9,18.5-38.7,21c-2.9,0.4-6.1,0.6-9.1,0.6h-4.4c-3.1,0-6.3-0.2-9.5-0.7c-14-2.6-27.3-10-37.4-20.8
				c-13.1-14.1-19.9-32.7-18.6-51.1c0.9-13.3,6.6-24.6,11.4-33.1c0,0,9.4-15.2,10.6-17.2c12.4-20.5,25.1-40.7,37-59.5l5.8-9.2
				c0.7-1,1.7-1.6,3-1.6c1.2,0,2.3,0.6,3,1.6l5.8,9.2c10.9,17.2,23.7,37.6,35.8,57.7l1.5,2.5c13.5,22.3,28.8,47.5,17.5,78.2
				c-1.2,3.2-2.6,6.3-4.3,9.3C179.5,237.8,176.9,241.5,174.2,244.8 M220.5,200.5c0-1.9-0.1-3.8-0.2-6c0-0.4-0.1-0.8-0.1-1.2
				l-0.1-0.8c-0.6-6.2-1.8-12.2-3.7-18.3c-6-19.7-17.6-38-29.9-57.5c-2.5-3.9-4.9-7.8-7.3-11.7c-11.8-19-17.5-26.9-30.2-44.3
				c-4.2-5.8-9.1-12.5-15.2-21l-6.9-10c-1.5-2.3-3.2-3.6-4.7-3.6s-3.3,1.4-5,3.9c-3.8,5.7-6.8,10-11.9,17.2l-4.1,5.8
				c-14.7,20.9-28.5,40.6-42.4,62.9c-1.5,2.4-3,4.8-4.4,7.2l-0.2,0.3c-15.5,25.5-30.1,49.5-30.1,77.1c0,5,0.4,10,1.1,14.9
				c0.5,3.2,1.2,6.4,2,9.6c1.6,6.2,3.8,12.2,6.6,18c2.7,5.7,6,11.1,9.8,16.2c1.9,2.5,3.9,5,6,7.3c1.1,1.2,2.1,2.3,3.3,3.4
				c2.2,2.2,4.6,4.3,7,6.3c17.5,14.5,39.7,22.4,62.4,22.4c3.3,0,6.7-0.2,10-0.5s6.5-0.8,9.7-1.5c1.8-0.4,3.6-0.8,5.8-1.4
				c2.9-0.8,5.6-1.6,8.2-2.6c3-1.1,5.9-2.3,8.8-3.7c4.7-2.3,9.4-5.1,13.9-8.2c3.4-2.4,6.6-5,9.5-7.6c1.2-1.1,2.3-2.1,3.4-3.3
				c6-6,11.2-12.8,15.6-20.3c0.9-1.5,1.7-3,2.5-4.5C216.9,231.1,220.5,216.1,220.5,200.5"/>
		</g>
		<g>
			<defs>
				<rect id="SVGID_3_" x="21.2" y="23.1" width="202.3" height="278.5"/>
			</defs>
			<clipPath id="SVGID_4_">
				<use xlink:href="#SVGID_3_"  style="overflow:visible;"/>
			</clipPath>
			<path class="st1" d="M174.2,244.8c-0.1,0.1-0.2,0.3-0.4,0.4c-0.2,0.2-0.4,0.4-0.5,0.6l-0.5,0.6l-0.4,0.4
				c-10.2,11-23.9,18.5-38.7,21c-2.9,0.4-6.1,0.6-9.1,0.6h-4.4c-3.1,0-6.3-0.2-9.5-0.7c-14-2.6-27.3-10-37.4-20.8
				c-13.1-14.1-19.9-32.7-18.6-51.1c0.9-13.3,6.6-24.6,11.4-33.1c0,0,5.7-9.3,6.6-10.8c0,0,2.8-4.4,4-6.4
				c12.4-20.5,25.1-40.7,37-59.5l5.8-9.2c0.7-1,1.7-1.6,3-1.6c1.2,0,2.3,0.6,3,1.6l5.8,9.2c10.9,17.2,23.7,37.6,35.8,57.7l1.5,2.5
				c13.5,22.3,28.8,47.5,17.5,78.2c-1.2,3.2-2.6,6.3-4.3,9.3C179.5,237.8,176.9,241.5,174.2,244.8z M220.5,200.5
				c0-1.9-0.1-3.8-0.2-6c0-0.4-0.1-0.8-0.1-1.2l-0.1-0.8c-0.6-6.2-1.8-12.2-3.7-18.3c-6-19.7-17.6-38-29.9-57.5
				c-2.5-3.9-4.9-7.8-7.3-11.7c-11.8-19-17.5-26.9-30.2-44.3c-4.2-5.8-9.1-12.5-15.2-21l-6.9-10c-1.5-2.3-3.2-3.6-4.7-3.6
				s-3.3,1.4-5,3.9c-3.8,5.7-6.8,10-11.9,17.2l-4.1,5.8c-14.7,20.9-28.5,40.6-42.4,62.9c-1.5,2.4-3,4.8-4.4,7.2l-0.2,0.3
				c-15.5,25.5-30.1,49.5-30.1,77.1c0,5,0.4,10,1.1,14.9c0.5,3.2,1.2,6.4,2,9.6c1.6,6.2,3.8,12.2,6.6,18c2.7,5.7,6,11.1,9.8,16.2
				c1.9,2.5,3.9,5,6,7.3c1.1,1.2,2.1,2.3,3.3,3.4c2.2,2.2,4.6,4.3,7,6.3c17.5,14.5,39.7,22.4,62.4,22.4c3.3,0,6.7-0.2,10-0.5
				s6.5-0.8,9.7-1.5c1.8-0.4,3.6-0.8,5.8-1.4c2.9-0.8,5.6-1.6,8.2-2.6c3-1.1,5.9-2.3,8.8-3.7c4.7-2.3,9.4-5.1,13.9-8.2
				c3.4-2.4,6.6-5,9.5-7.6c1.2-1.1,2.3-2.1,3.4-3.3c6-6,11.2-12.8,15.6-20.3c0.9-1.5,1.7-3,2.5-4.5
				C216.9,231.1,220.5,216.1,220.5,200.5z"/>
		</g>
	</g>
</g>
<g id="Layer_2">
</g>
<g id="Layer_3">
</g>
</svg>
