<?xml version="1.0" encoding="utf-8"?>
<!-- Generator: Adobe Illustrator 24.1.0, SVG Export Plug-In . SVG Version: 6.00 Build 0)  -->
<svg version="1.1" id="Layer_1" xmlns="http://www.w3.org/2000/svg" xmlns:xlink="http://www.w3.org/1999/xlink" x="0px" y="0px"
	 viewBox="0 0 300 100" style="enable-background:new 0 0 300 100;" xml:space="preserve">
<style type="text/css">
	.st0{clip-path:url(#SVGID_2_);fill:#BDD276;}
	.st1{fill:#BDD276;}
</style>
<g>
	<defs>
		<rect id="SVGID_1_" x="-1.3" y="8.3" width="300.9" height="80.5"/>
	</defs>
	<clipPath id="SVGID_2_">
		<use xlink:href="#SVGID_1_"  style="overflow:visible;"/>
	</clipPath>
	<path class="st0" d="M174.4,87.7c-15.3,0-30.7-2.3-44.6-8.5c-12-5.3-19.2-14.5-19.9-24.9c-50-6.1-71.7-16-102.1-31.2
		C7.2,23,7,22.4,7.2,21.9c0.2-0.5,0.8-0.7,1.3-0.4c30.1,15.1,51.7,24.9,101.1,30.9c0-1.8,0.2-3.5,0.6-5.3
		c3.3-15.8,21.3-31.7,53.8-31.7c13.4,0,24.1,4.6,28,11.9c2.3,4.3,1.9,9.1-1,13.5c-3.3,4.9-18.4,20.5-73.1,14.6
		c-2.1-0.2-4.2-0.5-6.2-0.7c0.9,9.5,7.6,17.8,18.7,22.8c18.1,8.1,50.8,14.4,103.3-1.3c31.5-9.4,55.5-22.4,55.8-22.6
		c0.5-0.3,1.1-0.1,1.4,0.4c0.3,0.5,0.1,1.1-0.4,1.4c-0.2,0.1-24.4,13.3-56.1,22.7C217.3,83.1,195.9,87.7,174.4,87.7z M111.7,52.6
		c2.1,0.3,4.3,0.5,6.5,0.7c27.9,3,61.3,1,71.3-13.7c2.5-3.7,2.8-7.8,0.9-11.4c-3.5-6.7-13.6-10.8-26.3-10.8
		c-31.4,0-48.7,15.1-51.9,30.1C111.9,49.2,111.7,50.9,111.7,52.6z"/>
</g>
<path class="st1" d="M271.2,55.8c-0.5,0-1-0.4-1-0.9c0-0.6,0.4-1,0.9-1.1l20.5-1.3c0.6,0,1,0.4,1.1,0.9c0,0.6-0.4,1-0.9,1.1
	L271.2,55.8C271.2,55.8,271.2,55.8,271.2,55.8z"/>
<path class="st1" d="M282.1,69.3c-0.2,0-0.4-0.1-0.5-0.2c-0.5-0.3-0.6-0.9-0.3-1.4l9.7-14.8c0.3-0.5,0.9-0.6,1.4-0.3
	c0.5,0.3,0.6,0.9,0.3,1.4l-9.7,14.8C282.7,69.1,282.4,69.3,282.1,69.3z"/>
</svg>
